<?xml version="1.0" encoding="UTF-8"?>
<svg id="Layer_1" data-name="Layer 1" xmlns="http://www.w3.org/2000/svg" viewBox="0 0 1024 1024">
  <defs>
    <style>
      .cls-1 {
        fill: #e29e41;
      }

      .cls-2 {
        fill: #fdf8f2;
      }

      .cls-3 {
        fill: #eee1d8;
      }

      .cls-4 {
        fill: #e59f3e;
      }

      .cls-5 {
        fill: #1d170e;
      }
    </style>
  </defs>
  <path class="cls-5" d="m169.05,585.98c-6.89.74-13.07,3.86-19.57,5.89-14.55,4.54-28.71,10.25-43.15,15.08-16.28,5.45-31.68,13.1-48.03,18.29-5.41,1.72-6.95.77-8.71-5.3,10.47-11.05,20.97-22.08,31.43-33.13,13.59-14.37,28.17-27.6,42.79-40.85,8.03-7.27,15.7-14.9,24.19-21.7,6.66-5.34,12.64-11.51,19.74-16.4,1.83-1.26,5.41-3.37,2.1-6.49-5.4-5.08-11.1-9.83-16.67-14.73-3.43-4.64-6.85-9.28-10.28-13.93-.1-1.56-.19-2.87-1.13-4.48-6.98-12.04-12.33-24.81-15.94-38.28-1.79-8.1-4.32-16.04-5.17-24.33-.2-.78-.46-1.55-.59-2.35-1.4-8.47-1.24-17.06-1.9-25.59,5.4-9.77,13.8-17.07,20.89-25.45-2.11,10.66-3.81,21.35-3.13,32.31.13,2.1-1.83,4.26,0,6.43.29,8.81,1.18,17.54,3.36,26.11.04.6.08,1.21.12,1.81.3,1.14.6,2.28.89,3.42-.03.21,0,.42.07.63-.19.28-.21.58-.06.89-.67,1.35.4,2.15.98,3.09,0,.35,0,.71.01,1.06.18.66.36,1.31.54,1.97-.17,4.05,1.33,7.62,3.14,11.11.33.69.67,1.37,1,2.06.1.62.21,1.24.31,1.86-.22.57-.03.93.54,1.11,1.62,4.49,2.95,9.12,6.2,12.81l.23.1c-.05,1.58-.17,3.2,1.82,3.81,3.39,4.7,4.86,10.53,8.83,14.88,1.09,3.32,3.55,5.46,6.31,7.36.74,2.49,2.9,3.62,4.81,4.99,1.46,1.21,4.42,1.22,4.57,3.15.5,6.38,4.19,1.92,5.18,1.21,5.62-4.07,11.08-8.4,16.26-13.03,10.85-9.71,22.2-18.8,33.84-27.51,9.69-7.25,19.28-14.6,29.36-21.38,9.38-6.31,18.13-13.92,27.91-19.54,13.9-7.99,26.94-17.22,40.29-25.98,9.27-6.09,18.74-11.9,28.25-17.47,14.43-8.44,28.87-16.99,44.16-23.96,3.3-1.51,6.91-2.64,9.97-4.65,12.41-8.14,26.34-13.51,38.85-21.47,2.87-1.83,6.45-2.53,9.33-4.34,10.68-6.73,22.29-11.71,33.44-17.5,13.46-6.99,27.41-13.12,41.48-19.01,15.81-6.62,31.41-13.84,47.31-20.34,3.28-1.34,7.14-1.77,9.41-5.06.51.64,1.02,1.26,1.39-.1h0c.29-.13.57-.27.84-.44,4.32-.37,7.78-2.96,11.53-4.68,9.38-4.3,19.41-6.83,28.88-11,5.57-2.45,11.71-4.87,18.18-4.99l.03.36-.1-.35,2.57-1.27c.69.03,1.42.14,1.69-.75.21-2.15,2.19-1.55,3.38-2.17,1.53.94,2.96,1.33,3.95-.71,6.09-1.14,11.56-3.91,17.11-6.47,1.51-.06,3.46,1.05,4.02-1.52,1.62-.36,3.24-.71,4.86-1.07,1.27,1.29,1.02-.64,1.62-.77,8.62-2.55,17.15-5.35,25.51-8.67.73.16,1.49.46,1.92-.51,20.81-8.45,42.41-14.61,65.18-21.66-8.12-2.99-10.54-7.49-8.42-14.67.9-3.04.47-6.57-.95-9.7.6-5.46-2.17-10.21-3.27-15.31,1.35-3.87-.9-7.06-2.19-10.31-4.93-12.52-12.2-23.72-20.03-34.58-2.03-3.39-3.88-6.85-7.66-8.81-1.75-.91-2.63-2.8-2.62-4.91,8.95-.65,17.82.45,26.72,1.03,2.11,2.93,4.21,5.85,6.32,8.78-.24.19-.5.36-.72.58-.06.06-.04.3.03.39,3.26,4.57,6.58,9.09,9.74,13.71.66.97,2.84,2.43-.16,3.48-.17.06-.3,1.73.38,1.62,5.36-.91,3.91,4,5.41,6.29,1.81,2.76.98,6.74,4,9.01-.72,3,2.73,4.83,2.44,7.3-.51,4.36,1.99.62,2.74,1.28.67,5.11,1.34,10.21,2.01,15.32-1.03,2.34.04,4.6.3,6.88.7,6.32-.08,12.65-.27,19.22,2.43-.43,4.04-1.66,5.81-2.3,6.19-2.25,12.72-2.83,19.04-4.33,13.05-3.09,26.35-5.06,39.48-7.85,6.85-1.46,13.81-2.32,20.63-3.73,12.3-2.55,24.72-4.31,37.04-6.65,8.99-1.71,18.17-2.39,27.26-3.53,6.22,2.15,7.52,8.7,11.52,12.85.58.6-.51,2.36.9,2.1.95-.17,2.68-.34,2.78-2.17.13-2.26,1.56-3.2,3.69-3.23,1.71-.02,2.99,1.04,3.49,2.41.82,2.27-1.11,3.97-2.45,5.01-7.71,5.97-15.84,11.35-24.12,16.52-11.92,7.45-24.07,14.61-35.43,22.84-9.28,6.73-19.38,12.12-28.59,18.95-9.02,6.69-18.69,12.51-27.86,19.05-7.94,5.67-16.8,10.15-24.36,16.27-9.9,8.01-20.69,14.7-30.87,22.26-12.02,8.92-24.45,17.33-36.12,26.69-6.57,5.27-14.33,9.08-19.78,15.75-1.27,1.06-2.2.98-3.09-.59-5.97-10.56-11.93-21.13-18.04-31.61-4.47-7.67-6.94-17.96-19.46-15.74,2.15,10.82,9.38,19.18,14.62,28.53,4.97,8.86,10.68,17.3,15.1,26.48-1.41,1.1-2.82,2.19-4.22,3.29-.99.21-1.72.75-2.14,1.68-2.67,1.99-5.33,3.99-8,5.98-1.58-1.4-1.4-3.6-2.4-5.28-5.66-9.57-9.69-19.93-14.4-29.96-4.59-9.77-8.65-19.79-13.09-29.63-1.33-2.95-3.78-5.51-4.64-8.55-1.12-3.93-3.37-4.73-6.92-4.63-7.05.19-14.12.43-21.15-.65-3.62-.55-4.6,1.51-2.45,3.88,5.36,5.92,2.68,15.37,9.23,20.8.12.1,1.56,1.72,1.98,2.8,1.35,3.42,1.96,7.03,3.67,10.45,1.3,2.59,2.48,5.11,3.98,7.66,2.15,3.65,2.48,8.41,4.38,12.44-.12.03-.24.07-.36.1l.37.37.12.22c.56,3.01,1.06,6.06,4.4,7.42l-.02.04c-.06.33.07.52.4.58.16.38.31.76.47,1.14-1.11,3.6,1.58,6.08,2.64,9.04.86,1.08,2.84,1.27,2.66,3.16-.47,4.69,2.24,8.54,4.5,11.87,2.17,3.2,1.95,4.81-.42,7.04-13.55,10.03-27.11,20.05-40.64,30.1-1.03.76-1.4,1.92-.85,3.1,4.05,8.62,7.46,17.51,11.28,26.22,7.94,18.13,16.57,35.96,25.14,53.8,5.75,11.96,11.67,23.85,17.93,35.55,4.79,8.97,9.26,18.11,14.49,26.87,7.9,13.23,14.96,26.96,22.6,40.35,6.66,11.67,13.62,23.15,20.45,34.72-.19.7.17.91.79.88,3.34,5.94,6.67,11.88,10.01,17.81-16.51.99-32.97-.69-49.46-.82-13.61-.11-27.2.44-40.8.85-21.72.65-43.35,2.19-64.91,4.45-15.76,1.66-31.31,5.2-47.23,5.73-4.82.16-8.67,3.94-7.66,7.48,1.36,4.79,1.88,9.69,2.74,14.54,1.83,10.3,3.64,20.61,5.39,30.92,1.54,9.06,2.93,18.14,4.49,27.19,1.42,8.28,2.94,16.55,4.5,24.81.56,2.99-1.17,6.23,1.05,9.01-1.49-.03-3.02.14-4.46-.13-10.83-1.98-21.62-4.24-32.72-3.92-8.18.23-16.45-1.77-24.53.43-28.31,7.72-52.18,22.32-70.21,45.84.03-2.57-1.55-4.64-2.16-7.01-5.39-20.85-10.85-41.68-18.26-61.94-5.87-16.04-11.49-32.18-17.28-48.25-1.88-5.21-4-5.68-7.76-2.12-2.08,1.97-2.98,5.37-5.02,6.54-7.82,4.49-13.47,11.43-20.44,16.82-10.24,7.92-18.42,17.94-27.68,26.86-12.01,11.56-23.62,23.51-34.54,36.12-.99-.35-.91-1.2-1-2.03-1.32-11.49-2.44-23.02-4.06-34.47-2.39-16.88-2.81-33.9-4.37-50.84-.54-5.88.14-11.91-.74-17.72-1.32-8.68-.75-17.41-1.67-26.09-.72-6.81.34-13.82-.51-20.6-1.53-12.13-1.09-24.39-.96-36.42.13-11.74-1.04-23.55.26-35.32.54-4.88-.62-5.36-5.48-3.96-7.54,2.17-15.11,4.22-22.66,6.32-.6.05-1.2.1-1.8.15-2.38,1.47-3.07.65-3.04-1.95.06-6.96.46-13.97-.22-20.86-1.5-15.12.4-30.34-1.75-45.42.26-.94.53-1.88.79-2.82,0-2.37-.01-4.75-.02-7.12-.21-.63,1.07-1.83-.72-1.84-2.1-.47-2.86,1.37-4.02,2.43-2.88,2.64-5.4,5.75-8.55,7.98-5.38,3.8-7.11,7.41-5.44,13.52-.73.44-.85,1.11-.67,1.87-.05,2.35-.1,4.71-.15,7.06,0,.34,0,.69,0,1.03-1.31,13.26-.58,26.52-.16,39.8.18,5.64,3.14,12.08-2.32,17.1-6.88-.18-12.79,2.96-18.88,5.5-.6-.14-1.2-.29-1.8-.43-.55-16.07.61-32.11.75-48.17.03-3.41.19-6.82-.14-10.28-.31-3.3-1.9-2.12-2.87-1.36-5.25,4.13-10.76,8.2-8.91,16.32.31,1.38-.12,2.92-.19,4.39-.45,9.31-.58,18.65-1.47,27.92-.52,5.43,1.46,10.6.7,15.95l-1.77,1.26c-4.17-.96-7.44,1.68-11.02,2.9-9.73,3.32-19.8,5.68-29.12,10.16-1.06-.55-1.6.02-1.98.92Zm403.94-30.09l.08.08c.23,1.04,1.2.85,1.89,1.13,4.28,4.09,10.09,5.88,14.12,10.34.69-.48,1.38-.96,2.07-1.43-9.08-20-20.41-38.94-29.98-58.7-9.45-19.51-17.97-39.54-30.24-58.2-1.13,2.05-.88,3.09-.46,4.25,6.76,18.44,9.54,37.22,5.5,56.77-1.22,5.88-7.09,12.09-12.96,11.74-10.9-.65-18.31-7.92-26.01-14.45-3.87-3.28-7.54-6.81-11.3-10.22-.29-.54-.8-1.22-1.31-.81-.69.56-.35,1.36.33,1.9-.34.56-.38,1.05-.26,1.78,2.64,15.33,4.99,30.68,5.64,46.26.15,3.58-.83,7.28.08,10.64,1.55,5.77.21,10.98-2.05,16.03-1.38,3.08-4.2,5.59-7.79,4.52-5.49-1.64-10.73-4.11-15.26-7.8-10.94-8.91-18.61-20.62-27.06-31.65-3.91-5.11-7.5-10.46-11.79-16.48-.18,2.84-.15,4.64-.43,6.4-1.24,7.62-.36,15.58-3.74,22.85-2.49,5.35-6.26,6.68-11.05,3.6-6.82-4.38-11.84-10.65-16.4-17.13-3.03-4.3-7.98-6.89-10.08-11.92-.15-.37-1.24-.66-1.74-.5-.7.22-.81,1.08-.26,1.61,4.4,4.28,2.7,10.33,4.32,15.46,7.31,23.06,11.45,46.93,16.03,70.66.37,1.92.48,3.51,3.01,3.71,2.64.21,2.21-1.94,2.66-3.2,2.15-6.08,4.49-11.99,8.7-17.08,2.31-2.79,4.55-3.34,7.69-1.75,6.26,3.16,11.03,8.05,14.94,13.64,9.82,14.05,15.98,30.11,24.13,45.08,3.03,5.58,4.76,11.9,9.44,16.82-.05-6.54,2.95-12.05,4.73-17.89.48-1.58,1.7-3.6,3.09-1.55,1.85,2.74,4.53,4.62,6.22,7.58,5.09,8.92,10.25,17.85,17.15,25.68,2.11-3.66.65-7.17-.04-10.57-2.09-10.27-2.48-20.47.63-30.6,1.26-4.1,3.67-4.76,7.39-2.7,2.21,1.22,3.16,3.91,5.03,4.84,7.09,3.53,10.79,9.62,13.9,16.38,1.09,2.38,2.41,4.67,3.84,6.86,1.11,1.7,3.12,1.49,4.85,1.47.67,0,1.82-.37,1.58-1.51-1.16-5.42-1.99-10.95-3.7-16.19-2.33-7.14-1.36-14.61-2.9-21.79-.08-.37.65-.87.63-1.29-.11-2.24,1.01-1.81,2.62-1.65,6.17.61,10.33,5.55,16.05,7.18,1.93.55,3.49,2.96,5.69.83,1.94-1.87,0-3.83-.51-5.43-6.41-20.47-14.59-40.45-17.13-61.95-.74-6.29-2.6-12.69-.39-19.06,1.13-3.26,2.64-5.71,7.04-4.52,8.35,2.25,15.26,7.29,22.83,11.07.32.3.64.6.97.89Zm-43.99-210.85c-.33.67-.66,1.35-.99,2.02-2.05-1.11-3.34-3.11-6.07-3.55-9.12-1.47-14.54,4.76-18.79,10.4-6.29,8.35-12.25,17.09-15.97,27.31-3.35,9.2-4.94,18.31-4.09,27.81.95,10.6,8.75,17.47,16.95,14.66,7.65-2.62,14.65-6.82,15.94-16.1.18-1.31,1.16-1.36,1.84-1.97,5.68-5.12,8.83-11.45,9.23-19.35.63-.06,1.66-.38,2.6-.21,9.24,1.69,16.08-2.31,21.95-8.93,1.99-2.24,2.66-5.92,4.62-7.24,5.39-3.64,6.68-9.79,9.73-14.6,6.07-9.59,9.35-20.38,6.52-32.37-.9-3.8-.32-7.06-5.18-8.53-3.76-1.13-7.37-1.21-10.4.44-12.66,6.86-20.76,18.11-27.87,30.2Zm78.74,111.4c1.18-6.64-.69-12.77-1.87-18.89-2.06-10.73-5.34-21.05-10.68-30.76-3.2-5.8-12.64-5.26-15.51-.62-3,4.84-6.01,9.67-7.8,15.18-2.44,7.57-2.82,15.2-.85,22.82,2.59,10.03,4.98,20.21,12.75,27.94,5.24,5.21,16.11,6.34,19.81-.13,2.81-4.91,5.92-9.7,4.15-15.55Zm-247.06-29c-2.82-3.25-5.39-6.52-8.29-9.47-3.23-3.28-7.93-2.83-11.48-2.03-3.67.82-2.73,5.41-2.93,8.71-.45,7.76,3.38,13.75,8.25,18.99,5.48,5.9,11.81,10.6,20.75,8.04,1.55-.44,1.72.94,2.4,1.79,4.07,5.1,8.62,9.76,14.92,11.97,3.65,1.28,7.98,2.52,11.01-.78,2.96-3.23,1.63-7.42.46-11.25-3.04-9.92-8.36-18.59-14.69-26.71-5.85-7.5-13.86-7.63-20.4.74Zm79.39,27.83c1.66.55,1.74,2.24,2.36,3.47,3.26,6.49,8.84,10.17,15.34,12.7,2.6,1.01,5.49,1.06,7.57-.7,1.54-1.3,1.16-4.05.36-5.68-5.72-11.59-10.49-23.75-19-33.76-4.39-5.17-8.82-4.59-11.56,1.36-.96,2.08-1.39,3.66-4.71,3.1-3.87-.65-6.82,1.69-7.45,6.08-2.15,14.92-.95,29.48,4.24,43.72,1.32,3.61,4.27,4.23,6.97,3.75,2.71-.48,5.25-1.88,5.52-5.84.63-9.38-.01-18.75.36-28.2Zm-63.98,99.07c.04-3.89-1.01-7.59-2.13-11.19-3.83-12.33-6.68-25.18-18.59-33.12-4.48-2.99-9.87-1.98-13.94,1.26-4.03,3.21-1.78,6.4-1.51,9.34,1.48,16.04,8.32,29.72,19.11,41.59,3.18,3.5,7.55,4.27,10.99,2.79,3.89-1.68,6.23-5.86,6.07-10.66Z"/>
  <path class="cls-4" d="m690.78,368.29c2.38-2.23,2.6-3.84.43-7.04-2.26-3.33-4.97-7.18-4.5-11.87.19-1.89-1.8-2.08-2.66-3.16,2.21-3.92-1.1-6.22-2.64-9.05-.16-.38-.31-.76-.47-1.14.13-.21.26-.43.39-.64-.27.02-.53.04-.8.06,0,0,.02-.04.02-.04.2-3.47-1.64-5.72-4.41-7.42,0,0-.12-.22-.12-.22,0,0-.01-.47-.01-.47-1.9-4.03-2.23-8.8-4.38-12.44-1.5-2.54-2.68-5.06-3.98-7.66-1.71-3.42-2.32-7.03-3.67-10.45-.43-1.08-1.86-2.7-1.98-2.8-6.56-5.43-3.87-14.89-9.23-20.8-2.15-2.37-1.17-4.43,2.45-3.88,7.03,1.07,14.09.84,21.15.65,3.56-.1,5.81.7,6.92,4.63.86,3.04,3.31,5.59,4.64,8.55,4.44,9.84,8.5,19.86,13.09,29.63,4.71,10.03,8.74,20.39,14.4,29.96.99,1.68.82,3.88,2.4,5.28,2.88,5.27,5.89,10.47,8.07,16.09-1.43,1.35-.45,1.72.81,1.98,1.6,2.06,3.17,4.14,3.29,6.91-.05,1.48-.11,2.98,1.99,3.08,5.24,11.05,10.95,21.89,16.55,32.74,12.04,23.32,23.85,46.74,35.41,70.3-.09,1.75.26,3.28,2.12,3.99,1.3,2.66,2.59,5.32,3.89,7.97.03,1.27-.21,2.68,1.61,2.99,4.53,8.14,8.61,16.49,12.35,25.01-1.47,1.44-.38,1.75.88,1.98,6.79,13.14,13.5,26.31,19.11,40.01-1.44,1.24-.56,1.68.69,1.98,4.43,6.96,6.99,14.8,10.35,22.25,10.08,22.38,20.13,44.78,29.71,67.38,6.66,15.71,13.41,31.38,20.25,47.01,4.16,9.5,4.01,9.56,13.45,6.35.15-.05.33-.03.5-.05.35-.23.69-.47,1.04-.7.42-.43.84-.86,1.26-1.3.25-.24.5-.47.75-.71,3.34.53,4.72-3.72,8.02-3.29,1.75,1.56,1.81.15,1.96-1.11,2.21-.87,2.95-3.85,5.75-3.94,2.18-.07,1.6-1.58,1.28-2.87l-.87-1.03c-.08-.32-.16-.64-.25-.97,1.78-1.62,1.33-2.59-.89-3.05-.34-.65-.67-1.29-1.01-1.94-.32-2.36.1-5.09-3.01-6.07-4.18-3.82-5.82-9.09-7.97-14.06-.28-.3-.55-.61-.83-.91-2.05-4.01-4.11-8.01-6.16-12.02,0-.36-.02-.71-.03-1.07-1.3-3.49-4.61-5.96-5.05-9.9,1.58-1.34.63-1.76-.74-2.03-.04-1.69-1.39-2.64-2.23-3.87.06-1.24-.43-2.03-1.75-2.13l-1.29-4.77c.06-3.42-.18-6.69-3.98-8.25-.36-1.17-.72-2.34-1.08-3.51.16-1.14.05-2.14-1.31-2.46-2.86-2.88-3.54-6.77-4.78-10.39.18-1.49.71-3.13-1.52-3.61-1-1.71-2.91-2.82-3.26-4.96,0-1.37.18-2.84-1.8-3.04-1.2-2.08-.9-4.54-2.14-6.75-3.47-6.16-6.93-12.36-9.06-19.17.01-1.37.22-2.85-1.77-3.07-.77-1.58-1.53-3.16-2.3-4.75.09-.87.08-1.7-.8-2.21-7.08-13.53-14.16-27.06-21.25-40.58.17-1.25-.08-2.24-1.55-2.45l-.3-.98c.1-2.17-.39-3.89-3.02-4h.01c0-.35,0-.71,0-1.06-2.29-6.07-6.86-10.95-8.98-17.11.03-1.43-.06-2.78-1.99-2.84h0c-.22-1.51.71-3.53-1.81-3.99-.42-.94-.84-1.88-1.26-2.82.12-1.91-.18-3.42-2.69-2.84l-.3-1.31c1.56-1.35.6-1.76-.76-2.02-1.13-1.76-2.02-3.73-4.15-4.59l.05-.03c.51-4.17-3.34-6.6-4.12-10.25.03-1.39.26-2.89-1.76-3.12-.11-.53-.22-1.06-.33-1.59.1-1.47.51-3.09-1.7-3.41-.72-1.05-1.44-2.09-2.15-3.14.03-1.45-.06-2.82-2.02-2.86h0c-.21-1.47.75-3.43-1.65-4.01-3.99-3.95-6.08-9.02-8.33-14.01l-.77-.96-.23-1.02c-.14-.3-.29-.59-.43-.89-1.07-3.03-2.03-6.13-4.56-8.37-.18-1.44.62-3.34-1.76-3.75-.42-.65-.84-1.3-1.26-1.94.03-1.42.14-2.87-1.84-3.1-2.71-4.68-5.42-9.37-8.14-14.05,0-1.3.13-2.69-1.72-2.9-1.42-2.69-2.84-5.38-4.26-8.07-.41-1.91-.78-3.85-3.35-3.91.53-2.29-1.91-2.55-2.7-3.94.01-.34.03-.69.04-1.03.18-.81.31-1.58-.28-2.34-4.2-5.41-6.9-11.64-9.69-17.82-.03-1.35.01-2.74-1.87-2.88-1.07-2.28-2.15-4.56-3.22-6.84.07-1.34-.53-2.09-1.9-2.18l-.02-.03c-.02-1.37.06-2.81-1.89-2.96-.3-.34-.6-.68-.9-1.02-4.42-9.18-10.13-17.62-15.1-26.48-5.24-9.35-12.47-17.71-14.62-28.53,12.52-2.22,14.98,8.07,19.46,15.74,6.11,10.48,12.07,21.05,18.04,31.61.89,1.57,1.82,1.65,3.09.59,2.24,4.07,6.13,7.18,6.94,12.07-2.04,2.49-.52,2.96,1.71,3.02,4.24,7.27,8.39,14.59,12.77,21.78,2.56,4.21,4.1,8.78,5.47,13.44.11,1.59.93,2.53,2.52,2.78,5.17,9.66,12.23,18.3,15.6,28.93-1.66,1.47-.52,1.81.83,2.07,0,0,.01.05.01.05.07,1.14.61,1.84,1.8,1.93.42.97.84,1.94,1.27,2.91-.09,1.88.28,3.33,2.69,2.8.45.7.89,1.4,1.34,2.1.16,1.54-.88,3.55,1.62,4.19.37.68.3,1.64,1.28,1.91.33.36.65.72.98,1.08,1.05,1.76,2.42,3.39,2.18,5.65-.13,1.59-.34,3.24,2.02,3.3,4.32,7.36,8.41,14.87,13.06,22.01,2.68,4.12,3.94,8.66,5.62,13.11-1.31,1.68.01,1.76,1.18,1.93,3.9,3.1,5.24,7.66,6.89,12.05-1.38,1.93.2,1.74,1.34,1.86,1.56,1.02.29,3.22,1.79,4.27.25.26.49.52.74.78,6.01,9.67,11.42,19.66,16.26,29.96-.03,1.43-.15,2.92,1.9,3.06,1.11,2.97,3.83,5.41,3.03,9.02-2.15,3.77,1.23,3.27,3.06,3.97,1.95,3.35,3.89,6.71,5.84,10.06.41.64.83,1.27,1.24,1.91-.37,1.86.98,2.87,2,4.03-.13.84-.17,1.65.83,2.03.04.95.07,1.9.11,2.85,0,.39-.02.78-.03,1.17,2.34,3.65,4.67,7.29,7.01,10.94-1.27.8-1.05,1.45.2,2,2.03,3.68,4.06,7.36,6.09,11.05-.2.61,0,.94.67.89.29.24.57.47.86.71-.78.55-1.05,1.04.14,1.39-.35,4.89,3.19,8.31,4.95,12.34,5.6,12.89,11.88,25.48,17.75,38.25,4.28,9.31,9.65,18.03,14.35,27.1,3.15,6.08,6.25,12.19,9.4,18.27.67,1.29,1.56,2.31,2.77,3.3,5.55,4.56,5.77,6.9,1.8,12.77-.67.32-1.74-.24-2.03.93-4.49-.18-8.14,1.79-11.86,4.08-6.69,4.12-13.63,7.83-20.46,11.7-1.75.99-3.61,1.6-5.64,1.58-.23.03-.46.06-.69.09.18.3.35.6.53.9.93,5.93,4.96,6.9,10.26,8.27,8.04,2.09,16,4.75,24.13,6.61,12.11,2.78,23.95,7.02,36.65,6.83,2.94-.04,4.7,3.29,3.11,5.37-7.99,10.41-13.92,22.07-20.42,33.38-14.03,24.41-27.72,49.02-43.67,72.27-4.21,6.14-8.36,12.32-12.55,18.47-4.89,7.2-4.79,6.66-13.81,4.81-5.31-1.09-10.93-.55-16.37-2.04-14.32-3.91-29.12-5.57-43.74-7.78-12.36-1.87-25.01-2.61-37.64-2.56-12.24.05-24.49-.43-36.74-.68-2.12-1.05-2.29-3.25-2.63-5.1-.67-3.69-.93-7.46-1.4-11.2-1.23-9.72-1.73-19.52-2.73-29.26-.73-7.18-2.6-14.31-1.99-21.63,5.25-.44,10.56-.53,15.75-1.4,14.6-2.43,29.32-3.89,44-5.72,11.74-1.46,23.5-2.71,35.23-4.21,13.83-1.76,27.5-4.84,41.54-4.84.62.96,1.13,2.08,2.6,1.83,10.33-1.78,20.68-3.49,30.23-7.24-8.83-5.21-17.73-10.46-26.64-15.72.12-10.91-1.75-21.63-3.07-32.4-2.16-17.56-4.27-35.11-9.64-52.12-2.53-8-8.6-13.85-16.72-15.46-6.88-1.36-13.63-3.4-20.45-5.11-9-2.26-18.02-4.49-27.02-6.74-.37-1-.74-2-1.12-2.99,0-1.41.11-2.89-1.92-2.99-.36-1.67-.72-3.34-1.08-5.01l-.78-.98c-4.08-10.98-8.16-21.97-12.24-32.95-.21-.34-.41-.68-.62-1.02-1.66-6.2-3.81-12.22-6.34-18.11-.19-.29-.39-.58-.58-.87-1.29-6.52-4.12-12.53-6.4-18.71-7.18-19.44-14.39-38.88-21.92-58.19-5.75-14.76-11.53-29.51-17.57-44.17-5.7-13.84-11.22-27.81-16.88-41.69-7.25-17.82-15.2-35.35-22.85-53.01Z"/>
  <path class="cls-4" d="m245.75,560.9c5.46-5.02,2.51-11.46,2.33-17.1-.42-13.28-1.16-26.53.16-39.8.65-.08,1.6-.16,1.48-.9-.19-1.16-.96-.14-1.48-.13.05-2.35.1-4.71.15-7.06.22-.62.45-1.25.67-1.87-1.67-6.11.06-9.72,5.44-13.52,3.15-2.23,5.67-5.34,8.55-7.98,1.16-1.06,1.92-2.89,4.02-2.43.24.61.48,1.23.72,1.84,0,2.37.01,4.75.02,7.12-.94.75-.73,1.82-.79,2.82,2.15,15.07.25,30.3,1.75,45.42.69,6.9.28,13.91.22,20.86-.02,2.6.66,3.42,3.04,1.95.17.56.35,1.12.52,1.69.8,9.64-.29,19.24-.41,28.87-.3,24.17-.9,48.32-2.97,72.43-.77,8.98-.27,18-.83,27.04-.92,14.84-1.66,29.72-2.17,44.58-.72,20.87-2.02,41.7-3.38,62.53-.25,3.77-.14,7.6-.61,11.39-1.14,9.24-2.44,18.47-3.04,27.75-.71,10.88-2.76,21.75-2.5,32.53.19,7.89-2.66,11.53-8.65,15.61-9.67,6.58-18.05,14.94-26.26,23.32-2.25,2.29-6.78,4.72-5.7,7.4,1.1,2.75,6.13,2,9.47,2.68,9.18,1.88,18.64,1.26,27.87,3.66,4.27,1.11,8.4,2.65,12.65,3.79,2.18.59,4.19,1.02,6.1-.56,4.57,1.83,8.59-.43,12.69-1.8,22.7-7.57,45.08-16,67.18-25.17,2.35,3.7,5.12,7.1,7.12,11.06,4.58,9.06,9.79,17.8,14.12,26.97,2.34,4.96,6.09,9.33,6.79,15.03-5.19-4.62-9.91-.43-14.41,1.21-12.84,4.68-25.53,9.8-38.16,15.04-9.57,3.97-18.93,8.44-28.44,12.55-3.03,1.31-5.98,3.15-8.31,5.04-3.18,2.58-4.51,1.87-6.86-.45-2.55-2.52-5.84-3.64-9.27-4.94-10.16-3.84-20.34-7.71-30.09-12.65-7.17-3.63-14.86-6.21-22.23-9.47-10.85-4.8-21.73-9.55-32.38-14.76-10.45-5.11-20.6-10.86-30.98-16.13-1.83-.93-2.23-3.39-4.51-3.55-.26-.56-.66-.85-1.3-.67-2.97-.8-5.06-3.3-8.42-3.74-2.3-.3-4.17-3.07-4.33-5.49-.14-2.09,1.57-3.62,3.85-4.71,13.39-6.43,25.34-15.26,37.78-23.29.35-.24.7-.47,1.05-.71,6.02-3.22,12.06-6.41,18.05-9.69,1.18-.65,1.98-1.71,1.99-3.22.08-8.62,3.73-16.83,2.98-25.57-.11-1.24.47-2.54.73-3.81.18-.64-.07-.95-.72-.96.05-4.01,1.4-7.92.91-11.97,1.9-1.62,1.14-3.2-.07-4.78-.13-2.46-1.13-4.93.07-7.38,1.92-1.4,1.36-2.28-.6-2.88-.32-.33-.63-.66-.95-.99.23-.34.45-.68.68-1.01,1.24-.19,2.47-.39,1.02-1.97-.03-.98-.06-1.96-.09-2.94,0-1.11.24-2.3-.93-3.07.11-.91.17-1.83,1.02-2.42.54-.94,1.48-1.91-.23-2.65-.04-.63-.08-1.26-.12-1.89.04-1.35.07-2.7.11-4.05.09-1.7,1.59-3.14.97-4.98,0-.34.01-.68.02-1.02.12-.81.25-1.62-.78-1.97.06-.7.11-1.39.17-2.09,2.34-4.51,2.59-9.16.85-13.92-.02-.66-.05-1.33-.07-1.99,0-1.2.02-2.39.02-3.59,1.2-3.13-.77-6.29.1-9.42,2.99-3-2.23-5.22-.78-8.07,1.98-.25,1.62-1.75,1.63-3.05-.58-1.95-2.15-3.58-1.93-5.79.66-.07,1.1-.34,1.01-1.11-.06-.98-.12-1.96-.17-2.93,2.03-1.33.61-2.74.1-4.14.36-1.01.71-2.01,1.07-3.02-.03-1.34.04-2.75-1.85-2.9,0-1.33-.01-2.67-.02-4,2.66-1.91,2.94-3.26,1.03-5,.48-1.46-.08-2.76-.61-4.06.38-.68-.01-.86-.6-.92,1.15-2.21.69-4.7,1.24-7.02.63-.1,1.36-.2,1.37-.99,0-.8-.72-.9-1.35-1.01-.08-.35-.15-.7-.23-1.05,0-.3,0-.6,0-.89,0-.37,0-.75,0-1.12,0-.29,0-.57,0-.86.09-.36.18-.72.27-1.08,3.17-1.33,1.1-4.08,1.66-6.11.01-.62.02-1.24.04-1.85-.64-2,1.55-4.84-1.81-6.02-.33-1.79-.47-3.55.96-5,.64-.09,1.42-.16,1.43-.98.01-.83-.76-.91-1.4-1.01-.06-.67-.12-1.33-.18-2,1.2-.36.92-1.18.63-2.01.13-1,.27-2,.4-3,2.14-1.75-.33-3.42-.09-5.13,0-1.26.02-2.52.03-3.78.62-3.67,1.7-7.31.5-11.06,0,0,0,0,0,0,.43-1.57,1.25-3.16,1.2-4.72-.09-3.13,2.08-6.71-1.49-9.3,1.39-4.6-.41-9.42.99-14.02.27-.34.55-.67.82-1.01-.34-1.29-.68-2.59-1.02-3.88.01-.35.03-.71.04-1.06.3-1.1.02-2.02-.89-2.73.61-.65,1.19-1.3.89-2.3l-.02-1.99c.67-1.3,3.46-2.47.24-4-.07-1.02-.14-2.05-.2-3.07,0-.28,0-.57.01-.85,0,0,.05-.04.05-.04,1.96-.42,2.52-1.33,1.06-2.97-.05-1.01-.1-2.02-.16-3.03-.02-1.41-.04-2.81-.05-4.22-.07-.24-.1-.49-.09-.75,2.06-1.82.85-4.19,1.06-6.32.76-5.35-1.22-10.52-.7-15.95.88-9.27,1.02-18.61,1.47-27.92.07-1.47.5-3.02.19-4.39-1.85-8.12,3.66-12.18,8.91-16.32.96-.76,2.55-1.94,2.87,1.36.33,3.47.17,6.87.14,10.28-.14,16.06-1.3,32.1-.75,48.17.02.73.04,1.46.05,2.19-.33,5.39.58,10.72.42,16.16-.35,12.31-1.76,24.64-.57,36.98v.28c-1.35,4.15.25,8.3-.04,12.45-.88.63-.83,1.53-.72,2.44-1.22,2.83.89,5.42.28,8.52-1.2,6.18-1.58,12.65-1.35,18.97.45,12.05-.77,24.01-1.1,36.01-1,.64-1.04,1.3-.03,1.98.01,1.01.02,2.03.03,3.04.03,1.38.05,2.77.08,4.15,1.71,1.88-.14,3.73-.12,5.61.14,14.03-.32,28.08.33,42.08.13,2.9-2.21,6.39.79,9.1.05.37.25.62.61.74-2.29,4.56-1.75,9.46-1.7,14.31,0,.31,0,.63,0,.94h-.01c-1.29.23-2.51.49-.94,2.04.22,1.01.92,1.71.54,3.1-.87,3.17-1.38,6.52-.51,9.86-1.57,1.7-1.59,3.39.04,5.06-.39,3.74-.78,7.48-1.17,11.21.02.21.03.41.03.62-.04,1.37-.08,2.75-.12,4.12-1.04.09-2.24.34-2.24,1.5,0,1.16,1.2,1.41,2.24,1.5-.28,1.66-.55,3.32-.83,4.98.16,1.62-.66,3.73,2.06,4.04-.1.66-.2,1.32-.3,1.98-1.32.26-2.27.67-.76,2,.31.37.62.75.93,1.12.42,1.95.85,3.91,1.27,5.86-.01.67-.03,1.34-.04,2.01.95,1.98,1.32,3.98.39,6.1-.77,1.74.29,1.99,1.66,1.92,3.5-.17,9.25-5.49,9.79-9.06,0-.31,0-.62,0-.93.06-1.01.12-2.02.18-3.03.48-.34.97-.69,1.45-1.03-.46-.38-.93-.76-1.39-1.14-.69-3.51.7-6.85.84-10.29v-.24c.03-1.76.06-3.53.1-5.29,3.07-1.95,2.06-4.44.93-6.95.02-1.68.04-3.36.06-5.05,2.9-1.98,2.88-3.98.03-6,0-.33,0-.67,0-1,3.3-2.35,1.94-5.18.82-7.98.05-2.34.1-4.68.15-7.01,3.4-3.12,2.06-6.58.71-10.04.13-1.03.27-2.06.4-3.08.99-1.03.92-1.98-.23-2.85.06-4.67.12-9.35.18-14.02,2.83-1.36,2.19-3.15.62-5.06.12-4.31.24-8.63.35-12.94.64-.1,1.39-.2,1.37-1.02-.02-.81-.77-.89-1.41-.98.67-13.66,1.33-27.33,2-40.99,2.63-1.33,2.63-2.67,0-4,.35-2.67.69-5.33,1.04-8,.77-.15,1.54-.33,1.64-1.3.13-1.24-.71-1.55-1.7-1.7-.09-2.14.04-4.23.31-6.38.96-7.83,1-15.73.74-23.62,2.62-.91,2.18-2.37.74-4.03.08-2.32.16-4.65.24-6.97,2.94-2.33,2.92-4.66.01-7,1.5-7.62.61-15.33.99-23,.99-.16,1.81-.49,1.67-1.72-.11-.97-.89-1.14-1.66-1.28,1.45-6.27.5-12.68,1.06-19,2.56-.95,2.12-2.4.68-4.03.66-3.71-1.57-7.24-.68-10.97,1.38-.29,2.23-.76.67-2.03.07-1.68.14-3.35.21-5.03,1.16-1.77,1.71-3.34-1.2-3.83l-.24-.2Zm-32.52,296.29c-.14.04-.31.06-.42.14-.04.03.06.24.09.37.14-.04.31-.06.42-.14.04-.03-.06-.24-.09-.36Z"/>
  <path class="cls-3" d="m448.17,804.1c18.03-23.51,41.9-38.12,70.21-45.84,8.08-2.2,16.35-.2,24.53-.43,11.1-.31,21.89,1.94,32.72,3.92,1.45.27,2.97.1,4.46.13,2.85,1.33,5.4,3.58,8.9,2.91.88.39,1.72.88,2.63,1.14,8.38,2.43,17.01,4.03,25.16,7.27,2.11,1.59,4.23,3.18,6.34,4.76.26.31.51.62.77.94l.06.15c.77,2.85,3.87,3.82,5.09,6.3,1.06,1.26,2.15,2.49,3.18,3.77,9.87,12.22,16.24,26.21,20.74,41.13-.29,1.08-.45,2.16.12,3.21-.06,3.42-.42,6.85.84,10.19,1.3,3.46.72,7.35.06,10.52-1.16,5.64-.26,11.27-1.66,17.01-2.12,8.67-2.37,16.93-12.3,21.67-10.77,5.14-20.53,12.38-30.8,18.59-4.26,2.58-8.28,6.21-12.51,7.89-5.24,2.08-9.59,5.31-14.05,8.16-7.28,4.65-13.84,10.23-22.45,12.67-4.97,1.4-4.87,1.43-11.26,2.1-3.67.39-7.49.46-10.92,1.19-3.66.77-7.92-.07-10.77,1.64-5.79,3.48-12.37-1.27-17.75,2.68-2.99-2.7-6.29,1.91-9.29-.4-2.88-.96-5.7-1.73-6.99,2.25-.73.16-1.27-.1-1.6-.77-1.36-1.44-3.29-.5-4.64-1-4.58-1.69-2.55,1.1-2.21,2.84-4.61.47-9.56-2.79-13.85,1.24-5.83-3.61-11.39-7.56-16.55-12.1-4.07-3.58-8.63-6.47-13.44-8.95-2.11-3.63-4.23-7.25-6.34-10.88-7.36-12.68-14.9-25.22-14.69-40.72.17-12.49,1.14-24.76,6.22-36.37,1.74-1.18.47-3.53,1.89-4.83,5.81-8.89,11.22-17.99,14.97-27.98,3.62-.38,3.47-4,5.18-6.02Zm62.86,129.77c4.65.62,9.76-.13,14.75-1.03,11.04-1.99,22.16-3.77,32.48-8.62,13.23-6.22,24.29-15.19,34.44-25.63,8.39-8.64,14.88-18.36,20.42-28.97,5.64-10.79,9-22.03,8.94-34.19-.05-9.94-5.99-14.65-13.61-10.62-10.12,5.36-20.13,10.89-30.43,15.96-11.32,5.58-22.81,10.76-34.2,16.17-2.7,1.28-3.64.8-5.2-1.78-5.86-9.73-9.59-20.45-14.62-30.55-6.27-12.59-14.68-24.13-18.74-37.83-.36-1.23-.72-3.37-2.77-2.34-1.55.77-3.06,2.66-2,4.33,2.97,4.68,2.61,9.99,3.47,15.06,1.77,10.44,3.72,20.87,4.94,31.38,1.24,10.65,4.14,21.04,4.47,31.87.09,3.07-.3,4.6-2.64,5.59-13.55,5.72-26.76,12.14-39.96,18.63-2.94,1.44-5.34,3.9-8.56,4.65-5.62,1.31-10.09,5.08-15.41,7.05-1.92.71-3.16,3.96-2.38,4.98,4.37,5.69,9.8,9.94,16.29,13.07,15.78,7.6,31.96,13.46,50.32,12.84Z"/>
  <path class="cls-4" d="m135.92,390.99c-1.83-2.17.13-4.33,0-6.43-.68-10.96,1.02-21.64,3.13-32.31,4.55-7.73,11.62-13.25,17.52-19.78,8.63-9.55,18.25-18.11,28.28-26.2.99-.8,1.59-2.1,2.38-3.16.33-.05.74,0,.97-.18,14.14-11.31,28.21-22.71,42.42-33.94,4.19-3.31,7.37-7.86,12.45-10.06,4.25-1.23,8.08-3.57,11.31-6.27,9.19-7.68,19.69-13.37,29.49-20.1,14.12-9.7,28.59-18.91,43.66-27.14,12.22-6.67,24.03-14.11,36.4-20.46,19.07-9.79,38.17-19.53,57.94-27.92,5.24-2.23,10.55-4.41,15.74-6.8,1.6-.73,2.51-1.33,2.58-3.03,8.29-3.05,16.57-6.09,24.86-9.14.78,0,1.5-.13,1.92-.9.39-1.03,1.18-1.11,2.09-.87.64.85,1.27.86,1.91,0,.38-.23.75-.45,1.13-.68,2.98.27,5.01-2.34,7.83-2.56.35-.22.69-.43,1.04-.65,4.69-1.51,9.38-3.02,14.07-4.54.37-.25.74-.49,1.11-.74,3.25-1.03,6.51-2.06,9.76-3.08.35-.23.71-.46,1.06-.69,14.57-4.39,29.07-9.07,43.74-13.09,21.25-5.82,42.79-10.52,64.54-14.08,14.81-2.42,29.65-4.76,44.62-6.01,2.7-.23,4.61-.71,4.17-3.96,6.38.58,12.63-1.82,19.03-.84.98.97,1.93.95,2.86-.07,1.3-.13,2.6-.33,3.91-.37,7.03-.23,14.08.45,21.08-.71-1.07,3.26-.69,5.14,3.28,3.29,1.03-.48,1.87-.33,2.77.11,0,.43,0,.86,0,1.29-12.58,3.34-25.59,4.86-37.98,9.01-.2-.38-.4-.77-.59-1.15-.13.44-.26.87-.38,1.31l-.06.04c-.42.04-.83.08-1.25.12-3.07-1.21-5.25,1.37-7.93,1.87-9.63,1.79-19.24,3.86-28.78,5.88-5.45,1.15-11.4,3.42-16.77,6.1-.91,0-1.77.13-2.27,1.05-4.97,1.33-9.95,2.65-14.92,3.98-.72.34-1.44.69-2.16,1.03-3.77,1.09-7.77,1.7-11.24,3.41-2.91,1.44-6.84.34-8.69,2.58-2.25,2.72-4.76,3.57-7.83,3.99-1.13.36-2.26.72-3.39,1.09-5.82,1.85-11.6,3.81-16.96,6.81-.59-.15-1.18-1.04-1.78-.01-7.63,3.04-15.25,6.08-22.88,9.12-1.22-.07-1.99.42-2.11,1.7-.65.08-1.31.16-1.96.24-1.67-.83-2.92-.16-4,1.13-.79,1.94-2.51,1.78-4.17,1.97-1.71.2-3.56.34-5.07,1.09-6.39,3.15-12.59,6.66-18.94,9.9-8.74,4.47-18.26,7.08-26.75,11.88-5.01,2.84-11,4.03-15.01,8.78-1.24,1.47-3.65,2.8-5.49,2.74-3.05-.09-5.13.2-6.64,1.73-1.97,1.99-3.89,4.66-6.94,4.62-3.81-.05-6.63,1.31-9.29,3.86-1.49,1.43-3.27,2.71-5.41,3.27-7.42,1.92-13.71,5.95-20.08,10.08-4.2,2.72-7.63,6.67-13.31,7.58-3.67.58-7.92,2.56-10.08,6.53-.56,1.04-1.47,1.2-2.4,1.55-13.07,4.86-24.26,13.2-36.27,20-6.7,3.79-12.81,8.87-19.23,13.31-4.7.02-10.71,3.39-13.05,7.31-5.78,3.23-11.23,6.99-16.77,10.53-10.77,6.89-21.17,14.15-31.14,22.11-.66-.72-.49-2.71-2.48-1.1-4.09,3.31-9.16,5.52-11.51,10.71-2.89,1.08-5.81,1.93-8.34,3.97-1.28,1.03-1.18,2.96-2.38,3.33-6.43,1.97-10.69,6.94-15.54,11.03-3.33,2.81-6.78,5.49-9.8,8.82-2.22,2.44-6.66,3.6-9.83,5.95-6.35,4.72-10.94,11.75-18.05,15.17-5.27,2.53-7.98,7.42-12.26,10.78-4.55,3.57-9.32,7.38-13.5,11.78-4.98,5.24-10.95,9.84-17.4,13.51ZM666.47,89.13c-.26.15-.51.3-.75.44.25.14.5.39.75.39.25,0,.5-.25.75-.39-.25-.15-.49-.29-.75-.44Zm4.18,2.78c-.23-.19-.45-.38-.68-.57-.09.24-.22.48-.26.73-.01.08.28.31.34.28.22-.1.4-.29.59-.45Z"/>
  <path class="cls-3" d="m317.98,257.09c6.42-4.44,12.53-9.52,19.23-13.31,12-6.8,23.2-15.14,36.27-20,.93-.34,1.84-.51,2.4-1.55,2.16-3.98,6.41-5.95,10.08-6.53,5.68-.9,9.11-4.86,13.31-7.58,6.38-4.13,12.67-8.15,20.08-10.08,2.14-.55,3.91-1.84,5.41-3.27,2.66-2.55,5.48-3.91,9.29-3.86,3.05.04,4.98-2.63,6.94-4.62,1.51-1.53,3.59-1.82,6.64-1.73,1.83.05,4.25-1.27,5.49-2.74,4.01-4.75,9.99-5.94,15.01-8.78,8.48-4.8,18-7.41,26.75-11.88,6.34-3.24,12.55-6.75,18.94-9.9,1.51-.74,3.35-.89,5.07-1.09,1.66-.19,3.38-.03,4.17-1.97,1.01-1.54,3.74,3.04,4-1.13.65-.08,1.31-.16,1.96-.24,1.5.42,2.03-.37,2.11-1.7,7.63-3.04,15.25-6.08,22.88-9.12.59.7,1.18,1.49,1.78.01,5.36-3,11.14-4.96,16.96-6.81,2.03,2.46,2.65.5,3.39-1.09,3.07-.42,5.58-1.27,7.83-3.99,1.84-2.24,5.78-1.14,8.69-2.58,3.46-1.71,7.47-2.32,11.24-3.41,1.73,1.78,1.82.11,2.16-1.03,4.97-1.33,9.95-2.65,14.92-3.98,1.61,1.51,1.87.09,2.27-1.05,5.36-2.68,11.32-4.95,16.77-6.1,9.54-2.02,19.15-4.08,28.78-5.88,2.68-.5,4.86-3.08,7.93-1.87.49.67.9.62,1.25-.12,0,0,.06-.04.06-.04.34.02.66-.04.98-.16,12.39-4.15,25.4-5.67,37.98-9.01,3.19-.95,6.47-.91,9.75-.87,5.12.03,10.24.07,15.36.1,0,2.11.87,3.99,2.62,4.91,3.78,1.97,5.63,5.43,7.66,8.81-4.21,2.24-8.94,1.84-13.41,2.75-6.67,1.37-13.43,3.05-20.02,3.99-6.97,1-13.91,2.42-20.75,3.77-15.34,3.03-30.56,6.73-45.46,11.69-17.91,5.97-36.22,10.62-53.81,17.67-17.94,7.19-36.4,13.11-54.31,20.36-17.49,7.08-34.66,14.97-51.82,22.84-14.07,6.45-27.89,13.43-41.86,20.08-14.71,7-29.03,14.72-43.01,23.07-19.1,11.42-38.64,22.06-57.69,33.58-14.16,8.56-27.68,18.1-42.03,26.34-6.97,4-13.46,8.84-20.17,13.31l-.84.67-.19.19c-.32.28-.65.57-.97.85-11.34,6.92-22.19,14.58-32.85,22.49-10.11,7.49-20.06,15.2-30.09,22.81-1,.11-.94.99-1.2,1.64-1.77.83-3.56,1.62-4.82,3.2-.58-.05-.87.23-.88.81l-.18.28-.84.77c-7.09,5.56-14.25,11.03-21.25,16.7-9.69,7.86-19.35,15.76-28.83,23.85-6.07,5.18-12.63,9.8-17.99,15.78-.36.06-.58.27-.66.62l-.37.2c-.34.27-.68.54-1.03.81-1.64,1.31-3.29,2.62-4.93,3.93-.27.04-.53.09-.79.17-2.18-8.57-3.07-17.3-3.36-26.11,6.45-3.67,12.42-8.27,17.4-13.51,4.17-4.39,8.95-8.2,13.5-11.78,4.28-3.36,6.99-8.25,12.26-10.78,7.12-3.42,11.71-10.45,18.05-15.17,3.17-2.36,7.61-3.52,9.83-5.95,3.03-3.33,6.47-6.01,9.8-8.82,4.84-4.08,9.11-9.06,15.54-11.03,1.2-.37,1.1-2.3,2.38-3.33,2.54-2.05,5.45-2.9,8.34-3.97,4.66-3.2,9.32-6.41,13.99-9.61,9.97-7.96,20.37-15.22,31.14-22.11,5.54-3.54,10.99-7.3,16.77-10.53,1.61,1.81,3.15-.2,3.64-.77,2.61-3.02,6.52-4.04,9.41-6.55Z"/>
  <path class="cls-5" d="m652.97,830.25c-4.51-14.92-10.87-28.91-20.74-41.13-1.03-1.28-2.12-2.51-3.18-3.76.29-.19.59-.38.88-.58,4.87-1.88,10.13-.19,15.05-1.62,2.33,4.5,5.59,8.39,8.27,12.64,5.82,9.26,10.22,19.11,11.97,30.1.36,2.26-2.82,3.95-.34,6.06,2.58,2.2,2.15,5.28,2.17,8.18.04,5.8-.14,11.61.07,17.41.35,10.15-1.97,19.59-6.95,28.41-.66,1.52-1.96.9-3.06.92-.69-1.7-1.74-1.87-3.1-.72-4.64.39-5.79,3.53-6.08,7.51-.12,1.73-.64,3.44-.98,5.15-1.27,1.05-1.92,2.42-2.04,4.05l.03-.03c-1.55.61-.58,2.02-.95,3,0,0-.08.07-.08.06-.63.05-.95.34-.71,1-.08.35-.17.69-.25,1.04-.9.38-1.7.86-1.75,1.99-.43,1.29-.87,2.57-1.3,3.86-.27.36-.54.71-.81,1.07,0,0-.15.15-.15.15-.58.02-.88.29-.79.9-8.34,10.24-18.42,18.41-29.68,25.22-1.02.61-1.67,1.82-2.49,2.76-.71-.03-.99.36-1,1.02-3.42-.71-4.2,2.9-6.6,4.07-9.75,4.74-19.42,9.62-29.43,13.8-.65.12-1.29.24-1.94.36-2.12-.47-3.39,1.22-5.03,1.98-1.11-.05-2.33-.61-3.14.7-1.28.1-2.56.2-3.83.3-.91-.16-1.76-.18-1.97,1.02-2.1.28-4.24.46-6.07,1.71-.78.32-1.88-.17-2.35.94-5.55.45-11.09.89-16.64,1.34-.33,0-.65,0-.98.01-.7.03-1.39.06-2.09.09-.29-.21-.59-.23-.9-.06-11.92.19-23.35-2.73-33.93-7.58-6.67-3.06-13.53-6.52-19.14-11.65,4.29-4.03,9.24-.77,13.85-1.23,1.94-1.88,5.12.81,6.86-1.85.34.67.87.93,1.6.77,2.54-.09,4.94-.63,6.99-2.25,3,2.31,6.3-2.3,9.29.4,5.38-3.96,11.96.8,17.75-2.68,2.85-1.71,7.11-.87,10.77-1.64,3.43-.72,7.25-.8,10.92-1.19,6.38-.67,6.29-.7,11.26-2.1,8.61-2.43,15.17-8.01,22.45-12.67,4.46-2.85,8.81-6.08,14.05-8.16,4.22-1.68,8.25-5.32,12.51-7.89,10.27-6.21,20.03-13.45,30.8-18.59,9.94-4.74,10.18-13,12.3-21.67,1.4-5.74.5-11.37,1.66-17.01.65-3.17,1.24-7.06-.06-10.52-1.26-3.34-.9-6.76-.84-10.18,2.03-.31,5.01,3.08,5.85-.2.78-3.04-3.21-1.99-5-2.91-.27-.14-.65-.07-.97-.1Z"/>
  <path class="cls-4" d="m125.83,429.96c3.61,13.47,8.95,26.25,15.94,38.28.94,1.61,1.03,2.92,1.13,4.48-4.79,2.7-7.99,7.23-12.11,10.59-5.1,4.15-10.36,8.36-14.79,12.97-5.89,6.12-12.39,11.62-18.59,17.27-5.69,5.19-11.02,10.88-16.53,16.18-6.89,6.63-13.04,14.26-19.6,21.37-1.31-.16-2.08.36-2.2,1.72-3.25,1.27-2.9,5.64-6.04,7-1.18-.62-.79.39-.9.88-.08.22-.23.33-.47.34-1.13.05-1.53.76-1.59,1.77l-.09.19c-1.87.07-1.93,1.39-1.92,2.76-.29.17-.6.27-.94.32-.24-.45-.57-.8-1.07-.43-.64.47-.67.98.11,1.39-1.04,1.62-1.45,3.89-4.01,3.97-.29-.02-.59-.03-.88-.03-1.18-6.33.73-12.66,0-19,3.21-1.44,1.76-3.73,1.08-5.88.29-1.71.59-3.41.88-5.12.64-.1,1.41-.16,1.43-.99.01-.83-.76-.91-1.4-1.01,1.04-4.67,2.08-9.33,3.13-14,1.55-.41,2.08-1.02.44-2.1-.22-.37-.43-.74-.65-1.12,1.66-5.55,3.32-11.09,4.98-16.64,4.68-2.1,7.24-6.5,10.52-10.03,20.73-22.36,41.73-44.46,64.15-65.15Z"/>
  <path class="cls-3" d="m735.25,798.08c-.6,7.32,1.26,14.44,1.99,21.63.99,9.75,1.49,19.54,2.73,29.26.47,3.73.73,7.5,1.4,11.2.34,1.86.51,4.05,2.63,5.1-.88,2.15-1.21,4.39-1.02,6.7-.62,6.49,1.18,12.82,1.33,19.27.04,1.53.21,4.08,2.7,4.73,0,0-.11-.07-.11-.07.27-.03.45.09.53.37-.23,6.14-1.59,7.1-7.17,4.76-9.79-4.11-20.08-6.06-30.57-7.1-2.36-.23-4.48-1.07-6.62-1.96-.6-7.7.65-15.48-.98-23.14.11-21.65-.83-43.27-2.28-64.87.15-4.3-.06-8.55-.66-12.85-.52-3.71-1.04-8.09.46-11.21,1.2-2.51,5.8-.53,8.8-1.31.62-.16,1.25-.36,1.88-.37,6.49-.08,12.9-1.73,19.5-1.16-.35,1.39-2.08.35-2.29,1.76,2.39.39,6.29-.75,4.6,4.14-2.73,1.6-4.38,3.03.27,4.28.93.25,1.6,1.5,2.39,2.28-.55.43-.54.92-.14,1.45-.18.3-.12.54.16.74.16,2.12.32,4.24.48,6.36Z"/>
  <path class="cls-4" d="m793.8,133.03c-3.02-2.27-2.19-6.25-4-9.01-1.5-2.29-.04-7.2-5.41-6.29-.68.12-.55-1.56-.38-1.62,3.01-1.05.82-2.51.16-3.48-3.17-4.63-6.49-9.15-9.74-13.71-.07-.1-.1-.33-.03-.39.21-.22.47-.39.72-.58,1.82.4,3.56.1,5.38-.24,12.07-2.2,24.21-3.85,36.45-4.79,15.44,2.34,30.71,5.46,45.98,8.75,21.08,4.54,39.84,13.85,57.19,26.36-6.31,2.38-12.93.93-19.34,1.11-9.27.26-18.45,1.18-27.68,1.76-8.08.51-16.01,2.97-23.99,2.89-9.6-.1-18.46,3.32-27.82,4.08-7.4.6-14.71,2.19-22.06,3.35-1.86-1.09-1.29-3.21-1.94-4.8-.72-1.77-1.19-3.39-3.48-3.39Z"/>
  <path class="cls-4" d="m153.17,486.65c5.57,4.89,11.27,9.65,16.67,14.73,3.32,3.12-.26,5.23-2.1,6.49-7.1,4.89-13.08,11.05-19.74,16.4-8.48,6.8-16.16,14.43-24.19,21.7-14.62,13.24-29.2,26.48-42.79,40.85-10.46,11.05-20.96,22.08-31.43,33.13-3.51-1.6-1.14-5.9-3.66-7.95-.16-1.08.52-2.36-.79-3.16-.75-2.53-1.46-5.07-1.01-7.76,2.13-3.15,4.07-6.45,6.43-9.42,11-13.83,22.5-27.2,34.83-39.91,11.03-11.37,22.1-22.69,33.34-33.84,2.08-2.06,5.21-3.14,7.03-5.35,8.07-9.8,18.72-16.81,27.4-25.91Z"/>
  <path class="cls-4" d="m950.26,154.64c-9.09,1.14-18.27,1.82-27.26,3.53-12.32,2.34-24.75,4.1-37.04,6.65-6.81,1.41-13.77,2.27-20.63,3.73-13.12,2.79-26.43,4.76-39.48,7.85-6.32,1.5-12.84,2.08-19.04,4.33-1.78.65-3.38,1.87-5.81,2.3.19-6.57.97-12.9.27-19.22-.25-2.28-1.33-4.54-.3-6.88,1.98.12,3.82-.07,5.82-.67,4.4-1.33,8.96-2.25,13.51-2.96,10.4-1.63,20.97-2.44,31.24-4.66,16.2-3.51,32.69-3.4,49.03-4.69,12.37-.98,24.93-.6,37.41-1,5.53,2.39,8.16,7.82,12.27,11.7Z"/>
  <path class="cls-3" d="m153.17,486.65c-8.68,9.11-19.33,16.12-27.4,25.91-1.82,2.21-4.95,3.29-7.03,5.35-11.24,11.15-22.32,22.47-33.34,33.84-12.33,12.71-23.83,26.07-34.83,39.91-2.36,2.97-4.3,6.27-6.43,9.42-2.29-8.71-3.13-17.62-3.42-26.58-.03-.84.88-1.7,1.35-2.56,0-.31.03-.62.09-.92,2.57-.09,2.97-2.35,4.01-3.97.32-.32.64-.64.96-.96.33-.05.64-.15.94-.32.64-.92,1.28-1.84,1.92-2.76,0,0,.09-.19.09-.18.53-.59,1.06-1.18,1.59-1.77.24,0,.39-.11.47-.34.3-.29.6-.58.9-.88,3.14-1.36,2.78-5.74,6.04-7,.73-.57,1.47-1.14,2.2-1.72,6.57-7.11,12.71-14.74,19.6-21.37,5.51-5.3,10.84-10.99,16.53-16.18,6.19-5.65,12.7-11.15,18.59-17.27,4.43-4.6,9.7-8.82,14.79-12.97,4.12-3.35,7.32-7.88,12.11-10.59,3.42,4.64,6.85,9.28,10.27,13.93Z"/>
  <path class="cls-3" d="m380.01,940.93c-.7-5.7-4.45-10.07-6.79-15.03-4.33-9.17-9.54-17.92-14.12-26.97-2.01-3.97-4.77-7.37-7.12-11.06-1.44-1.59-1.9-3.94-3.92-5.08-.76-3.26-3.09-5.13-5.7-6.96-2.39-1.68-3.62-3.62.55-5.01,8.1-2.71,16.17-5.49,24.15-8.53,2.35-.89,2.9.22,3.69,1.79,2.05,4.08,3.37,8.55,6.35,12.14.09.64.04,1.35.3,1.92,9.17,19.98,18.36,39.94,27.56,59.91,1.15,4.15,3.24,7.91,5.08,11.76-3.34,3.45-7.48,5.87-11.21,8.82-2.52,1.99-4.15,1.5-6.1-1.06-4.22-5.55-7.58-11.78-12.72-16.63Z"/>
  <path class="cls-3" d="m660.15,885.97c4.98-8.82,7.3-18.26,6.95-28.41-.2-5.8-.02-11.6-.07-17.41-.02-2.9.42-5.98-2.17-8.18-2.48-2.11.7-3.81.34-6.06-1.75-10.99-6.14-20.84-11.97-30.1-2.68-4.25-5.94-8.14-8.27-12.64,10.34-.75,20.68-1.43,31.01-2.3,3.07-.26,4.03.83,4.11,3.85.16,6.11.71,12.2,1.1,18.3-2.7,3.39.03,6.68.23,10.01.35,6.01-.7,12.18.04,17.95.83,6.55.93,12.9.54,19.39-.1,1.64-.56,3.9.29,4.83,3.28,3.57,1.38,7.19.8,10.84-.84,1.96.62,3.67.6,5.67-.07,6.09.71,12.19,1.16,18.29-7.59-.56-15.19-.97-22.76-2-1.8-.25-.76-1.94-1.95-2.01Z"/>
  <path class="cls-3" d="m125.83,429.96c-22.43,20.69-43.42,42.78-64.15,65.15-3.28,3.54-5.84,7.93-10.52,10.03,1.13-9.4,4.79-18.1,7.96-26.88,2.62-7.26,6.04-14.25,9.4-21.22,1.12-2.31-.8-5.59,2.42-7.09.61,1.97,1.48,2.39,3.02.68,2.31-2.55,4.7-5.03,7.12-7.48,6.84-6.92,13.36-14.21,20.67-20.58,6.39-5.57,11.4-12.67,18.92-16.94.85,8.3,3.38,16.24,5.17,24.33Z"/>
  <path class="cls-3" d="m937.99,142.94c-12.47.39-25.04.02-37.41,1-16.34,1.3-32.84,1.18-49.03,4.69-10.27,2.22-20.83,3.03-31.24,4.66-4.55.71-9.11,1.63-13.51,2.96-1.99.6-3.84.8-5.82.67-.67-5.11-1.34-10.21-2.01-15.32.2-.05.28-.18.25-.39,7.35-1.15,14.67-2.75,22.06-3.35,9.37-.76,18.22-4.17,27.82-4.08,7.98.08,15.91-2.38,23.99-2.89,9.23-.58,18.41-1.5,27.68-1.76,6.41-.18,13.03,1.27,19.34-1.11,6.54,4.28,12.82,8.87,17.89,14.91Z"/>
  <path class="cls-3" d="m431,935.99c-3.34,3.65-7.29,6.39-12.02,7.93-2.14-3.26-2.85-7.4-6.07-10,.35-1,.21-1.94-.23-2.88-9.17-19.59-18.32-39.17-27.48-58.76-1.97-3.91-3.98-7.81-5.91-11.75-.73-1.49-1.43-2.84,1.08-3.76,10.84-3.99,21.34-8.94,32.61-11.75-1.51,9.9-4.06,19.55-4.52,29.71-.6,13.09,1.79,25.22,7.64,36.7,4.35,8.54,9.47,16.66,14.92,24.56Z"/>
  <path class="cls-5" d="m431,935.99c-5.46-7.89-10.57-16.02-14.92-24.56-5.85-11.48-8.24-23.61-7.64-36.7.46-10.17,3.01-19.82,4.52-29.71,4.12-2.4,8.14-5.43,13.17-2.09-5.08,11.61-6.05,23.88-6.22,36.37-.21,15.49,7.33,28.04,14.69,40.72,2.11,3.63,4.23,7.26,6.34,10.88-3.59,1.17-6.11,4.41-9.95,5.1Z"/>
  <path class="cls-3" d="m233.63,248.92c-1.63,2.31-2.82,5.21-4.97,6.82-13.22,9.85-24.1,22.24-36.37,33.11-2.47,2.19-4.81,4.52-7.27,6.71-2.54,2.27-12.07.09-13.42-3.07-.62-1.45.35-2.68,1.26-3.5,13.49-12.22,26.12-25.35,40.16-36.98,3.17-2.63,6.18-5.49,9-8.51,2.43-2.6,4.33-3.02,6.95-.2,2,2.15,4.36,3.95,4.67,5.61Z"/>
  <path class="cls-3" d="m210.91,223.08c.11,1.66-.81,2.44-1.64,3.24-9.91,9.57-19.53,19.46-29.83,28.59-8.47,7.51-16.15,15.76-24.33,23.53-1.41,1.34-2.55,3.32-5.02,2.11-1.72-.84-4.41-.58-4.82-2.94-.51-2.91,1.77-4.88,3.58-6.73,6.72-6.89,14.24-13.13,20.18-20.62,7.83-9.88,17.82-17.6,25.71-27.35,1.56-1.93,3.41-3.57,4.87-5.64,3.08-4.41,5.08-4.12,7.94.71,1.09,1.84,2.34,3.57,3.37,5.11Z"/>
  <path class="cls-1" d="m120.66,405.63c-7.52,4.28-12.53,11.38-18.92,16.94-7.31,6.37-13.83,13.66-20.67,20.58-2.42,2.45-4.81,4.93-7.12,7.48-1.55,1.71-2.41,1.29-3.02-.68,5.12-6.58,7.78-14.47,11.69-21.65,2.27-4.18,5.38-8.3,8.15-12.41,7.08-10.49,13.82-21.21,20.92-31.68,1.69-2.49,4.3-4.36,6.48-6.51.66,8.52.49,17.11,1.9,25.58.13.79.39,1.56.59,2.35Z"/>
  <path class="cls-3" d="m155.19,284.5c8.82-8.47,17.3-16.8,25.99-24.91,8.31-7.76,16.69-15.44,24.57-23.65,2.4-2.5,5.23-4.58,7.83-6.88,1.08-.96,2.05-.96,2.96.19.1.13.17.29.28.41,6.36,6.94,6,6.52-1.37,12.89-10.89,9.43-21.47,19.26-31.65,29.45-5.5,5.5-12.31,9.65-16.64,16.33-1.15,1.77-2.84,1.8-4.27.54-2.15-1.88-4.74-2.92-7.71-4.38Z"/>
  <path class="cls-3" d="m668.02,57.99c-.74-4.16,2.42-4.87,5.17-4.76,6.27.24,11.89-2.73,17.91-3.19,8.19-.62,16.24-1.76,24.19-3.8,2.12-.54,3.44.59,3.66,2.92.38,4.05-3.19,8.56-7.25,8.89-13.47,1.1-26.96,2.01-40.35,3.97-3.22.47-3.58-1.51-3.32-4.02Z"/>
  <path class="cls-4" d="m684.85,889.98c-.45-6.1-1.23-12.2-1.16-18.29.02-2-1.44-3.71-.6-5.67,6.09,2.55,12.59,2.38,18.99,2.82,1.63,7.66.38,15.44.98,23.14-6.22.7-12.17-1.1-18.22-2Z"/>
  <path class="cls-3" d="m243.07,258.93c-5.08,2.2-8.26,6.75-12.45,10.06-14.21,11.23-28.28,22.62-42.42,33.94-.23.18-.64.12-.97.18-2.39-2.39-.41-3.86,1.23-5.2,12.44-10.16,23.82-21.48,35.6-32.37,4.24-3.92,9.31-6.89,13.01-11.42.93-1.14,2-1.42,2.8-.11,1.02,1.67,3.08,2.68,3.19,4.92Z"/>
  <path class="cls-3" d="m710.9,84.2c-7,1.16-14.05.49-21.08.71-1.31.04-2.61.25-3.91.37-.95.02-1.91.05-2.86.07-6.4-.98-12.65,1.42-19.03.84-.58-4.44.38-7.04,5.85-7.02,13.1.04,26.03-2.21,39.02-3.6,2.86-.31,3.11,1.23,2.91,3.25-.18,1.8-.59,3.58-.9,5.37Z"/>
  <path class="cls-3" d="m672.12,74.07c-7.29.03-7.72-.5-6.19-4.95.56-1.63,1.45-1.91,2.88-2.05,13.6-1.29,27.19-2.71,40.8-3.86,1.68-.14,5-1.69,4.98,1.91-.01,2.3-.38,4.84-4.42,5.14-13.14.95-26.23,2.58-38.04,3.81Z"/>
  <path class="cls-3" d="m466.95,118.71c.04,1.99-.88,2.9-2.53,3.4-9.94,3.04-19.87,6.13-29.8,9.21-.93.29-2.06.88-2.42-.58-.41-1.65-.46-3.47,1.42-4.31,1.49-.66,3.16-.92,4.74-1.4,2.57-.78,5.54-.83,6.58-4.21.32-1.03,1.62-1.93,2.84-1.65,4.82,1.14,8.2-1.66,11.7-4.11,1.56-1.09,3.05-2.09,4.94-.77,1.61,1.12,2.21,2.81,2.53,4.42Z"/>
  <path class="cls-3" d="m816.94,92.92c-12.24.93-24.38,2.59-36.45,4.79-1.82.33-3.56.63-5.38.24-2.11-2.93-4.21-5.85-6.32-8.78,12.85.48,25.72.65,38.44,2.81,3.22.55,6.62-.91,9.71.95Z"/>
  <path class="cls-1" d="m412.9,933.93c3.23,2.6,3.93,6.74,6.07,10-2.04,3.38-5.7,4.32-8.94,5.87-1.84-3.86-3.93-7.61-5.08-11.76,1.62-3.37,4.95-3.41,7.95-4.11Z"/>
  <path class="cls-3" d="m159.05,232.98c.02-3.51,1.89-4.76,5.18-3.3,3.44,1.52,5.52,4.66,8.05,7.24,1.34,1.37-.03,2.42-.95,3.3-1.39,1.33-2.5,3.28-4.93,2.67-1.53-.39-7.36-8.33-7.35-9.91Z"/>
  <path class="cls-3" d="m472.09,135.6c-.38.23-.75.45-1.13.68-.64,0-1.27,0-1.91,0-.92-.23-1.71-.16-2.09.87-.64.3-1.28.6-1.92.9-8.29,3.04-16.57,6.09-24.86,9.14-1.44-.96-3.26-1.89-.19-3.13,8.83-3.57,17.64-7.2,26.51-10.66,2.3-.9,5.36-2.67,5.59,2.19Z"/>
  <path class="cls-3" d="m468.75,127.45c-6.14,2.56-12.22,5.3-18.46,7.6-3.86,1.42-7.34,3.78-11.57,4.35-1.56.21-2.57.33-3.12-1.28-.79-2.3,1.15-1.82,2.26-2.18,10.14-3.23,20.29-6.45,30.43-9.68.15.4.3.79.45,1.19Z"/>
  <path class="cls-3" d="m442.22,105.1c3.01.74,3.55,4.1,4.32,6.71.56,1.89-1.6,3.37-3.58,3.13-3.78-.46-4.18-3.94-4.79-6.71-.5-2.26,1.27-3.19,4.05-3.13Z"/>
  <path class="cls-3" d="m688.98,41.87c-.05-2.42.02-4.55,3.08-4.76,2.6-.18,3.68,1.38,3.7,3.55.03,3.04-2.46,3.44-4.77,3.87-2.74.51-1.71-1.63-2.01-2.66Z"/>
  <path class="cls-1" d="m747.01,895.98c-2.49-.65-2.67-3.2-2.7-4.73-.15-6.45-1.95-12.79-1.33-19.27,2.56,7.8,2.65,16.01,4.03,24Z"/>
  <path class="cls-1" d="m210.23,622.98c3.56,2.58,1.4,6.16,1.49,9.3.05,1.56-.77,3.14-1.2,4.72-.81-.7-1.62-1.41-2.43-2.11,3.48-3.47-.19-8.22,2.14-11.9Z"/>
  <path class="cls-1" d="m208.11,758.98c1.74,4.76,1.49,9.4-.85,13.92-1.64-1.54-1.16-3.23-.36-4.94,0-.67-.02-1.34-.02-2.01,1.1-2.2-1.62-5.07,1.23-6.97Z"/>
  <path class="cls-1" d="m210.52,636.99c1.21,3.75.12,7.39-.5,11.06-3.06-3.31-.47-6.74-.22-10.12.24-.31.48-.63.72-.94Z"/>
  <path class="cls-3" d="m208.16,743.98c-.87,3.13,1.1,6.29-.1,9.42-.63-.08-1.25-.16-1.88-.25.8-3.03-1.73-6.77,1.98-9.18Z"/>
  <path class="cls-1" d="m726.7,88.03c-3.28-.05-6.56-.08-9.75.87,0-.43,0-.86,0-1.29,3.27-.3,6.56-1.04,9.76.43Z"/>
  <path class="cls-1" d="m210.01,678.85c-.56,2.04,1.52,4.79-1.66,6.11-2.07-2.75-.5-4.51,1.66-6.11Z"/>
  <path class="cls-1" d="m42.35,546.11c.68,2.15,2.13,4.44-1.08,5.88.4-1.95-1.97-4.41,1.08-5.88Z"/>
  <path class="cls-1" d="m858.96,541.99c-1.83-.7-5.22-.2-3.06-3.97,1.65.84,3.55,1.48,3.06,3.97Z"/>
  <path class="cls-1" d="m212.95,570.74c-.2,2.13,1.01,4.5-1.06,6.32-1.57-1.5-.66-3.35-.71-5.06.59-.42,1.18-.84,1.77-1.26Z"/>
  <path class="cls-1" d="m210,651.83c-.24,1.71,2.22,3.38.09,5.13-.26-.03-.52-.05-.78-.06-.41-.33-.81-.67-1.22-1-.19-1.74.03-3.3,1.92-4.06Z"/>
  <path class="cls-1" d="m208.23,670.97c3.36,1.18,1.18,4.02,1.81,6.02-2.9-1.32-2-3.78-1.81-6.02Z"/>
  <path class="cls-1" d="m211.28,591.99c3.22,1.53.43,2.7-.24,4-3.21-1.53-.03-2.68.24-4Z"/>
  <path class="cls-2" d="m207.85,777.98c.62,1.84-.88,3.27-.97,4.98-2.46-1.85-2.41-2.12.97-4.98Z"/>
  <path class="cls-1" d="m208.26,703.96c1.91,1.74,1.63,3.08-1.03,5-.6-1.86.84-3.3,1.03-5Z"/>
  <path class="cls-1" d="m209.02,732.86c-.01,1.3.35,2.8-1.63,3.05-1.12-1.91.53-2.33,1.63-3.05Z"/>
  <path class="cls-1" d="m206.89,814.21c1.22,1.57,1.98,3.15.07,4.78-1.07-1.58-1.07-3.17-.07-4.78Z"/>
  <path class="cls-1" d="m206.36,803.95c1.96.6,2.52,1.48.6,2.88-.46-.56-.93-1.13-1.39-1.69.26-.4.53-.79.8-1.19Z"/>
  <path class="cls-1" d="m772.47,383.03c-1.59-.25-2.41-1.19-2.52-2.78,1.96-.09,2.65.97,2.52,2.78Z"/>
  <path class="cls-1" d="m208.02,718.89c.51,1.39,1.93,2.81-.1,4.14-1.32-1.41-1.45-2.79.1-4.14Z"/>
  <path class="cls-1" d="m751.72,345.03c-2.24-.06-3.75-.54-1.71-3.02,1.18.66,1.51,1.81,1.71,3.02Z"/>
  <path class="cls-1" d="m211.99,577.81c.02,1.41.04,2.81.05,4.22-2.11-1.38-3.3-2.77-.05-4.22Z"/>
  <path class="cls-1" d="m797.64,428.01c-2.5-.64-1.46-2.65-1.62-4.19,1.21,1.14,2.13,2.38,1.62,4.19Z"/>
  <path class="cls-2" d="m210.52,636.99c-.24.31-.48.63-.72.94-2.03-.2-1.72-1.71-1.71-3.05.81.7,1.62,1.41,2.43,2.11,0,0,0,0,0,0Z"/>
  <path class="cls-1" d="m206.19,753.15c.63.08,1.25.16,1.88.25,0,1.2-.02,2.39-.02,3.59-1.18-1.01-1.73-2.32-1.86-3.84Z"/>
  <path class="cls-1" d="m794.68,421.73c-2.42.53-2.78-.91-2.69-2.8,1.79.07,1.87,1.79,2.69,2.8Z"/>
  <path class="cls-1" d="m804.1,439.96c-2.36-.07-2.15-1.71-2.02-3.3,1.92.34,1.83,1.91,2.02,3.3Z"/>
  <path class="cls-1" d="m212.2,585.05c1.46,1.64.9,2.55-1.06,2.97.24-1.03-.75-2.5,1.06-2.97Z"/>
  <path class="cls-1" d="m852.86,528.99c-2.05-.15-1.93-1.63-1.9-3.06,2.11.11,2.03,1.57,1.9,3.06Z"/>
  <path class="cls-2" d="m644.89,902.88c.12-1.63.77-3,2.04-4.05-.16,1.62.8,3.79-2.04,4.05Z"/>
  <path class="cls-1" d="m206.1,793.97c1.17.76.92,1.95.93,3.07-.48-.97-3.31-1.23-.93-3.07Z"/>
  <path class="cls-1" d="m206.89,788.89c1.7.75.77,1.72.23,2.65-.83-.69-1.17-1.59-1.09-2.66h.43s.43,0,.43,0Z"/>
  <path class="cls-1" d="m207.24,712.96c1.89.16,1.82,1.56,1.85,2.9-1.2-.6-2.44-1.17-1.85-2.9Z"/>
  <path class="cls-1" d="m823.95,477c-1.17-.17-2.49-.25-1.18-1.93l1.18,1.93Z"/>
  <path class="cls-1" d="m832.18,490.92c-1.14-.12-2.72.07-1.34-1.86,1.15.11,1.15,1.06,1.34,1.86Z"/>
  <path class="cls-1" d="m46.83,522.9c1.64,1.08,1.1,1.69-.44,2.1-.09-.65-.18-1.29-.28-1.94.23-.09.47-.14.72-.16Z"/>
  <path class="cls-1" d="m43.26,538.99c.64.1,1.41.18,1.4,1.01-.01.82-.78.89-1.43.99,0-.67.02-1.33.03-2Z"/>
  <path class="cls-2" d="m866.04,553.95c-.41-.64-.83-1.27-1.24-1.91,1.23.1,2.62.11,1.24,1.91Z"/>
  <path class="cls-2" d="m868.87,560.02c-1-.38-.95-1.19-.83-2.03,1.35.24,2.42.59.83,2.03Z"/>
  <path class="cls-1" d="m876.16,576.98c-1.25-.55-1.46-1.2-.2-2,1.22.55.63,1.29.2,2Z"/>
  <path class="cls-2" d="m169.05,585.98c.38-.9.93-1.47,1.98-.92-.45.77-1.17.94-1.98.92Z"/>
  <path class="cls-2" d="m209.68,659.96c.28.83.56,1.65-.63,2.01-1.45-1.19-.69-1.69.63-2.01Z"/>
  <path class="cls-1" d="m209.23,663.97c.64.1,1.41.18,1.4,1.01-.01.82-.79.89-1.43.98.01-.67.02-1.33.03-2Z"/>
  <path class="cls-1" d="m208.3,689.97c.63.1,1.36.21,1.35,1.01,0,.8-.74.89-1.37.99,0-.67.01-1.33.02-2Z"/>
  <path class="cls-2" d="m206.88,765.95c0,.67.02,1.34.02,2.01-.65-.1-1.42-.17-1.43-.99-.01-.83.76-.91,1.41-1.02Z"/>
  <path class="cls-2" d="m207.09,774.99c1.02.36.89,1.17.78,1.97-1.36-.22-2.37-.59-.78-1.97Z"/>
  <path class="cls-1" d="m207.11,799.97c1.45,1.58.23,1.78-1.02,1.97-.04-.85-.09-1.71,1.02-1.97Z"/>
  <path class="cls-2" d="m206.36,803.95c-.27.4-.53.79-.8,1.19-1.37-.63-1.99-1.32-.15-2.18.31.33.63.66.95.99Z"/>
  <path class="cls-2" d="m653.99,886.16c1.36-1.15,2.41-.98,3.1.72-1.09.01-2.24.27-3.1-.72Z"/>
  <path class="cls-1" d="m788.9,414.04c-1.35-.26-2.49-.61-.83-2.07,1.18.33,1.04,1.19.83,2.07Z"/>
  <path class="cls-1" d="m790.72,416.02c-1.2-.09-1.73-.79-1.8-1.93.83.43,2.1.45,1.8,1.93Z"/>
  <path class="cls-2" d="m553.04,967.14c.21-1.2,1.05-1.18,1.97-1.02-.22,1.18-.46,2.33-1.97,1.02Z"/>
  <path class="cls-2" d="m45.15,608.84c1.3.79.62,2.08.79,3.16-1.08-.85-.82-2.03-.79-3.16Z"/>
  <path class="cls-2" d="m643.98,905.85c.36-.99-.6-2.39.95-3,0,1.1.35,2.31-.95,3Z"/>
  <path class="cls-2" d="m558.84,965.82c.81-1.31,2.03-.75,3.14-.7-.87,1.02-2.02.79-3.14.7Z"/>
  <path class="cls-2" d="m641.19,909.95c.05-1.13.85-1.6,1.75-1.99.07,1.24-.51,1.9-1.75,1.99Z"/>
  <path class="cls-1" d="m799.89,431c-.33-.36-.65-.72-.98-1.08,1.8-.97.74.64.98,1.08Z"/>
  <path class="cls-2" d="m206.89,788.89h-.43s-.43,0-.43,0c.25-.63.5-1.26.74-1.89.04.63.08,1.26.12,1.89Z"/>
  <path class="cls-2" d="m211.06,597.98c.31,1-.28,1.65-.89,2.3-.13-.93-.03-1.77.89-2.3Z"/>
  <path class="cls-2" d="m567.01,963.14c.65-.12,1.29-.24,1.94-.36-.46,1.12-1.11,1.23-1.94.36Z"/>
  <path class="cls-2" d="m544.63,969.78c.46-1.11,1.57-.62,2.35-.94-.5,1.02-1.4,1.03-2.35.94Z"/>
  <path class="cls-2" d="m932.91,703.96c.28-1.16,1.36-.6,2.03-.93-.45.81-1.21.92-2.03.93Z"/>
  <path class="cls-2" d="m46.83,522.9c-.25.02-.49.07-.72.16.02-.42.04-.85.07-1.28.22.37.44.74.65,1.12Z"/>
  <path class="cls-2" d="m208.08,655.89c.41.33.81.67,1.22,1-.41-.33-.81-.67-1.22-1Z"/>
  <path class="cls-1" d="m868.95,564.04c0-.39.02-.78.03-1.17.95.41.9.8-.03,1.17Z"/>
  <path class="cls-1" d="m208.08,686.04c0,.29,0,.57,0,.86-.25-.14-.5-.29-.76-.43.25-.14.51-.29.76-.43Z"/>
  <path class="cls-1" d="m834.7,495.97c-.25-.26-.49-.52-.74-.78.62-.09.9.14.74.78Z"/>
  <path class="cls-1" d="m42.16,571.02c-.06.3-.09.61-.09.92-.59-.04-.99-.25-.79-.95.3,0,.59.01.88.03Z"/>
  <path class="cls-2" d="m208.09,725.96c.1.76-.34,1.04-1.01,1.11.34-.37.67-.74,1.01-1.11Z"/>
  <path class="cls-2" d="m894.78,722.31c-.18-.3-.35-.6-.53-.9.23-.03.46-.06.69-.09-.05.33-.11.66-.16.99Z"/>
  <path class="cls-1" d="m480.96,132.39c-.35.22-.69.43-1.04.65.18-.48.35-.98,1.04-.65Z"/>
  <path class="cls-2" d="m496.14,127.12c-.37.25-.74.49-1.11.74.37-.25.74-.49,1.11-.74Z"/>
  <path class="cls-1" d="m506.96,123.34c-.35.23-.71.46-1.06.69.18-.5.41-.92,1.06-.69Z"/>
  <path class="cls-2" d="m206.06,830.95c.65,0,.9.33.72.96-.24-.32-.48-.64-.72-.96Z"/>
  <path class="cls-1" d="m211.09,588.06c-.02.28-.02.57-.01.85-.26-.15-.52-.29-.78-.43.27-.14.53-.28.8-.42Z"/>
  <path class="cls-2" d="m882.93,588.91c-.68.05-.87-.27-.67-.89.22.3.45.59.67.89Z"/>
  <path class="cls-2" d="m883.92,591.01c-1.19-.35-.92-.84-.14-1.39.05.46.09.92.14,1.39Z"/>
  <path class="cls-1" d="m183.02,874.2c-.35.24-.7.47-1.05.71.17-.51.4-.92,1.05-.71Z"/>
  <path class="cls-1" d="m747.42,896.28c-.08-.28-.25-.41-.53-.37.09.26.27.39.53.37Z"/>
  <path class="cls-2" d="m207.05,698.99c.59.05.97.24.6.92-.2-.31-.4-.61-.6-.92Z"/>
  <path class="cls-2" d="m643.19,906.92c-.24-.67.08-.95.71-1-.24.33-.47.67-.71,1Z"/>
  <path class="cls-2" d="m153.09,912.13c.64-.17,1.04.12,1.3.67-.43-.22-.86-.45-1.3-.67Z"/>
  <path class="cls-2" d="m639.08,914.88c.27-.36.54-.72.81-1.07-.27.36-.54.72-.81,1.07Z"/>
  <path class="cls-2" d="m638.15,915.92c-.09-.61.21-.88.79-.9-.26.3-.53.6-.79.9Z"/>
  <path class="cls-1" d="m211.06,603.01c-.01.35-.03.71-.04,1.06-.21-.25-.43-.49-.64-.74.23-.11.46-.21.69-.32Z"/>
  <path class="cls-2" d="m604.97,944.92c.01-.65.29-1.05,1-1.02-.33.34-.67.68-1,1.02Z"/>
  <path class="cls-1" d="m208.07,688.02c0,.3,0,.6,0,.89-.26-.15-.53-.3-.79-.45.26-.15.53-.3.79-.44Z"/>
  <path class="cls-1" d="m212.04,607.95c-.27.34-.55.67-.82,1.01-.08-.63.26-.91.82-1.01Z"/>
  <path class="cls-2" d="m524.02,971.16c.31-.17.62-.15.9.06-.34.5-.63.39-.9-.06Z"/>
  <path class="cls-2" d="m527.01,971.13c.33,0,.65,0,.98-.01-.32.48-.65.51-.98.01Z"/>
  <path class="cls-4" d="m140.07,416.93c1.64-1.31,3.29-2.62,4.93-3.93.34-.27.68-.54,1.03-.81,0,0,.37-.2.37-.2.27-.15.49-.36.66-.63,5.36-5.99,11.93-10.6,17.99-15.78,9.49-8.1,19.15-16,28.83-23.85,7-5.67,14.16-11.14,21.24-16.7.28-.26.56-.51.84-.77,0,0,.18-.28.18-.28.29-.27.59-.54.88-.81,1.26-1.59,3.06-2.38,4.82-3.2.87-.21,1.14-.85,1.2-1.64,10.02-7.61,19.98-15.32,30.09-22.81,10.66-7.9,21.51-15.56,32.85-22.49.32-.28.65-.57.97-.85,0,0,.19-.19.19-.19.28-.22.56-.45.84-.67,6.71-4.46,13.2-9.3,20.17-13.31,14.35-8.24,27.87-17.78,42.03-26.34,19.05-11.52,38.59-22.17,57.69-33.58,13.98-8.35,28.3-16.07,43.01-23.07,13.97-6.65,27.79-13.63,41.86-20.08,17.16-7.87,34.33-15.76,51.82-22.84,17.92-7.25,36.37-13.17,54.31-20.36,17.59-7.05,35.9-11.7,53.81-17.67,14.9-4.97,30.12-8.66,45.46-11.69,6.84-1.35,13.78-2.78,20.75-3.77,6.59-.94,13.35-2.63,20.02-3.99,4.47-.92,9.21-.52,13.41-2.75,7.83,10.87,15.1,22.07,20.03,34.59,1.28,3.26,3.54,6.44,2.19,10.32-3.2.45-6.4.9-9.6,1.35-.65.25-1.31.51-1.96.76-6.99,1.63-13.99,3.22-20.96,4.92-9.72,2.37-19.55,4.44-29.09,7.4-5.61,1.74-11.73,1.75-16.91,4.91-1.09.02-2.19.05-3.28.07-5.01,1.87-10.17,3.15-15.43,4.04-.86.33-1.72.66-2.58.99-.23.06-.45.04-.67-.05-.36.29-.72.58-1.08.87,0,0-.04.07-.04.07-.31.33-.61.67-.92,1l-.06.04c-.74.03-1.47.06-2.21.1-.56-.04-1.12-.07-1.69-.11-2.04.51-4.21.58-6.05,1.79-5.12.94-9.5,4.5-14.96,4.23-.37.31-.75.62-1.12.94-10.39,3.33-20.77,6.65-31.16,9.98-1.03.05-2.16-.15-2.77,1.03-.32.54-.81,1.6-.94,1.56-3.3-1.07-6.01.63-8.85,1.74-5.86,2.28-11.9,4.17-17.52,6.93-4.13,2.03-9.11,1.54-12.7,4.77-1.05-.49-2.05-.87-2,.95-1.29,1.07-2.87.1-4.4.84-7.14,3.46-14.61,6.25-21.58,9.99-3.44,1.85-8.61,1.04-10.26,3.89-2.12,3.66-7.04,1.27-8.15,5.25-6.74-.79-11.49,4.4-17.35,6.3-4.6,1.49-8.94,5.13-13.79,7.26-.98.43-2.58.34-3.91,1.75-3.44,3.64-8.73,5.47-13.18,7.21-5.88,2.31-11.55,5.02-17.3,7.59-.34.31-.68.62-1.02.94l-.06.04c-.31.23-.62.46-.93.69-2.22,2.08-5.39,1.94-7.89,3.34-1.69.06-3.19.52-4.1,2.11-11.03,5.94-22.06,11.87-33.09,17.81-1.22.04-1.91.63-1.97,1.89-.62.06-1.25.12-1.87.18-1.16.46-2.38.81-3.13,1.93-.13.21-.3.26-.52.14-1.07.07-1.4.79-1.48,1.72-2.81,2.96-7.16,3.39-10.12,6.11-.97-.48-1.89-.85-1.88.85-.97.42-1.93.84-2.9,1.26-2.34.4-4.22,1.4-5.09,3.78-6.77,3.82-13.88,7.08-19.81,12.27-2.08-.99-3.63-.77-4.19,1.79-.92.52-1.68,1.46-2.92,1.17-.86.27-1.03.96-1.08,1.73-1.61,1.22-3.13,3.28-4.86,3.48-4.88.58-8.21,3.1-10.95,6.83-1.28.3-3.68-1.42-3.31,1.84-1.73,1.12-2.96,3.53-5.64,2.17-2.56-.16-2.04,1.18-1.28,2.64-.63.09-1.25.17-1.88.26-.87.04-1.74.07-2.6.11-4.96,4.14-9.94,8.29-15.6,11.46-1.61.9-3.05,1.81-4.02,3.38-1.48.19-3.45-.64-3.83,1.84-.24.18-.5.26-.8.26-1.29-.11-2.09.4-2.2,1.76-2.68.4-3.16,3.9-5.91,4.19-1.16-1.14-.91.12-1.09.64-.2.26-.46.4-.78.41-1.37.13-3.01-.16-3.09,1.98-2.51,2.22-5.98,3.12-8.08,5.91-1.15.09-2.49-.24-2.92,1.38-.8,2.49-2.45,3.79-5.13,3.67-3.68,1.05-6.52,3.56-9.42,5.81-1.72,1.34-4.81,1.73-4.58,4.96-.2,1.2-1.06,1.22-1.99,1.1-1.99-.29-.53,1.3-1,1.84-5.75,2.57-11.32,5.38-15.58,10.26-1.05,1.2-2.6,1.93-4.31,2.03-.45.24-2-.6-1.01,1.04-2.97,1.99-5.95,3.97-8.92,5.96-1.29.52-1.12,1.67-1.17,2.72-.34.08-.69.15-1.03.23-.97-.45-1.97-.95-1.97.85l-.06.15c-.55-.08-1.11-.15-1.66-.23.16.38.33.76.49,1.14-.56,1.97-2.82.87-3.8,2.1-4.27,1.85-8.12,4.26-10.82,8.19-3.91,5.36-10.18,8.03-14.61,12.79-2.39.35-4.81.64-5.43,3.63-.13.27-.34.42-.63.46-1.88.27-2.47,1.48-2.32,3.22-.63.27-1.27.54-1.9.8-.97.39-3.86-1.31-2.15,1.98-.45.99-1.15,1.68-2.24,1.92-1.32.07-1.84.84-1.81,2.09-.9,1.36-2.3,1.82-3.78,2.12-2.3-.94-.77,1.13-1.26,1.61-.3.14-.62.21-.95.19-.43-.74-.97-.67-1.35-.05-.13.21.2.7.31,1.05-.53,1.61-1.33,2.94-2.88,3.86-3.5,2.09-6.19,5.16-9.1,7.95-1.99-.61-1.87-2.22-1.82-3.81.11-.12.22-.23.33-.35-.1-.05-.25-.17-.28-.14-.11.11-.19.26-.28.39-3.26-3.7-4.58-8.33-6.2-12.81.21-.2.42-.4.63-.6-.39-.17-.78-.35-1.17-.52-.1-.62-.21-1.24-.31-1.86.08-.89-.02-1.69-1-2.06-1.8-3.49-3.31-7.07-3.14-11.11.78-.02,1.89.04,1.79-.97-.12-1.32-1.46-.84-2.33-1,0-.35,0-.71-.01-1.06,1.26-1.53.79-2.52-.98-3.1-.15-.31-.13-.6.06-.89.26-.09.52-.18.77-.27-.28-.12-.56-.24-.84-.36-.3-1.14-.6-2.28-.89-3.42.22-.66.45-1.32.67-1.98Z"/>
  <path class="cls-4" d="m720.1,208.59c-8.36,3.32-16.89,6.12-25.5,8.68-.78-.26-1.32,0-1.62.76-1.62.36-3.24.71-4.86,1.07-1.34.51-2.68,1.01-4.02,1.52-5.55,2.56-11.02,5.33-17.11,6.47-1.52-.91-2.72-.01-3.95.71-1.2.62-3.17.02-3.38,2.17-.91-.53-1.68-.73-1.69.75-.86.42-1.72.85-2.57,1.27,0,0,.07,0,.07,0-6.47.12-12.61,2.54-18.18,4.99-9.47,4.17-19.49,6.7-28.88,11-3.76,1.72-7.21,4.3-11.53,4.68-.53-.33-.73-.03-.85.44,0,0,0,0,0,0-.46.03-.93.07-1.39.1-2.26,3.29-6.13,3.72-9.41,5.06-15.9,6.5-31.5,13.72-47.31,20.34-14.07,5.89-28.02,12.02-41.48,19.01-11.15,5.79-22.75,10.78-33.44,17.5-2.88,1.81-6.46,2.51-9.33,4.34-12.51,7.97-26.44,13.34-38.85,21.47-3.07,2.01-6.67,3.14-9.97,4.65-15.29,6.97-29.73,15.52-44.16,23.96-9.52,5.57-18.99,11.38-28.25,17.47-13.34,8.77-26.39,17.99-40.29,25.98-9.78,5.62-18.53,13.23-27.91,19.54-10.08,6.78-19.67,14.13-29.36,21.38-11.64,8.71-23,17.8-33.84,27.51-5.17,4.63-10.64,8.96-16.26,13.03-.99.72-4.68,5.17-5.18-1.21-.15-1.93-3.11-1.95-4.57-3.15.48-3.68-1.29-5.17-4.81-4.99-2.75-1.89-5.22-4.03-6.31-7.36,8.52-7.27,16.97-14.61,25.56-21.79,19.81-16.57,39.99-32.68,61.03-47.66,18.73-13.33,37.77-26.23,56.66-39.32,22.64-15.69,45.97-30.3,69.49-44.63,12.68-7.73,25.39-15.46,38.25-22.85,20.12-11.56,40.65-22.45,61.3-33.09,16.83-8.67,33.67-17.34,50.89-25.18,22.79-10.38,45.75-20.41,69.25-29.14.94-.03,1.93.11,2.6-.79,7.31-3.32,14.85-6,22.5-8.4,11.87-3.72,23.74-7.44,35.55-11.33,14.49-4.77,29.15-8.89,43.97-12.51,1.12-.01,2.32.23,3-1.05,2.86-1.17,5.78-2.13,8.93-1.99.79.05,1.53-.04,2.04-.75,13.98-3.35,27.73-7.66,41.89-10.28,1.11.07,2.27.3,3.11-.76,5.74-2.39,12.11-2.05,17.91-4.17,1.42,3.13,1.85,6.65.95,9.69-2.13,7.19.3,11.69,8.42,14.67-22.77,7.05-44.37,13.21-65.18,21.66-.64.17-1.28.34-1.92.51Z"/>
  <path class="cls-4" d="m485.69,497.17c3.76,3.41,7.43,6.94,11.3,10.22,7.7,6.54,15.11,13.8,26.01,14.45,5.87.35,11.75-5.85,12.96-11.74,4.04-19.55,1.26-38.33-5.5-56.77-.42-1.15-.67-2.2.46-4.25,12.27,18.66,20.79,38.69,30.24,58.2,9.57,19.77,20.89,38.7,29.98,58.7-.69.48-1.38.96-2.07,1.43-4.04-4.46-9.84-6.25-14.12-10.34-.34-.86-1.06-1.08-1.89-1.13,0,0-.08-.08-.08-.08-.32-.3-.64-.6-.97-.89-7.56-3.77-14.48-8.81-22.83-11.07-4.4-1.19-5.91,1.26-7.04,4.52-2.2,6.37-.35,12.77.39,19.06,2.54,21.51,10.72,41.49,17.13,61.95.5,1.6,2.44,3.55.51,5.43-2.2,2.13-3.76-.28-5.69-.83-5.72-1.62-9.88-6.57-16.05-7.18-1.61-.16-2.73-.59-2.62,1.65.02.42-.71.93-.63,1.29,1.54,7.18.57,14.65,2.9,21.79,1.71,5.24,2.54,10.78,3.7,16.19.24,1.14-.91,1.5-1.58,1.51-1.73.02-3.74.23-4.85-1.47-1.43-2.19-2.75-4.49-3.84-6.86-3.11-6.77-6.8-12.85-13.9-16.38-1.87-.93-2.82-3.62-5.03-4.84-3.72-2.06-6.13-1.4-7.39,2.7-3.12,10.12-2.72,20.32-.63,30.6.69,3.4,2.16,6.91.04,10.57-6.9-7.84-12.06-16.76-17.15-25.68-1.69-2.95-4.37-4.84-6.22-7.58-1.39-2.05-2.61-.03-3.09,1.55-1.78,5.84-4.78,11.35-4.73,17.89-4.67-4.91-6.4-11.24-9.44-16.82-8.14-14.97-14.31-31.03-24.13-45.08-3.91-5.59-8.68-10.48-14.94-13.64-3.13-1.58-5.37-1.04-7.69,1.75-4.21,5.08-6.55,10.99-8.7,17.08-.45,1.26-.02,3.41-2.66,3.2-2.53-.2-2.64-1.79-3.01-3.71-4.58-23.73-8.71-47.59-16.03-70.66-1.62-5.12.08-11.18-4.32-15.46-.54-.53-.43-1.39.26-1.61.5-.16,1.58.13,1.74.5,2.1,5.04,7.05,7.62,10.08,11.92,4.57,6.49,9.58,12.75,16.4,17.13,4.79,3.07,8.56,1.75,11.05-3.6,3.38-7.27,2.51-15.23,3.74-22.85.28-1.75.25-3.56.43-6.4,4.29,6.02,7.88,11.38,11.79,16.48,8.45,11.03,16.12,22.74,27.06,31.65,4.53,3.69,9.77,6.16,15.26,7.8,3.59,1.07,6.4-1.44,7.79-4.52,2.27-5.05,3.61-10.26,2.05-16.03-.91-3.37.07-7.06-.08-10.64-.65-15.58-2.99-30.94-5.64-46.26-.13-.73-.08-1.22.26-1.78.33-.37.65-.73.98-1.1Z"/>
  <path class="cls-3" d="m712.88,178.01c-3.16-.15-6.07.81-8.93,1.99-.99.37-2.29-.14-3,1.05-14.81,3.62-29.48,7.73-43.97,12.51-11.81,3.89-23.68,7.61-35.55,11.33-7.65,2.4-15.19,5.08-22.5,8.4-.95,0-1.91-.06-2.6.79-23.5,8.73-46.46,18.77-69.25,29.14-17.21,7.84-34.06,16.51-50.89,25.18-20.65,10.63-41.18,21.53-61.3,33.09-12.85,7.39-25.56,15.12-38.25,22.85-23.52,14.33-46.85,28.94-69.49,44.63-18.9,13.09-37.93,25.99-56.66,39.32-21.04,14.98-41.22,31.09-61.03,47.66-8.59,7.18-17.04,14.52-25.56,21.79-3.97-4.35-5.44-10.19-8.83-14.88,2.91-2.79,5.6-5.86,9.1-7.95,1.55-.93,2.35-2.25,2.88-3.87.35-.34.69-.67,1.04-1.01.33.01.65-.05.95-.19,1.48.3,1.73-.37,1.26-1.61,1.49-.3,2.89-.77,3.78-2.12.6-.7,1.21-1.39,1.81-2.09,1.09-.24,1.79-.94,2.24-1.92,1.42.1,2.01-.7,2.15-1.98.63-.27,1.27-.54,1.9-.8,1.25-.73,3.32-.87,2.32-3.22.29-.04.5-.19.63-.45,3.15.8,3.61-2.43,5.44-3.63,4.44-4.76,10.7-7.43,14.61-12.79,4.52-1.52,7.74-4.77,10.82-8.19.97-1.23,3.24-.13,3.8-2.1.65.03,1.1-.2,1.17-.91,0,0,.06-.15.06-.15.66-.28,1.31-.57,1.97-.86.34-.08.69-.15,1.03-.23,1.48-.44.81-1.8,1.17-2.72,2.97-1.99,5.95-3.97,8.92-5.96.34-.35.67-.69,1.01-1.04,1.71-.11,3.26-.84,4.31-2.03,4.26-4.87,9.83-7.69,15.58-10.26,1.09-.2.94-1.08,1-1.84.93.12,1.79.1,1.99-1.1,5.07-3.07,10.36-5.86,14-10.77,2.67.12,4.32-1.18,5.13-3.67.69-1.06,3.18,1.69,2.92-1.37,2.09-2.79,5.57-3.69,8.08-5.91,1.38-.11,2.37-.84,3.09-1.98.33-.01.59-.15.78-.41.36-.21.73-.43,1.09-.64,2.75-.3,3.24-3.79,5.91-4.19,1.16-.06,1.7-.88,2.2-1.76.3,0,.56-.08.8-.26,1.66.19,3.3.33,3.83-1.84.97-1.57,2.41-2.48,4.02-3.38,5.66-3.17,10.64-7.32,15.6-11.46.92,1.19,1.78,1.09,2.6-.11.63-.09,1.25-.17,1.88-.26,1.52-.35,1.06-1.66,1.28-2.64,2.68,1.36,3.91-1.06,5.64-2.17.6-1.53,2.54-.63,3.31-1.84,2.74-3.73,6.08-6.24,10.95-6.83,1.73-.21,3.25-2.27,4.86-3.48,2.09.5,1.58-.62,1.08-1.73,1.25.29,2-.65,2.92-1.17,1.4-.6,2.8-1.19,4.19-1.79,5.92-5.19,13.03-8.45,19.81-12.27,3.01.5,4.56-.94,5.09-3.78.97-.42,1.93-.84,2.9-1.26.78.07,1.67.36,1.88-.85,2.96-2.72,7.31-3.15,10.12-6.11,1.6.38,2.02-.26,1.48-1.72.22.11.39.07.52-.14,1.53.15,2.96.13,3.13-1.93.62-.06,1.25-.12,1.87-.18,1.09-.17,1.69-.86,1.97-1.89,11.03-5.94,22.06-11.87,33.09-17.81,1.7-.05,3.24-.41,4.1-2.11,2.51-1.4,5.67-1.26,7.89-3.34.31-.23.62-.46.93-.69,0,0,.06-.04.06-.04.34-.31.68-.62,1.02-.94,5.75-2.57,11.42-5.28,17.3-7.59,4.45-1.75,9.74-3.58,13.18-7.21,1.33-1.41,2.92-1.31,3.91-1.75,4.85-2.13,9.19-5.77,13.79-7.26,5.86-1.9,10.61-7.09,17.35-6.3,1.11-3.98,6.03-1.59,8.15-5.25,1.65-2.85,6.82-2.04,10.26-3.89,6.97-3.74,14.45-6.54,21.58-9.99,1.53-.74,3.11.23,4.4-.84.67-.32,1.34-.64,2-.95,3.6-3.23,8.58-2.74,12.7-4.77,5.62-2.76,11.67-4.65,17.52-6.93,2.84-1.11,5.55-2.81,8.85-1.74.13.04.62-1.01.94-1.56.95-.28,2.27.45,2.77-1.03,10.39-3.33,20.77-6.65,31.16-9.98.16.78.72,1.09,1.28.64.22-.18-.09-1.03-.16-1.57,5.46.27,9.84-3.29,14.96-4.23,1.93-.88,4.99,2.03,6.05-1.79.56.04,1.12.07,1.69.11.78,1,1.51.89,2.21-.1,0,0,.06-.04.06-.04.31-.33.61-.67.92-1,0,0,.04-.07.04-.07.36-.29.72-.58,1.08-.87.22.09.44.1.67.05,1.63,1.67,2.12.4,2.58-.99,5.26-.89,10.42-2.17,15.43-4.04,1.12,1.23,2.21,1.19,3.28-.07,5.18-3.16,11.3-3.17,16.91-4.91,9.54-2.96,19.37-5.03,29.09-7.4,6.97-1.7,13.98-3.28,20.96-4.92.81.16,1.46-.11,1.96-.76,3.2-.45,6.4-.9,9.6-1.35,1.1,5.1,3.87,9.84,3.27,15.31-5.8,2.12-12.17,1.78-17.91,4.17-1.1,0-2.27-.29-3.11.76-14.16,2.62-27.91,6.93-41.89,10.28-.83-.17-1.57-.07-2.04.75Z"/>
  <path class="cls-4" d="m529,345.04c7.11-12.09,15.21-23.34,27.87-30.2,3.03-1.64,6.65-1.57,10.4-.44,4.87,1.47,4.29,4.73,5.18,8.53,2.82,11.99-.45,22.78-6.52,32.37-3.04,4.81-4.34,10.96-9.73,14.6-1.96,1.33-2.63,5-4.62,7.24-5.87,6.62-12.71,10.63-21.95,8.93-.94-.17-1.97.15-2.6.21-.4,7.9-3.54,14.23-9.23,19.35-.68.61-1.66.67-1.84,1.97-1.29,9.28-8.28,13.48-15.94,16.1-8.2,2.81-16-4.06-16.95-14.66-.85-9.51.73-18.61,4.09-27.81,3.73-10.23,9.68-18.96,15.97-27.31,4.25-5.64,9.68-11.87,18.79-10.4,2.73.44,4.02,2.44,6.07,3.55.56.72,1.05.41,1.44-.14.54-.76.37-1.42-.45-1.88Z"/>
  <path class="cls-4" d="m607.74,456.44c1.77,5.85-1.33,10.64-4.15,15.55-3.7,6.46-14.57,5.34-19.81.13-7.77-7.73-10.16-17.91-12.75-27.94-1.97-7.63-1.59-15.25.85-22.82,1.78-5.52,4.8-10.35,7.8-15.18,2.88-4.64,12.32-5.18,15.51.62,5.35,9.71,8.62,20.03,10.68,30.76,1.18,6.12,3.05,12.25,1.87,18.89Z"/>
  <path class="cls-4" d="m771.99,637.69c.3,2.04,2.94,2.85,2.69,5.18-14.98-.11-29.95-.14-44.95-.64-20.45-.67-40.94-.94-61.46.4-10.4.68-20.89,1.31-31.35,1.76-11.74.51-23.44,2.25-35.13,3.66-10.87,1.31-21.7,2.89-32.33,4.32,1.87,9.86,3.8,19.46,5.51,29.1,2.42,13.69,4.71,27.4,7.01,41.1,2.36,14.07,4.68,28.14,7.01,42.22-3.5.67-6.05-1.58-8.9-2.91-2.23-2.78-.49-6.02-1.05-9.01-1.56-8.26-3.07-16.53-4.5-24.81-1.56-9.05-2.95-18.14-4.49-27.19-1.75-10.32-3.56-20.62-5.39-30.92-.86-4.85-1.38-9.76-2.74-14.54-1.01-3.54,2.84-7.32,7.66-7.48,15.92-.54,31.47-4.07,47.23-5.73,21.56-2.27,43.19-3.8,64.91-4.45,13.6-.41,27.19-.96,40.8-.85,16.49.13,32.95,1.81,49.46.82Z"/>
  <path class="cls-4" d="m360.68,427.44c6.55-8.36,14.56-8.24,20.4-.74,6.33,8.12,11.64,16.79,14.69,26.71,1.18,3.83,2.51,8.02-.46,11.25-3.02,3.3-7.36,2.06-11.01.78-6.3-2.22-10.85-6.87-14.92-11.97-.68-.85-.85-2.23-2.4-1.79-8.94,2.56-15.27-2.14-20.75-8.04-4.87-5.24-8.7-11.23-8.25-18.99.19-3.3-.74-7.89,2.93-8.71,3.55-.8,8.26-1.25,11.48,2.03,2.9,2.95,5.47,6.22,8.29,9.47Z"/>
  <path class="cls-4" d="m316.19,776.97c-.39-1.95-.77-3.91-1.16-5.86,10.92-12.61,22.53-24.56,34.54-36.12,9.26-8.91,17.44-18.94,27.68-26.86,6.97-5.39,12.62-12.33,20.44-16.82,2.04-1.17,2.95-4.58,5.02-6.54,3.76-3.55,5.88-3.09,7.76,2.12,5.79,16.07,11.42,32.2,17.28,48.25,7.41,20.26,12.87,41.09,18.26,61.94.61,2.37,2.19,4.44,2.16,7.01-1.71,2.02-1.56,5.65-5.18,6.02-.38-.5-.88-.96-1.12-1.52-3.59-8.11-5.39-16.87-7.4-25.34-7.17-30.22-19.24-58.76-28.81-88.15-.99-3.05-2.22-3.03-4.27-1.04-10.7,10.39-23.23,18.67-33.27,29.89-12.93,14.46-27.57,27.3-40.55,41.76-3.53,3.93-6.67,8.44-11.39,11.24Z"/>
  <path class="cls-4" d="m440.08,455.27c-.37,9.44.27,18.81-.36,28.2-.27,3.96-2.81,5.36-5.52,5.84-2.7.48-5.65-.14-6.97-3.75-5.19-14.23-6.4-28.79-4.24-43.72.63-4.39,3.57-6.73,7.45-6.08,3.32.56,3.75-1.02,4.71-3.1,2.74-5.95,7.17-6.52,11.56-1.36,8.5,10.01,13.27,22.17,19,33.76.8,1.62,1.18,4.38-.36,5.68-2.08,1.76-4.98,1.71-7.57.7-6.5-2.53-12.08-6.21-15.34-12.7-.62-1.24-.7-2.92-2.36-3.47Z"/>
  <path class="cls-4" d="m376.1,554.34c.16,4.8-2.18,8.97-6.07,10.66-3.44,1.49-7.8.72-10.99-2.79-10.79-11.86-17.63-25.55-19.11-41.59-.27-2.94-2.52-6.13,1.51-9.34,4.07-3.24,9.46-4.25,13.94-1.26,11.91,7.94,14.76,20.79,18.59,33.12,1.12,3.6,2.17,7.3,2.13,11.19Z"/>
  <path class="cls-1" d="m799.21,141.22c.04.21-.04.34-.25.39-.75-.66-3.24,3.08-2.74-1.28.29-2.47-3.16-4.3-2.44-7.3,2.29,0,2.76,1.62,3.48,3.39.65,1.59.09,3.72,1.94,4.8Z"/>
  <path class="cls-1" d="m681.41,337.17c1.54,2.82,4.85,5.13,2.64,9.05-1.06-2.96-3.75-5.45-2.64-9.05Z"/>
  <path class="cls-1" d="m676.16,327.99c2.77,1.7,4.61,3.95,4.41,7.42-3.35-1.36-3.84-4.41-4.41-7.42Z"/>
  <path class="cls-1" d="m170.22,485.09c3.52-.18,5.29,1.31,4.81,4.99-1.91-1.36-4.07-2.49-4.81-4.99Z"/>
  <path class="cls-1" d="m663.04,227.79c1.23-.72,2.43-1.61,3.95-.71-.99,2.04-2.43,1.65-3.95.71Z"/>
  <path class="cls-1" d="m141.3,428c.87.16,2.21-.32,2.33,1,.09,1.01-1.02.95-1.79.97-.18-.66-.36-1.31-.53-1.97Z"/>
  <path class="cls-1" d="m140.3,423.85c1.78.57,2.24,1.56.98,3.1-.58-.95-1.65-1.75-.98-3.1Z"/>
  <path class="cls-1" d="m529,345.04c.82.46.99,1.12.45,1.88-.39.56-.89.86-1.44.14.33-.67.66-1.35.99-2.02Z"/>
  <path class="cls-1" d="m684.11,220.62c1.34-.51,2.68-1.01,4.02-1.52-.56,2.57-2.51,1.46-4.02,1.52Z"/>
  <path class="cls-1" d="m273.83,549.98c-.43.61-.85,1.22-1.28,1.83-.17-.56-.35-1.12-.52-1.69.6-.05,1.2-.1,1.8-.15Z"/>
  <path class="cls-1" d="m226.87,566.4c-.58.59-1.17,1.17-1.75,1.76-.02-.73-.04-1.46-.05-2.19.6.14,1.2.29,1.8.43Z"/>
  <path class="cls-2" d="m727.97,340.29c-.11,1.33-.94,1.75-2.14,1.68.42-.93,1.16-1.47,2.14-1.68Z"/>
  <path class="cls-1" d="m267.78,471.95c-.24-.61-.48-1.23-.72-1.84,1.79,0,.51,1.22.72,1.84Z"/>
  <path class="cls-1" d="m267.01,481.89c.06-1-.15-2.07.79-2.82-.26.94-.53,1.88-.79,2.82Z"/>
  <path class="cls-1" d="m248.24,502.97c.52-.01,1.29-1.03,1.48.13.12.74-.83.82-1.48.9,0-.34,0-.69,0-1.03Z"/>
  <path class="cls-1" d="m692.98,218.03c.3-.77.85-1.02,1.62-.76-.6.13-.35,2.05-1.62.76Z"/>
  <path class="cls-1" d="m657.96,230.71c.02-1.49.78-1.28,1.69-.75-.28.9-1,.78-1.69.75Z"/>
  <path class="cls-4" d="m484.72,498.27c-.68-.54-1.02-1.34-.33-1.9.51-.41,1.02.27,1.31.81-.32.36-.65.73-.98,1.1Z"/>
  <path class="cls-1" d="m144.97,441.08c.99.37,1.08,1.17,1,2.06-.34-.69-.67-1.37-1-2.06Z"/>
  <path class="cls-1" d="m720.1,208.59c.64-.17,1.28-.34,1.92-.51-.43.97-1.19.68-1.92.51Z"/>
  <path class="cls-1" d="m573.07,555.97c.82.05,1.55.26,1.89,1.13-.69-.28-1.65-.09-1.89-1.13Z"/>
  <path class="cls-1" d="m140.07,416.93c-.22.66-.45,1.32-.67,1.98-.04-.61-.08-1.21-.12-1.81.26-.08.52-.13.79-.17Z"/>
  <path class="cls-1" d="m249.05,494.04c-.22.62-.45,1.25-.67,1.87-.18-.77-.06-1.43.67-1.87Z"/>
  <path class="cls-1" d="m146.28,445.01c.39.17.78.35,1.17.52-.21.2-.42.4-.63.6-.57-.18-.76-.55-.54-1.11Z"/>
  <path class="cls-2" d="m761.19,619c.26.29.53.59.79.88-.62.03-.98-.18-.79-.88Z"/>
  <path class="cls-1" d="m140.3,422.33c.28.12.56.24.84.36-.26.09-.51.18-.77.27-.08-.2-.1-.41-.07-.63Z"/>
  <path class="cls-1" d="m596.02,253.09c.12-.47.32-.77.85-.44-.27.16-.55.31-.85.44Z"/>
  <path class="cls-1" d="m594.63,253.19c.46-.03.93-.07,1.39-.1-.37,1.36-.88.74-1.39.1Z"/>
  <path class="cls-1" d="m676.03,327.3s.01.47.01.47c-.12-.12-.25-.25-.37-.37.12-.03.24-.07.36-.1Z"/>
  <path class="cls-1" d="m680.54,335.45c.27-.02.53-.04.8-.06-.13.21-.26.43-.39.64-.33-.06-.47-.25-.4-.58Z"/>
  <path class="cls-1" d="m572.03,555c.32.3.64.6.97.89-.32-.3-.64-.6-.97-.89Z"/>
  <polygon class="cls-1" points="655.46 231.98 655.39 231.98 655.49 232.33 655.46 231.98"/>
  <path class="cls-5" d="m802.92,654.92c-.47-2.03-2.53-3.55-1.86-5.94,9.01,2.25,18.02,4.48,27.02,6.74,6.81,1.71,13.56,3.75,20.45,5.11,8.12,1.6,14.19,7.46,16.72,15.46,5.37,17,7.48,34.56,9.64,52.12,1.32,10.77,3.19,21.49,3.07,32.4-2.12-1.17-4.13-2.6-6.85-2.73-.12,1.7-.23,3.29-.34,4.87-3.19-12.28-2.86-25-4.69-37.46-2.07-14.07-4.16-28.1-7.63-41.89-1.24-4.94-1.71-11.18-4.96-14.2-3.39-3.16-9.64-3.4-14.74-4.65-12.02-2.94-23.9-6.51-35.83-9.82Z"/>
  <path class="cls-5" d="m735.25,798.08c-.16-2.12-.32-4.24-.48-6.36,1.35-.06,2.7-.11,4.05-.17,3.4-.22,6.88-.03,10.18-.73,12.61-2.67,25.45-3.59,38.19-5,12.05-1.33,24.09-2.97,36.12-4.37,15.87-1.84,31.69-4.25,47.63-5.68,1.75,1.85,2.57,3.82.83,6.14-14.04,0-27.71,3.07-41.54,4.84-11.73,1.5-23.49,2.74-35.23,4.21-14.68,1.83-29.4,3.29-44,5.72-5.18.86-10.49.95-15.75,1.4Z"/>
  <path class="cls-1" d="m886.84,628.21c-1.31-2.76-4.1-4.8-3.98-8.25,3.8,1.56,4.04,4.83,3.98,8.25Z"/>
  <path class="cls-1" d="m915.9,685.03c-2.78-1.14-2.01-4.04-3.01-6.07,3.11.98,2.7,3.7,3.01,6.07Z"/>
  <path class="cls-1" d="m783.94,479.05c2.51.38,3.11,1.76,2.12,3.99-1.86-.72-2.21-2.24-2.12-3.99Z"/>
  <path class="cls-1" d="m829.94,512.02c-1.73-.79-3.56-1.5-3.02-4,2.63.11,3.12,1.83,3.02,4Z"/>
  <path class="cls-1" d="m757.98,381.95c-2.41-.2-2.35-2.51-3.35-3.91,2.57.06,2.94,2.01,3.35,3.91Z"/>
  <path class="cls-1" d="m792.94,445.03c-2.16-.68-1.7-2.43-1.65-4.02,2.4.58,1.45,2.54,1.65,4.02Z"/>
  <path class="cls-1" d="m815.95,486.99c-1.9-.74-2.16-2.22-1.81-3.99,2.52.46,1.6,2.48,1.81,3.99Z"/>
  <path class="cls-1" d="m799.94,645.99c-.81-.88-2.81-1.01-1.92-2.99,2.03.1,1.92,1.58,1.92,2.99Z"/>
  <path class="cls-1" d="m776.96,415.77c-1.45-.85-1.92-2.15-1.76-3.75,2.38.41,1.58,2.31,1.76,3.75Z"/>
  <path class="cls-1" d="m798.81,454.42c-1.74-.55-1.94-1.87-1.7-3.41,2.21.32,1.8,1.94,1.7,3.41Z"/>
  <path class="cls-1" d="m800.9,459.13c-2.07-.21-2.02-1.6-1.76-3.12,2.02.23,1.79,1.73,1.76,3.12Z"/>
  <path class="cls-1" d="m917.8,690.02c-1.36-.7-1.23-1.84-.89-3.05,2.22.46,2.66,1.43.89,3.05Z"/>
  <path class="cls-1" d="m870.92,595.03c-1.34-.58-2.26-1.4-1.8-3.04,1.98.2,1.81,1.67,1.8,3.04Z"/>
  <path class="cls-1" d="m794.95,447.88c-1.57-.32-2.15-1.34-2.02-2.86,1.96.04,2.05,1.41,2.02,2.86Z"/>
  <path class="cls-1" d="m742,352.91c-1.33-.5-2.14-1.34-1.87-2.88,1.89.14,1.84,1.53,1.87,2.88Z"/>
  <path class="cls-1" d="m729.99,372.94c1.22.67,1.86,1.71,1.99,3.08-2.1-.1-2.04-1.59-1.99-3.08Z"/>
  <path class="cls-1" d="m773.93,410.08c-1.6-.44-1.79-1.73-1.84-3.1,1.98.22,1.87,1.68,1.84,3.1Z"/>
  <path class="cls-1" d="m875.69,603.59c-.96-1.01-1.59-2.16-1.52-3.61,2.23.47,1.7,2.12,1.52,3.61Z"/>
  <path class="cls-1" d="m817.95,489.84c-1.44-.41-2.07-1.38-1.99-2.84,1.93.07,2.02,1.41,1.99,2.84Z"/>
  <path class="cls-1" d="m812.88,480.18c-.9-.95-1.79-1.9-2.69-2.85,2.51-.58,2.81.94,2.69,2.85Z"/>
  <path class="cls-1" d="m857.91,566.06c-1.24-.65-2.3-1.4-1.77-3.07,1.99.22,1.78,1.7,1.77,3.07Z"/>
  <path class="cls-1" d="m734.98,340.98c-1.41-.48-2.16-1.4-1.89-2.96,1.95.14,1.87,1.58,1.89,2.96Z"/>
  <path class="cls-1" d="m763.95,392.93c-1.42-.47-2.25-1.29-1.72-2.9,1.85.21,1.71,1.6,1.72,2.9Z"/>
  <path class="cls-1" d="m789.94,491.02c1.06.71,1.87,1.56,1.61,2.99-1.82-.3-1.58-1.72-1.61-2.99Z"/>
  <path class="cls-1" d="m809.89,476.03c-1.02-.39-.89-1.2-.76-2.02,1.35.26,2.32.67.76,2.02Z"/>
  <path class="cls-1" d="m831.79,515.45c-1.1-.45-2.18-.91-1.55-2.45,1.47.21,1.72,1.2,1.55,2.45Z"/>
  <path class="cls-1" d="m803.91,519.02c.7.48,1,1.14.88,1.98-1.27-.23-2.35-.54-.88-1.98Z"/>
  <path class="cls-1" d="m853.84,558.24c-1.09-.44-1.95-.96-.8-2.21.89.51.9,1.34.8,2.21Z"/>
  <path class="cls-1" d="m823.9,561.01c.72.49.83,1.2.69,1.98-1.25-.31-2.13-.74-.69-1.98Z"/>
  <path class="cls-1" d="m881.78,616.45c-.89-.58-1.88-1.11-1.31-2.46,1.36.33,1.47,1.33,1.31,2.46Z"/>
  <path class="cls-1" d="m889.88,635.11c-1.31-.11-2.29-.49-1.75-2.13,1.32.1,1.81.89,1.75,2.13Z"/>
  <path class="cls-1" d="m892.85,641.01c-1.06-.38-.91-1.2-.74-2.03,1.37.27,2.32.69.74,2.03Z"/>
  <path class="cls-1" d="m909.92,699.94c.24-1.11,1.21-.9,1.96-1.11-.15,1.26-.21,2.68-1.96,1.11Z"/>
  <path class="cls-1" d="m736.9,343.19c-1.34-.11-2-.82-1.9-2.18,1.37.09,1.97.84,1.9,2.18Z"/>
  <path class="cls-1" d="m725.9,364.05c.76.46.98,1.14.81,1.98-1.26-.25-2.24-.62-.81-1.98Z"/>
  <path class="cls-1" d="m826.93,508.02c-.22-.12-.44-.25-.66-.37.22-.23.44-.47.66-.7,0,.36,0,.71,0,1.07Z"/>
  <path class="cls-1" d="m782.95,427.01c-.6-.04-.9-.33-.77-.96l.77.96Z"/>
  <path class="cls-1" d="m781.95,425.02c-.25-.18-.5-.35-.76-.53.11-.12.22-.24.33-.36.14.3.29.59.43.89Z"/>
  <path class="cls-1" d="m796.94,637.99c-.55-.09-.95-.31-.78-.98l.78.98Z"/>
  <path class="cls-1" d="m897.93,651.97c-1.12-.33-.97-.69-.03-1.07,0,.36.02.71.03,1.07Z"/>
  <path class="cls-1" d="m904.92,664.91c-.67.05-.88-.31-.83-.91.28.3.55.61.83.91Z"/>
  <path class="cls-1" d="m751.93,374.1c-.25-.19-.51-.38-.76-.57.27-.16.53-.31.8-.47-.01.34-.03.69-.04,1.03Z"/>
  <path class="cls-1" d="m776.97,584.93c-.47-.11-.99-.18-.58-.87.19.29.39.58.58.87Z"/>
  <path class="cls-1" d="m804.98,469.42c-.11.04-.22.09-.33.13.12-.06.25-.11.37-.17,0,0-.04.04-.04.04Z"/>
  <path class="cls-1" d="m898.85,705.94c.16-.51.39-.92,1.04-.7-.35.23-.69.47-1.04.7Z"/>
  <path class="cls-1" d="m901.15,703.94c-.18-.7.07-.92.75-.71-.25.24-.5.47-.75.71Z"/>
  <path class="cls-1" d="m918.91,692.01c-.57-.11-.97-.35-.87-1.03.29.34.58.68.87,1.03Z"/>
  <path class="cls-1" d="m783.93,604.06c-.48-.17-.94-.36-.62-1.02.21.34.41.68.62,1.02Z"/>
  <path class="cls-5" d="m272.11,914.83c-.24-1.79-.49-3.58-.73-5.36,2.57.14,4.96.66,7.71-.33,23.17-8.33,46.12-17.22,68.97-26.36,2.02,1.14,2.48,3.49,3.92,5.08-22.1,9.18-44.48,17.61-67.18,25.17-4.1,1.37-8.12,3.63-12.69,1.8Z"/>
  <path class="cls-1" d="m237.23,785.95c.24-3.35-1.59-6.84.71-10.04,1.35,3.46,2.69,6.92-.71,10.04Z"/>
  <path class="cls-1" d="m236.26,800.95c1.05-2.58-1.26-5.51.82-7.98,1.12,2.81,2.48,5.63-.82,7.98Z"/>
  <path class="cls-1" d="m235.24,819.94c-.14-2.38-.67-4.81.93-6.95,1.13,2.51,2.14,5-.93,6.95Z"/>
  <path class="cls-1" d="m244.23,638.98c0-2.33,0-4.66.01-7,2.91,2.34,2.93,4.67-.01,7Z"/>
  <path class="cls-1" d="m236.23,807.94c.01-2,.02-4,.03-6,2.84,2.02,2.87,4.01-.03,6Z"/>
  <path class="cls-1" d="m238.29,755.95c.01-1.71-.97-3.54.62-5.06,1.58,1.9,2.21,3.69-.62,5.06Z"/>
  <path class="cls-1" d="m219.06,825.92c.94,1.22,3.87,1.42,2.06,4.04-2.73-.31-1.9-2.42-2.06-4.04Z"/>
  <path class="cls-1" d="m221.11,796.92c.92,1.68.89,3.37.04,5.06-1.63-1.67-1.61-3.36-.04-5.06Z"/>
  <path class="cls-1" d="m241.22,694.97c0-1.33,0-2.67,0-4,2.63,1.33,2.63,2.66,0,4Z"/>
  <path class="cls-1" d="m247.18,564.93c-1.85-.82-.69-2.59-1.2-3.83,2.91.49,2.36,2.07,1.2,3.83Z"/>
  <path class="cls-1" d="m243.24,649.97c.06-1.38-.76-2.91.74-4.03,1.44,1.65,1.88,3.12-.74,4.03Z"/>
  <path class="cls-1" d="m246.3,586.99c-.14-1.4-.91-2.92.68-4.03,1.43,1.62,1.87,3.08-.68,4.03Z"/>
  <path class="cls-1" d="m219.89,817.94c0,1,0,2,0,3-1.04-.09-2.24-.34-2.24-1.5,0-1.16,1.21-1.41,2.24-1.5Z"/>
  <path class="cls-1" d="m238.34,772.83c-1.59-.83-1.73-1.77-.23-2.85,1.15.86,1.21,1.81.23,2.85Z"/>
  <path class="cls-1" d="m222.04,704.99c2.41,1.34,2.32,2.72.08,4.15-.03-1.38-.05-2.77-.08-4.15Z"/>
  <path class="cls-1" d="m245.22,608.98c0-1,0-2,.01-3,.77.14,1.55.31,1.66,1.28.14,1.23-.69,1.56-1.67,1.72Z"/>
  <path class="cls-1" d="m242.26,682.97c-.02-1-.04-2-.06-3,.98.15,1.82.47,1.7,1.7-.1.97-.87,1.15-1.64,1.3Z"/>
  <path class="cls-1" d="m246.3,571.99c-.09-.78-.31-1.6.67-2.03,1.56,1.27.71,1.74-.67,2.03Z"/>
  <path class="cls-1" d="m224.92,634.03c1.25,1.25.2,1.83-.72,2.44-.11-.92-.17-1.82.72-2.44Z"/>
  <path class="cls-1" d="m222.04,699.97c1.08.68.78,1.33-.03,1.98-1-.68-.97-1.34.03-1.98Z"/>
  <path class="cls-1" d="m239.27,737.96c-.01-.67-.03-1.33-.04-2,.64.1,1.39.17,1.41.98.02.82-.73.91-1.37,1.02Z"/>
  <path class="cls-1" d="m222.03,781.94c-.1.77.07,1.67-.94,2.02-1.57-1.55-.36-1.8.94-2.02Z"/>
  <path class="cls-1" d="m220.83,831.94c.06.62.11,1.24.17,1.86-.31.03-.62.08-.93.15-1.51-1.34-.56-1.74.76-2Z"/>
  <path class="cls-1" d="m234.24,837.94c.02-.72.04-1.45.06-2.17.46.38.93.76,1.39,1.14-.48.34-.97.69-1.45,1.03Z"/>
  <path class="cls-2" d="m222.27,840.93c.64.1,1.39.2,1.37,1.02-.02.81-.77.89-1.41.99.01-.67.03-1.34.04-2.01Z"/>
  <path class="cls-1" d="m213.23,857.19c.04.13.13.33.09.36-.11.09-.28.1-.42.14-.04-.13-.13-.33-.09-.37.11-.09.28-.1.42-.14Z"/>
  <path class="cls-1" d="m224.97,621.29c.15.02.3.03.45.05-.15.08-.3.15-.45.23,0,0,0-.28,0-.28Z"/>
  <path class="cls-2" d="m223.13,765.93c.2.25.4.5.6.74-.35-.13-.55-.37-.6-.74Z"/>
  <path class="cls-1" d="m219.99,813.2c.28.08.56.16.85.24-.27.13-.55.25-.82.38,0-.21,0-.41-.03-.62Z"/>
  <path class="cls-1" d="m235.14,825.47l-.44.1c.14-.11.29-.22.43-.33,0,0,.01.24.01.24Z"/>
  <path class="cls-2" d="m220.07,833.95c.31-.06.62-.11.93-.15,0,.42,0,.84,0,1.27-.31-.37-.62-.75-.93-1.12Z"/>
  <path class="cls-1" d="m234.06,841.91c-.26-.16-.51-.31-.77-.47.26-.16.51-.31.77-.47,0,.31,0,.62,0,.93Z"/>
  <path class="cls-1" d="m222.04,780.98c.26.16.51.31.77.47-.26.16-.51.31-.77.47,0-.31,0-.63,0-.94Z"/>
  <path class="cls-4" d="m870.77,762.95c1.2,4.26,1.79,8.54.17,12.84-15.94,1.43-31.76,3.83-47.63,5.68-12.03,1.4-24.07,3.04-36.12,4.37-12.74,1.4-25.59,2.33-38.19,5-3.3.7-6.78.51-10.18.73-1.29-1-2.79-.5-4.2-.57-.4-.52-.41-1.01.14-1.45.58-2.78.09-5.13-2.66-6.56,1.68-4.89-2.21-3.75-4.6-4.14.21-1.42,1.94-.37,2.29-1.76-6.6-.57-13.01,1.08-19.5,1.16-.63,0-1.26.21-1.88.37-3,.78-7.6-1.2-8.8,1.31-1.5,3.12-.98,7.49-.46,11.21.6,4.3.81,8.55.66,12.85-6.24.36-12.48.9-18.6-.95-.39-6.1-.94-12.19-1.1-18.3-.08-3.02-1.04-4.11-4.11-3.85-10.33.87-20.67,1.55-31.01,2.3-4.92,1.43-10.18-.26-15.05,1.62-.63-3.33-1.85-6.04-5.96-5.73,0,0-.06-.15-.06-.15-.26-.31-.51-.62-.77-.94-2.11-1.59-4.23-3.18-6.34-4.76-.38-11.75-3.56-23.08-6.69-34.19-5.3-18.78-9.9-37.71-14.62-56.62-1.56-6.27-1.76-12.84-4-19.08,13.86-2.46,27.62-3.97,41.37-5.68,5.66-.7,11.42.57,16.83-.86,12.92-3.41,26.16-4.21,39.31-4.53,16.26-.4,32.52-1.29,48.78-1.08,13.01.17,26.2-2.17,39.02,2.15,1.52.51,3.56.27,4.29-1.92,7.28,1.17,14.56,2.35,21.84,3.52,11.93,3.31,23.81,6.88,35.83,9.82,5.1,1.25,11.35,1.5,14.74,4.65,3.25,3.02,3.72,9.26,4.96,14.2,3.47,13.79,5.56,27.82,7.63,41.89,1.83,12.47,1.5,25.19,4.69,37.46Zm-52.81-40.26c.72-2.19-.86-4.41-1.17-6.85-.81-6.5-5.12-10.63-10.92-12.69-5.44-1.93-10.53-.55-15.36,3.05-3.82,2.84-5.75,6.64-8.12,10.44-4.31,6.87-2.41,14.39,4.47,18.36,4.45,2.57,9.25,1.83,13.83,2.7,7.33,1.39,17.22-7.4,17.27-15.01Z"/>
  <path class="cls-4" d="m348.06,882.78c-22.86,9.14-45.81,18.03-68.97,26.36-2.74.99-5.14.46-7.71.33-1.65-.51-2.47-1.68-3.45-3.14-5.3-7.91-8.79-16.93-15.09-24.22-.93-1.07-1.76-2.09-.4-4.07,6.43-9.35,12.42-18.99,18.68-28.45,6.04-9.14,12.17-18.21,18.34-27.26,9.15-13.43,18.38-26.81,27.57-40.21,3.14-.43,4.49-3.16,6.42-5.09,16.21-16.22,33.67-31.07,50.71-46.38,5.45-4.9,10.93-9.78,17.54-13.7-.79,2.46.55,4.13,1.35,5.94.22.67.44,1.33.66,2,.14.59.29,1.18.43,1.76.21.42.41.84.62,1.26.12.62.23,1.24.35,1.86-.1,1.92-.47,3.92,1.63,5.14.1.34.2.67.3,1.01.24.66.49,1.32.73,1.98l.29.96c.24.68.48,1.36.72,2.04.08.35.17.7.25,1.06.19.3.37.61.56.91.16.66.31,1.33.47,1.99.22.35.44.7.67,1.05.11.66.22,1.33.32,1.99.25.67.49,1.34.74,2,.08.34.17.68.25,1.02.26.66.52,1.33.77,1.99.22.27.3.58.26.92.23.68.46,1.37.68,2.05.25.23.36.52.35.85.21.71.43,1.43.64,2.14.43,1.35.86,2.7,1.28,4.05.22.32.45.65.67.97l.31,2.11c0,1.89-.28,3.89,1.9,4.95l.1.08c.25.29.51.58.76.87,4.9,15.09,9.99,30.13,14.62,45.31,2.06,6.75,5.3,13.42,3.64,20.88-1.42,1.3-.15,3.65-1.88,4.83-5.03-3.33-9.05-.31-13.17,2.09-11.27,2.81-21.76,7.76-32.61,11.75-2.51.92-1.81,2.27-1.08,3.76,1.93,3.94,3.93,7.84,5.91,11.75-2.16,2.42-4.92,3.58-8.08,3.92-2.98-3.6-4.29-8.06-6.35-12.14-.79-1.57-1.34-2.69-3.69-1.79-7.98,3.04-16.05,5.82-24.15,8.53-4.17,1.4-2.94,3.33-.55,5.01,2.6,1.84,4.94,3.7,5.7,6.96Zm-24.53-29.35c.14-.65.37-1.29.42-1.94.48-6.31-4.09-9.89-7.88-13.65-1.37-1.36-3.57.97-5.37,1.48-6.68,1.9-12.06,6.13-14.77,12.6-1.52,3.64-1.46,7.98,1.21,11.43,2.62,3.38,10.64,4.52,15.77,2.6,6.72-2.51,10.58-7.08,10.61-12.52Z"/>
  <path class="cls-5" d="m511.03,933.86c-18.36.62-34.54-5.24-50.32-12.84-6.49-3.13-11.93-7.38-16.29-13.07-.78-1.02.46-4.27,2.38-4.98,5.32-1.97,9.79-5.74,15.41-7.05,3.22-.75,5.63-3.21,8.56-4.65,13.2-6.49,26.41-12.9,39.96-18.63,2.34-.99,2.73-2.52,2.64-5.59-.33-10.84-3.22-21.22-4.47-31.87-1.23-10.51-3.17-20.94-4.94-31.38-.86-5.07-.5-10.38-3.47-15.06-1.06-1.67.46-3.55,2-4.33,2.06-1.03,2.41,1.11,2.77,2.34,4.06,13.7,12.46,25.24,18.74,37.83,5.03,10.1,8.76,20.82,14.62,30.55,1.55,2.58,2.5,3.06,5.2,1.78,11.39-5.41,22.88-10.6,34.2-16.17,10.3-5.07,20.31-10.6,30.43-15.96,7.61-4.03,13.56.68,13.61,10.62.06,12.16-3.3,23.4-8.94,34.19-5.54,10.61-12.03,20.33-20.42,28.97-10.15,10.44-21.21,19.41-34.44,25.63-10.31,4.85-21.44,6.63-32.48,8.62-4.99.9-10.1,1.65-14.75,1.03Z"/>
  <path class="cls-5" d="m781.09,651.4c-.73,2.19-2.77,2.43-4.29,1.92-12.83-4.32-26.01-1.98-39.02-2.15-16.26-.21-32.52.68-48.78,1.08-13.16.32-26.4,1.13-39.31,4.53-5.42,1.43-11.17.15-16.83.86-13.74,1.71-27.5,3.22-41.37,5.68,2.25,6.24,2.44,12.8,4,19.08,4.71,18.91,9.32,37.85,14.62,56.62,3.14,11.11,6.31,22.44,6.69,34.19-8.15-3.24-16.78-4.84-25.16-7.27-.91-.26-1.76-.76-2.63-1.14-2.34-14.07-4.65-28.15-7.01-42.22-2.3-13.71-4.59-27.42-7.01-41.1-1.71-9.64-3.63-19.24-5.51-29.1,10.63-1.43,21.46-3.01,32.33-4.32,11.69-1.41,23.39-3.15,35.13-3.66,10.46-.45,20.95-1.08,31.35-1.76,20.52-1.34,41.01-1.07,61.46-.4,14.99.49,29.96.52,44.95.64,2.36,2.68,3.56,6.22,6.41,8.53Z"/>
  <path class="cls-5" d="m395.11,729.77c-.12-.62-.23-1.24-.35-1.86-.21-.42-.41-.84-.62-1.26-.14-.59-.29-1.18-.43-1.76.19-.8.29-1.57-.66-2-.8-1.81-2.14-3.48-1.35-5.94-6.61,3.92-12.09,8.8-17.54,13.7-17.04,15.31-34.5,30.16-50.71,46.38-1.93,1.93-3.28,4.66-6.42,5.09-1.86-1.45-.72-3.4-.84-5.14,4.72-2.8,7.87-7.31,11.39-11.24,12.98-14.46,27.62-27.3,40.55-41.76,10.03-11.23,22.56-19.51,33.27-29.89,2.05-1.99,3.27-2.01,4.27,1.04,9.56,29.39,21.64,57.92,28.81,88.15,2.01,8.47,3.81,17.23,7.4,25.34.25.56.74,1.02,1.12,1.52-3.75,9.99-9.16,19.09-14.97,27.98,1.66-7.45-1.58-14.13-3.64-20.88-4.62-15.18-9.71-30.22-14.62-45.31.11-.61-.24-.82-.76-.87,0,0-.1-.08-.09-.08.04-1.91-.33-3.66-1.9-4.95-.1-.7-.2-1.41-.31-2.11-.22-.32-.45-.65-.67-.97-.43-1.35-.86-2.7-1.28-4.05.17-.83.4-1.67-.64-2.14.01-.34-.11-.62-.35-.85.11-.8.15-1.57-.68-2.05.04-.34-.04-.65-.26-.92.09-.8,0-1.53-.77-1.99-.08-.34-.17-.68-.25-1.02.12-.8.16-1.58-.74-2-.11-.66-.22-1.33-.32-1.99-.22-.35-.44-.7-.67-1.05-.16-.66-.31-1.33-.47-1.99-.19-.3-.37-.61-.56-.91-.08-.35-.17-.7-.25-1.06.16-.82.09-1.56-.72-2.04-.1-.32-.2-.64-.29-.96.11-.79.09-1.54-.73-1.98-.1-.34-.2-.67-.3-1.01.71-2.11-.51-3.61-1.63-5.14Z"/>
  <path class="cls-1" d="m652.97,830.25c.33.03.7-.04.97.1,1.79.92,5.78-.12,5,2.91-.84,3.28-3.82-.1-5.85.2-.57-1.05-.41-2.13-.12-3.21Z"/>
  <path class="cls-1" d="m491.65,948.85c-1.74,2.66-4.92-.03-6.86,1.85-.33-1.75-2.36-4.54,2.22-2.85,1.35.5,3.29-.45,4.64,1Z"/>
  <path class="cls-1" d="m500.24,947.37c-2.05,1.62-4.45,2.16-6.99,2.25,1.29-3.98,4.11-3.21,6.99-2.25Z"/>
  <path class="cls-1" d="m623.96,779.05c4.12-.3,5.34,2.41,5.96,5.73-.29.19-.59.39-.88.58-1.22-2.49-4.32-3.46-5.09-6.31Z"/>
  <path class="cls-1" d="m623.13,777.97c.26.31.51.62.77.94-.26-.31-.51-.62-.77-.94Z"/>
  <path class="cls-1" d="m257.02,297.05c-4.66,3.2-9.32,6.41-13.99,9.61,2.34-5.19,7.42-7.39,11.51-10.71,1.98-1.61,1.82.38,2.48,1.1Z"/>
  <path class="cls-1" d="m317.98,257.09c-2.89,2.51-6.79,3.53-9.41,6.55-.49.57-2.03,2.58-3.64.77,2.33-3.93,8.34-7.3,13.05-7.32Z"/>
  <path class="cls-1" d="m527.03,147.06c-.26,4.18-2.99-.4-4,1.13,1.07-1.29,2.33-1.96,4-1.13Z"/>
  <path class="cls-1" d="m576.11,128.11c-.74,1.58-1.36,3.55-3.39,1.09,1.13-.36,2.26-.72,3.39-1.09Z"/>
  <path class="cls-1" d="m623.21,112.07c-.39,1.14-.65,2.56-2.27,1.05.49-.92,1.35-1.04,2.27-1.05Z"/>
  <path class="cls-1" d="m531.1,145.12c-.08,1.34-.61,2.13-2.11,1.7.12-1.29.9-1.77,2.11-1.7Z"/>
  <path class="cls-1" d="m683.05,85.36c.95-.02,1.91-.05,2.86-.07-.93,1.03-1.88,1.04-2.86.07Z"/>
  <path class="cls-1" d="m666.47,89.13c.26.15.5.3.75.44-.25.14-.5.39-.75.39-.25,0-.5-.25-.75-.39.25-.14.5-.29.75-.44Z"/>
  <path class="cls-1" d="m670.65,91.91c-.19.15-.37.34-.59.44-.06.03-.35-.2-.34-.28.03-.25.16-.49.26-.73.23.19.45.38.68.57Z"/>
  <path class="cls-1" d="m606.02,117.1c-.34,1.14-.43,2.81-2.16,1.03.72-.34,1.44-.69,2.16-1.03Z"/>
  <path class="cls-1" d="m555.76,136c-.6,1.48-1.19.69-1.78-.01.6-1.03,1.19-.14,1.78.01Z"/>
  <path class="cls-1" d="m465.04,138.06c.64-.3,1.28-.6,1.92-.9-.42.77-1.14.9-1.92.9Z"/>
  <path class="cls-1" d="m469.05,136.29c.64,0,1.27,0,1.91,0-.63.86-1.27.86-1.91,0Z"/>
  <path class="cls-1" d="m678.97,97.9c-.31.12-.64.17-.98.16.13-.44.26-.87.38-1.31l.59,1.15Z"/>
  <path class="cls-1" d="m677.94,98.1c-.35.75-.76.79-1.25.12.41-.04.83-.08,1.25-.12Z"/>
  <path class="cls-1" d="m223.06,348.32c-.06.79-.33,1.44-1.2,1.64.26-.65.2-1.54,1.2-1.64Z"/>
  <path class="cls-1" d="m146.03,412.18c-.34.27-.68.54-1.03.81.34-.27.68-.54,1.03-.81Z"/>
  <path class="cls-1" d="m147.06,411.36c-.17.27-.39.47-.66.63.09-.35.31-.56.66-.63Z"/>
  <path class="cls-1" d="m215.97,354.25c-.28.26-.56.51-.84.77.28-.26.56-.51.84-.77Z"/>
  <path class="cls-1" d="m217.04,353.17c-.29.27-.59.54-.88.81.01-.58.3-.85.88-.81Z"/>
  <path class="cls-1" d="m288,301.3c-.28.22-.56.45-.84.67.28-.23.56-.45.84-.67Z"/>
  <path class="cls-1" d="m286.97,302.16c-.32.28-.65.57-.97.85.32-.28.65-.57.97-.85Z"/>
  <path class="cls-1" d="m49.99,563c-.64.92-1.28,1.84-1.92,2.76-.02-1.38.04-2.7,1.92-2.76Z"/>
  <path class="cls-1" d="m61.28,551.11c-.73.57-1.47,1.14-2.2,1.72.12-1.36.89-1.88,2.2-1.72Z"/>
  <path class="cls-1" d="m51.67,561.04c-.53.59-1.06,1.18-1.59,1.77.07-1.01.46-1.72,1.59-1.77Z"/>
  <path class="cls-1" d="m47.14,566.08c-.32.32-.64.64-.96.96-.77-.41-.75-.92-.11-1.39.5-.37.83-.01,1.07.43Z"/>
  <path class="cls-1" d="m53.04,559.83c-.3.29-.6.59-.9.88.11-.49-.28-1.5.9-.88Z"/>
  <path class="cls-5" d="m681.2,803.01c6.12,1.85,12.37,1.32,18.6.95,1.46,21.6,2.39,43.21,2.28,64.87-6.41-.43-12.9-.27-18.99-2.82.58-3.65,2.48-7.27-.8-10.84-.85-.92-.39-3.19-.29-4.83.39-6.48.29-12.84-.54-19.39-.73-5.77.31-11.94-.04-17.95-.2-3.33-2.92-6.62-.23-10.01Z"/>
  <path class="cls-1" d="m732.09,782.97c2.75,1.43,3.24,3.78,2.66,6.56-.79-.79-1.46-2.03-2.39-2.28-4.65-1.25-3-2.69-.27-4.28Z"/>
  <path class="cls-1" d="m734.62,790.98c1.42.08,2.91-.42,4.2.57-1.35.06-2.7.11-4.05.17-.28-.2-.33-.45-.16-.74Z"/>
  <path class="cls-5" d="m377.1,876.21c3.16-.35,5.93-1.5,8.08-3.92,9.16,19.59,18.32,39.18,27.48,58.76.44.94.58,1.89.23,2.88-3,.7-6.33.74-7.95,4.11-9.19-19.97-18.39-39.93-27.56-59.91-.26-.57-.21-1.28-.3-1.92Z"/>
  <path class="cls-1" d="m272.03,371.06c-3.65,4.92-8.93,7.71-14,10.77-.23-3.24,2.86-3.63,4.58-4.96,2.9-2.25,5.74-4.77,9.42-5.81Z"/>
  <path class="cls-1" d="m216.01,411.02c-3.08,3.42-6.3,6.67-10.82,8.19,2.7-3.93,6.55-6.34,10.82-8.19Z"/>
  <path class="cls-1" d="m389.12,296.1c-.53,2.83-2.09,4.28-5.09,3.78.87-2.38,2.76-3.38,5.09-3.78Z"/>
  <path class="cls-1" d="m190.57,431.99c-1.82,1.2-2.29,4.43-5.44,3.63.62-2.99,3.05-3.28,5.44-3.63Z"/>
  <path class="cls-1" d="m668.07,173.11c-1.06,3.82-4.12.91-6.05,1.79,1.84-1.2,4.01-1.28,6.05-1.79Z"/>
  <path class="cls-1" d="m184.51,436.08c1,2.35-1.07,2.49-2.32,3.22-.16-1.74.43-2.95,2.32-3.22Z"/>
  <path class="cls-1" d="m305.86,349.02c-.53,2.17-2.17,2.03-3.83,1.84.38-2.47,2.35-1.65,3.83-1.84Z"/>
  <path class="cls-1" d="m180.29,440.1c-.14,1.29-.73,2.08-2.15,1.98-1.71-3.29,1.18-1.6,2.15-1.98Z"/>
  <path class="cls-1" d="m364.22,312.15c-1.4.6-2.8,1.19-4.19,1.79.56-2.55,2.12-2.78,4.19-1.79Z"/>
  <path class="cls-1" d="m331.25,331.17c-.22.98.24,2.29-1.28,2.64-.76-1.46-1.27-2.79,1.28-2.64Z"/>
  <path class="cls-1" d="m340.2,327.15c-.77,1.22-2.72.31-3.31,1.84-.37-3.27,2.03-1.55,3.31-1.84Z"/>
  <path class="cls-1" d="m291.25,358.11c-.72,1.15-1.71,1.87-3.09,1.98.08-2.15,1.72-1.86,3.09-1.98Z"/>
  <path class="cls-1" d="m450.16,262.11c-.86,1.69-2.4,2.05-4.1,2.11.91-1.59,2.4-2.04,4.1-2.11Z"/>
  <path class="cls-1" d="m170.31,448.22c.48,1.24.22,1.9-1.26,1.61.49-.48-1.04-2.54,1.26-1.61Z"/>
  <path class="cls-1" d="m409.14,284.09c-.17,2.06-1.6,2.08-3.13,1.93.75-1.11,1.97-1.47,3.13-1.93Z"/>
  <path class="cls-1" d="m280.08,366.01c.25,3.07-2.23.31-2.92,1.37.43-1.61,1.77-1.29,2.92-1.37Z"/>
  <path class="cls-1" d="m175.91,444.01c-.6.7-1.21,1.39-1.81,2.09-.03-1.25.49-2.02,1.81-2.09Z"/>
  <path class="cls-1" d="m168.1,450.03c-.35.34-.69.67-1.04,1.01-.12-.36-.44-.85-.31-1.05.38-.62.92-.7,1.35.05Z"/>
  <path class="cls-1" d="m357.1,315.11c.5,1.11,1.01,2.24-1.08,1.73.05-.77.22-1.47,1.08-1.73Z"/>
  <path class="cls-1" d="m614.78,190.04c-.5,1.48-1.82.75-2.77,1.03.61-1.18,1.74-.98,2.77-1.03Z"/>
  <path class="cls-1" d="m220.98,408.01c-.07.71-.52.94-1.17.91-.16-.38-.33-.76-.49-1.14.55.08,1.11.15,1.66.23Z"/>
  <path class="cls-1" d="m223.01,407.01c-.66.29-1.31.57-1.97.86,0-1.8.99-1.3,1.97-.86Z"/>
  <path class="cls-1" d="m225.2,404.06c-.35.92.32,2.28-1.17,2.72.05-1.05-.13-2.2,1.17-2.72Z"/>
  <path class="cls-1" d="m393.89,294c-.21,1.2-1.09.92-1.88.85-.01-1.7.91-1.32,1.88-.85Z"/>
  <path class="cls-1" d="m405.49,286.16c.54,1.46.12,2.1-1.48,1.72.08-.93.41-1.65,1.48-1.72Z"/>
  <path class="cls-1" d="m696.03,166.09c-1.07,1.26-2.16,1.3-3.28.07,1.09-.02,2.19-.05,3.28-.07Z"/>
  <path class="cls-1" d="m256.03,382.93c-.06.76.09,1.64-1,1.84.47-.54-.99-2.13,1-1.84Z"/>
  <path class="cls-1" d="m412.98,282.03c-.27,1.03-.88,1.71-1.97,1.89.06-1.25.75-1.84,1.97-1.89Z"/>
  <path class="cls-1" d="m677.32,170.19c-.45,1.39-.95,2.66-2.58.99.86-.33,1.72-.66,2.58-.99Z"/>
  <path class="cls-1" d="m301.23,351.11c-.5.88-1.04,1.7-2.2,1.76.11-1.36.91-1.87,2.2-1.76Z"/>
  <path class="cls-1" d="m572,206.07c-.67.32-1.34.64-2,.95-.05-1.82.95-1.44,2-.95Z"/>
  <path class="cls-1" d="m647.06,179.12c.07.54.39,1.39.16,1.57-.56.46-1.12.14-1.28-.64.37-.31.75-.62,1.12-.94Z"/>
  <path class="cls-1" d="m671.96,173.12c-.7.98-1.43,1.1-2.21.1.74-.03,1.47-.06,2.21-.1Z"/>
  <path class="cls-1" d="m764.96,148.1c-.5.65-1.15.92-1.96.76.65-.25,1.31-.51,1.96-.76Z"/>
  <path class="cls-1" d="m235.14,397.06c-.34.35-.67.69-1.01,1.04-.99-1.64.56-.8,1.01-1.04Z"/>
  <path class="cls-1" d="m293.12,357.06c-.36.21-.73.43-1.09.64.18-.52-.07-1.79,1.09-.64Z"/>
  <path class="cls-1" d="m328.09,334.07c-.82,1.19-1.68,1.3-2.6.11.87-.04,1.73-.07,2.6-.11Z"/>
  <path class="cls-1" d="m672.94,172.08c-.31.33-.61.67-.92,1,.31-.33.61-.67.92-1Z"/>
  <path class="cls-1" d="m674.07,171.14c-.36.29-.72.58-1.08.87.36-.29.72-.58,1.08-.87Z"/>
  <path class="cls-1" d="m460.07,257.1c-.34.31-.68.62-1.02.94.34-.31.68-.62,1.02-.94Z"/>
  <path class="cls-1" d="m458.98,258.08c-.31.23-.62.46-.93.69.31-.23.62-.46.93-.69Z"/>
  <path class="cls-1" d="m153.02,458.94c.09-.13.17-.28.28-.39.02-.02.18.09.28.14-.11.12-.22.23-.33.35,0,0-.23-.1-.23-.1Z"/>
  <path class="cls-1" d="m700.95,181.04c.71-1.18,2.01-.68,3-1.05-.68,1.27-1.88,1.03-3,1.05Z"/>
  <path class="cls-1" d="m596.33,214.07c.69-.85,1.65-.79,2.6-.79-.67.9-1.66.76-2.6.79Z"/>
  <path class="cls-1" d="m756.81,166.98c.84-1.05,2.01-.77,3.11-.76-.84,1.06-1.99.83-3.11.76Z"/>
  <path class="cls-1" d="m712.88,178.01c.47-.82,1.21-.92,2.04-.75-.51.71-1.25.8-2.04.75Z"/>
  <path class="cls-5" d="m817.96,722.69c-.04,7.61-9.93,16.4-17.27,15.01-4.58-.87-9.38-.13-13.83-2.7-6.88-3.97-8.77-11.49-4.47-18.36,2.38-3.8,4.31-7.59,8.12-10.44,4.83-3.6,9.92-4.98,15.36-3.05,5.8,2.06,10.11,6.18,10.92,12.69.3,2.44,1.88,4.67,1.17,6.85Z"/>
  <path class="cls-5" d="m323.53,853.43c-.02,5.44-3.89,10.01-10.6,12.52-5.13,1.92-13.15.79-15.77-2.6-2.67-3.44-2.73-7.79-1.21-11.43,2.71-6.48,8.09-10.71,14.77-12.6,1.8-.51,4-2.84,5.37-1.48,3.78,3.76,8.36,7.34,7.88,13.65-.05.65-.28,1.29-.43,1.94Z"/>
  <path class="cls-1" d="m407.01,766.01c1.57,1.29,1.94,3.04,1.9,4.95-2.18-1.06-1.89-3.06-1.9-4.95Z"/>
  <path class="cls-1" d="m395.11,729.77c1.12,1.53,2.34,3.03,1.63,5.14-2.1-1.22-1.73-3.22-1.63-5.14Z"/>
  <path class="cls-1" d="m403.07,753.83c.84.48.8,1.26.68,2.05-.23-.68-.46-1.37-.68-2.05Z"/>
  <path class="cls-1" d="m404.11,756.74c1.04.47.81,1.31.64,2.14-.21-.71-.43-1.43-.64-2.14Z"/>
  <path class="cls-1" d="m393.06,722.88c.95.43.85,1.2.66,2-.22-.67-.44-1.33-.66-2Z"/>
  <path class="cls-1" d="m397.04,735.92c.82.45.84,1.19.73,1.98-.24-.66-.49-1.32-.73-1.98Z"/>
  <path class="cls-1" d="m398.07,738.86c.81.48.88,1.22.72,2.04-.24-.68-.48-1.36-.72-2.04Z"/>
  <path class="cls-1" d="m401.05,747.9c.91.42.86,1.2.74,2-.25-.67-.49-1.34-.74-2Z"/>
  <path class="cls-1" d="m402.04,750.92c.78.46.87,1.19.77,1.99-.26-.66-.52-1.33-.77-1.99Z"/>
  <path class="cls-1" d="m400.06,744.86c.22.35.44.7.67,1.05-.22-.35-.44-.7-.67-1.05Z"/>
  <path class="cls-1" d="m399.03,741.96c.19.3.37.61.56.91-.19-.3-.37-.61-.56-.91Z"/>
  <path class="cls-1" d="m394.14,726.65c.21.42.41.84.62,1.26-.21-.42-.41-.84-.62-1.26Z"/>
  <path class="cls-1" d="m406.03,762.93c.22.32.45.65.67.97-.22-.32-.45-.65-.67-.97Z"/>
  <path class="cls-1" d="m409.01,771.04c.52.06.88.26.76.87-.25-.29-.51-.58-.76-.87Z"/>
</svg>