<?xml version="1.0" encoding="UTF-8"?>
<svg id="Layer_1" data-name="Layer 1" xmlns="http://www.w3.org/2000/svg" viewBox="0 0 1024 1024">
  <defs>
    <style>
      .cls-1 {
        fill: #d14741;
      }

      .cls-2 {
        fill: #1f100f;
      }

      .cls-3 {
        fill: #82736e;
      }

      .cls-4 {
        fill: #f7f6f6;
      }

      .cls-5 {
        fill: #efe2d9;
      }
    </style>
  </defs>
  <path class="cls-1" d="m502.96,769.94c-3.05.45-3.42-2.59-4.35-4.04-8.04-12.64-16.58-24.97-23.09-38.56-1.64-3.43-4.03-6.53-5.58-10.14-2.86-6.69-2.56-9.07,4.27-11.73,7.72-3,14.21-7.83,21.05-12.19,2.05-1.31,4.02-2.24,6.56-1.02,3.48,1.66,5.06.48,5.29-3.5.18-3.05-1.42-5.79-.94-8.78,2.65,1.94,5.53-.72,8,.22,7.12,2.69,14.23,5.28,21.83,6.29,5.7.76,10.87-2.83,10.11-7.55-.62-3.84-1.75-7.61-2.87-11.35-3.54-11.86-9.58-22.58-15.49-33.34-1.62-2.95-2.3-7.23-5.29-8.44-3.44-1.38-2.66-2.64-1.55-4.75.93-1.38-.44-2.15-.93-3.04-4.76-8.59-11.05-16.16-16.43-24.33-3.71-5.63-8.37-9.34-15.23-10.63-3.4-.64-7,.63-10.17-1.29-4.17-2.96-8.42-5.18-13.92-3.89-1.81.42-4.71,1.36-5.84-.87-.9-1.79,1.37-3.13,2.45-4.67,5.04-7.23,9.77-14.69,10.63-24.32-4.87,0-9.72.16-14.55-.03-11.05-.43-22.09-1.43-33.13-1.34-4.04.03-8.21-2-12.23.25-2.07,1.16-1.62-1.02-1.93-1.78-2.87-7.04-6.48-13.83-7.31-21.56-.3-2.78-3.23-5.71-1.66-7.91,1.71-2.39,4.88.38,7.47.48,10.87.43,21.1-1.71,31.12-5.93,9.34-3.93,17.34-9.38,24.25-16.85,9.27-10.01,14.45-21.19,13.69-35.15-.64-11.81-.66-12.12-11.49-7.45-2.68,1.16-5.37,2.29-8.06,3.41-2.91,1.22-4.65-1.52-4.05-2.83,3.05-6.66,1.16-13.61,1.74-20.36.8-9.34.07-18.81.9-28.14.46-5.25,1.9-10.6,2.51-15.79,1.44-12.17,5.36-23.72,7.47-35.69,1.5-8.5,4.13-16.8,6.24-25.19,2.9-11.53,7.55-22.53,10.27-34.15,1.23-5.25,2.72-11.12,5.05-15.43,4.91-9.11,8.07-18.82,12.38-28.08,5.66-12.12,11.17-24.31,16.92-36.39,3.97-8.34,10.22-15.17,13.86-23.46,4.31-9.81,11.5-17.86,15.71-27.67,1.35-3.15,4.84-2.14,7.14-1.71,7.61,1.43,15.07-1.04,22.61-.37.28.03.6-.42.89-.41,12.17.41,24.29-2.88,36.51-.56,2.25.43,4.65.19,6.97.16,15.88-.2,31.61,1.91,47.41,2.82,13.45.77,26.85,2.08,40.21,3.41,22.82,2.27,45.7,4.48,68.04,10.35,4.8,1.26,9.87,2.2,14.98,2.74,4.76.51,9.4,3.13,14.33,4.1,13.55,2.68,26.43,7.85,39.88,10.9,11.02,2.5,21,8.29,31.95,10.53,7.72,1.58,14.72,5.17,20.71,8.98,5.33,3.4,11.69,6.76,15.76,12.32-6.02,3.91-11.55,8.64-18.63,10.74-1.74.52-3.64,1.01-5.03,2.08-13.96,10.76-30.32,17.12-45.82,25.05-32.29,16.52-66.83,27.1-101.28,37.82-31.31,9.73-63.09,17.36-96.02,19.1-1.85.1-2.49.88-3.41,2.67-2.33,4.5-2.22,9.24-2.56,13.95-.96,13.22,2.76,22,15.76,26.25,13.4,4.38,26.95,4.07,40.49.64,3.75-.95,7.04-2.54,6.69,3.98-.18,3.47,1.41,7.06,2.36,10.55,4.24,15.63,9.52,30.98,12.01,47.07,1.55,10.01,2.98,20,2.71,30.16-.15,5.72-.38,11.4-.93,17.14-1.06,11.04-.86,21.97-6.12,32.32-3.38,6.65-8.25,11.4-14.05,15.57-4.18,3-8.6.35-12.88.59-4.95.28-9.18-4.49-14.68-1.08-3.14,1.95-3.8,3.24-1.41,5.61,3.37,3.34,7,6.43,10.61,9.51,8.76,7.48,17.58,14.88,26.37,22.33,1.15.97,1.84,1.44.3,3.33-5.46,6.72-10.54,13.77-15.43,20.92-2.16,3.16-3.99,3.65-6.85,1.14-9.42-8.26-19.39-15.66-30.06-22.38-13.64-8.58-26.37-18.61-39.45-28.07-13.63-9.87-27.95-18.75-41.32-29.02-4.71-3.62-10.41-6.02-16.43-7.14-.08-.19-.16-.39-.24-.58-.01.09-.07.22-.03.26.1.1.24.17.37.25,4.69,9.35,9.61,18.6,14.03,28.08,8.64,18.51,16.78,37.26,25.55,55.71,8.39,17.67,16.92,35.27,25.07,53.05,5.9,12.87,11.04,26.09,18.2,38.37,2.8,4.81,6.7,9.68,7.35,14.87.75,6.02,3.54,10.66,5.79,15.81,1.72,3.94,4.58,7.43,4.96,11.92-3.69,2.43-7.9,3.47-12.12,4.49-3.69-.2-7.05,1.11-10.3,2.57-2.11.95.41,1.1.5,1.72-5.58,4.05-13,2.74-18.9,6.99-2.76,1.98-6.61,6.5-11.69,3.78-2.42,3.14-6.32,2.44-9.48,3.63-2.17-2.54-9.04-.21-10.93,3.71l-.22.37c-3.8-.98-7.42.04-11,1.13-1.12.34-2,1.16-1.57,2.61-5.01.95-9.32,4.05-14.44,4.67-4.46-1.07-18.68,4.67-21.66,8.74-2.08-.8-3.48.32-4.64,1.78-1.52,1.92-3.37,2.43-5.63,1.63-1.41-2.06-3.04-.61-4.4-.09-4.55,1.73-9.33,3.03-13.14,6.3-2.57.78-5.36,1.02-7.37,3.12Zm17.01-350.96c20.27,12.76,38.87,5.54,57.36-4.72.98.45.82,1.65.98,2.52,1.54,8.55,6.86,13.13,15.59,13.24,4,.05,8,.05,12,0,8.94-.09,20.08-10.38,19.94-19.38-.16-10.2-1.93-20.11-10.98-26.93-1.91-1.44-3.34-3.05-2.12-6.24,1.72-4.5,1.57-9.49,1.21-14.29-.64-8.6-5.38-15.85-12.26-19.45-10.21-5.34-21.32-3.27-32.15.73-6.42,2.37-11.77,6.07-17.36,9.68-4.62,2.98-8.86,6.34-12.84,10.08-5.48,5.15-8.95,11.88-13.88,17.48-1.87,2.12-2.91,4.96-2.64,7.85.17,1.81-.24,3.49-1.04,4.76-4.74,7.52-4.81,15.49-2.74,23.74-1.63-.31-2.35-1.78-3.35-2.8-1.21-1.23-2.58-1.94-3.93-1.02-1.34.91-2.41,2.62-1.5,4.31,4.62,8.56,9.47,16.8,19.71,20.05,9.52,3.02,18.49-.22,27.68-1.49,3.36-.46,2.47-3.17,2.77-4.72.41-2.14-2.44-2.19-3.57-2.12-3.18.19-6.48.7-9.44,1.84-3.15,1.21-6.73,2.16-9.53,1.58-8.26-1.71-13.96-7.31-17.9-14.69Zm45.14-207.84c14.09-1.39,28.02-6.76,34.36-21.38,1.29-2.98,1.74-6.82-.41-9.5-2.2-2.74-6.29-5.12-9.2-4.65-15.53,2.5-29.41,8.15-37.45,23.17-2.78,5.19-1.99,8.8,3.53,10.52,3.25,1.02,6.72,1.37,9.19,1.84Zm55.97,142.41c6.27-.25,6.78-.96,5.71-7.09-1.76-10.04-7.33-18.04-13.63-25.62-8.89-10.71-20.02-18.85-31.27-26.83-2.52-1.79-6.35.03-9.12,4.05-2.09,3.02-.11,4.44,2.06,5.93,5.25,3.61,10.46,7.23,15.3,11.45,10.96,9.55,19.71,20.62,24.97,34.24,1.13,2.92,1.9,5.8,5.99,3.87Zm-86.81-43.01c.99-.87,2.86-.13,3.95-2.48,2.51-5.37,7.47-7.55,13.19-8.14,4.59-.47,9.57-4.63,10.42-8.73.29-1.42-.32-1.98-1.8-2.23-9.67-1.65-25.07,5.69-29.98,14.39-3.03,5.37-2.05,7.22,4.22,7.19Zm-41.6,138.34c2.35-1.13,6.09-.4,9.58-1.3,3.4-.87,4.6-2.72,2.13-5.95-2.74-3.58-6.07-6.3-9.79-8.89-4.32-3.01-10.02-4.61-12.15-10.28-.51-1.36-1.88-1.9-2.73-1-.95,1.01-3.48,1.07-2.59,3.46,2.34,6.32,3.55,13.04,6.68,19.07,1.61,3.1,3.9,5.28,8.87,4.88Zm16.9,92.73c-1.39-5.21-2.5-10.18-4.08-15.01-.87-2.66-3.44-2.82-5.29-1.31-4.49,3.65-8.29,8.07-11.36,12.95-1.46,2.33-1.58,4.65,2.7,5.31,4.74.73,9.54-.23,14.25,1.25,1.74.55,3.81-.87,3.77-3.19Zm110.34-341.02c3.27.04,8.51-3.49,7.71-5.48-.96-2.37-.83-6.77-4.53-6.16-2.94.49-6.9.52-8.69,3.96-3.38,6.5-3.3,6.54,4.59,7.35.32.03.62.22.93.33Zm-61.35,247.57c4.51.56,7.64-2.61,11.4-4.07,2.86-1.11,1.76-3.5,1.38-4.81-.61-2.09-2.45-.31-3.77-.14-4.72.63-7.17,6.01-12.31,5.9-.68-.01-2.17.48-1.72,1.84.25.75,1.11,1.14,2.04,1.14.99,0,1.98.1,2.97.15Z"/>
  <path class="cls-5" d="m559.81,748.47c5.11-.62,9.43-3.72,14.44-4.67,4.27-.97,8.6-1.74,12.57-3.73,0,0,.22-.37.22-.36,3.51-1,7.02-2,10.52-3,.2-.23.36-.49.48-.77l-.07.06c3.17-1.2,7.06-.5,9.48-3.63,5.08,2.72,8.93-1.8,11.69-3.78,5.91-4.25,13.33-2.94,18.9-6.99,3.88-.02,6.57-2.78,9.8-4.29,4.22-1.02,8.42-2.06,12.12-4.49,1.48,0,3.03.3,4.43-.04,21.63-5.26,42.34-13.31,63.16-20.99,9.29-3.42,18.26-7.79,27.68-10.77,8.47-2.68,17-5.13,25.35-8.2,7.27-.16,13.93-3.07,20.73-5.07,5.56-1.63,11.35-2.94,16.85-4.24,5.89-1.39,11.11-5.33,17.44-4.89.35.02.86-.53,1.11-.93,2.04-3.21,5.24-2.99,8.41-2.88,4.04.17,6.96-2.8,10.59-3.77l.44-.16c3.9-1.19,8.13-1.2,11.75-3.36.38-.23.75-.45,1.13-.68,4.96-1.31,9.91-2.62,14.87-3.93,23.96-6.33,47.59-13.87,71.78-19.38,4.77-1.09,9.85-1.08,14.12-4.21,1.31-.96,3.6-.85,5.16.49,1.31,1.13,1.46,3.07.68,4.14-3.18,4.34-2.17,9.54-2.06,13.97.2,7.85.06,15.72.3,23.57.36,11.6.47,23.21,1.11,34.8.44,7.89,1.58,15.74,2.49,23.6.11.93.14,1.6-.69,2.1-5.28,1.9-10.97,1.69-16.34,3.78-10.82,4.2-22.63,4.55-33.77,8.5-7.89,2.8-16.21,5.75-24.82,6.93-2.25.31-4.91.12-6.83,1.97-3.8-1.78-7.3-1.92-10.11,1.82-6.64.86-12.74,3.61-18.81,6.09-9.65,3.94-20.02,5.5-29.59,9.3-4.31,1.71-9.25-1.15-12.7,2.62-2.41,2.64-5.64,3.15-8.74,3.73-2.61.49-5.08,2.09-7.19,2.31-3.38.36-5.6,3.33-8.96,2.92-3.66-1.73-6.22-.39-8.07,2.91-1.62.58-3.65-.91-5,.99-.73.79-2.58-.85-2.7,1.26l-.06.25c-3.96-1.15-6.74-.27-8.13,2.58-.33,1.07-.96,1.55-2.08,1.04-4.59-1.53-8.26.92-12.07,2.79-.96,4.05-5.7,3.24-7.49,3.6-4.78.94-8.61,4.13-13.36,4.6-8.37,1.15-15.9,4.64-23.38,8.29-4.18,3.25-9.27,4.26-14.14,5.89-5.5,1.85-10.88,4.05-16.31,6.09-2.68.16-5.58-.08-6.34,3.53-.61.06-1.23.11-1.84.17-3.26-.6-5.83.69-8.02,2.96-2.37.74-4.1,3.42-7.07,2.32-4.91,1.25-9.52,3.25-14.03,5.52-5.14,4.66-12.32,5.1-18.15,8.72-2.91,1.81-8.3,2.85-10.94,4.6-4.42,2.93-9.19,3.81-13.68,5.83-.68.31-1.71-.19-2.05.91-.9,2.92-3.07,1.5-4.85,1.4-3.01.57-6.04,1.1-8.02,3.82-.03.3-.08.6-.15.9-.41.17-.81.35-1.22.52l-.15-.31c0-.26.04-.73,0-.74-.65-.11-.49.33-.44.7-.67.04-1.34.09-2.01.13-2.63.75-5.47,1.08-7.02,3.81,0,0-.04.08-.04.08-.41.22-.83.44-1.24.66-10.8,2.78-20.1,9.03-30.19,13.43-4.05,1.76-8.96,2.14-12.49,5.74-2.46,2.51-6.96,1.94-9.73,4.6-1.88,1.8-4.23,3.73-3.28,6.44.76,2.17,3.45,1.86,5.61,1.85,1.82-.01,3.45-.24,5.22-.85,18.87-6.52,37.21-14.36,55.65-21.97,22.17-9.16,44.46-18.05,66.73-26.98,13.3-5.33,26.7-10.39,39.97-15.79,41.64-16.92,84.61-30.21,126.69-45.95,8.47-3.17,17.62-5.5,26.55-7.88,20.51-5.47,40.75-11.94,61.08-18.07,15.97-4.81,32.06-9.18,48.1-13.71,6.75-1.91,14.09-2.51,20.06-6.84.09,10.56.61,21.1,2.02,31.58.14,1.06-.07,1.98-1.06,2.57-4.2-1.3-6.42,2.52-9.64,3.66-8.64,3.04-17.45,5.63-26.19,8.39-2.94-.82-4.25,1.11-5.44,3.24-.84.2-1.69.39-2.53.59-.42-.81-.78-.55-1.11.07-3.82,2.18-9.21,1.56-11.55,6.45-.14.3-.91.48-1.34.42-7.17-.97-12.39,4.41-18.85,5.77-4.97,1.04-8.44,5.02-13.08,6.96-4.38,1.83-8.7,3.33-13.33,4.07-2.32.37-3.36,3.04-5.8,3.14-4.71-2.3-6.5,1.76-9.06,4.15-2.98,0-3.74,3.55-6.55,4-4.01.64-8.04,1.19-11.21,4.34-2.68,2.66-6.73,2.35-10.08,3.92-9.28,4.35-18.74,8.46-28.12,12.5-11.11,4.78-21.68,10.3-32.26,15.98-2.83,1.52-6.02,3.17-9.07,3.23-3.52.06-5.78,2.27-8.49,3.47-3.23,1.44-5.85,4.5-9.63,4.7-3.73.19-5.61,4.37-9.47,3.96-4.39.65-7.99,2.84-11.2,5.77-1.09,1.8-3.02-.21-4.66,1.28-2.47,2.23-5.03,5.44-8.42,5.54-4.92.15-8.13,3.79-12.24,5.37-2.9,1.11-6.79,1.16-9.06,3.44-5.05,5.08-11.76,5.58-17.95,7.74-4.16,1.46-9.35,1.54-11.74,6.5-.69,1.43-.79,3.22-3.22,3.66-1.57.28-1.71,7.05-.28,7.3,5.62.97,11.31,3.72,17.01.8,6.17-3.15,12.62-5.69,18.85-8.68,13.3-6.37,26.81-12.36,40.08-18.82,17.27-8.41,34.73-16.39,52.3-24.17,15.08-6.68,29.87-14,44.96-20.67,14.92-6.6,30.08-12.63,45.06-19.1,17.69-7.63,35.28-15.45,53.26-22.42,14.45-5.6,28.73-11.65,43.01-17.68,3.17-1.34,6.74-2.15,9.12-5.01.01,7.05,2.49,13.97,1.04,21.09-3.48.02-6.52-.46-9.9,2.57-2.32,2.08-6.8,4.78-9.33,4.83-4.51.09-5.43,6.7-10.17,4.31-2.48,4.32-8.3,2.58-11.22,6.25-2.8,3.52-8.24,1.76-11.11,5.2-1.18,1.42-2.6,1.66-4.28,1.93-5.59.9-10.26,4.46-14.56,7.41-3.22,2.22-8.12,1.07-9.92,5.34-3.6-2.19-5.88,1.16-7.01,2.93-1.07,1.68-2.53,1.74-3.25,1.7-4.51-.29-7.89,2.4-11,4.66-2.15,1.55-5.17-.66-6,1.76-1.2,3.48-4.18,3.03-6.57,3.99-.86.34-1.71.47-2.59,1-3.72,2.25-7.48,4.63-11.56,5.98-2.57.85-5.78,1.08-7.74,2.62-5.44,4.27-12.85,4.46-17.96,10.08-2.1,2.31-7.16,5.04-12.01,4.6-1.27-.12-3.23.73-3.89,1.76-3.49,5.47-11.71,2.89-14.76,8.89-6.06-1.04-9.69,4.83-15.22,5.39-.92.09-1.88.69-2.65,1.28-1.32,1.03-6.11,3.79-7.55,4.14-.12.03-.36-.04-.38,0-1.9,4.48-6.61,4.84-10.2,6.58-4,1.93-7.72,4.59-11.62,6.2-6.51,2.7-12.5,6.43-19.04,8.93-3.18,1.21-6.02,3.09-8.8,4.42-3.24,1.55-6.83,2.16-10.12,4.65-2.38,1.8-5.19,4.53-8.3,4.52-2.77,0-4.32,1.19-6.38,2.41-3.03,1.79-6.44,2.94-9.71,4.32-5.08,2.14-9.59,5.39-14.45,7.94-2.26,1.19-3.9,3.51-6.95,3.43-.71-.02-1.8.51-2.11,1.1-1.85,3.49-5.1,4.51-8.59,4.82-1.91.17-1.79.81-1.11,2.06-12.8,3.3-25.62,6.51-38.38,9.92-18.24,4.87-36.59,9.34-54.54,15.25-2.22.73-4.23,1.04-6.15-.31-7.28-5.13-15.64-8.33-23.32-12.76-3.34-1.93-7.14-4.64-11.48-5.15l.02.02c-.74-5.59-6.61-5.32-9.53-6.11-4.18-1.13-7.86-2.68-11.52-4.72-.52-.29-1.3-.13-1.96-.18l.02.02c-5.73-5.29-13.21-7.6-19.87-11.23-9.5-5.18-19.44-9.73-29.57-13.53-9.31-3.49-17.94-8.58-27.56-11.25l.02.02c-4.13-3.92-9.52-5.46-14.72-6.85-7.71-2.05-15.77-4.43-22.24-8.14-8.29-4.76-17.59-5.63-25.71-10.05-10.51-5.73-22.66-7.33-33.3-12.83-5.85-3.03-12.49-2.6-18.73-3.89-1.74-.36-4.23-.23-4.04-2.71.2-2.56.75-5.89,3.91-6.27,5.15-.61,8.38-4.52,12.14-6.99,8.83-5.81,18.3-10.27,27.52-15.27,9.49-5.14,19.28-9.78,28.55-15.29,15.37-9.12,31.84-16.02,47.74-24.04,19.49-9.82,39.62-18.38,59.51-27.42,6.32-2.87,12.72-5.59,19.13-8.28,1.44-.6,2.12-1.49,2.17-2.98,2.01-2.1,4.8-2.34,7.37-3.12,6.52-.18,11.74-4.01,17.55-6.21,2.26.8,4.11.29,5.63-1.63,1.16-1.46,2.56-2.59,4.64-1.78,3.96-.52,7.61-2.48,11.12-3.91,3.46-1.41,7.86-1.54,10.54-4.83Z"/>
  <path class="cls-2" d="m780.58,672.81c-8.34,3.06-16.88,5.52-25.35,8.2-9.42,2.98-18.39,7.34-27.68,10.77-20.82,7.68-41.54,15.72-63.16,20.99-1.4.34-2.95.04-4.43.04-.38-4.49-3.24-7.98-4.96-11.92-2.25-5.16-5.04-9.79-5.79-15.81-.65-5.19-4.55-10.06-7.35-14.87-7.16-12.28-12.31-25.51-18.2-38.37-8.15-17.78-16.68-35.38-25.07-53.05-8.76-18.45-16.91-37.2-25.55-55.71-4.42-9.48-9.34-18.73-14.03-28.08l-.09.07c6.03,1.12,11.72,3.52,16.43,7.14,13.37,10.27,27.68,19.15,41.32,29.02,13.08,9.46,25.82,19.49,39.45,28.07,10.67,6.71,20.64,14.11,30.06,22.38,2.86,2.51,4.69,2.02,6.85-1.14,4.89-7.15,9.97-14.2,15.43-20.92,1.54-1.9.84-2.36-.3-3.33-8.78-7.45-17.61-14.85-26.37-22.33-3.61-3.08-7.24-6.17-10.61-9.51-2.39-2.36-1.73-3.66,1.41-5.61,5.5-3.41,9.74,1.35,14.68,1.08,4.28-.24,8.69,2.42,12.88-.59,5.8-4.17,10.67-8.92,14.05-15.57,5.27-10.35,5.07-21.29,6.12-32.32.55-5.73.78-11.41.93-17.14.27-10.16-1.16-20.16-2.71-30.16-2.49-16.09-7.77-31.44-12.01-47.07-.95-3.49-2.54-7.08-2.36-10.55.34-6.53-2.94-4.93-6.69-3.98-13.54,3.42-27.09,3.74-40.49-.64-13.01-4.25-16.72-13.03-15.76-26.25.34-4.7.22-9.44,2.56-13.95.93-1.79,1.57-2.57,3.41-2.67,32.92-1.74,64.71-9.36,96.02-19.1,34.45-10.71,68.99-21.3,101.28-37.82,15.5-7.93,31.85-14.29,45.82-25.05,1.39-1.07,3.29-1.56,5.03-2.08,7.07-2.1,12.61-6.84,18.63-10.74,6.4,2.7,11.13,7.85,16.82,11.53,9.3,6.02,16.97,14.12,26.61,19.74,3.23,1.88,6.29,4.97,8.99,7.73,2.11,2.16-.28,5.7-2.41,8.26-4.07,4.9-6.97,10.49-8.91,16.57-.21.27-.34.57-.39.9-5.49,9.66-10.63,19.5-15.53,29.48-3.98,8.11-8.21,16.08-11.23,24.62-.57.07-.99.26-.73.96-5.35,10.47-9.52,21.46-14.45,32.11-6.42,13.87-10.09,28.72-16.12,42.71-.95,2.2-1.17,4.72-1.73,7.09-.59.13-1.01.36-.7,1.08-.75,2.7-1.5,5.4-2.24,8.1-.59.02-.95.24-.81.9-1.75,6.63-3.51,13.26-5.26,19.89-.56.16-1,.4-.75,1.11-4.11,12.68-5.56,25.96-8.99,38.81-1.57,5.91-1.68,12.22-2.45,18.35-4.03-1.53-7.18-4.88-9.77-7.63-5.36-5.68-11.25-10.36-17.59-14.73-1.78-1.22-2.29-.28-3,.94-2,3.43-4.7,6.72-7.85,8.57-8.47,4.97-17.7,8.1-27.82,5.99-2.43-.51-3.52-.34-3.81,2.61-.47,4.89-1.36,9.77-2.49,14.56-3.19,13.53-6.74,26.97-9.88,40.51-4.5,19.39-9.4,38.65-16.12,57.43-6.61,18.48-13.32,36.89-22.22,54.43-.4.8-1.72,1.86-.28,3.15,9.33-2.63,18.4-6.4,28.08-7.99l-.06-.06c-.17.27-.27.56-.3.88Zm-17.44-248.89c2.93.17,5.25.41,7.58-.81.97-.51,1.97-1.47,3.23-1,6.21,2.3,12.89.22,19.13,2.08,3.98,1.18,8.97.8,11.2,5.11,1.95,3.76-.11,7.36-2.18,10.62-1.95,3.07-3.84,6.2-6.01,9.11-7.01,9.4-14.12,18.75-24.45,24.88-2.25,1.33-2.19,3-1.19,4.93.91,1.76,1.95,3.47,2.94,5.19,5.73,9.99,13.36,13.26,24.58,10.4,1.52-.39,2.84-.6,4.3.18,6.94,3.72,13.94,2.44,20.81-.1,1.95-.72,4.51-1.97,5.18-3.62,2.88-7.07,7.68-13,7.06-21.93-1.17-16.79-.54-33.57-4.49-50.26-5.02-21.2-9.3-42.52-19.89-61.88-1.04-1.89-1.09-4.5-3.51-5.67-17,22.8-27.69,49.22-44.3,72.77Zm-5.79-12.5c4-2.21,3.39-6.55,5.56-9.54,3.98-5.52,7.63-11.46,10.24-17.72,1.54-3.69,4.09-6.63,5.57-10.18,1.44-3.46,5.04-5.68,5.79-9.15.86-4.03,2.6-6.96,5.78-9.39.96-.73,1.64-2.12,1.97-3.34.88-3.27,2.93-5.66,4.9-8.3,1.58-2.12,4.66-4.4,3.27-7.54-2.12-4.82-12-6.92-16.35-3.87-9.79,6.86-16.81,16.19-22.97,26.2-2.02,3.29-5.23,6.09-5.16,10.46.22,14.03-.57,28.09,1.39,42.37Zm24.51,19.61c-5.84-.12-12.56-.12-19.18,1.85-2.42.72-3.29,1.47-2.82,4,1.65,8.86,3.24,17.71,5.77,26.4,1.06,3.62,2.2,3.78,4.73,1.54,9.87-8.74,17.54-19.4,25.76-29.57,2.05-2.54.32-4.04-2.36-4.17-3.65-.18-7.31-.05-11.89-.05Z"/>
  <path class="cls-2" d="m654.86,960.95c-.68-1.25-.81-1.89,1.11-2.06,3.49-.31,6.74-1.33,8.59-4.82.31-.59,1.4-1.12,2.11-1.1,3.05.09,4.7-2.24,6.95-3.43,4.86-2.56,9.36-5.8,14.45-7.94,3.27-1.38,6.68-2.53,9.71-4.32,2.06-1.22,3.61-2.42,6.38-2.41,3.12,0,5.93-2.72,8.3-4.52,3.28-2.49,6.88-3.1,10.12-4.65,2.78-1.33,5.62-3.21,8.8-4.42,6.54-2.5,12.52-6.23,19.04-8.93,3.9-1.62,7.62-4.27,11.62-6.2,3.6-1.74,8.3-2.1,10.2-6.58.02-.05.25.02.38,0,1.44-.35,6.22-3.11,7.55-4.14.76-.59,1.73-1.19,2.65-1.28,5.52-.57,9.15-6.43,15.22-5.39,3.05-6,11.27-3.42,14.76-8.89.66-1.03,2.63-1.88,3.89-1.76,4.85.44,9.92-2.29,12.01-4.6,5.1-5.62,12.52-5.81,17.96-10.08,1.96-1.54,5.17-1.77,7.74-2.62,4.08-1.35,7.84-3.73,11.56-5.98.89-.54,1.74-.66,2.59-1,2.39-.96,5.37-.51,6.57-3.99.83-2.42,3.86-.21,6-1.76,3.12-2.25,6.49-4.95,11-4.66.72.05,2.18-.02,3.25-1.7,1.13-1.77,3.41-5.12,7.01-2.93,1.81-4.27,6.7-3.12,9.92-5.34,4.3-2.95,8.97-6.51,14.56-7.41,1.69-.27,3.1-.51,4.28-1.93,2.87-3.44,8.31-1.68,11.11-5.2,2.92-3.67,8.74-1.93,11.22-6.25,4.74,2.39,5.67-4.22,10.17-4.31,2.53-.05,7.01-2.75,9.33-4.83,3.38-3.02,6.42-2.54,9.9-2.57,1.9,10.32,1.14,21.04,4.58,31.14.33.98-.14,2.11-.24,3-1.14,10.43,1.37,20.27,4.29,30.07.91,3.05-3.33,10.27-7.06,11.47-5.46,1.75-10.48,4.66-16.25,5.66-5.82,1.01-11.55,2.56-17.32,3.87-.66-.16-.9.22-.99.78-6.66,1.76-13.32,3.52-19.98,5.28-.69-.31-.89.13-1.03.66-12.48,2.47-24.79,5.86-36.91,9.46-10.13,3.01-20.43,5.61-30.53,8.84-8.66,2.77-17.73,4.45-26.62,6.64-11.48,2.83-23.08,5.35-34.46,8.42-8.46,2.28-17.37,2.94-25.44,6.66-.32.13-.64.27-.95.4-5.08-.2-9.73,2.09-14.5,3.17-11.76,2.65-23.48,5.66-35.24,8.43-15.29,3.6-30.49,7.61-45.98,10.34-7.93,1.4-15.36,4.84-23.41,5.71Z"/>
  <path class="cls-1" d="m780.94,671.99c-9.68,1.59-18.75,5.36-28.08,7.99-1.44-1.29-.13-2.35.28-3.15,8.9-17.54,15.61-35.95,22.22-54.43,6.72-18.78,11.62-38.03,16.12-57.43,3.14-13.54,6.69-26.98,9.88-40.51,1.13-4.79,2.01-9.67,2.49-14.56.29-2.95,1.38-3.12,3.81-2.61,10.12,2.1,19.35-1.02,27.82-5.99,3.15-1.85,5.86-5.13,7.85-8.57.71-1.22,1.22-2.16,3-.94,6.34,4.36,12.23,9.04,17.59,14.73,2.59,2.75,5.75,6.1,9.77,7.63-1.74,17.54-2.5,35.15-1.63,52.73.91,18.32,2.65,36.6,6.71,54.61,1.39,6.16,2.93,12.34,3.83,18.63-7.49,2.4-15,4.78-22.48,7.22-1.81.59-3.15,1.8-3.98,3.53,0,0-.44.16-.44.16-3.3-1.72-8.63.18-10.59,3.77-3.17-.11-6.36-.33-8.41,2.88-.25.4-.76.95-1.11.93-6.33-.44-11.55,3.51-17.44,4.89-5.5,1.29-11.29,2.6-16.85,4.24-6.79,2-13.45,4.91-20.73,5.07.03-.32.13-.61.3-.88.15-.06.34-.08.43-.19.22-.27,1.02.56.81-.44-.39.23-.79.46-1.18.69Z"/>
  <path class="cls-2" d="m677.97,815.95c.61-.06,1.23-.11,1.84-.17,2.82.08,5.14-.71,6.34-3.53,5.43-2.05,10.81-4.25,16.31-6.09,4.87-1.63,9.96-2.64,14.14-5.89.89.52,1.74.51,2.8.33,5.81-.96,10.58-4.57,16.13-6.18,1.56-.46,3.88,0,4.45-2.44,4.75-.47,8.58-3.65,13.36-4.6,1.79-.35,6.53.46,7.49-3.6,4.62,1.65,8.39-.37,12.07-2.79,1.12.5,1.75.03,2.08-1.04,3.07.27,5.53-1.37,8.13-2.58l.06-.25c1.01-.18,2.42.49,2.7-1.26,1.36-1.9,3.38-.41,5-.99,2.85-.52,5.59-1.36,8.07-2.91,3.36.42,5.57-2.56,8.96-2.92,2.11-.22,4.58-1.82,7.19-2.31,3.1-.58,6.33-1.09,8.74-3.73,3.45-3.77,8.39-.91,12.7-2.62,9.58-3.8,19.94-5.36,29.59-9.3,6.08-2.48,12.17-5.22,18.81-6.09,3.51.2,6.95-.06,10.11-1.82,1.92-1.85,4.58-1.66,6.83-1.97,8.6-1.18,16.93-4.13,24.82-6.93,11.14-3.96,22.95-4.3,33.77-8.5,5.37-2.09,11.06-1.88,16.34-3.78,2.11,2.98.23,6.8,2.05,9.84-5.97,4.33-13.31,4.94-20.06,6.84-16.04,4.53-32.13,8.89-48.1,13.71-20.33,6.13-40.57,12.6-61.08,18.07-8.94,2.39-18.08,4.71-26.55,7.88-42.08,15.74-85.04,29.03-126.69,45.95-13.27,5.39-26.68,10.46-39.97,15.79-22.27,8.93-44.56,17.81-66.73,26.98-18.44,7.62-36.78,15.45-55.65,21.97-1.77.61-3.41.84-5.22.85-2.16.01-4.85.32-5.61-1.85-.95-2.71,1.4-4.64,3.28-6.44,2.77-2.66,7.27-2.09,9.73-4.6,3.53-3.6,8.44-3.98,12.49-5.74,10.09-4.4,19.4-10.66,30.19-13.43.69.31,1.1.08,1.24-.66l.04-.08c3.16.25,6-.12,7.02-3.81.67-.04,1.34-.09,2.01-.13,0,0,.2.16.2.16l.23-.12s.15.31.15.31c.76.67,1.19.53,1.22-.52.07-.3.12-.6.15-.9,3.71.9,5.84-1.51,8.02-3.82,1.78.09,3.94,1.52,4.85-1.4.34-1.1,1.37-.6,2.05-.91,4.49-2.01,9.26-2.89,13.68-5.83,2.64-1.75,8.03-2.79,10.94-4.6,5.83-3.62,13.01-4.07,18.15-8.72,3.71,1.02,6.78-1.17,9.97-2.28,1.44-.5,4.3-.25,4.06-3.24,2.97,1.1,4.7-1.58,7.07-2.32,3.08.12,6.47,1.05,8.02-2.96Zm-24.61,14.2c-1.28-.54-2.27-.39-2.68,1.1-.55,2.02,1.13,1.51,2.08,1.79,1.94.57,3.74,2.44,5.93.85.4-.29.72-1.47.5-1.7-1.56-1.68-3.9-1.32-5.83-2.04Zm13.92,1.71c-.69-1.94-.9-3.72-3.02-3.05-.28.09-2.03-.49-1.36,1.42.59,1.69,1.37,2.49,3.02,2.55,1.01.04,1.56-.38,1.35-.92Z"/>
  <path class="cls-2" d="m981.87,779.85c-2.38,2.86-5.95,3.67-9.12,5.01-14.28,6.03-28.56,12.08-43.01,17.68-17.97,6.96-35.57,14.79-53.26,22.42-14.98,6.46-30.15,12.5-45.06,19.1-15.08,6.67-29.88,13.99-44.96,20.67-17.56,7.78-35.02,15.76-52.3,24.17-13.27,6.46-26.78,12.44-40.08,18.82-6.24,2.99-12.69,5.53-18.85,8.68-5.7,2.92-11.39.16-17.01-.8-1.43-.25-1.29-7.01.28-7.3,2.43-.44,2.53-2.23,3.22-3.66,2.39-4.95,7.59-5.04,11.74-6.5,6.18-2.17,12.9-2.67,17.95-7.74,2.27-2.28,6.16-2.33,9.06-3.44,4.11-1.58,7.32-5.23,12.24-5.37,3.39-.1,5.96-3.3,8.42-5.54,1.64-1.48,3.57.52,4.66-1.28,4.09-1.23,8.43-1.97,11.2-5.77,3.86.41,5.74-3.77,9.47-3.96,3.79-.19,6.4-3.26,9.63-4.7,2.71-1.2,4.96-3.41,8.49-3.47,3.05-.05,6.24-1.71,9.07-3.23,10.59-5.68,21.15-11.21,32.26-15.98,9.38-4.03,18.84-8.15,28.12-12.5,3.35-1.57,7.41-1.26,10.08-3.92,3.17-3.15,7.2-3.7,11.21-4.34,2.82-.45,3.58-3.99,6.55-4,3.41-.53,6.04-2.77,9.06-4.15,2.44-.1,3.48-2.77,5.8-3.14,4.63-.74,8.95-2.23,13.33-4.07,4.65-1.94,8.11-5.92,13.08-6.96,6.46-1.35,11.68-6.73,18.85-5.77.44.06,1.2-.12,1.34-.42,2.34-4.89,7.73-4.28,11.55-6.45.37-.02.74-.05,1.11-.07.84-.2,1.69-.39,2.53-.59,3.46,1.68,4.54-.63,5.44-3.24,8.74-2.77,17.55-5.35,26.19-8.39,3.23-1.14,5.44-4.96,9.64-3.66,1.71,2,1.1,4.41,1.05,6.66-.05,2.49.23,4.87,1,7.21Z"/>
  <path class="cls-2" d="m520.91,621.04c-1.11,2.11-1.89,3.37,1.55,4.75,2.99,1.2,3.67,5.49,5.29,8.44,5.92,10.76,11.95,21.48,15.49,33.34,1.12,3.74,2.25,7.51,2.87,11.35.76,4.72-4.41,8.31-10.11,7.55-7.59-1.01-14.71-3.6-21.83-6.29-2.48-.94-5.36,1.72-8-.22-3.03-12.35-6.02-24.71-9.08-37.05-2.96-11.92-7.21-23.41-11.96-34.72-.24-.56-.02-1.32,0-1.98,5.08,2.25,10.05,4.77,15.25,6.69,6.91,2.55,12.97,7.27,20.54,8.13Z"/>
  <path class="cls-2" d="m773.16,111c3.37-4.03,9.2-1.86,13.16-5.32,1.47-1.28,5.64.42,8.55.94,2.09.37,4.13,1.05,5.96-.64,3.69-.7,7.6,1.3,11.16-.96,2.79.58,5.5,1.5,8.45,1.24,2.15-.19,3.57,1.08,4.43,3-1.41.13-2.89-.82-4.37.26,1.18,1.08,2.55.13,3.7.57,2.28,2.38,2.74,2.5,5.06,1.46.92-.41,2.62-.56,2.36.45-.92,3.6,2.35,2.91,3.67,4.22,5.37,5.33,10.56,10.81,11.74,18.8.26,1.74.86,3.45,1.48,5.1.95,2.51-.83,2.98-2.32,4.43-4.94,4.84-10.31.15-15.39,1.24-1.86.4-4.12-1.19-5.34-4.37-4.4-11.47-15.72-20.15-30.06-17.7-9.97,1.7-19.39,4.89-29.09,7.25-1.89.46-1.24,4.48-4.73,2.48-4.02-2.31-5.19-4-2.58-7.97,3.46-5.25,6.56-11.02,12.95-13.53.67.02,1.93.79,1.2-.95Z"/>
  <path class="cls-2" d="m259.05,294.79c2.17,1.33,5.54.86,6.19,4.56.22,1.24,2.03.76,3.07.64,4.76-.54,9.23.58,13.66,2.07.78,1.18,1.63,2.29,3.07,2.72,3.08,4.86,2.55,6.7-2.04,8.82-9.85,4.52-19.49,3.31-29.75.81-9.02-2.2-16.25-6.61-23-12.36-6.29-5.35-9.92-12.47-12.61-20.11-1.46-4.15-2.34-8.45-2.01-12.86.18-2.43,2.47-3.89,3.43-6.01.23-.12.46-.24.69-.36-.23-.23-.46-.47-.69-.7,2.16-3.29,5.22-5.72,8.03-8.4,1.59-1.52,2.59,1.47,3.95.23.33.08.66.17.98.25v-.02c-.11,1.4.6,2.08,1.94,2.19,3.31,4.7,3.73,10.34,5.04,15.68,1.11,4.55,2.82,8.74,6.19,12.1.56,1.38,1.52,2.41,2.79,3.15,1.05.91.58,3.4,3.01,2.87.12.33.24.66.36.99.3,1.85,1.81.62,2.67,1.06.22,1.12,1.19.93,1.94,1.14l1.06.83c.1.83-.26,1.77.57,2.43.41.08,1.12.34,1.18.23.34-.62-.21-.68-.64-.78.3-.39.61-.78.91-1.16Z"/>
  <path class="cls-2" d="m410.05,190.97c1.39-2.79,4.21-4.67,4.98-7.86,1.4.02,2.09-.63,1.94-2.06.68-.72,1.37-1.45,2.05-2.17.72.18.98-.09.81-.81,3.97-4.38,7.24-9.6,13.97-10.47.73-.09,2.76.33,3.04-1.52,3.51-1.42,5.66,4,9.31,1.84,4.26,4.53,3.02,10.01-2.59,14.03-6.21,4.45-10.74,10.46-13.47,17.6-1.13,2.97-2.49,5.88-2.83,9.23-.3,2.88-.88,5.62.91,8.06,2.59,3.54,2.77,7.82,4.06,11.75.58,1.76-.01,2.8-1.41,3.32-10.46,3.86-24.52,2.93-26.95-12.53-1.45-9.24.49-17.95,4.94-26.11.2-.37,1.14-.47,1.2-1.26.58.24,1.17.48,1.75.73.09-.3.3-.61.25-.89-.21-1.19-1.22-.75-1.95-.89Z"/>
  <path class="cls-2" d="m429.02,78c.92.48,2.26-.42,2.92.9-1.26.54-2.52,1.09-4.23,1.82,1.87.28,3.25.91,4.33-.55,3.17.64,5.59.66,4.97,5.84-.91,7.61-.25,8-9.04,10.43-.73-.48-.85.13-1.06.59-9.61,3.17-17.95,8.7-25.49,15.14-4.46,3.81-8.91,8.01-11.63,13.66-2.18,4.52-6.89,6.71-10.8,9.57-.74-.46-.87.14-1.07.62-3.78,1.59-7.53-.17-11.29-.26-1.9-.05-3.88-7.64-2.12-9.36,2.55-2.49,2.95-6.14,5.51-8.46.68.09,1.01-.15.8-.87,11.69-15.97,26.77-27.6,45.03-35.16,4.67-.37,8.87-2.28,13.16-3.92Z"/>
  <path class="cls-2" d="m280.9,173.93c2.88-1.46,4.52-3.93,5.68-6.83.61-1.51,1.9-2.12,3.47-2.19.72.19.96-.22,1.03-.84.26-.06.52-.13.78-.22.65.45,1.88.93,1.86,1.36-.14,3.52,1.96,1.81,3.27,1.38.82-.27,1.46-1.09,2.17-1.67q5.39,2.19,2.06,8.04c3.33-.28,4.66.43,2.76,3.97-5.63,10.49-3.72,20.6,1.46,30.81,1.81,3.56,2.03,8.02,2.49,12.13.36,3.23-2.32,5.06-4.9,4.78-4.77-.52-9.67-.91-14.22-2.7-5.34-2.1-6.49-7.16-8.04-11.89.12-.79.62-1.7-.65-2.04.07-3.88-1.74-7.38-2.28-11.19-.58-4.06-.81-7.86.18-11.77,2.52-3.31,3.15-7.1,2.85-11.13Z"/>
  <path class="cls-5" d="m520.91,621.04c-7.57-.86-13.63-5.57-20.54-8.13-5.2-1.92-10.18-4.44-15.25-6.69-1.73-5.46-3.38-10.94-5.21-16.36-.89-2.66-2.25-5.17-1.78-8.11,3.17,1.92,6.77.65,10.17,1.29,6.87,1.3,11.53,5,15.23,10.63,5.38,8.17,11.67,15.74,16.43,24.33.49.89,1.87,1.66.93,3.04Z"/>
  <path class="cls-2" d="m483.92,161.97c-.24-1.73.53-3.52,1.65-4.8,5.03-5.75,10.27-11.16,17.57-14.36,2-.88,1.95.79,3.08.84,5.04.21,9.92,6.15,9.56,10.84-.11,1.44-7.22,5.19-9.12,4.29-5.97-2.82-10.17.65-14.47,3.7-1.61,1.14-3.05,2.37-5.1,2.58-2.18.23-3.63-.28-3.18-3.08Z"/>
  <path class="cls-2" d="m391.29,296.04c-8.82.08-17.26-13.19-13.62-21.22.89-1.95,2.09-2.67,4.12-2.78,2.13-.11,2.8,1.06,3.46,2.76,2.22,5.8,3.99,11.88,9.07,16.09,1.21,1.01.97,2.54.43,3.66-.61,1.25-2.04,1.59-3.46,1.48Z"/>
  <path class="cls-2" d="m592.99,88.84c.14.1.31.17.4.29,1.98,2.67,4.19,6.05,1.81,8.72-2.42,2.72-6.14,1.32-8.69-1.06-2.86-2.67-4.95-2.98-6.52,1.13-.39,1.02.84,3.28-1.27,2.89-1.77-.32-3.75-1.41-4.59-3.4-1.11-2.64,5.58-13.85,8.05-13.05,2.88.93,5.72,2.05,8.68,2.76.26,1.13.59,2.16,2.13,1.71Z"/>
  <path class="cls-2" d="m897.38,174.11c6.8-.04,14.04,8.56,12.76,15.34-.45,2.39-2.36,3.72-4.68,3.54-3.02-.24-6.14-.69-7.46-4.21-1.1-2.93-2.07-5.96-3.57-8.69-.78-1.42-1.96-2.13-1-4.19.98-2.11,2.37-1.81,3.95-1.79Z"/>
  <path class="cls-2" d="m357.48,221c-3.54.47-5.73-1.84-8.05-3.47-.85-.6-.74-2.58-1.07-3.93,3.13-.48,1.4-5.54,4.49-5.28,2.11.18,5.09.62,6,3.38.8,2.42,1.37,4.97,1.69,7.5.35,2.83-2.05,1.47-3.06,1.8Z"/>
  <path class="cls-3" d="m856.16,650.88c.83-1.74,2.17-2.95,3.98-3.53,7.49-2.43,14.99-4.82,22.48-7.22,1.24.55,1.48,1.57,1.29,2.78-4.96,1.31-9.91,2.62-14.87,3.93-1.13-1.04-.95.13-1.13.68-3.62,2.17-7.85,2.17-11.75,3.36Z"/>
  <path class="cls-3" d="m429.02,78c-4.29,1.64-8.49,3.55-13.16,3.92,2.74-3.35,7.04-3.8,10.6-5.6,1.09-.55,2.13.45,2.56,1.68Z"/>
  <path class="cls-3" d="m446.16,167.92c-3.65,2.17-5.81-3.26-9.31-1.84-1.09.02-2.62.53-2.46-1.33.11-1.28,1.36-2.14,2.53-1.68,2.35.93,5.07.94,7.09,2.72.67.08,1.35.17,2.02.25.05.63.09,1.25.14,1.88Z"/>
  <path class="cls-3" d="m299.17,164.93c-.72.57-1.36,1.4-2.17,1.67-1.31.43-3.41,2.14-3.27-1.38.02-.43-1.21-.9-1.86-1.36,2.12-3.21,4.15-2.91,7.31,1.07Z"/>
  <path class="cls-3" d="m280.9,173.93c.3,4.03-.33,7.82-2.85,11.13-1.93-4.45-.22-7.96,2.85-11.13Z"/>
  <path class="cls-3" d="m812,105.02c-3.55,2.26-7.47.26-11.16.96,2.06-3.19,8.09-3.7,11.16-.96Z"/>
  <path class="cls-4" d="m432.05,80.17c-1.07,1.46-2.45.83-4.33.55,1.71-.74,2.97-1.28,4.23-1.82.03.43.07.85.1,1.28Z"/>
  <path class="cls-4" d="m247.99,287.19c-1.27-.75-2.23-1.78-2.79-3.15,2.36-.21,3.07,1.03,2.79,3.15Z"/>
  <path class="cls-4" d="m285.05,304.78c-1.45-.43-2.29-1.54-3.07-2.72,2.03-.23,3.29.41,3.07,2.72Z"/>
  <path class="cls-3" d="m824.2,110.09c-1.15-.44-2.53.51-3.7-.57,1.47-1.08,2.96-.13,4.37-.26.25.65-.08.84-.67.83Z"/>
  <path class="cls-4" d="m446.02,166.04c-.67-.08-1.35-.17-2.02-.25.15-1.03.63-1.89,1.77-1.59,1.19.31.36,1.19.24,1.85Z"/>
  <path class="cls-4" d="m259.05,294.79c-.3.39-.61.78-.91,1.16-.18.18-.36.36-.54.55-.83-.66-.47-1.6-.57-2.43,1.3-1.55,1.74-.65,2.02.71Z"/>
  <path class="cls-4" d="m592.99,88.84c-1.53.45-1.86-.59-2.13-1.71,1.23-.08,2.03.39,2.13,1.71Z"/>
  <path class="cls-4" d="m233.97,256.25c-1.34-.11-2.05-.79-1.95-2.19,1.43.03,2.05.79,1.95,2.19Z"/>
  <path class="cls-4" d="m416.97,181.05c.15,1.44-.54,2.08-1.94,2.06,0-1.3.61-2.01,1.94-2.06Z"/>
  <path class="cls-4" d="m280.14,208.02c1.28.34.78,1.25.65,2.04-1.41-.3-2.24-.78-.65-2.04Z"/>
  <path class="cls-4" d="m255.97,293.24c-.75-.21-1.73-.02-1.94-1.14,1.85-1.68,1.8-.1,1.94,1.14Z"/>
  <path class="cls-4" d="m410.05,190.97c.73.13,1.74-.3,1.95.89.05.27-.16.59-.25.89-.58-.24-1.17-.48-1.75-.73.02-.35.03-.7.05-1.05Z"/>
  <path class="cls-4" d="m232.03,254.08c-.33-.08-.66-.17-.98-.25.22-.37.43-.74.65-1.11.11.45.22.9.34,1.36Z"/>
  <path class="cls-4" d="m773.16,111c.72,1.74-.53.97-1.2.95.4-.32.8-.63,1.2-.95Z"/>
  <path class="cls-4" d="m928.9,892.88c.14-.54.34-.98,1.03-.66l-.41,1.14c-.21-.16-.41-.32-.62-.47Z"/>
  <path class="cls-4" d="m251.35,291.05c-.12-.33-.24-.66-.36-.99.46.09,1.26.11,1.31.3.15.66-.5.62-.95.69Z"/>
  <path class="cls-4" d="m426.92,97.04c.21-.46.33-1.07,1.06-.59l-1.06.59Z"/>
  <path class="cls-4" d="m291.08,164.08c-.07.62-.31,1.02-1.03.84l1.03-.84Z"/>
  <path class="cls-4" d="m894.2,427c-.31-.71.11-.95.7-1.08-.23.36-.47.72-.7,1.08Z"/>
  <path class="cls-4" d="m891.15,436c-.14-.67.22-.89.81-.9-.27.3-.54.6-.81.9Z"/>
  <path class="cls-4" d="m954.69,288.95c.05-.34.18-.64.39-.9.65.64.26.83-.39.9Z"/>
  <path class="cls-4" d="m419.83,178.07c.18.72-.09.99-.81.81.27-.27.54-.54.81-.81Z"/>
  <path class="cls-4" d="m219.07,262.01c.23.23.46.47.69.7-.23.12-.46.24-.69.36,0-.35,0-.71,0-1.06Z"/>
  <path class="cls-4" d="m927.19,344.01c-.25-.7.16-.89.73-.96-.24.32-.49.64-.73.96Z"/>
  <path class="cls-4" d="m885.14,457c-.25-.71.19-.95.75-1.11-.25.37-.5.74-.75,1.11Z"/>
  <path class="cls-4" d="m377.92,136.03c.2-.47.33-1.08,1.07-.62-.36.21-.71.41-1.07.62Z"/>
  <path class="cls-4" d="m949.91,886.93c.1-.56.33-.94.99-.78-.33.26-.66.52-.99.78Z"/>
  <path class="cls-4" d="m370.83,117.08c.21.73-.12.96-.8.87.27-.29.53-.58.8-.87Z"/>
  <path class="cls-5" d="m421.01,920.92c-.07.14-.14.28-.22.42.08-.13.15-.27.23-.4,0,0-.02-.02-.02-.02Z"/>
  <path class="cls-4" d="m773.99,933.3c.32-.13.64-.27.95-.4-.15.53-.41.8-.95.4Z"/>
  <path class="cls-5" d="m497.99,956.91c-.07.14-.14.28-.21.42.08-.13.16-.27.23-.4,0,0-.02-.02-.02-.02Z"/>
  <path class="cls-5" d="m520.99,967.91c-.07.14-.14.28-.22.42.08-.13.15-.27.23-.4,0,0-.02-.02-.02-.02Z"/>
  <path class="cls-2" d="m519.03,418.06c-2.08-8.26-2-16.22,2.74-23.74.8-1.27,1.21-2.95,1.04-4.76-.27-2.89.77-5.73,2.64-7.85,4.93-5.6,8.4-12.33,13.88-17.48,3.98-3.75,8.22-7.1,12.84-10.08,5.59-3.61,10.94-7.31,17.36-9.68,10.83-4,21.93-6.07,32.15-.73,6.88,3.6,11.62,10.84,12.26,19.45.36,4.81.51,9.79-1.21,14.29-1.22,3.19.21,4.8,2.12,6.24,9.05,6.82,10.83,16.73,10.98,26.93.14,9-11,19.29-19.94,19.38-4,.04-8,.04-12,0-8.73-.1-14.05-4.69-15.59-13.24-.16-.87,0-2.06-.98-2.52-18.49,10.27-37.09,17.49-57.36,4.72l.06.07c.13-.84-.17-1.25-1.07-1.07l.07.07Zm92.81-29.9c-1.3-4.77-5.29-.36-7.45-2.18-.08-2.28,1.48-3.89,2.51-5.64,4.37-7.44,4.77-15.15,2.16-23.23-1.26-3.9-3.76-7.14-7.31-8.42-3.44-1.24-7.48-.92-11.05-2.28-3.29-1.25-6.58.76-9.15,1.44-6.71,1.78-13.56,4.07-19.46,8.45-9.64,7.14-18.01,15.27-25.13,25.02-5.14,7.05-10.01,13.78-11.61,22.66-1.41,7.84,1.62,14.09,9.26,16.06,6.46,1.67,12.95,1.59,19.4-.48,7.61-2.44,14.52-6.22,21.39-10.21,2.48-1.44,6.28-5.1,8.36.05,3.05,7.56,8.66,10.93,16.11,12.69,7.12,1.68,13.1-.3,18.39-4.82,6.69-5.72,4.4-12.6,2.1-19.39-1.49-4.42-3.88-8.07-8.53-9.72Z"/>
  <path class="cls-5" d="m565.11,211.14c-2.47-.48-5.93-.83-9.19-1.84-5.51-1.72-6.31-5.33-3.53-10.52,8.05-15.01,21.93-20.67,37.45-23.17,2.91-.47,7,1.91,9.2,4.65,2.16,2.68,1.71,6.52.41,9.5-6.33,14.61-20.26,19.98-34.36,21.38Z"/>
  <path class="cls-2" d="m621.08,353.55c-4.09,1.94-4.86-.94-5.99-3.86-5.26-13.63-14.01-24.69-24.97-34.24-4.84-4.22-10.04-7.84-15.3-11.45-2.17-1.49-4.14-2.91-2.06-5.93,2.77-4.02,6.59-5.84,9.12-4.05,11.25,7.97,22.38,16.12,31.27,26.83,6.3,7.58,11.87,15.58,13.63,25.62,1.07,6.12.56,6.84-5.71,7.08Z"/>
  <path class="cls-2" d="m519.97,418.98c3.94,7.38,9.64,12.98,17.9,14.69,2.8.58,6.38-.37,9.53-1.58,2.96-1.14,6.26-1.64,9.44-1.84,1.13-.07,3.98-.02,3.57,2.12-.3,1.55.59,4.26-2.77,4.72-9.19,1.27-18.16,4.51-27.68,1.49-10.23-3.25-15.08-11.49-19.71-20.05-.91-1.69.16-3.4,1.5-4.31,1.35-.92,2.72-.21,3.93,1.02,1,1.02,1.72,2.49,3.35,2.8,0,0-.07-.07-.07-.07,0,.72.34,1.08,1.07,1.07l-.06-.07Z"/>
  <path class="cls-2" d="m534.27,310.54c-6.26.03-7.24-1.82-4.22-7.19,4.91-8.7,20.31-16.05,29.98-14.39,1.48.25,2.1.81,1.8,2.23-.84,4.1-5.83,8.25-10.42,8.73-5.72.59-10.68,2.77-13.19,8.14-1.1,2.35-2.97,1.61-3.95,2.48Z"/>
  <path class="cls-2" d="m492.67,448.87c-4.97.4-7.26-1.78-8.87-4.88-3.13-6.03-4.34-12.75-6.68-19.07-.89-2.39,1.64-2.45,2.59-3.46.85-.9,2.22-.36,2.73,1,2.13,5.67,7.83,7.27,12.15,10.28,3.71,2.58,7.05,5.3,9.79,8.89,2.47,3.23,1.27,5.08-2.13,5.95-3.49.89-7.22.17-9.58,1.3Zm8.46-6.36c-5.34-3.74-9.9-6.94-15.13-10.61,3.5,12.44,4.04,12.82,15.13,10.61Z"/>
  <path class="cls-2" d="m509.57,541.61c.04,2.32-2.03,3.73-3.77,3.19-4.71-1.48-9.52-.52-14.25-1.25-4.29-.66-4.17-2.98-2.7-5.31,3.06-4.88,6.87-9.3,11.36-12.95,1.85-1.5,4.42-1.35,5.29,1.31,1.57,4.83,2.69,9.8,4.08,15.01Z"/>
  <path class="cls-5" d="m619.91,200.6c-.31-.12-.61-.3-.92-.34-7.89-.81-7.96-.85-4.59-7.35,1.78-3.44,5.74-3.47,8.69-3.96,3.7-.61,3.57,3.79,4.53,6.16.8,1.99-4.44,5.52-7.71,5.48Z"/>
  <path class="cls-2" d="m558.56,448.16c-.99-.05-1.98-.15-2.97-.15-.93,0-1.79-.38-2.04-1.14-.45-1.36,1.04-1.85,1.72-1.84,5.14.11,7.59-5.27,12.31-5.9,1.32-.18,3.16-1.95,3.77.14.38,1.31,1.48,3.7-1.38,4.81-3.76,1.46-6.9,4.63-11.4,4.07Z"/>
  <path class="cls-3" d="m559.81,748.47c-2.69,3.28-7.08,3.42-10.54,4.83-3.51,1.43-7.16,3.39-11.12,3.91,2.98-4.07,17.2-9.8,21.66-8.74Z"/>
  <path class="cls-3" d="m527.87,760.61c-5.81,2.19-11.03,6.03-17.55,6.21,3.82-3.27,8.6-4.57,13.15-6.3,1.36-.52,2.99-1.97,4.4.09Z"/>
  <path class="cls-3" d="m586.82,740.06c-3.97,2-8.3,2.76-12.57,3.73-.43-1.44.45-2.27,1.58-2.61,3.58-1.08,7.19-2.11,11-1.13Z"/>
  <path class="cls-3" d="m597.56,736.7c-3.51,1-7.02,2-10.52,3,1.9-3.92,8.76-6.25,10.94-3.71,0,0,.07-.06.07-.06-.16.26-.32.52-.48.77Z"/>
  <path class="cls-3" d="m647.85,717.29c-3.24,1.5-5.92,4.26-9.8,4.29-.09-.62-2.61-.77-.5-1.72,3.25-1.46,6.61-2.77,10.3-2.57Z"/>
  <path class="cls-2" d="m559.02,494.99c-.12-.08-.27-.15-.37-.25-.04-.04.02-.17.03-.26.08.19.16.39.24.58,0,0,.09-.07.09-.07Z"/>
  <path class="cls-3" d="m739.98,791.98c-.57,2.43-2.88,1.98-4.45,2.44-5.55,1.62-10.33,5.22-16.13,6.18-1.06.18-1.91.19-2.8-.33,7.48-3.65,15.02-7.13,23.38-8.29Z"/>
  <path class="cls-3" d="m662.88,821.24c.24,2.99-2.62,2.75-4.06,3.24-3.19,1.11-6.26,3.3-9.97,2.28,4.51-2.28,9.12-4.27,14.03-5.52Z"/>
  <path class="cls-3" d="m845.12,654.8c1.96-3.59,7.29-5.48,10.59-3.77-3.64.96-6.56,3.94-10.59,3.77Z"/>
  <path class="cls-3" d="m772.91,781c-3.68,2.41-7.45,4.43-12.07,2.79,3.81-1.86,7.48-4.32,12.07-2.79Z"/>
  <path class="cls-3" d="m895.04,743.17c-3.16,1.76-6.59,2.02-10.11,1.82,2.8-3.74,6.31-3.6,10.11-1.82Z"/>
  <path class="cls-3" d="m737,868.98c-2.77,3.8-7.11,4.53-11.2,5.77,3.21-2.93,6.81-5.12,11.2-5.77Z"/>
  <path class="cls-3" d="m677.97,815.95c-1.56,4.01-4.94,3.08-8.02,2.96,2.2-2.28,4.76-3.56,8.02-2.96Z"/>
  <path class="cls-3" d="m783.12,777.37c-2.6,1.21-5.06,2.86-8.13,2.58,1.39-2.85,4.17-3.74,8.13-2.58Z"/>
  <path class="cls-3" d="m870.94,808.74c-3.02,1.38-5.64,3.62-9.06,4.15,2.55-2.4,4.35-6.45,9.06-4.15Z"/>
  <path class="cls-3" d="m798.95,771.97c-2.48,1.55-5.22,2.39-8.07,2.91,1.85-3.3,4.41-4.64,8.07-2.91Z"/>
  <path class="cls-3" d="m686.15,812.26c-1.2,2.82-3.53,3.62-6.34,3.53.76-3.61,3.66-3.37,6.34-3.53Z"/>
  <path class="cls-3" d="m599.17,848.24c-2.18,2.31-4.31,4.73-8.02,3.82,1.98-2.72,5.01-3.25,8.02-3.82Z"/>
  <path class="cls-3" d="m943.98,778.03c-.91,2.61-1.99,4.92-5.44,3.24,1.19-2.13,2.5-4.05,5.44-3.24Z"/>
  <path class="cls-3" d="m587.19,853.26c-1.02,3.7-3.86,4.06-7.02,3.81,1.55-2.73,4.4-3.07,7.02-3.81Z"/>
  <path class="cls-3" d="m785.87,775.87c-.28,1.75-1.68,1.08-2.7,1.26.11-2.1,1.97-.47,2.7-1.26Z"/>
  <path class="cls-3" d="m936.01,781.86c-.37.02-.74.05-1.11.07.33-.62.68-.88,1.11-.07Z"/>
  <path class="cls-1" d="m867.91,647.51c.18-.55,0-1.71,1.13-.68-.38.23-.75.45-1.13.68Z"/>
  <path class="cls-1" d="m597.56,736.7c.16-.26.32-.52.48-.77-.12.29-.28.54-.48.77Z"/>
  <path class="cls-3" d="m589.64,853.17l-.23.12s-.2-.16-.2-.16c-.06-.37-.21-.81.44-.7.04,0,0,.48,0,.74Z"/>
  <path class="cls-3" d="m591,852.96c-.03,1.05-.45,1.19-1.22.52.41-.17.81-.35,1.22-.52Z"/>
  <path class="cls-3" d="m580.13,857.15c-.14.74-.55.96-1.24.66.41-.22.83-.44,1.24-.66Z"/>
  <path class="cls-1" d="m763.14,423.92c16.61-23.55,27.29-49.97,44.3-72.77,2.42,1.17,2.47,3.78,3.51,5.67,10.59,19.35,14.86,40.67,19.89,61.88,3.95,16.69,3.32,33.47,4.49,50.26.62,8.93-4.18,14.86-7.06,21.93-.67,1.66-3.23,2.9-5.18,3.62-6.87,2.54-13.87,3.82-20.81.1-1.45-.78-2.77-.57-4.3-.18-11.22,2.86-18.85-.41-24.58-10.4-.99-1.72-2.02-3.43-2.94-5.19-1-1.94-1.06-3.6,1.19-4.93,10.34-6.12,17.44-15.47,24.45-24.88,2.17-2.91,4.06-6.04,6.01-9.11,2.07-3.26,4.12-6.86,2.18-10.62-2.23-4.31-7.22-3.93-11.2-5.11-6.24-1.86-12.92.22-19.13-2.08-1.26-.47-2.26.49-3.23,1-2.33,1.22-4.65.97-7.58.81Z"/>
  <path class="cls-1" d="m757.35,411.43c-1.96-14.28-1.17-28.34-1.39-42.37-.07-4.37,3.14-7.18,5.16-10.46,6.15-10.01,13.18-19.34,22.97-26.2,4.35-3.05,14.23-.96,16.35,3.87,1.39,3.15-1.69,5.42-3.27,7.54-1.97,2.63-4.02,5.03-4.9,8.3-.33,1.22-1.01,2.61-1.97,3.34-3.19,2.42-4.92,5.36-5.78,9.39-.75,3.47-4.35,5.69-5.79,9.15-1.48,3.55-4.03,6.49-5.57,10.18-2.61,6.26-6.26,12.2-10.24,17.72-2.16,2.99-1.55,7.33-5.56,9.54Z"/>
  <path class="cls-1" d="m781.86,431.04c4.58,0,8.25-.14,11.89.05,2.68.13,4.41,1.63,2.36,4.17-8.22,10.17-15.89,20.83-25.76,29.57-2.53,2.24-3.67,2.08-4.73-1.54-2.54-8.68-4.13-17.53-5.77-26.4-.47-2.53.4-3.28,2.82-4,6.62-1.97,13.34-1.97,19.18-1.85Z"/>
  <path class="cls-2" d="m780.94,671.99c.39-.23.79-.46,1.18-.69.21,1-.59.17-.81.44-.09.11-.28.13-.43.19,0,0,.06.06.06.06Z"/>
  <path class="cls-1" d="m653.36,830.16c1.93.72,4.27.36,5.83,2.04.22.24-.1,1.41-.5,1.7-2.19,1.58-3.98-.28-5.93-.85-.95-.28-2.63.23-2.08-1.79.41-1.49,1.39-1.64,2.68-1.1Z"/>
  <path class="cls-1" d="m667.29,831.86c.21.54-.34.95-1.35.92-1.66-.06-2.44-.86-3.02-2.55-.67-1.92,1.08-1.34,1.36-1.42,2.12-.67,2.33,1.11,3.02,3.05Z"/>
  <path class="cls-4" d="m258.14,295.95c.43.09.99.16.64.78-.06.11-.77-.14-1.18-.23.17-.19.35-.37.53-.55Z"/>
  <path class="cls-5" d="m611.84,388.16c4.65,1.66,7.03,5.31,8.53,9.72,2.3,6.79,4.59,13.67-2.1,19.39-5.29,4.52-11.27,6.5-18.39,4.82-7.45-1.76-13.06-5.14-16.11-12.69-2.08-5.15-5.88-1.49-8.36-.05-6.87,3.99-13.78,7.77-21.39,10.21-6.45,2.07-12.94,2.15-19.4.48-7.64-1.97-10.67-8.23-9.26-16.06,1.6-8.87,6.46-15.61,11.61-22.66,7.12-9.75,15.49-17.89,25.13-25.02,5.9-4.37,12.75-6.66,19.46-8.45,2.57-.68,5.86-2.7,9.15-1.44,3.57,1.36,7.6,1.04,11.05,2.28,3.55,1.27,6.05,4.52,7.31,8.42,2.6,8.08,2.21,15.79-2.16,23.23-1.03,1.75-2.58,3.36-2.51,5.64-2.29,2.4.69,1.79,1.29,1.91,2.02.4,4.14-.88,6.17.27Z"/>
  <path class="cls-3" d="m611.84,388.16c-2.03-1.15-4.15.12-6.17-.27-.6-.12-3.58.5-1.29-1.91,2.17,1.82,6.15-2.6,7.45,2.18Z"/>
  <path class="cls-1" d="m520.03,419.05c-.73.02-1.08-.34-1.07-1.07.9-.19,1.2.23,1.07,1.07Z"/>
  <path class="cls-1" d="m501.13,442.51c-11.09,2.22-11.64,1.84-15.13-10.61,5.23,3.67,9.79,6.86,15.13,10.61Z"/>
</svg>