<?xml version="1.0" encoding="UTF-8"?>
<svg id="Layer_1" data-name="Layer 1" xmlns="http://www.w3.org/2000/svg" xmlns:xlink="http://www.w3.org/1999/xlink" viewBox="0 0 446.24 471.22">
  <defs>
    <style>
      .cls-1 {
        fill: none;
        stroke: #000;
        stroke-miterlimit: 10;
        stroke-width: 13px;
      }
    </style>
    <symbol id="Phoning_It_In" data-name="Phoning It In" viewBox="0 0 409.77 409.77">
      <g>
        <g>
          <path d="m104.25,88.62c.74-.67,1.93-1.84,2.56-2.63.59-.76,1.13-1.48,1.44-2.13.47-.88.68-1.89.88-2.08.25-.22.67-.09,1.01.28l.6.66,4.64,5.09c.56.62.39,1.67-.34,2.34l-16.58,15.11c-.41.37-.89.51-1.08.3-.19-.21-.22-1.15-.53-2.07-.48-1.44-1.62-3.1-2.81-4.57l-15.6-17.12c-1.32-1.28-2.91-2.61-4.25-3.19-.89-.4-1.86-.56-2.05-.76-.19-.21,0-.67.4-1.04l.74-.67,15.31-13.95c.78-.71,1.88-.66,2.51.04l3.37,3.69,1.12,1.23s.3.33.67.74c.34.37.47.85.23,1.07-.21.19-1.19.34-2.12.73-1.72.67-3.92,2.29-5.68,3.75l-1.72,1.57c-.74.67-.83,1.81-.19,2.51l2.84,3.12c.68.66,1.77.71,2.52-.04,1.57-1.58,3.27-3.5,4.09-5.08.44-.92.68-1.89.88-2.08.25-.22.93.2,1.57.9l4.94,5.42c.64.7,1,1.42.75,1.65-.21.19-1.23.3-2.15.69-1.64.67-3.72,2.19-5.43,3.6-.82.67-.87,1.77-.27,2.5l2.58,2.83c.64.7,1.77.71,2.51.04l2.67-2.43Z"/>
          <path d="m115.41,44.14c2.9-1.76,6.34-1.12,7.98,1.59l.84,1.38c.46.76,1.27,1.76,1.88,2.24.66.44,1.39.78,1.53,1.02s-.45.86-1.31,1.38l-6.55,3.98c-.85.52-1.68.76-1.83.52-.14-.24-.06-1.07-.2-1.83-.11-.71-.44-1.36-.46-1.41-.06-.09-.8.29-1.65.81l-3.37,2.05c-.85.52-1.16,1.62-.67,2.42l1.7,2.8c.49.81,1.61,1.04,2.46.52l7.5-4.55c2.9-1.76,6.48-.88,8.04,1.68l6.37,10.49c1.56,2.56.58,6.08-2.27,7.81l-11.63,7.06c-2.75,1.67-6.47,1.01-8.03-1.56l-1.01-1.66c-.49-.81-1.28-1.89-1.86-2.31-.66-.44-1.36-.74-1.5-.97s.45-.86,1.31-1.38l6.55-3.98c.85-.52,1.68-.76,1.83-.52.14.24.08.99.11,1.69.08.67.44,1.36.58,1.6.12.19.94-.05,1.8-.57l3.37-2.05c.85-.52,1.16-1.62.67-2.42l-1.64-2.71c-.49-.81-1.61-1.04-2.46-.52l-7.5,4.55c-3.04,1.84-6.56.86-8.03-1.56l-6.43-10.59c-1.7-2.8-.82-6.06,2.26-7.94l11.63-7.06Z"/>
          <path d="m149.61,29.41c3.19-1.14,6.43.19,7.49,3.17l.54,1.52c.3.84.88,1.98,1.39,2.57.56.57,1.2,1.05,1.29,1.31.09.26-.62.75-1.56,1.09l-7.22,2.57c-.94.34-1.8.41-1.89.14s.15-1.06.17-1.83c.04-.72-.15-1.42-.17-1.47-.04-.1-.84.12-1.78.46l-3.71,1.32c-.94.34-1.47,1.35-1.15,2.24l1.1,3.09c.32.89,1.36,1.34,2.3,1.01l8.26-2.94c3.19-1.14,6.52.45,7.53,3.27l4.12,11.56c1.01,2.82-.67,6.07-3.8,7.19l-12.82,4.56c-3.03,1.08-6.54-.32-7.55-3.15l-.65-1.83c-.32-.89-.87-2.11-1.35-2.64-.56-.57-1.18-.99-1.27-1.26-.09-.26.62-.75,1.56-1.09l7.22-2.57c.94-.34,1.8-.41,1.89-.14.09.26-.12.99-.23,1.67-.06.67.15,1.42.25,1.68.07.21.93.14,1.88-.2l3.71-1.32c.94-.34,1.47-1.35,1.15-2.24l-1.06-2.98c-.32-.89-1.36-1.34-2.3-1.01l-8.26,2.94c-3.35,1.19-6.6-.48-7.55-3.15l-4.15-11.66c-1.1-3.09.42-6.1,3.82-7.31l12.82-4.56Z"/>
          <path d="m185.96,52.28c.99-.15,2.63-.45,3.59-.76.91-.3,1.76-.6,2.38-.97.88-.47,1.62-1.19,1.89-1.24.33-.05.61.3.68.8l.13.88,1.01,6.81c.12.82-.6,1.6-1.59,1.75l-22.19,3.29c-.55.08-1.02-.07-1.06-.35-.04-.27.46-1.08.71-2.01.4-1.46.38-3.48.21-5.37l-3.4-22.91c-.38-1.8-.96-3.79-1.75-5.02-.51-.82-1.23-1.5-1.27-1.78-.04-.27.37-.56.92-.64l.99-.15,20.49-3.04c1.04-.15,1.93.5,2.07,1.43l.73,4.94.24,1.65s.07.44.15.99c.07.49-.08.97-.41,1.02-.27.04-1.18-.39-2.16-.58-1.8-.41-4.53-.28-6.8-.06l-2.31.34c-.99.15-1.7,1.04-1.56,1.97l.62,4.17c.19.93,1.08,1.58,2.11,1.37,2.18-.44,4.67-1.08,6.23-1.93.88-.52,1.62-1.19,1.89-1.23.33-.05.66.69.8,1.62l1.08,7.25c.14.93.03,1.74-.3,1.78-.27.04-1.19-.44-2.17-.63-1.74-.36-4.31-.26-6.52-.04-1.05.1-1.71.98-1.62,1.93l.56,3.79c.14.93,1.08,1.58,2.07,1.43l3.57-.53Z"/>
          <path d="m317.17,83.73l2.74,2.44c1.08.96,2.61,2.33,3.73,3.32.75.66,1.11,1.51.85,1.8-.29.33-1.39.4-2.27.8-1.19.5-2.65,1.73-3.95,3.02l-4.36,4.9c-1.99,2.24-5.69,2.3-8.13.12l-10.21-9.08c-2.37-2.1-2.82-5.85-.83-8.09l18.2-20.45c1.99-2.24,5.84-2.31,8.21-.2l10.21,9.08c2.53,2.25,2.75,5.94.75,8.18l-4.5,5.06c-.63.71-1.77.73-2.51.07l-3.98-3.54c-.79-.7-1.37-1.22-1.33-1.26l-.83-.74c-.46-.41-.57-.95-.27-1.28s1.32-.31,2.25-.6c.38-.18.77-.36,1.22-.62.8-.48.73-1.58-.01-2.24l-2.95-2.62c-.75-.66-1.89-.64-2.51.07l-12.14,13.65c-.63.71-.52,1.84.23,2.5l2.95,2.62c.79.7,1.85.76,2.41.13.55-.62.49-1.64-.13-2.19-.62-.55-.77-1.65-.3-2.5l2.49-4.55c.42-.81,1.44-.95,2.19-.29l2.82,2.51Z"/>
          <path d="m336.49,123.56c-1.71,1.33-3.64,3.11-4.55,4.68-.48.84-.7,1.76-.92,1.93-.22.17-.67-.06-1-.51l-.63-.85-3.14-4.24c-.63-.85-.97-2.25-.46-3.05,1.04-1.67,3.1-3.47,4.73-4.81l1.65-1.22c1.24-1.12,1.49-3.03.56-4.56l-1.45-1.96c-.59-.8-1.27-1.34-1.45-1.21l-.31.23s-.04.03-.13.1l-.13.1-1.74,1.29c-1.84,1.43-4.34,3.56-5.42,5.46-.52.8-.7,1.76-.92,1.93-.22.17-.7-.1-1.06-.6l-.63-.85-5.98-8.08c-.33-.45-.42-.94-.19-1.1.22-.17,1.17-.1,2.11-.32,1.52-.37,3.43-1.43,5.05-2.42l18.21-13.48c1.46-1.29,2.99-2.77,3.79-4.12.48-.84.75-1.79.97-1.96.22-.17.67.06,1,.51l.63.85,11.03,14.91c2.01,2.72,1.47,6.37-.94,8.16l-8.3,6.14c-1.29.96-2.68,1.23-3.92.96-.96-.18-1.23.01-1.18,1.01.14,1.97-.89,3.84-2.36,4.93l-2.9,2.15Zm3.22-17.3c.63.85,1.67,1.04,2.43.48l4.02-2.97c.76-.56.92-1.65.29-2.5l-1.69-2.28c-.59-.8-1.71-1.01-2.47-.45l-4.02,2.97c-.76.56-.84,1.66-.25,2.46l1.68,2.28Z"/>
          <path d="m350.39,154.85c-1.59,1.2-3.3,2.69-4.29,3.99-.56.8-.96,1.65-1.22,1.76-.25.11-.59-.1-.77-.5l-.29-.66-4.32-9.63c-.25-.56-.27-1.16-.02-1.27.25-.11,1.21.13,2.14.02,1.65-.25,3.81-1.28,5.62-2.4l3.27-2.07c.79-.54.81-1.46-.01-2.06l-4.31-3.24c-.8-.56-2.1-.88-2.93-.7l-1.46.41c-1.46.54-2.88,1.17-3.83,1.9-.7.62-1.16,1.49-1.41,1.61-.25.11-.66-.25-.91-.81l-.43-.96-4.23-9.43c-.16-.35-.09-.75.16-.86.25-.11,1.16.15,2.13.26,1.39.11,3.24-.11,4.99-.41l26.36-6.22c.95-.18,2.12-.71,2.56-1.21.44-.5.82-1.16,1.07-1.27.25-.11.62.15.82.61l.34.76,6.91,15.4c.21.46.16.9-.09,1.02-.25.11-.92-.01-1.56-.09-.64-.08-1.81.45-2.55.96l-21.72,15.09Zm6.24-17.16c.82.61,2.06.66,2.8.14l5.85-4.33c.72-.57.61-.82-.3-.66l-9.56,2.16c-.93.23-1.06.9-.24,1.51l1.44,1.18Z"/>
          <path d="m387.5,178.53c.04.16-.15.32-.42.38-.27.06-.78-.16-1.22-.34-.44-.18-1.59-.2-2.56-.21l-10.13.07-23.43.25c-.96.05-1.89-.76-2.11-1.73l-2.26-9.74c-.23-.97.25-2.11,1.13-2.49l20.52-9.84,8.11-3.88c.82-.42,2.19-1.13,2.91-1.7.1-.08.14-.15.19-.16.71-.62,1.33-1.39,1.6-1.45s.54.1.59.32l.1.43,2.45,10.55c.19.81.12,1.51-.15,1.57s-1.17-.36-2.15-.41c-2.01-.05-4.96.98-7.2,1.9l-12.73,6.32c-.87.43-.79.75.18.76,2.52.04,7.3.02,9.82.06.97,0,2.51-.01,3.45-.12,2.25-.12,6.15-.52,8.21-1.73.8-.47,1.42-1.24,1.69-1.3.27-.06.66.64.88,1.56l.38,1.62,2.16,9.3Z"/>
          <path d="m388.7,199.58c.03.55-.16,1.07-.44,1.08-.28.02-1.09-.6-2-.88-1.65-.63-4.22-.76-6.33-.74l-21.07,1.23c-2.1.23-4.58.66-6.2,1.47-.87.38-1.55,1.09-1.83,1.11s-.53-.47-.56-1.02l-.06-1.05-.58-10.03c-.04-.61.16-1.07.44-1.08s1.03.55,1.94.89c1.71.62,4.22.76,6.33.74l21.07-1.23c2.1-.23,4.63-.66,6.2-1.47.87-.44,1.61-1.09,1.88-1.11s.52.41.56,1.02l.06,1.05.59,10.03Z"/>
          <path d="m386.96,231.12c-.36,3.37-2.95,5.72-6.1,5.39l-1.6-.17c-.88-.09-2.17-.06-2.92.14-.75.26-1.46.63-1.74.6-.28-.03-.41-.88-.3-1.88l.8-7.62c.1-.99.41-1.8.69-1.77.28.03.89.6,1.58.95.63.35,1.35.48,1.4.48.11.01.25-.81.36-1.8l.41-3.92c.1-.99-.58-1.9-1.52-2l-3.26-.34c-.94-.1-1.8.65-1.9,1.64l-.92,8.73c-.36,3.37-3.22,5.69-6.21,5.38l-12.2-1.29c-2.98-.31-5.19-3.23-4.84-6.54l1.43-13.53c.34-3.2,3.12-5.76,6.1-5.44l1.93.2c.94.1,2.28.13,2.97-.08.75-.26,1.41-.63,1.68-.6.28.03.41.88.3,1.88l-.8,7.62c-.11.99-.41,1.8-.69,1.77s-.84-.54-1.41-.93c-.58-.34-1.35-.48-1.62-.51-.22-.02-.53.78-.63,1.78l-.41,3.92c-.1.99.58,1.9,1.52,2l3.15.33c.94.1,1.8-.65,1.9-1.64l.92-8.72c.37-3.53,3.29-5.74,6.1-5.44l12.31,1.3c3.26.34,5.32,3.02,4.94,6.61l-1.43,13.53Z"/>
          <path d="m286.97,334.92c-.83.56-2.19,1.53-2.92,2.22-.69.66-1.34,1.29-1.74,1.9-.6.8-.95,1.77-1.18,1.93-.28.19-.68-.01-.96-.43l-.49-.74-3.83-5.73c-.46-.69-.14-1.71.69-2.26l18.65-12.46c.46-.31.95-.37,1.11-.14s.05,1.17.22,2.12c.26,1.49,1.14,3.31,2.1,4.94l12.87,19.25c1.11,1.46,2.48,3.02,3.73,3.79.82.52,1.76.83,1.91,1.06.15.23-.09.66-.55.97l-.83.56-17.22,11.51c-.88.59-1.96.37-2.48-.41l-2.78-4.16-.93-1.39s-.25-.37-.55-.83c-.28-.42-.34-.91-.06-1.09.23-.15,1.23-.16,2.2-.4,1.8-.4,4.22-1.68,6.17-2.86l1.94-1.3c.83-.56,1.09-1.67.57-2.45l-2.34-3.51c-.57-.75-1.65-.97-2.5-.34-1.79,1.33-3.75,2.98-4.8,4.41-.57.85-.95,1.77-1.18,1.93-.28.19-.89-.34-1.42-1.12l-4.07-6.09c-.52-.79-.77-1.56-.5-1.74.23-.15,1.26-.11,2.23-.36,1.72-.42,4-1.61,5.91-2.75.91-.54,1.12-1.62.64-2.43l-2.13-3.19c-.52-.79-1.65-.97-2.48-.41l-3,2Z"/>
          <path d="m269.29,377.21c-3.13,1.3-6.43.15-7.65-2.77l-.62-1.49c-.34-.82-.99-1.93-1.52-2.49-.59-.54-1.25-.98-1.36-1.24-.11-.26.58-.78,1.5-1.17l7.07-2.95c.92-.38,1.78-.5,1.88-.24.11.26-.1,1.06-.08,1.84,0,.72.23,1.41.25,1.46.04.1.83-.17,1.75-.55l3.64-1.52c.92-.38,1.39-1.42,1.03-2.29l-1.26-3.02c-.36-.87-1.43-1.27-2.35-.88l-8.1,3.38c-3.13,1.3-6.54-.1-7.69-2.87l-4.72-11.33c-1.15-2.77.35-6.1,3.42-7.38l12.56-5.23c2.97-1.24,6.55-.02,7.7,2.75l.75,1.79c.36.87.98,2.06,1.49,2.57.59.54,1.23.93,1.34,1.19.11.26-.58.78-1.5,1.17l-7.07,2.95c-.92.38-1.78.5-1.88.24-.11-.26.07-.99.14-1.68.02-.67-.23-1.41-.33-1.67-.09-.21-.94-.09-1.86.29l-3.64,1.52c-.92.38-1.39,1.42-1.03,2.29l1.22,2.92c.36.87,1.43,1.27,2.35.88l8.1-3.38c3.28-1.37,6.61.13,7.7,2.75l4.76,11.43c1.26,3.02-.1,6.12-3.43,7.5l-12.56,5.23Z"/>
          <path d="m253.64,381.03c.17.82-.52,1.63-1.5,1.83l-20.95,4.26c-.98.2-1.93-.29-2.09-1.1l-.3-1.47-1.26-6.2c-.09-.43.04-.91.37-.98.27-.06,1.21.38,2.15.53,1.34.18,3.03.12,4.69-.05l.43-.09c.22-.04.23-.84.04-1.76l-3.93-19.32c-.53-2.05-1.3-4.44-2.28-5.94-.56-.79-1.3-1.38-1.36-1.65-.06-.27.34-.58.88-.69l1.03-.21,9.85-2c.6-.12,1.08,0,1.13.28.06.27-.4,1.1-.6,2.05-.32,1.77-.09,4.27.22,6.36l3.93,19.32c.19.92.51,1.65.72,1.61l.44-.09c1.6-.5,3.18-1.1,4.29-1.78.86-.51,1.55-1.28,1.83-1.33.33-.07.63.33.72.76l.19.93,1.37,6.75Z"/>
          <path d="m84.83,344.24c-2.65-2.12-3.23-5.57-1.25-8.04l1.01-1.26c.55-.69,1.22-1.8,1.46-2.53.19-.77.26-1.57.43-1.79s.96.13,1.74.75l5.98,4.79c.78.62,1.29,1.32,1.12,1.54s-.98.42-1.65.82c-.63.35-1.13.88-1.16.92-.07.09.55.65,1.33,1.27l3.08,2.46c.78.62,1.92.54,2.51-.2l2.05-2.56c.59-.74.42-1.86-.36-2.49l-6.85-5.48c-2.65-2.12-3.05-5.78-1.18-8.13l7.67-9.58c1.87-2.34,5.52-2.63,8.12-.55l10.62,8.5c2.52,2.01,3.17,5.73,1.29,8.07l-1.21,1.52c-.59.74-1.33,1.85-1.53,2.54-.19.77-.23,1.53-.4,1.74s-.96-.13-1.74-.75l-5.98-4.79c-.78-.62-1.29-1.32-1.12-1.53s.9-.42,1.54-.69c.6-.3,1.13-.88,1.3-1.09.14-.17-.37-.87-1.15-1.49l-3.08-2.46c-.78-.62-1.92-.54-2.51.2l-1.98,2.47c-.59.74-.42,1.86.36,2.49l6.85,5.48c2.78,2.22,3.06,5.86,1.29,8.07l-7.73,9.67c-2.05,2.56-5.41,2.85-8.23.6l-10.62-8.5Z"/>
          <path d="m85.13,301.33c-.65-.76-1.77-2-2.54-2.65-.74-.61-1.44-1.18-2.08-1.51-.86-.5-1.87-.75-2.05-.96-.22-.25-.06-.67.32-1l.68-.57,5.25-4.45c.64-.54,1.68-.33,2.33.43l14.51,17.11c.36.42.48.91.27,1.08-.21.18-1.16.18-2.09.46-1.45.43-3.16,1.51-4.67,2.65l-17.66,14.98c-1.33,1.27-2.71,2.81-3.33,4.14-.43.87-.62,1.84-.84,2.02-.21.18-.67-.02-1.03-.44l-.65-.76-13.4-15.79c-.68-.8-.59-1.9.13-2.51l3.81-3.23,1.27-1.08s.34-.29.76-.65c.38-.32.86-.44,1.08-.19.18.21.3,1.21.65,2.14.61,1.74,2.15,4,3.54,5.81l1.51,1.78c.65.76,1.78.89,2.5.28l3.22-2.73c.68-.65.77-1.75.05-2.52-1.52-1.62-3.39-3.39-4.93-4.27-.91-.47-1.87-.74-2.05-.96-.22-.25.23-.93.95-1.54l5.59-4.74c.72-.61,1.46-.94,1.67-.69.18.21.25,1.24.61,2.18.61,1.67,2.05,3.79,3.4,5.56.64.84,1.74.93,2.49.36l2.92-2.48c.72-.61.77-1.75.13-2.51l-2.33-2.75Z"/>
          <path d="m33.7,273.45l-2.95-5.97c-.25-.5-.27-1.04-.02-1.17.25-.12,1.22.08,2.19.04,1.76-.07,4.13-.92,6.07-1.76l19.02-9.4c1.84-1.03,3.96-2.39,5.08-3.75.62-.74,1-1.61,1.25-1.73.25-.12.67.23.92.72l.47.95,4.45,9.01c.25.5.27,1.04.02,1.17-.25.12-1.17-.11-2.14-.06-1.81.09-4.23.97-6.22,1.83l-9.21,4.55c-.85.42-.77.82.17.84l11.79.55c.97.08,2.08.83,2.55,1.78l1.6,3.24c.47.95.39,2.29-.21,3.08l-6.82,9.26c-.55.77-.33,1.09.52.67l10.88-5.44c1.42-.89,2.79-1.87,3.59-2.89.65-.69,1-1.61,1.25-1.73s.64.18.89.67l.42.85,4.55,9.21c.25.5.24.99,0,1.12s-1.17-.1-2.14-.06c-1.27.07-2.88.56-4.4,1.12l-22.21,10.97c-1.37.86-2.74,1.85-3.56,2.81-.62.74-1.05,1.63-1.3,1.76-.25.12-.65-.18-.89-.67l-.42-.85-3.27-6.62c-.39-.8-.29-2.09.29-2.93l10.5-15.22c.58-.84.23-1.54-.71-1.57l-18.75-1.21c-.97-.08-2.08-.83-2.48-1.63l-.76-1.54Z"/>
          <path d="m53.81,233.63c-.21-.98-.62-2.59-.99-3.54-.36-.89-.71-1.72-1.12-2.31-.52-.85-1.3-1.54-1.35-1.81-.07-.33.26-.62.75-.73l.87-.19,6.73-1.45c.81-.17,1.64.5,1.85,1.48l4.72,21.93c.12.54,0,1.02-.28,1.08s-1.11-.39-2.06-.58c-1.49-.3-3.5-.16-5.37.13l-22.64,4.87c-1.77.49-3.72,1.2-4.89,2.08-.79.57-1.42,1.33-1.69,1.39s-.58-.33-.7-.87l-.21-.98-4.36-20.25c-.22-1.03.37-1.96,1.3-2.15l4.89-1.05,1.63-.35s.43-.09.98-.21c.49-.1.97.02,1.04.34.06.27-.31,1.2-.44,2.2-.29,1.82.01,4.54.38,6.79l.49,2.28c.21.98,1.15,1.63,2.07,1.43l4.13-.89c.91-.25,1.51-1.18,1.23-2.2-.58-2.15-1.39-4.59-2.33-6.09-.58-.84-1.3-1.54-1.36-1.81-.07-.33.64-.71,1.57-.91l7.17-1.54c.92-.2,1.73-.14,1.8.18.06.27-.36,1.21-.49,2.21-.25,1.76.02,4.31.38,6.51.17,1.04,1.09,1.64,2.03,1.5l3.75-.81c.92-.2,1.51-1.18,1.3-2.15l-.76-3.53Z"/>
          <path d="m51.27,210.59c-.15-2.44-.51-5.81-1.36-7.84-.37-.93-1.01-1.68-1.02-2.02-.01-.28.42-.52.98-.54l1-.04,6.77-.27c.89-.03,1.64.77,1.68,1.77l.74,18.81c.02.55-.18,1.01-.46,1.02-.28.01-1.02-.57-1.93-.92-1.47-.55-3.64-.75-5.59-.84l-21.8.86c-2.1.19-4.65.57-6.23,1.36-.87.42-1.63,1.06-1.9,1.08s-.52-.42-.54-1.04l-.04-1.05-.4-10.04c-.02-.55.18-1.06.46-1.07.28-.01,1.08.62,1.98.92,1.64.66,4.2.83,6.31.86l19.64-.77c.94-.04,1.72-.12,1.72-.12v-.11Z"/>
        </g>
        <path d="m204.88,84.38c32.19,0,62.45,12.53,85.21,35.29s35.29,53.02,35.29,85.21-12.53,62.45-35.29,85.21c-22.76,22.76-53.02,35.29-85.21,35.29s-62.45-12.53-85.21-35.29c-22.76-22.76-35.29-53.02-35.29-85.21s12.53-62.45,35.29-85.21,53.02-35.29,85.21-35.29m0-10c-72.07,0-130.5,58.43-130.5,130.5s58.43,130.5,130.5,130.5,130.5-58.43,130.5-130.5-58.43-130.5-130.5-130.5h0Z"/>
        <circle class="cls-1" cx="204.88" cy="204.88" r="198.38"/>
        <g>
          <path d="m187.82,201.96l-23.04,23.04,7.53,7.53h0c4.16,4.16,4.16,10.9,0,15.06l-15.06,15.06c-4.16,4.16-10.9,4.16-15.06,0l-7.53-7.53h0c-16.63-16.63-16.63-43.6,0-60.23h0s23.04-23.04,23.04-23.04l-37.8-37.8c-16.01,19.19-25.65,43.89-25.65,70.84,0,61.1,49.53,110.63,110.63,110.63,26.95,0,51.65-9.64,70.84-25.65l-87.9-87.9Zm2.62,63.76l-15.06,15.06c-4.16,4.16-10.9,4.16-15.06,0-4.16-4.16-4.16-10.9,0-15.06l15.06-15.06c4.16-4.16,10.9-4.16,15.06,0h0c4.16,4.16,4.16,10.9,0,15.06Z"/>
          <path d="m171.84,157.7l23.04-23.04c16.63-16.63,43.6-16.63,60.23,0h0s7.53,7.53,7.53,7.53h0c4.16,4.16,4.16,10.9,0,15.06l-15.06,15.06c-4.16,4.16-10.9,4.16-15.06,0h0l-7.53-7.53-23.04,23.04,87.9,87.9c16.01-19.19,25.65-43.89,25.65-70.84,0-61.1-49.53-110.63-110.63-110.63-26.95,0-51.65,9.64-70.84,25.65l37.8,37.8Zm108.94,2.62h0c4.16,4.16,4.16,10.9,0,15.06l-15.06,15.06c-4.16,4.16-10.9,4.16-15.06,0-4.16-4.16-4.16-10.9,0-15.06l15.06-15.06c4.16-4.16,10.9-4.16,15.06,0Z"/>
        </g>
      </g>
    </symbol>
  </defs>
  <use width="409.77" height="409.77" transform="translate(18.24 30.73)" xlink:href="#Phoning_It_In"/>
</svg>