<?xml version="1.0" encoding="UTF-8"?>
<svg id="Layer_1" xmlns="http://www.w3.org/2000/svg" version="1.1" viewBox="0 0 1000 1000">
  <!-- Generator: Adobe Illustrator 29.1.0, SVG Export Plug-In . SVG Version: 2.1.0 Build 142)  -->
  <defs>
    <style>
      .st0 {
        fill: #fcfbe8;
      }

      .st1 {
        fill: none;
      }
    </style>
  </defs>
  <g>
    <path class="st0" d="M560.3,105l5.2.8c2,.3,3.6-.8,3.9-2.5l1.5-9.2c.3-1.7-.9-3.4-2.9-3.7l-5.2-.8c-1.8-.3-3.6.9-3.9,2.6l-1.5,9.2c-.3,1.7,1,3.3,2.9,3.6h0Z"/>
    <path class="st0" d="M919.3,322.8c-22.9-54.2-55.7-102.9-97.5-144.6-41.8-41.8-90.5-74.6-144.6-97.5-56.2-23.8-115.8-35.8-177.2-35.8s-121,12-177.2,35.8c-54.2,22.9-102.9,55.7-144.6,97.5s-74.6,90.5-97.5,144.6c-23.8,56.1-35.8,115.8-35.8,177.2s12,121,35.8,177.2c22.9,54.2,55.7,102.9,97.5,144.6,41.8,41.8,90.4,74.6,144.6,97.5,56.1,23.8,115.8,35.8,177.2,35.8s121-12,177.2-35.8c54.2-22.9,102.9-55.7,144.7-97.5s74.6-90.5,97.5-144.7c23.8-56.2,35.8-115.8,35.8-177.2s-12-121-35.8-177.2h0ZM809.6,200l17.2,18.8c4.3,4.7,4.3,11.2,0,15.2l-2.2,2c-1.2,1.1-2.8,3-3.4,4.3-.6,1.4-.9,2.8-1.3,3.2-.4.4-1.7-.5-3-1.9l-9.7-10.6c-1.3-1.4-2-2.8-1.6-3.2s1.9-.5,3.3-1c1.3-.5,2.3-1.3,2.4-1.4.2-.1-.8-1.4-2.1-2.7l-5-5.4c-1.3-1.4-3.4-1.6-4.7-.4l-4.5,4.1c-1.3,1.2-1.3,3.3,0,4.7l11.1,12.1c4.3,4.7,4,11.6-.2,15.4l-16.9,15.5c-4.1,3.8-11,3.2-15.2-1.4l-17.2-18.8c-4.1-4.4-4.2-11.5,0-15.3l2.7-2.4c1.3-1.2,3-3,3.6-4.2.6-1.4.9-2.8,1.2-3.1s1.7.5,3,1.9l9.7,10.6c1.3,1.4,2,2.8,1.6,3.2s-1.8.5-3,.8c-1.2.4-2.3,1.3-2.7,1.6-.3.3.4,1.7,1.7,3.1l5,5.4c1.3,1.4,3.4,1.6,4.7.4l4.4-4c1.3-1.2,1.3-3.3,0-4.7l-11.1-12.1c-4.5-4.9-4-11.7,0-15.3l17.1-15.6c4.5-4.1,10.8-3.7,15.4,1.3h0ZM760.9,162.7c.5-1.8.5-3.6.8-4,.3-.4,1.2-.2,2.1.5l1.5,1.2,14.6,11.9c.8.7,1.3,1.6.9,2s-2.2.7-3.7,1.6c-3,1.5-6.4,4.9-9,7.8l-24.9,30.6c-2.3,3.2-4.9,7.1-5.8,10.4-.6,1.7-.5,3.5-.8,3.9s-1.3.1-2.1-.5l-1.5-1.2-14.6-11.9c-.9-.7-1.3-1.6-.9-2s2.1-.7,3.7-1.6c3-1.6,6.4-4.9,9-7.8l24.9-30.6c2.3-3.2,4.9-7.2,5.8-10.4h0ZM672.4,181.3l13.1-40.5,5.2-16c.5-1.6,1.3-4.4,1.5-6.1,0-.2,0-.4,0-.5,0-1.8-.2-3.6,0-4,.3-.4.8-.6,1.2-.4l.7.4,17.4,10.3c1.3.8,2.2,1.8,1.9,2.2-.3.4-2,1.1-3.3,2.4-2.7,2.7-5.1,8-6.7,12.2l-7.9,25.4c-.5,1.7,0,2.1,1.2.7,3.3-3.4,9.4-9.9,12.7-13.2,1.2-1.3,3.2-3.4,4.3-4.8,2.7-3.2,7.2-9,8.2-13.4.4-1.7.2-3.5.4-4s1.7,0,3.2.8l2.7,1.6,15.4,9.1c.3.2.2.6,0,1.1-.3.4-1.2.9-2,1.2s-2.3,1.9-3.6,3.2l-13,13.8-29.9,32.1c-1.2,1.4-3.5,1.6-5.1.6l-16.1-9.5c-1.6-.9-2.5-3.1-1.9-4.7h0ZM592.9,150.8c.2-.5,1.7-1.4,3.1-2.5,2-1.7,4.1-4.5,5.9-7.2l25.9-43.5c1-1.5,1.8-3.8,1.7-5,0-1.2-.5-2.6-.3-3.1.2-.5,1-.6,1.9-.3l1.5.5,29.7,10.7c.9.3,1.4,1,1.2,1.4-.2.5-1.2,1.2-2.2,2s-1.8,3-2,4.7l-7.9,48.8c-.5,3.7-.7,7.9-.2,11,.3,1.8,1,3.4.8,3.9s-.9.7-1.7.4l-1.3-.5-18.5-6.7c-1.1-.4-1.9-1.1-1.7-1.6s1.8-1.5,2.8-2.9c1.8-2.6,3.2-6.8,4.1-10.7l1.5-7.1c.3-1.8-.9-3-2.8-2.7l-10,1.6c-1.8.4-3.9,1.7-4.7,3l-1.3,2.5c-1.2,2.7-2.2,5.4-2.4,7.6,0,1.7.5,3.5.3,4-.2.5-1.2.6-2.3.2l-1.9-.7-18.2-6.6c-.7-.2-1.1-.9-1-1.3h0ZM532.6,137.1c1.6-2.5,2.7-6.4,3.6-9.8l6.7-41.8c.3-3.6.4-7.6-.3-10.5-.5-1.8-1.3-3.4-1.3-3.9,0-.5,1-.8,2-.6l2,.3,34.2,5.5c6.2,1,10.3,6.6,9.4,12.1l-3.1,19.1c-.5,3-2,5.2-4,6.4-1.5,1-1.6,1.6-.3,2.9,2.8,2.4,3.8,6.3,3.3,9.7l-1.1,6.7c-.5,4-.8,8.9,0,12.2.5,1.8,1.4,3.3,1.3,3.8,0,.5-1,.8-2,.6l-2-.3-9.7-1.6c-2-.3-4.2-1.7-4.6-3.5-.8-3.6-.4-8.7,0-12.6l.6-3.8c.2-3.1-2-6-5.2-6.8l-4.5-.7c-1.8-.3-3.5-.1-3.5.3v.7c-.1,0-.1,0-.2.3v.3s-.7,4-.7,4c-.6,4.3-1.2,10.4-.1,14.4.3,1.7,1.4,3.3,1.3,3.8,0,.5-1.1.8-2.2.6l-2-.3-18.6-3c-1-.2-1.8-.7-1.7-1.2s1.4-1.7,2.4-3.2h0ZM477.1,69.5l25.5-.5c6.3-.1,11.3,4.7,11.4,10.3l.2,12.7c0,1.8-1.5,3.2-3.4,3.3l-10,.2c-2,0-3.4,0-3.4,0h-2.1c-1.1,0-2-.5-2-1.4s1.4-2.1,2.3-3.7c.3-.7.6-1.5.9-2.4.5-1.7-1-3.1-2.9-3.1h-7.4c-1.9.2-3.4,1.7-3.4,3.4l.6,34.2c0,1.8,1.6,3.2,3.5,3.2h7.4c2-.2,3.5-1.4,3.5-3,0-1.6-1.4-2.9-3-2.8s-3.1-1.3-3.6-3.1l-2.4-9.4c-.5-1.7.8-3.1,2.6-3.2h7.1c0-.1,6.9-.3,6.9-.3,2.7,0,6.5-.1,9.3-.2,1.9,0,3.4.7,3.5,1.4,0,.8-1.4,2.3-2.1,4-1,2.2-1.5,5.7-1.6,9.2l.2,12.3c0,5.6-4.9,10.4-11,10.5l-25.5.5c-5.9.1-11.3-4.5-11.4-10.1l-1-51.2c-.1-5.6,5.1-10.6,11-10.7h0ZM349.8,95.4l1.8-.6,36.9-11.6c1.9-.6,3.7.4,4.2,2l2.8,8.9.9,3s.2.8.6,1.8c.3.9.1,1.8-.5,2-.5.2-2.3-.4-4.2-.4-3.4-.2-8.5.8-12.6,1.9l-4.2,1.3c-1.8.6-2.8,2.4-2.3,4.1l2.4,7.5c.6,1.7,2.5,2.6,4.3,1.9,3.9-1.4,8.3-3.4,10.9-5.4,1.5-1.2,2.6-2.7,3.1-2.8.6-.2,1.4,1.1,2,2.8l4.1,13.1c.5,1.7.6,3.2,0,3.4-.5.2-2.3-.5-4.2-.5-3.3-.2-8,.8-12,1.8-1.9.5-2.9,2.3-2.4,4l2.1,6.8c.5,1.7,2.5,2.6,4.2,2l6.4-2c1.8-.6,4.7-1.6,6.4-2.4,1.6-.8,3.1-1.6,4.1-2.5,1.5-1.1,2.6-2.7,3.1-2.8.6-.2,1.2.4,1.5,1.3l.5,1.6,3.9,12.3c.5,1.5-.6,3.1-2.4,3.7l-40,12.6c-1,.3-1.9.2-2.1-.3-.2-.5.5-2.1.7-3.9.3-2.8-.3-6.5-1.2-10l-13-41.3c-1.2-3.2-2.9-6.7-4.7-8.8-1.2-1.4-2.7-2.4-2.9-2.9s.5-1.1,1.5-1.4h0ZM291.7,122.5l22.6-11.6c5.6-2.9,12-1.2,14.7,4l1.4,2.7c.8,1.5,2.1,3.5,3.2,4.4,1.2.9,2.5,1.6,2.7,2.1s-1,1.5-2.6,2.4l-12.7,6.6c-1.7.9-3.2,1.2-3.5.7-.2-.5,0-2-.1-3.4-.1-1.4-.6-2.6-.7-2.7,0-.2-1.5.4-3.2,1.3l-6.5,3.4c-1.7.9-2.4,2.9-1.6,4.4l2.8,5.4c.8,1.6,2.9,2.1,4.5,1.3l14.6-7.5c5.6-2.9,12.2-.8,14.8,4.2l10.5,20.4c2.6,5,.3,11.4-5.3,14.3l-22.6,11.6c-5.4,2.8-12.2,1-14.8-4l-1.7-3.2c-.8-1.6-2.1-3.7-3.2-4.6-1.2-.9-2.4-1.6-2.7-2-.2-.5,1-1.5,2.6-2.4l12.7-6.6c1.7-.9,3.2-1.2,3.5-.7.2.5,0,1.9,0,3.2,0,1.2.6,2.6.9,3.1.2.4,1.8,0,3.4-.8l6.5-3.4c1.7-.9,2.4-2.9,1.6-4.4l-2.7-5.3c-.8-1.6-2.9-2.1-4.5-1.3l-14.6,7.5c-5.9,3-12.3.8-14.8-4l-10.6-20.6c-2.8-5.4-.7-11.4,5.3-14.5h0ZM228.7,165l20.2-15.4c5-3.8,11.6-3.3,15.1,1.4l1.8,2.4c1,1.3,2.7,3,3.9,3.8,1.3.7,2.7,1.2,3,1.6s-.7,1.7-2.2,2.8l-11.4,8.7c-1.5,1.1-3,1.8-3.3,1.3-.3-.4-.3-2-.7-3.4-.3-1.3-1.1-2.4-1.1-2.5-.1-.2-1.4.7-2.9,1.8l-5.9,4.5c-1.5,1.1-1.8,3.2-.8,4.6l3.7,4.9c1.1,1.4,3.2,1.6,4.7.5l13-9.9c5-3.8,11.9-2.9,15.3,1.5l13.9,18.2c3.4,4.5,2.3,11.2-2.7,15l-20.2,15.4c-4.8,3.6-11.8,3.1-15.2-1.3l-2.2-2.9c-1.1-1.4-2.8-3.3-3.9-3.9-1.3-.7-2.7-1.1-3-1.5s.7-1.7,2.2-2.8l11.4-8.7c1.5-1.1,3-1.8,3.3-1.3.3.4.4,1.8.5,3.1.3,1.2,1.1,2.4,1.4,2.9.2.3,1.7-.3,3.2-1.4l5.9-4.5c1.5-1.1,1.8-3.2.8-4.6l-3.6-4.7c-1.1-1.4-3.2-1.6-4.7-.5l-13,9.9c-5.3,4-12,2.9-15.2-1.3l-14.1-18.4c-3.7-4.9-2.7-11.1,2.6-15.2h0ZM170,222.1l1.3-1.4,26.4-28.3c1.4-1.4,3.4-1.5,4.7-.3l6.8,6.4,2.3,2.1s.6.6,1.4,1.3c.7.6,1,1.5.6,2-.4.4-2.2.8-3.8,1.7-3.1,1.5-7,4.9-10,7.8l-3,3.2c-1.3,1.4-1.3,3.5,0,4.7l5.8,5.4c1.4,1.1,3.4,1.1,4.7-.5,2.7-3.2,5.6-7,6.9-10.1.7-1.8,1-3.6,1.3-4,.4-.5,1.8.2,3.1,1.4l10,9.4c1.3,1.2,2.1,2.5,1.6,2.9-.4.4-2.2.7-3.9,1.6-3,1.5-6.6,4.6-9.6,7.5-1.4,1.4-1.4,3.4-.1,4.7l5.2,4.9c1.3,1.2,3.4,1.1,4.7-.3l4.6-4.9c1.3-1.4,3.3-3.7,4.4-5.3,1-1.5,1.9-2.9,2.4-4.2.8-1.7,1-3.6,1.3-4,.4-.5,1.2-.3,1.9.4l1.2,1.1,9.4,8.8c1.1,1.1,1,3.1-.3,4.4l-28.6,30.7c-.7.8-1.6,1.1-2,.7-.4-.4-.6-2.1-1.3-3.8-1.1-2.6-3.5-5.5-5.9-8.1l-31.7-29.5c-2.6-2.2-5.8-4.4-8.4-5.3-1.7-.6-3.6-.8-3.9-1.1-.4-.4-.1-1.2.6-2h0ZM255.1,805.6c3.2,2.4,7.2,4.9,10.2,5.9,1.8.5,3.6.7,4,1,.5.4-.1,1.7-1.2,3l-8.3,10.3c-1.1,1.3-2.3,2.2-2.7,1.8-.4-.3-.9-2.1-1.8-3.7-1.6-2.8-4.9-6-7.9-8.7-1.4-1.3-3.4-1.1-4.5.2l-4.3,5.4c-1.1,1.3-.8,3.4.6,4.5l5.1,4.1c1.4,1.1,3.8,2.9,5.4,3.8,1.5.8,3,1.6,4.2,2,1.7.6,3.6.7,4,1,.5.4.3,1.2-.2,1.9l-1,1.2-7.8,9.7c-.9,1.2-2.9,1.2-4.3,0l-31.6-25.4c-.8-.6-1.2-1.4-.8-1.8.3-.4,2-.7,3.6-1.5,2.4-1.3,5.1-3.8,7.4-6.3l26.2-32.6c1.9-2.7,3.9-5.9,4.5-8.5.5-1.7.5-3.5.8-3.9s1.2-.2,2,.4l1.4,1.1,29.1,23.5c1.5,1.2,1.7,3.2.6,4.5l-5.7,7-1.9,2.3s-.5.6-1.1,1.4c-.6.7-1.4,1.1-1.9.7-.4-.3-.9-2-1.9-3.6-1.7-2.9-5.2-6.4-8.3-9.1l-3.3-2.6c-1.4-1.1-3.5-1-4.5.3l-4.8,5.9c-1,1.4-.8,3.4.8,4.5h0ZM338.3,836.6l-1.4,2.5c-.8,1.4-1.6,3.6-1.9,4.9-.1,1.4,0,2.9-.2,3.3s-1.8,0-3.3-.8l-12.1-6.8c-1.6-.9-2.7-2-2.5-2.4s1.6-1,2.7-1.9c1-.8,1.8-1.9,1.8-2,.1-.2-1.2-1-2.7-1.9l-6.2-3.5c-1.6-.9-3.6-.4-4.4,1.1l-2.9,5.2c-.8,1.5-.2,3.5,1.4,4.3l13.8,7.8c5.3,3,7.1,9.4,4.5,14.1l-10.8,19.3c-2.6,4.7-9.1,6.3-14.3,3.4l-21.4-12c-5.1-2.8-7.3-9.3-4.7-14l1.7-3.1c.8-1.5,1.8-3.7,2-5,.1-1.4,0-2.8.2-3.2.2-.4,1.8,0,3.3.8l12.1,6.8c1.6.9,2.7,2,2.5,2.4s-1.5,1-2.5,1.7c-1,.7-1.8,1.9-2,2.3-.2.3.9,1.4,2.5,2.3l6.2,3.5c1.6.9,3.6.4,4.4-1.1l2.8-5c.8-1.5.2-3.5-1.4-4.3l-13.8-7.8c-5.6-3.1-7.2-9.5-4.7-14l10.9-19.5c2.9-5.2,8.8-6.7,14.5-3.5l21.4,12c5.3,3,7.4,9,4.6,14h0ZM398.3,851.8l-.9,2.5-3.9,10.8c-.3.8-.9,1.4-1.5,1.2-.5-.2-1.5-1.7-2.8-2.8-1.9-1.5-4.6-3-7.3-4.3l-.8-.3c-.4-.1-1.1,1.1-1.7,2.7l-12,33.5c-1.1,3.7-2.1,8.1-2,11.3.1,1.8.7,3.3.5,3.8-.2.5-1.1.6-2,.2l-1.8-.6-17.1-6.1c-1-.4-1.7-1-1.5-1.5s1.6-1.3,2.9-2.6c2.1-2.4,4.1-6.5,5.6-10l12-33.5c.6-1.6.8-3,.4-3.2l-.8-.3c-2.9-.7-5.9-1.3-8.3-1.3-1.8,0-3.6.5-4.1.4-.6-.2-.7-1.1-.4-1.8l.6-1.6,4.2-11.7c.5-1.4,2.3-2,4-1.4l36.4,13c1.7.6,2.7,2.2,2.2,3.7h0ZM498.5,885.3l-13.8-.8c-1.8-.1-3.3-.6-3.2-1.1s1-1.7,1.6-2.9c.6-1.2.8-2.5.8-2.6,0-.2-1.5-.4-3.3-.5l-7.1-.4c-1.8-.1-3.4,1.2-3.5,2.9l-.4,5.9c-.1,1.7,1.3,3.2,3.1,3.3l15.8,1c6.1.4,10.5,5.4,10.2,10.8l-1.3,22.1c-.3,5.4-5.4,9.6-11.4,9.3l-24.5-1.5c-5.8-.3-10.6-5.2-10.3-10.6l.2-3.5c.1-1.7,0-4.1-.4-5.3-.5-1.3-1.3-2.5-1.2-3s1.6-.8,3.4-.7l13.8.8c1.8.1,3.3.6,3.2,1.1s-.9,1.5-1.6,2.6c-.6,1.1-.8,2.5-.8,3,0,.4,1.5.9,3.3,1l7.1.4c1.8.1,3.4-1.2,3.5-2.9l.3-5.7c.1-1.7-1.3-3.2-3.1-3.3l-15.8-1c-6.4-.4-10.6-5.5-10.3-10.6l1.4-22.3c.4-5.9,5-9.8,11.5-9.5l24.5,1.5c6.1.4,10.6,4.9,10.2,10.6l-.2,2.9c-.1,1.6,0,3.9.5,5.2.5,1.3,1.2,2.6,1.2,3.1s-1.6.8-3.4.7h0ZM565.2,927.8l-40.3,4.2c-1,.1-1.8-.2-1.9-.7s.9-1.9,1.4-3.6c.8-2.6,1-6.2.8-9.7l-4.4-41.6c-.5-3.3-1.4-6.9-2.8-9.2-.9-1.5-2.1-2.8-2.2-3.3s.7-1,1.7-1.1l1.8-.2,37.2-3.9c1.9-.2,3.4,1,3.6,2.8l1,9,.3,3s0,.8.2,1.8c0,.9-.2,1.7-.8,1.8-.5,0-2.1-.8-3.9-1.2-3.2-.9-8.2-.8-12.3-.6l-4.2.4c-1.8.2-3.1,1.7-3,3.4l.8,7.6c.3,1.7,1.8,2.9,3.7,2.6,4-.6,8.5-1.6,11.4-3,1.6-.9,3-2,3.5-2.1.6,0,1.2,1.3,1.3,3l1.4,13.2c.2,1.7,0,3.1-.7,3.2-.5,0-2.1-.9-3.9-1.3-3.1-.8-7.8-.8-11.8-.6-1.9,0-3.2,1.6-3.1,3.3l.7,6.9c.2,1.7,1.8,2.9,3.6,2.8l6.5-.7c1.8-.2,4.8-.6,6.5-1.1,1.7-.5,3.2-1,4.4-1.6,1.6-.8,3-2,3.5-2.1.6,0,1.1.6,1.2,1.5l.2,1.6,1.3,12.4c.2,1.5-1.2,2.8-3,3h0ZM668.8,899.8l-1.8.6-17.3,5.6c-1,.3-1.9.2-2.1-.3-.2-.5.5-2.1.7-3.8.3-3.3-.6-7.8-1.6-11.6l-5.7-17.7c-.5-1.6-1.2-1.6-1.6,0l-4.1,20.9c-.4,1.7-2,3.5-3.8,4.1l-6.2,2c-1.8.6-4.2,0-5.5-1.2l-14.7-14.6c-1.2-1.2-1.9-.9-1.3.8l6.8,20.9c1.2,2.8,2.6,5.5,4.2,7.2,1.1,1.3,2.6,2.2,2.8,2.7.2.5-.5,1.1-1.4,1.4l-1.6.5-17.7,5.7c-1,.3-1.8.2-2-.3-.2-.5.5-2.1.7-3.8.2-2.3-.2-5.3-.8-8.2l-13.7-42.6c-1.2-2.7-2.6-5.4-4.1-7.1-1.2-1.3-2.6-2.3-2.8-2.8-.2-.5.5-1.1,1.4-1.4l1.6-.5,12.7-4.1c1.5-.5,3.8,0,5.2,1.3l24.4,22.8c1.3,1.2,2.7.8,3-.9l7.1-33.2c.4-1.7,2-3.5,3.6-4l3-1,11.5-3.7c1-.3,1.9-.2,2.1.3.2.5-.5,2.2-.6,3.9-.3,3.2.6,7.6,1.5,11.3l11.8,36.5c1.4,3.6,3.2,7.7,5.4,10.1,1.2,1.3,2.6,2.2,2.8,2.7.2.5-.6,1.1-1.5,1.4h0ZM731.2,865.8l-35.2,20.1c-.9.5-1.8.5-2,.1s0-2.1-.1-3.9c-.3-2.7-1.6-6.1-3.2-9.2l-20.8-36.3c-1.8-2.8-4.1-5.8-6.2-7.3-1.4-1-3.1-1.7-3.3-2.2-.2-.4.2-1.2,1.1-1.7l1.6-.9,32.5-18.6c1.7-1,3.6-.4,4.4,1.1l4.5,7.8,1.5,2.6s.4.7.9,1.6c.5.8.5,1.7,0,2-.4.2-2.2.1-4,.5-3.3.5-7.8,2.5-11.5,4.4l-3.7,2.1c-1.6.9-2.2,2.9-1.3,4.3l3.8,6.6c.9,1.4,2.8,2,4.5.9,3.4-2.2,7.1-4.9,9.2-7.3,1.1-1.5,1.9-3.1,2.4-3.3.5-.3,1.6.7,2.4,2.2l6.6,11.5c.8,1.5,1.2,2.9.7,3.2-.4.2-2.3,0-4.1.4-3.2.5-7.4,2.4-11,4.2-1.7.9-2.2,2.8-1.5,4.3l3.4,6c.8,1.5,2.8,2,4.4,1.1l5.7-3.2c1.6-.9,4.1-2.5,5.5-3.6,1.3-1.1,2.6-2.2,3.4-3.2,1.2-1.4,1.9-3.1,2.4-3.3.5-.3,1.2.1,1.7.9l.8,1.4,6.2,10.8c.8,1.3,0,3.1-1.5,4h0ZM781.2,828.7l-26.6,21.1c-.8.6-1.7.8-2,.4-.3-.4-.3-2.1-.7-3.8-.8-2.7-2.8-6.1-4.7-9l-24.5-30.9c-2.5-2.9-5.8-6.2-8.6-7.6-1.5-.8-3.3-1.2-3.6-1.6s0-1.2.9-1.9l1.5-1.2,14.2-11.3c.8-.6,1.7-.9,2-.5s.2,2.2.8,3.9c.8,3.1,3.3,7,5.5,10.1l22.1,27.8c1.1,1.3,2,2.4,2,2.4h.2c3.4-3,7.9-7.1,10-10.5,1-1.5,1.4-3.3,1.8-3.6.4-.3,1.2,0,1.8.8l1.1,1.4,7.6,9.6c1,1.3.6,3.2-.8,4.3h0ZM500,840.2c-187.6,0-340.2-152.6-340.2-340.2S312.4,159.8,500,159.8s340.2,152.6,340.2,340.2-152.6,340.2-340.2,340.2h0Z"/>
    <path class="st0" d="M633,127l3.5-.4c1.9-.3,3.6-1.9,3.8-3.6l1.8-13.5c.2-1.7-.3-1.9-1.3-.5l-9.5,15.7c-.9,1.6-.2,2.6,1.7,2.3h0Z"/>
  </g>
  <path class="st1" d="M465,481.1c8.3-4.8,11.1-15.3,6.3-23.6-4.8-8.3-15.3-11.1-23.6-6.3-7.6,4.4-10.6,13.7-7.3,21.6l9.3,9.3c4.8,2,10.4,1.8,15.2-1h0Z"/>
  <path class="st1" d="M455.2,422.9l-35.3-35.3h-64.6l59.7,59.7c11.6-10.5,25.2-18.8,40.1-24.5h0Z"/>
  <path class="st1" d="M594.3,626.6l88.8,88.8,36.3-19.6-2.1-10.8-98.5-98.5c-5.6,14.9-14,28.5-24.5,40.1h0ZM669.6,689h21.2c1.4,0,2.5,1.1,2.5,2.5s-1.1,2.5-2.5,2.5h-21.2c-1.4,0-2.5-1.1-2.5-2.5s1.1-2.5,2.5-2.5Z"/>
  <path class="st1" d="M371.5,339.2l-43-43c-9.8,11.7-15.9,26.6-16.3,43h59.3Z"/>
  <path class="st1" d="M437.6,439.9c.1,0,.2.1.3.1,0,0,0-.2.2-.5.1-.3.3-.6.5-.9.2-.3.5-.6.8-.8.6-.3,1.1-.4,1.6-.1.5.2,1,.6,1.3,1.2.2.4.3.9.1,1.3-.1.5-.4.9-.7,1.3-.3.4-.7.7-1,1,0,0,0,0,0,.1,0,0,0,0,0,0,.1.2.2.3.4.4.2-.2.4-.4.6-.5s.3-.2.4-.2c.4-.2.9-.3,1.3-.2.4,0,.9.3,1.2.6s.7.7,1,1.1c.5.8.7,1.6.7,2.2,0,.6-.3,1.1-.9,1.4-.2.1-.5.2-.8.1-.3,0-.6-.1-.9-.2-.2,0-.5-.2-.9-.3s-.6,0-.9,0c-.3.2-.5.4-.5.8,0,.3,0,.6.1.8,0,0,.1.2.3.4s.3.2.4.3c.3,0,.7,0,1.2,0,.5-.1,1.1-.3,1.7-.7.6-.3,1.1-.8,1.6-1.3.5-.5.8-1.1,1.1-1.7.3-.6.4-1.3.4-2s-.2-1.4-.6-2c-.3-.6-.7-1-1.1-1.2-.4-.2-.9-.4-1.3-.4s-.8,0-1.2.1c-.4,0-.6.2-.8.2,0-.1.2-.3.3-.6.1-.3.3-.6.4-.9.1-.4.1-.7.1-1.1,0-.4-.1-.8-.4-1.2-.3-.5-.6-.8-1-1-.4-.2-.8-.3-1.2-.3s-.8,0-1.1.1-.6.2-.9.4c-.7.4-1.3,1-1.6,1.7-.4.7-.6,1.4-.7,2,0,0,.1.2.2.3h0Z"/>
  <path class="st1" d="M592,600c.2.9.6,1.8,1.2,2.7s1.5,1.6,2.6,2.3c1.2.7,2.4,1.2,3.4,1.3,1.1.2,2,0,2.8-.3.8-.3,1.4-.9,1.9-1.6.3-.5.5-1.2.5-1.8s-.1-1.3-.4-2-.7-1.3-1.3-2c-.6-.6-1.2-1.2-2-1.7-1.2-.7-2.3-1.2-3.4-1.3s-2,0-2.9.3-1.5.9-1.9,1.6c-.5.7-.6,1.6-.4,2.5h0ZM593.2,598c.2-.3.6-.5,1.1-.5.6,0,1.2.1,2.1.4s1.7.7,2.7,1.3c1,.6,1.8,1.2,2.5,1.8.7.6,1.2,1.2,1.5,1.7.3.5.3,1,0,1.4-.3.5-1,.7-2,.4-1-.2-2.2-.8-3.6-1.7-1-.6-1.8-1.2-2.5-1.7-.7-.6-1.3-1.1-1.6-1.7s-.4-1-.2-1.4h0Z"/>
  <path class="st1" d="M590.5,593.9c4.8-8.3,1.9-18.8-6.3-23.6s-18.8-1.9-23.6,6.3c-2.8,4.8-3,10.5-1,15.2l9.3,9.3c7.9,3.3,17.2.3,21.6-7.3Z"/>
  <path class="st1" d="M395.3,363l-20.5-20.5h-62.6v-1.7h0v3.6l29.7,29.7h53.5v-11.1h0Z"/>
  <path class="st1" d="M482.7,454.5c0,9.5,7.7,17.3,17.3,17.3s2.4-.1,3.6-.4l-20.5-20.5c-.2,1.2-.4,2.4-.4,3.6h0Z"/>
  <path class="st0" d="M390.7,538.3c-.4-.5-1-1-1.6-1.3-.6-.3-1.3-.5-2.1-.5-.8,0-1.5.2-2.1.6s-1.1.9-1.5,1.6-.6,1.3-.6,2,0,.8,0,1.2c0,.4.1.8.2,1-.5,0-.9-.2-1.2-.2-.3,0-.6-.1-.9-.2-.3,0-.4,0-.5,0v-.6c0-.2,0-.5,0-.9,0-.5,0-1,0-1.5,0-.5,0-1.1-.1-1.7-.1,0-.3-.2-.6-.3-.3-.1-.6-.2-.9-.4s-.5-.2-.6-.2-.2,0-.2,0c0,0,0,.1,0,.2,0,.2,0,.4.1.8,0,.4,0,.8,0,1.2v3.8c.2,0,.5,0,1,.2s1,.2,1.6.3c.6.1,1.2.2,1.7.3.6.1,1,.2,1.4.3.4,0,.6.1.6.1,0,0,.1,0,.2,0s.2,0,.2-.2c0-.1-.1-.3-.2-.6s-.1-.7-.1-1.4.1-.8.4-1.3c.3-.5.6-.8,1.1-1.2.5-.3,1-.5,1.7-.5,1,0,1.7.2,2.2.5.5.3.8.8.8,1.5s-.1.5-.3.8c-.2.3-.4.5-.6.7-.2.2-.4.4-.7.6-.2.2-.4.5-.4.8s.1.6.4.8.5.3.8.3.3,0,.5,0c.2,0,.4-.1.5-.2.2-.2.4-.6.5-1.1s.3-1.1.3-1.8c0-.7-.1-1.4-.3-2-.2-.7-.6-1.3-1-1.8h0Z"/>
  <circle class="st0" cx="412.8" cy="541.7" r="17.3"/>
  <path class="st0" d="M559.1,640.2c-.6-.4-1.2-.5-1.9-.5-.7,0-1.3.2-1.9.6-.5.3-.9.7-1.3,1.3-.2-1.1-.2-2.2,0-3.4.3-1.2.8-2.3,1.7-3.4,0,0,0-.2-.1-.3,0,0-.1-.1-.2-.2-.4.3-.8.7-1.2,1.2-.4.5-.8,1-1.2,1.7-.4.7-.7,1.4-.9,2.3-.2.6-.2,1.2-.3,2s0,1.4.1,2.2c.1.7.4,1.4.8,2.1.5.8,1,1.5,1.8,2,.7.5,1.5.8,2.3.9.8.1,1.6,0,2.3-.4.7-.4,1.2-.9,1.6-1.6.4-.7.6-1.5.7-2.3s-.1-1.6-.5-2.3c-.5-.9-1.1-1.5-1.7-1.9h0ZM558.8,647.3c-.4.2-.8.2-1.2,0-.4-.2-.8-.6-1.2-1.1-.4-.5-.7-1-1-1.5-.2-.3-.3-.6-.5-1-.2-.4-.3-.7-.4-1,0-.2.2-.4.3-.5.2-.2.3-.3.4-.3.4-.2.9-.3,1.3-.2.4.1.8.4,1.2.8.4.4.7.9,1,1.4.5.8.7,1.6.7,2.2,0,.6-.2,1-.5,1.2h0Z"/>
  <circle class="st0" cx="543.6" cy="617.1" r="17.3"/>
  <circle class="st0" cx="500" cy="628.9" r="17.3"/>
  <circle class="st0" cx="424.5" cy="585.3" r="17.3"/>
  <path class="st0" d="M404.4,593.2c-.7-.4-1.5-.6-2.3-.7-.8,0-1.6.1-2.3.5-.9.5-1.5,1.1-1.9,1.7-.4.6-.5,1.3-.5,1.9s.2,1.3.6,1.9c.1.2.3.5.6.7.2.2.5.4.8.6-1.1.2-2.2.2-3.4,0s-2.3-.8-3.5-1.7c-.1,0-.2,0-.3.2,0,0-.1.2-.1.3.3.4.7.8,1.1,1.2.5.4,1,.8,1.7,1.2.7.4,1.4.7,2.3.9.6.2,1.2.2,1.9.3.7,0,1.4,0,2.2-.2.7-.1,1.4-.4,2.1-.8.8-.5,1.5-1,2-1.8s.8-1.5.9-2.3c.1-.8,0-1.6-.4-2.3-.4-.7-.9-1.2-1.6-1.6h0ZM405.1,596.2c-.2.4-.6.8-1.1,1.2-.5.4-1,.7-1.5,1-.2.1-.6.3-1,.5s-.7.3-1.1.5c-.2,0-.4-.2-.6-.3-.2-.2-.3-.3-.3-.4-.2-.4-.3-.9-.2-1.3.1-.4.4-.8.8-1.2.4-.4.9-.7,1.4-1,.8-.5,1.6-.7,2.2-.8.6,0,1,.1,1.2.5.2.4.2.8,0,1.2h0Z"/>
  <path class="st0" d="M447,635.7c-.1,0-.2-.2-.2-.2,0,0,0,0-.2,0,0,0-.1,0-.2,0l-11.2,7.5c-.3.2-.6.4-.8.5-.2.1-.3.2-.4.3,0,0,0,.1,0,.2s0,.1,0,.2c0,0,.1,0,.3.2s.4.2.7.3.5.3.7.4c.5.3.9.5,1.3.8.4.2.8.5,1.2.7.4.2.9.5,1.2.7s.7.4,1,.6c.3.2.4.3.5.3.1-.2.4-.4.7-.8.4-.3.7-.7,1.1-1.1s.7-.7,1-1c0,0,0-.1-.1-.2,0,0-.1-.1-.2-.2-.1,0-.2,0-.2,0s0,0,0,0c-.2.2-.5.4-.7.5-.2.2-.5.3-.8.3s-.6,0-.9-.2l-4.2-2.5c.8-.5,1.6-1,2.4-1.6.9-.5,1.7-1.1,2.6-1.6s1.7-1,2.4-1.5c.8-.5,1.5-.8,2-1.2s1-.5,1.3-.7c0-.1,0-.2,0-.4s-.2-.3-.3-.4h0Z"/>
  <path class="st0" d="M398.4,483.5c.7,1.9,1.5,3.7,2.2,5.6.2.1.4.2.6,0l2.7-4.7,3,1.8c0,0,.2,0,.4-.2.1-.2.3-.4.5-.7.2-.4.4-.8.6-1.4l-3.1-1.8.5-.9c0-.2-.1-.3-.3-.4-.3-.1-.5-.2-.7-.3s-.3,0-.3,0l-.5.9-6.9-4c-.1,0-.3,0-.5,0-.2,0-.3.1-.3.2,0,0,0,.1,0,.2,0,0,0,.2,0,.3.6,1.7,1.3,3.5,2,5.3h0ZM402.7,483.8l-1.9,3.3-2.2-5.7,4.1,2.4h0Z"/>
  <circle class="st0" cx="456.4" cy="617.2" r="17.3"/>
  <path class="st0" d="M501.3,655.6c.4-.3.8-.6,1.1-1.1.3-.4.4-1,.4-1.5,0-.8-.2-1.5-.6-2-.4-.5-1-.9-1.6-1.1-.7-.2-1.4-.3-2.1-.3-.8,0-1.5.1-2.2.4s-1.3.7-1.7,1.2-.7,1.2-.7,2c0,.5.1.9.3,1.4.2.4.5.8.8,1.2s.6.6,1,.9.6.4.8.5c0,0,0,0,0,.1-.6.2-1.2.6-1.6,1.1-.5.5-.7,1.1-.8,1.8,0,.7.2,1.2.5,1.7.4.5.9.8,1.5,1,.6.2,1.2.4,1.9.4s1.3-.1,2-.4,1.1-.6,1.6-1.1c.4-.5.6-1,.6-1.6,0-.7-.1-1.2-.4-1.7-.3-.5-.6-.9-1-1.2-.4-.3-.7-.6-.9-.8,0,0,0,0,0-.1.4-.1.9-.3,1.3-.6h0ZM499.2,661.8c-.2.3-.6.5-1,.5s-.6-.1-.8-.4-.3-.5-.4-.9c0-.3-.1-.7-.1-1s0-.8,0-1.2.2-.7.4-1c0,0,0,0,.1,0,0,0,0,0,.1,0,0,0,0,0,.1,0,.2,0,.4.3.7.5.3.2.5.5.8.9.2.4.3.8.3,1.3,0,.5-.1.9-.4,1.2h0ZM499.8,654.5c-.1.5-.3.8-.5,1.1,0,0,0,0,0,0h0s-.1,0-.2,0c-.2-.1-.4-.3-.6-.5s-.5-.5-.8-.8c-.3-.3-.5-.6-.7-1-.2-.4-.3-.7-.3-1.2s.1-.9.4-1.2c.3-.3.7-.5,1.2-.5.4,0,.8.1,1,.4.3.3.4.6.5,1,.1.4.2.8.2,1.2s0,1-.2,1.5h0Z"/>
  <path class="st0" d="M196.2,500c0-75.7,27.7-144.9,73.4-198.1l-5.5-5.5c-47.2,54.6-75.7,125.8-75.7,203.6,0,172.1,139.5,311.5,311.5,311.5s149-28.5,203.6-75.7l-5.5-5.5c-53.2,45.8-122.4,73.5-198.1,73.5-167.8,0-303.8-136-303.8-303.8h0Z"/>
  <circle class="st0" cx="424.5" cy="498.1" r="17.3"/>
  <path class="st0" d="M459.5,689h-150.2c-1.4,0-2.5,1.1-2.5,2.5s1.1,2.5,2.5,2.5h150.2c1.4,0,2.5-1.1,2.5-2.5s-1.1-2.5-2.5-2.5Z"/>
  <path class="st0" d="M538.1,689h-52.1c-1.4,0-2.5,1.1-2.5,2.5s1.1,2.5,2.5,2.5h52.1c1.4,0,2.5-1.1,2.5-2.5s-1.1-2.5-2.5-2.5Z"/>
  <path class="st0" d="M583.7,689h-2.7c-1.4,0-2.5,1.1-2.5,2.5s1.1,2.5,2.5,2.5h2.7c1.4,0,2.5-1.1,2.5-2.5s-1.1-2.5-2.5-2.5Z"/>
  <path class="st0" d="M658.8,728.5h-317.6l-60.5-32.8,60.5-308h14.2l-13.5-13.5h-29.7v-29.7l-42.5-42.5c-45.8,53.2-73.4,122.4-73.4,198.1,0,167.8,136,303.8,303.8,303.8s144.9-27.7,198.1-73.5l-15-15-24.2,13.1h0Z"/>
  <path class="st0" d="M626.9,694h10.6c1.4,0,2.5-1.1,2.5-2.5s-1.1-2.5-2.5-2.5h-10.6c-1.4,0-2.5,1.1-2.5,2.5s1.1,2.5,2.5,2.5Z"/>
  <path class="st0" d="M603.7,694h2.7c1.4,0,2.5-1.1,2.5-2.5s-1.1-2.5-2.5-2.5h-2.7c-1.4,0-2.5,1.1-2.5,2.5s1.1,2.5,2.5,2.5Z"/>
  <path class="st0" d="M811.5,500c0-172.1-139.5-311.5-311.5-311.5s-149,28.5-203.6,75.7l5.5,5.5c53.2-45.8,122.4-73.4,198.1-73.4,167.8,0,303.8,136,303.8,303.8s-27.7,144.9-73.5,198.1l5.5,5.5c47.2-54.6,75.7-125.8,75.7-203.6Z"/>
  <path class="st0" d="M517.3,454.5c0-9.5-7.7-17.3-17.3-17.3s-15.2,5.9-16.9,13.7l20.5,20.5c7.8-1.7,13.7-8.6,13.7-16.9Z"/>
  <path class="st0" d="M499.9,427.8c-.5.8-1,1.5-1.5,2s-1,1.1-1.4,1.7c-.5.5-1,1.1-1.5,1.7,0,0,0,.1,0,.2,0,0,0,.1.1.2h7.8c0-.1.1-.3.2-.7s.2-.7.4-1.2.3-.9.4-1.3c.1-.4.2-.8.3-1,0,0-.1,0-.2,0s-.2,0-.2,0c-.2,0-.3,0-.3.1-.1.2-.2.5-.4.8s-.3.5-.6.8c-.2.2-.6.3-1,.3h-3.7c.7-.7,1.4-1.4,2.1-2.1.7-.7,1.3-1.4,1.9-2.1.5-.6.9-1.2,1.2-1.8.3-.6.4-1.2.4-1.9s-.2-1.4-.5-2c-.3-.5-.8-.9-1.3-1.2-.6-.3-1.2-.4-1.9-.4s-1.1.1-1.6.3c-.5.2-.9.4-1.3.7-.4.3-.7.6-.9.9-.2.3-.4.5-.5.8,0,.2,0,.3.2.4s.2.1.3.1c0,0,.2-.2.4-.5s.5-.5.8-.7.8-.4,1.3-.4.8.1,1.1.3.6.5.8.9.3.8.3,1.3,0,1-.2,1.7-.5,1.3-1,2.1h0Z"/>
  <circle class="st0" cx="543.6" cy="466.1" r="17.3"/>
  <path class="st0" d="M554.2,448.1c.4.2.8.5,1.3.8s.8.6,1.2.8c0,0,.2-.1.3-.3,0-.2.1-.3.1-.4,0,0-.2-.1-.3-.3-.2-.1-.3-.2-.4-.4s-.2-.3-.2-.4c0-.2.1-.5.3-.8s.3-.6.6-1l4.1-7.1c.3-.6.7-1.1,1.2-1.6,0,0,0-.1,0-.3,0-.1,0-.2,0-.2h0s-.3,0-.8-.1c-.5,0-1.2-.1-2-.2s-1.6-.2-2.5-.3c0,0,0,0,0,0s0,0,0,.1h0c0,.2,0,.3,0,.5.3,0,.6,0,.9.1.3,0,.6.2.7.2.2,0,.2.2.2.4,0,.1-.1.4-.4.8l-3.6,6.2c-.2.4-.4.7-.6,1s-.4.5-.5.6c0,0-.2,0-.4,0s-.4-.1-.6-.2c-.2,0-.3-.1-.4-.2,0,0-.2.1-.3.3,0,.2-.1.3-.1.4.4.2.8.4,1.3.6s.9.5,1.3.7h0Z"/>
  <polygon class="st0" points="395.3 363 419.9 387.6 425.1 387.6 425.1 339.2 371.5 339.2 374.8 342.5 395.3 342.5 395.3 363"/>
  <path class="st0" d="M500,196.2c-75.7,0-144.9,27.7-198.1,73.4l26.6,26.6c12.7-15.1,31.7-24.7,53-24.7h237c37.7,0,68.4,30.1,69.3,67.7h-112.9v48.4h84l58.4,297.3,13.1,13.1c45.8-53.2,73.5-122.4,73.5-198.1,0-167.8-136-303.8-303.8-303.8h0ZM687.8,374.1h-83.1v-31.6h83.1v31.6Z"/>
  <rect class="st0" x="448.6" y="339.2" width="102.7" height="15.3"/>
</svg>