<?xml version="1.0" encoding="UTF-8"?>
<svg id="Layer_1" xmlns="http://www.w3.org/2000/svg" version="1.1" viewBox="0 0 1092 768">
  <!-- Generator: Adobe Illustrator 29.1.0, SVG Export Plug-In . SVG Version: 2.1.0 Build 142)  -->
  <defs>
    <style>
      .st0 {
        fill: #fcfbe8;
      }
    </style>
  </defs>
  <path class="st0" d="M739.5,215.2c1.5-4.9,2.7-9.3,4.1-13.8.5-1.7.9-3.9,2.1-4.9,1.4-1.1,3.8-1.6,5.7-1.5.9,0,1.9,2.2,2.3,3.6,1.6,4.8,2.7,9.9,4.8,14.4.7,1.4,4.2,1.6,6.5,2.1,2.2.4,4.6.4,6.9.6,2.9.3,5.8.5,8.7,1.2,2,.5,4.1,1.5,5.8,2.7,4.4,2.9,10.5,1.5,14.3,5.6,1.2,1.3,3.1,3.8,2.7,4.4-1.2,1.7-3.2,3.5-5.2,3.8-3.7.6-7.5.2-11.2.3-1.4,0-2.7.5-5.6,1.1,6.1,3.4,11.1,5.8,15.6,8.9,3.9,2.6,7.7,5.7,10.9,9.1,1.2,1.4,1.5,4.8.6,6.5-.6,1.2-4,1.7-5.9,1.3-5.1-1-10-2.8-15.1-4-2.3-.5-5,.3-7.1-.6-7-3-14.3-3.4-21.8-3.8-4.2-.2-8.1-4.2-12.4-5.3-5.9-1.6-11-5.2-17.4-5.9-7-.8-13.8-4.6-20.7-4.4-6,.2-11.8-1.4-17.4-2-4.8-.5-10.5,2.4-15.2-1.6-1-.9-3.8.1-5.7.3-8.3.9-16.6,1.9-24.9,2.7-7,.6-12,5-17.3,8.7-.9.6-1.4,1.9-1.8,2.9-1.2,3.1-2.3,6.4-3.6,9.5-2.3,5.7-4.2,11.2-4.2,17.7,0,5.4-3,10.8-4.7,16.2-.5,1.5-.5,3.2-.8,4.7-.7,3.2-1.8,6.4-2.3,9.7-.5,3.7-.2,7.5-.8,11.2-.4,2.6-1.5,5.1-2.8,8.9,1.1,5.8-.2,13-2.4,20.1-1.7,5.5-2.9,11-1.6,16.9.4,1.6-.8,3.6-1.2,5.4-1.6,7.3-3.5,14.6-4.7,22-.9,5.4-.8,10.9-1.3,16.3-.2,2.1-1,4.1-1.1,6.1-.6,6.7-1.1,13.4-1.6,20-1.2,15.9-2.1,31.8-3.8,47.6-.6,5.1,0,10.4-2.6,15.7-1.7,3.5,0,8.5.2,12.9,0,1.7,0,3.4-.3,5-.4,2.2-1.8,4.3-1.5,6.3,1.1,7.3.7,14.4-1,21.5-.3,1.3.3,2.8.6,4.3.1.8.8,1.7.5,2.3-4.2,11.1-1.9,22.9-3.8,34.2-1.5,8.9-1.7,18-2.5,27-.8,9-2.1,17.9-2.3,26.8-.1,7.2,1.2,14.4,1.6,21.7,0,1.5-.6,3.8-1.7,4.5-1.5,1-4.2,1.7-5.7,1-2.9-1.3-5.3-2.2-8.3-.5-.8.4-2.1-.3-3.2-.3-1.5,0-3.8-.4-4.2.3-3.3,5.2-7.6.2-11.3,1.3-.3,0-2.5-3.1-2.2-4.5.9-4.2,3.4-7.8,2-12.8-1-3.4,1.2-7.6,1.5-11.5,1-10.5.6-21.3,3-31.5,1.7-7.2-.9-14.1.9-20.8,2.4-8.8,3.1-17.8,3.4-26.8.3-8.7.5-17.3,1-26,.3-5.7,1.2-11.4,1.6-17.1.2-2.3-.3-4.6-.5-6.9,0-1.6-.6-3.4,0-4.9,2.8-8.2.6-16.1-.8-24.2-.8-4.8-.7-9.8-1.3-14.7-.2-1.8-1.3-3.5-2.1-5.3-1-2.4-2.9-4.8-3-7.2-.2-7.1-3.9-13-6.2-19.3-.6-1.6-4.5-3.9-5.2-3.4-3.8,2.7-7.2,6.1-10.5,9.4-1.2,1.2-1.7,3.1-2.7,4.4-2,2.6-4.7,4.8-6.3,7.6-3,5.2-5,11.1-8.4,16.1-4,6-5.2,12.9-8,19.3-2.2,5-3.8,10.2-5.9,15.3-2.4,6.1-5,12.1-7.5,18.2-.7,1.7-.9,3.5-1.5,5.2-1.6,4-3.6,7.9-4.8,12-1.7,5.5-2.8,11.1-4.3,16.7-.8,2.8-2.1,5.5-2.8,8.3-1.9,7.9-4.6,15.6-7.6,23.2-.9,2.4-.4,5.3-1,7.8-2.8,11.2-5.2,22.6-8.9,33.6-1.3,3.8-2.8,7.5-3.1,11.5-.2,3.5-1.1,7-1.3,10.5-.2,3.4-1.7,4.8-5,4.7-3.6-.2-4.4,1.8-3.6,5,1.1,4.5-.7,5.7-5.1,5.4-5.2-.4-10.5.5-15.7.4-1.6,0-4.2-1.6-4.5-2.9s1.3-3.9,2.7-4.6c2.1-1.1,4.8-1.1,7.4-1.5v-4.1c-.2,0-.6,0-1,0-1.8-.5-4.2-.5-5.1-1.7-.7-.8.3-3.3,1-4.9,1.9-4.4,4.1-8.7,6.2-13,.9-1.9,1.9-3.7,2.5-5.7,1.7-5.9,2.8-12,4.8-17.7,2-5.7,1.6-12.2,4-17.3,2.5-5.1,3-10.1,4.1-15.3,2-9,5.3-17.8,7.8-26.7,1.6-5.8,2.6-11.8,3.9-17.7,1.7-7.4,3.6-14.8,5.1-22.2,1.4-6.6,2.2-13.3,3.5-20,.7-3.7,1.5-7.4,2.9-10.8,3.4-7.7,4.8-15.7,4.2-24.1,0-1.3,0-2.8.6-3.9,4.3-8.1,1.7-17.5,5-25.5,3.5-8.5.2-17.1,2.2-25.5.4-1.7,1.1-3.4,1.7-5,.3-1,1.1-2.4.8-3-2-3.9-.2-7.2.6-10.9,1-4,.4-8.5.5-12.7,0-2.4,0-4.8,0-7.2,0-4,0-8-.3-12-.4-6.8-1.5-13.7-1.1-20.5.2-3.9,1.6-7.7,0-11.5-3.1-7.6-2.1-15.6-3.3-23.5-.5-3.5-1.6-7.1-3.1-10.3-3.2-6.5-6.7-12.9-10.5-19.2-3.2-5.4-9.2-4.7-14.4-5.5-2-.3-4.2,0-7.6,0-3.5,1.2-8.3,3.3-13.3,4.7-8,2.2-16.3,3.8-24.3,6.1-5.8,1.6-11.4,4-17.1,6.1-4.7,1.7-9.8,2.8-14.1,5.2-4.8,2.8-9.9,3.8-15.1,5.2-4.1,1-7.5,4.4-11.4,6.4-3.3,1.7-6.9,3-10.8,4.6,1.2,1.8,1.9,3,3,4.6-6.5,2-12.7,3.9-18.9,6-6.1,2-12,4.3-18.1,6.5-7.2,2.5-14.4,4.9-21.6,7.5-3.1,1.1-5.9,2.9-9,4.1-1.3.5-2.8.4-4.2.7-3.1.6-6.3,1.1-9.4,2-5.3,1.5-10.5,3.6-15.9,5-3,.8-5.8-2.9-3.9-6,2.6-4.4,6.4-8,9.6-12,2.5-3,4.9-6,7.4-8.9-.2-.4-.4-.8-.6-1.2-3.1.5-6.2,1.1-9.4,1.7-1.3-3,0-7.5,3.1-8.5,4.8-1.5,8.6-4.2,11.9-8,1.8-2,4.5-3.3,6.9-4.6,4.5-2.5,9.2-4.7,13.8-7,3.1-1.5,2.2-3.6.6-5.6-3.7-4.8-5.8-9.8-3.2-15.9,1.4-3.3,3.6-3.9,6.7-2.7,6.1,2.3,11.3,5.7,14.6,11.6.6,1,1.8,1.7,2.9,2.3,3.4,2.1,7.7,3.5,10.1,6.5,2.9,3.7,6,3.8,9.4,2.7,3-1,7-1.1,8.2-5.2,0-.1.3-.4.3-.3,5.6,1.5,7.9-4.3,12.3-5.7,4.6-1.5,8.6-4.8,12.9-7.1,4.5-2.4,9.2-4.3,13.5-6.8,4.9-2.8,9.5-6.1,14.2-9.1,1.8-1.1,3.7-2,5.5-3.1,1.9-1.1,3.8-2.5,5.8-3.4,4.8-2.1,9.8-4,14.9-5.4,1.9-2,3.2-3.7,7.3-4.3,6.7-.9,14.2-3.5,19.2-7.8,6.5-5.7,14.5-6.6,21.6-9.3,5.9-2.2,11.8-5.1,17.9-6.8,8.2-2.3,16.7-3.3,24.9-5.5,1.7-.4,3.6-3.4,3.9-5.4.4-2.8-.8-5.7-1-8.6-.1-2.7.3-5.5.5-7.5-4.9-5.1-9.6-10.1-14.3-15-.6-.6-1.5-1.3-1.5-1.9.2-8.6-5.6-8.7-11.9-8.9-6.1-.2-10.7-4-14.6-8.2-3.3-3.5-.8-14.7,3.6-16.2,5.2-1.8,6.2-5.1,5.1-9.9-.6-2.8-1.4-5.8-1-8.6.3-1.9,2.7-3.5,5.2-4.8,0-7-.7-14.1.2-20.9.8-5.6.5-11.9,5.3-16.5,1.6-1.6,1.6-5,3.3-6.5,3.7-3.1,8.3-5.1,12-8.1,5.4-4.5,11.1-1.8,16.2-.6,4.2,1.1,8.4,4.7,11.4,8.2,5,6,9.1,12.9,13.7,19.3.7,1,2.2,1.6,3.3,2.3.2-.4.5-.7.7-1.1-3.7-6-7.5-12-11.3-18.2-2.2-2.5-4.4-5.5-7.1-8-2.1-2-4.6-3.5-7-5-8.8-5.4-18.1-6.1-27.5-1.6-3.1,1.5-6.1,3.4-8.5,5.8-3.3,3.4-6.9,7.1-8.5,11.3-2.9,7.5-4.8,15.4-6.2,23.3-.9,5.1.4,10.5-.4,15.6-.7,4.2.7,7.5,2.1,11.2,1.8,4.7-1.5,9.2-6.5,10.8-8.9,2.8-17.6,6.3-26.5,9.3-3,1-6.3,1.3-9.9,2.1.8,2.8,1.9,5.4,2.3,8.1.8,4.9-1.3,6.3-6,4.9-5.4-1.6-10.9-2.9-16.4-4.1-.8-.2-2,1.3-2.9,1.2-1.9-.2-3.8-.9-5.6-1.4.6-1.6.8-3.8,1.9-4.8,6.4-6,13-11.8,19.7-17.5,1.5-1.2,3.6-1.7,5.5-2.5.7,1.9,1.5,3.8,1.9,5.7.2,1-.6,2.1-1.3,4.2,6.4-2,12-3.8,17.7-5.6,1.9-.6,3.7-1.1,5.6-1.6,5.3-1.5,11.1-2.5,13.2-8.7.6-1.8,1-3.9.5-5.7-2.3-8.8-2.3-17.8-.4-26.4,1.9-8.5,2.5-17.9,8-24.8,8.2-10.3,17.5-20.4,32.2-20.5,9.3,0,17.7,3.4,24.2,10.6,1.7,1.8,4.8,2.6,5.8,4.6,3.8,7.1,9.5,12.8,13.9,19.4,2.7,3.9,4.1,8.8,5.8,12.7,2.9-.5,5-.6,6.9-1.2,5.6-1.6,11.9-2.3,16.6-5.4,3.7-2.4,5.5-7.8,8.1-12,.6-1,.7-2.2,1.4-3.1,1.9-2.7,4.7-2.9,6.9-1.1,1,.8.7,3.8.1,5.5-.7,2-2.3,3.7-3.5,5.5.6.4,1.2.9,1.7,1.3,1.9-2.3,4.2-4.4,5.7-6.9,1.5-2.5,2-5.7,3.6-8.1,1-1.4,3.3-1.9,5.1-2.8.7,2,2.2,4.1,1.9,6-.5,2.8-2.3,5.4-3.6,8.2,1.1,3.3,3.7,3.8,7.1,4,2,.1,3.9,2.2,5.5,3.8.3.3-.9,3-1.9,3.4-2.3,1-4.8,2.2-7.1-.6-2-2.6-12-4.8-14.7-3.4-1,.5-1.4,1.9-2.4,3.2,2.4.4,4.3.8,6.2,1,2.9.4,4.7,1.7,3.8,5-.9,3.4-3.6,3.8-6.3,3-3.5-1-7.1-1.9-10.1-3.7-6.5-3.8-11.9.2-17.5,2-3.3,1.1-6.3,3.3-9.2,4.8.7,3.4,1.4,7.1,2.2,11.1,5.2,2,11.3,11.9,10,16.8-4.1,14.9-12.5,16.6-22.7,15.8,1.8,2,3.1,3.2,4,4.6,1.2,1.8,2.2,3.7,3.3,5.5-1.9.9-3.9,1.6-5.5,2.8-1.3,1-2.6,2.5-3,4.1-1.3,5-2.3,10.1-3.3,14.8,3.5,1,6.3,1.4,8.8,2.5,2.8,1.2,4.5,3,4,6.9-.7,5.5,3.6,8.9,9.2,10.4,5.8,1.6,11,1.2,16.8.4,6.3-.9,13,.1,19.4.7,12.7,1.1,25.5,2.2,38.2,3.7,4.8.6,9.4,2.3,14.1,3.5.6.2,1.2.6,1.9.6,7.8.8,15.7,1.1,23.4,2.5,4.4.8,8.5,3.2,12.8,4.7.8.3,1.9-.4,2.8-.3,2,.3,4.1.6,6,1.2,4.6,1.5,9.2,3.4,13.8,4.8,3,.9,6.1,1.3,9.1,2.2,5.4,1.8,10.6,3.9,16,5.8,1.7.6,3.5,1,5.1,1.5h0ZM280.6,302.7c-.9.9-1.7,2.1-2.8,2.7-8.1,4-16.3,7.8-24.4,11.8-1.4.7-2.6,1.9-3.9,2.8.4.7.7,1.3,1.1,2,25-7.3,49.7-15.4,73.7-26.1-7.2-7.7-14.1-15-21-22.3-1-1.1-2.7-2.1-2.9-3.3-.4-4.7-4.4-5-7.4-6.4-2.4-1.2-4.9-2.2-7.4-3.3-1.8,5.3,1.6,9.3,5,12.7,3.7,3.7,3.6,6.7.4,9.8,1.1,1.8,2.2,3.4,3.2,5-.5.5-1,1-1.5,1.5-1.9-1.6-4.1-3-5.5-5-2.2-3-4.5-2.6-7.3-1.5.7,2.5,1.4,4.7,2,6.9-1.4-.9-2.9-1.6-4-2.7-4.3-4.3-6,2.4-9.5,2.2-.5,0-1.1,1.9-1.7,2.9,1.6,0,2.5-1.1,3.2-1,2.4.3,4.7,1.1,7.1,1.6-.9,1.9-1.3,4.4-2.7,5.6-3.1,2.6-6.8,4.3-10.1,6.7-1.4,1-2.3,2.6-3.5,4,1.8.5,2.9.2,3.9-.2,5.4-2.1,10.8-4.1,16.2-6.2h0ZM534,343.3h0c-.6-3-.5-6.1-3.9-8.3-2.1-1.3-4.8-5.4-4.2-6.7,3.6-7.3-1.6-16,4.2-22.7.2-.2-.3-.9-.2-1.3.6-9,1.3-17.9,1.7-26.9.2-4.2,3.1-7.7,2.1-12.4-1.7-7.9-2.3-16-3.7-23.9-.7-4-2.5-7.8-3.2-11.8-.8-4.8-.7-9.7-1.5-14.4-.8-4.5-2.4-8.9-3.5-12.9-2.6,4.1-5.8,9.4-9.2,14.4-.8,1.2-2.5,1.7-3.8,2.5-.4-1.4-1.2-2.9-1.1-4.3.1-3.9.8-7.8.9-11.8,0-1.3-.7-3.6-1.3-3.8-1.9-.3-4.1,0-6,.6-2.1.6-4,1.7-6.1,2.3-7.1,2.2-14.3,4.3-21.4,6.4-.9.3-1.8,1.4-2.6,1.2-6.6-1-11.8,3.4-17.3,5.5-5.9,2.2-11.8,4.4-17.6,6.6-4.3,1.6-8.3,3.8-12.4,5.8-1.2.9-3.5.3-4.5,1.2-3.4,3.2-8.5,2-12.2,6.3-3.7,4.3-11.7,4.2-16,9.4-8-1.1-11.5,9-19.5,7.9-.4,0-1,.4-1.3.7-4,4.9-9.6,7.3-15.3,9.3-5.2,1.8-6.5,4.5-4.5,9.8.4,1,.4,2.1.5,2.9,1.2-.5,2.3-.8,3.1-1.1.4,2.6.8,4.6,1.1,7.1,3.7-3,6.6-7.1,9.6-7.2,7.1-.3,13-2.6,19.2-5.8,6.7-3.4,14.2-5.1,21.5-7.3,4-1.2,8.4-1.5,12.3-3,7.7-3,15.1-7,23.8-6,.6,0,1.5,0,1.9-.4,5.1-4.1,11.1-2.4,16.7-2.4,1.6,0,3.7,1.4,4.9,2.8,3,3.4,6,6.9,8.4,10.8,2.3,3.7,4.4,7.6,5.7,11.8,1.7,5.4,2.4,11,3.7,16.5,1.1,5.1,2.6,10.1,3.5,15.2,1.3,7-.9,14.2,1,21.4,1.1,3.9-.3,8.5-.5,13,.5,1.1,2.1,3.1,1.7,4-3.9,7.4,1.9,15.8-2.6,23-.1.2.6.9.6,1.3,0,1.6-.4,3.2-.4,4.9,0,1.9-.2,3.9.4,5.6.2.6,2.6.8,4,.6,4.5-.6,9-1.4,13.5-2.2,3.9-.7,7.9-2.4,11.7-2.1,10.1.9,19.4-3.1,29.2-3.4,4.8-.2,9.7-.7,14.5-1,1.9-.1,3.8,0,5.7,0,2,0,4.1-.4,6.1,0,7.6,1.3,15.2,2.6,22.2,1.8,4.8-11.7,2.6-24.4,7.8-35.6-3.7-6.2,5.4-12.1.4-18.3-.1-.1,0-.7.2-.9,3.5-5.5,4.5-11.6,3.6-18-.1-.9,0-2.2.6-2.8,4.5-4.4,1.1-10.4,3.5-15.5,1.9-4,1.6-8.9,2.9-13.2,3.1-10,7.2-19.8,8.3-30.3,0-.7.7-1.6,1.2-2.1,8.3-6.5,17.6-9.4,28.2-8.7,17,1.2,34.1,2.5,51.1,3.6,1,0,2.6-.9,2.8-1.7.9-3.1,1.2-6.3,2-9.4.4-1.5,1.3-2.8,2-4.2.3.1.7.3,1,.4-.5,5.2-1,10.4-1.4,15,8.6,2.4,16.5,4.6,24.3,6.8,1-5.2,2-10.2,3.2-16.1-10.1,0-16.7-9.8-26.3-7.8-2-1.3-3.4-2.7-5-3.3-5-1.7-10.2-3.1-15.3-4.6-6.6-2-13.1-4.2-19.8-6-5.3-1.5-11.1-1.9-16-4.1-3.3-1.5-5.9-1.1-8.9-.9-1,0-2.2.6-3.1.4-10.7-2.7-21.5-3.5-32.4-3.3-6.5.1-13,.4-19.5,0-6.2-.4-12.4-1.7-18.6-2.3s-4.2.2-6.3.4c-4,.3-8,.6-12.9,1.1,1.4,6.8,3,14.9,4.6,23,.3,1.4.7,2.9.7,4.3,0,1-.5,2.5-1.2,2.9-.7.4-2.6,0-3-.7-3-4.6-5.8-9.3-8.7-14,2.7,2.3,5.5,4.6,8.2,6.9,0-4.5-2-8.5-2-12.6,0-9.3-3-17.7-6.8-25.9-.7-1.4-2.8-2.5-4.5-2.8-.9-.2-2.7,1.2-3.3,2.4-2.4,4.2-.2,13.7,3.5,17.1,1.3,1.2,2.4,2.8,2.9,4.4,1,3.5,1.5,7.1,2.2,10.7-.9,1.4-2.6,2.9-2.5,4.2.5,7.5,1.7,15,2.3,22.5.5,5.7.6,11.4.9,17.1.1,2.2.8,4.4.5,6.5-.8,4.8,0,9.2,2.1,13.5.8,1.6,1.1,3.4,1.4,5.2.5,2.8.4,5.7,1.2,8.4,1.5,5.1,6.6,9.5,2.5,14.3,5.7,9.4,5.5,19.6,8.3,28.3,1.8.1,3.3.2,4.9.4-.9,1.7-1.8,3.3-2.6,5-.9,2.5-2,4.6-3.5,6.5-1.6,1.9-3.5,3.4-5.3,5.1.3.4.7.9,1,1.3,1.3-.1,2.8.1,3.7-.5,5.2-3.6,10.1-7.6,15.2-11.2,1.1-.8,2.8-.7,4.2-1.1-.5,1.3-.6,3.2-1.5,3.8-4.6,2.9-9.7,5.1-14.1,8.4-5.2,3.8-13.1,5.2-13.3,14.1,0,1.7-2.9,4.8-4.1,4.7-2.2-.3-4-2.6-6-4,.1-.6.2-1.2.4-1.8-2,.8-4.1,1.5-6.1,2.4-4.8,2.1-8.7,6.6-14.7,5.3h0c1.7-1.2,3.2-3,5.1-3.8,5.6-2.6,11.4-4.8,16.7-7-2.6-4.2-4.6-7.4-6.5-10.6h0ZM528.3,188.6c.7-.1,1.5-.3,2.2-.5-.4-5.1-.7-10.3-1.1-15.4,0-1.3-1-2.9-.5-3.8,2.4-4.4,5.1-8.4,4.5-14-.3-2.9,1.8-5.9,2.3-9,1-6-5.1-3-7.1-5.4-.2-.2-.5-.6-.8-.6-1.6,0-3.5-.6-4.8,0-2.3,1.1-4.3,2.9-6.5,4.4-5.6,3.8-11.2,7.5-16.7,11.4-.7.5-1.3,2.7-1,2.8,3.9,2.8,7.6,6,11.9,8,5.4,2.4,10.7,4,12.4,10.9,1,3.9,3.5,7.4,5.4,11.1h0ZM522.8,64.4c-5.9,5.3-6.6,13.2-13.4,16.2-.9.4-1.1,2.1-2,2.7-2,1.2-4.4,3-6.4,2.7-3.7-.6-3-3.7-1.9-6.3,1.4-3.4,3-6.8,4.5-10.1-.2-.2-.5-.3-.7-.4-7.2,5-14.4,9.9-21.7,14.9-.3,3.6-.6,7.6-.8,11.2,5.7-.9,11.7-3.7,16-2,4.1,1.6,6.3,7.9,9.2,12.1,3-2.2,6.1-4.5,9.8-7.3-.1-1.3-.8-3.5-.4-5.6.4-2.3,1.2-5.2,2.8-6.6,2.2-1.9,5.5-2.4,8.2-3.9,1.5-.8,3.7-2.2,3.6-3.3,0-1.8-1.6-3.6-2.5-5.4-.7-1.2-1.4-2.5-2-3.7-.8-1.6-1.5-3.3-2.3-5.2h0ZM533.6,86c-6.9-.6-11.4,4.2-10.2,10.9.6,3.5,2,6.8,3,10.2,1.3,4.1,3.9,6.2,8.5,6.3,6.8.1,14.3-6,13.3-11.4-.8-4.2-1.9-8.3-3.2-12.4-1.1-3.4-2.4-7.2-7.5-4.1-1,.6-2.5.3-3.8.4h0ZM569.1,587.3h1.5c.6-2.7,2-5.3,1.7-7.7-.5-4-2.8-8,.5-11.9.2-.3.3-1.2.1-1.4-3.8-3.8-.8-7.8-.5-11.7.5-5.9,1.7-11.7,2-17.5.4-6,.2-12.1.3-18.2,0-.6.4-1.3.5-1.9,1.2-6.9,3.5-13.9,3.1-20.8-.4-6.3-1-12.5.2-18.7.3-1.6,1.1-3.2.8-4.7-.9-5.7-1.4-11.3,1.4-16.8.8-1.6,1.1-4.2.3-5.6-2.8-4.9.2-9.1.6-13.7.5-5.1.1-10.4.1-15.5l-2.1-.2c-.5,1.1-1.2,2.2-1.3,3.3-.8,11.3-1.4,22.6-2.2,33.9-.2,3.3-.8,6.6-1,10,0,2.5.7,5,.5,7.4-.4,3.6-1.6,7.1-2,10.7-.6,6.6-.7,13.2-1.2,19.8-.2,2.2-1.7,4.2-1.8,6.4-.4,11.1-.5,22.2-.8,33.2,0,3.3-.9,6.6-1,9.9-.1,5.9,0,11.8.1,17.6,0,4.7,0,9.5,0,14.2h0ZM739.8,238.5c5.7,1.6,11.7,3.4,18.7,5.4,1-4.2,2.1-8.8,3.3-13.4.2-.9,1.1-1.6,1.5-2.5.9-1.9,1.6-3.8,2.4-5.7-1.2-.4-2.5-1.2-3.5-.9-2.2.6-5,.8-4.5,4.5.5,3.1-1.4,4.7-4.7,5.2.8-3,1.6-5.6,2.3-8.2-7.5-2.7-2.9-10.2-7-15.7-3,11.1-5.7,21.1-8.5,31.5h0ZM498.8,115.7c-.1-1.8-.2-3.6-.4-5.4-.2-2-.4-4-.9-5.9-1-4.2-5.8-6.1-9.4-3.8-1.9,1.2-3.8,2.6-5.8,3.7-5.3,2.8-6.6,6.5-4.7,13.6,1.3,4.8,4,6.5,9.9,6.1,9.4-.6,10.9-1.7,11.3-8.2ZM519.8,133.6c-.3-.1-.6-.2-.8-.3,1.4-.8,2.8-1.7,4.2-2.5,4-2.2,4-4.6,2-8.8-2.2-4.7-9.4-7-7.1-14,0-.3-1.7-1.7-2.2-1.5-1.8.7-4.3,1.6-4.8,3-2.4,6.4-4.5,13-6,19.6-.4,1.7,1.6,4.4,3.2,6,1.9,2,3.9,1,6.1-.6,1.3-1,3.6-.6,5.5-.9h0ZM323.4,281.5c.6,5.2,4.6,8.6,8.3,7.2,4.8-1.8,9.8-3.2,14.6-5,1.5-.6,3.8-2.4,3.6-3.4-.3-2.3-1.6-4.7-3-6.6-1-1.4-3-2-5.1-3.3-5.6,3.4-12,7.3-18.4,11.2h0ZM504.7,382.5c2.3,3.8,2.7,6.6.6,10.3-1.6,2.8-2.1,6.4-2.8,9.7-1.4,7.1-2.5,14.2-3.9,21.2-.3,1.6-2.6,3.3-2.3,4.6,1.3,6.2-1.4,11.7-2.7,17.5-1.7,7.5-3.5,14.9-5.3,22.4.6.1,1.2.3,1.9.5,10-27.4,11.7-56.9,22.3-84.9-3.2-.5-5.5-.8-7.8-1.1h0ZM522.3,198.5c-3.6-5.6-3.4-6.4,2.1-11.1-1.8-3.4-3.7-6.8-5.6-10.3-2.9.8-5.5,1.5-8.5,2.3,4.7,11,.2,21.5.3,32.9,4.2-4.9,7.8-9.2,11.7-13.8h0ZM454.8,560.4c4.4-3.3,24.7-82.7,21.7-90.2-7.4,30.7-14.5,60.4-21.7,90.2ZM496.7,130.6c-3.3.5-7.3,1.1-12.1,1.8,3.1,7.1,6.1,13.8,9.3,21,2.3-3.6,4-5.8,5.1-8.3.9-2.1,1.6-4.8,1.1-7-.5-2.6-2.3-5.1-3.4-7.5h0ZM543.7,127.1c7.8-1.3,13.4-4.7,16.6-12.4,1.2-2.8.6-5-1-5.6-1.5-.6-4.2.5-5.9,1.6-2.9,1.9-5.5,4.3-8.2,6.6-.7.6-1.4,1.5-1.5,2.3-.2,2.3,0,4.7,0,7.5h0ZM559.6,544.6c.8,0,1.5,0,2.3,0,0-5.8,0-11.5,0-17.3,0-1.8-.2-4,.6-5.3,2.9-4.7,2.2-9.4,1.2-14.3-.4-1.9-.6-3.9-.4-5.8.5-3.5,1.5-7,1.9-10.5,0-.5-1.7-1.3-3.5-2.6-.8,19.4-1.5,37.7-2.2,55.9h0ZM481,140.9c.6-5.7-1.8-9.3-6-11.4-1.5-.7-4.2-1-5.2-.1-1.1,1-1.7,3.9-1,5.2,2.6,4.8,7.4,5.8,12.2,6.3h0ZM549.8,299.4c-.8-1-2.3-2.6-3.8-4.4-.3.1-.5.3-.8.4,2,12.6,4,25.1,6,37.7,1.2-.9,1.8-2,1.7-3-.9-6.1-2.3-12.2-3-18.4-.5-3.6,0-7.4,0-12.4h0ZM563.1,428.1c-.4,0-.9,0-1.3.1-.7,4.2-1.6,8.4-2.2,12.5-.6,4.3-.9,8.5-1.3,12.8-.4,3.9-.8,7.8-1.2,11.7.8,0,1.6.1,2.4.2,1.2-12.5,2.4-24.9,3.6-37.4h0ZM542.6,426.5c.8,0,1.7-.2,2.6-.3-.1-1.6-.2-3.2-.4-4.7,0-1-.6-2.1-.4-3,1.5-6.2,3.3-12.3,4.7-18.5.2-1-1-2.4-1.6-3.8-2,7.9-4,15.2-5.5,22.7-.5,2.4.4,5.1.6,7.7h0ZM762,242.2l-.8,2.7c5,1.3,10,2.7,15,3.9,3.1.7,6.3.9,9.4,1.5,2.7.6,5.3,1.5,7.9,2.3.2-.7.4-1.3.5-2-10.7-2.8-21.3-5.6-32-8.4h0ZM481.5,419.1c1.6-1.5,2.5-2.1,3.1-3,4-5.8.5-13.8,5.5-19.4.3-.4-.2-1.6-.5-2.4-.8-2.1-1.7-4.2-2.9-7.3-.9,1.5-2.4,3.2-2,3.6,3.8,5.1.1,9.9-.3,14.8-.4,4.2-1.7,8.4-2.9,13.6h0ZM536.9,332.3c.6-.1,1.3-.3,1.9-.4-1-6.8-2-13.6-2.9-20.4-.6,0-1.1.1-1.7.2-.7,7-1.8,14.1,2.7,20.5h0ZM790.6,227.2c-4.7-1.1-9.4-1.2-12.9-3.3-4.5-2.8-6.7-1.8-8.6,3.3h21.5ZM763.1,236.2c5.8,7.1,14.5,5.7,21.5,9.4-2.5-4-17.4-10.6-21.5-9.4ZM533.3,119.9c.2,4.4.4,8.5.6,12.9.7.1,1.8.4,3.5.7v-15c-1.8.6-3.2,1-4.1,1.3h0ZM524.7,382.3c-.4-.2-.9-.5-1.3-.7-2.3,6-4.6,12-7.2,19,8.8-4.4,6.2-12.4,8.6-18.3ZM559.6,574.3c.4,0,.7,0,1.1,0v-21.7c-.7,0-1.5,0-2.2,0,0,3.6-.1,7.2,0,10.8.2,3.6.7,7.2,1,10.9h0ZM517.6,401.4c-4.6,2.5-6.4,11-3.2,14,1.1-4.6,2.1-8.9,3.2-14ZM531.8,380.3l-1.7.6c6.8,6.2-2.3,10.8-.4,16.6,2.1-4.5,3.7-9.1,4.7-13.8.2-.9-1.6-2.3-2.5-3.4h0ZM551,433.2c.3-3.8.6-7.6.9-11.4-3.4,3.5-4,7.4-.9,11.4ZM478.8,459.1c.6.1,1.2.3,1.8.4,1.4-5,2.9-10,4.3-15-.6-.2-1.1-.3-1.7-.5-1.5,5-3,10-4.4,15.1h0Z"/>
  <path class="st0" d="M977.2,287.7c.7,6.1,1,11.1,1.9,16,1.2,6.1,3.8,7.2,9.4,4.9,1.2-.5,3.3-.7,4,0,3,2.6,5.5,1.2,7.4-.8,2.2-2.3,4.1-2.5,7.1-2.3,4.4.2,9.1-2.1,13.2-1.2,5.7,1.3,11.2-3,17,.9,2.2,1.5,6.6-.4,10-.6,2.2-.1,4.8-.7,6.7.1,4.7,2,8.8,1.5,13.1-.9,1.3-.7,4.2-.9,4.8-.1,1.1,1.5,2.1,4.5,1.4,5.8-5.1,8.4-5.1,18-7.4,27.1-2,8.1-.6,16.9-3.6,24.2-3.3,8-2.2,16.4-5.3,24.1-1.8,4.4-3.1,8.9-4.5,13.4-.3,1-.4,2-.4,3,0,3.9,0,7.8-.2,11.6,0,.9-.8,1.8-.9,2.8-1.1,6.2-1.4,6.6-7.6,6.8-.4,3.8-.2,7.8-1.3,11.4-1.9,6.2-7,8.5-13,5.6-5.7-2.7-10.9-6.2-16.3-9.3-1.3-.7-2.8-.9-4.2-1.4-.9-.3-2.3-.2-2.7-.9-2.9-4.2-7.5-5.7-11.6-8-1.1-.6-1.7-2-2.7-3.3-2.7.4-5.5,1.1-8.4,1.3-2.8.2-5.6,0-8.2,0-2.3,5.3-5.4,11-7.3,17.1-1.3,4.2-3.2,7.4-6.3,10.7-2.9,3.1-4.9,8-5.2,12.4-.6,7.3.4,14.7.6,22.1.2,7.7.2,15.4.6,23.1.6,9.7.5,19.6,2.7,28.9,2.5,10.7,3.3,21.6,5.3,32.4,1.1,5.5,1.9,10.4,5.4,15.1,1.5,2.1.6,5.8,1.1,8.8.9,5.2,2,10.4,3.1,15.5,1.5,6.9,2.6,13.9,4.6,20.6,2.4,8.3,5.4,16.5,8.5,24.5,2.5,6.5,5.8,12.6,8.3,19.1,2.1,5.5,3.5,11.4,5.5,16.9.6,1.6,2.3,2.7,3.4,4.1,1.1,1.4,2.1,2.9,3,4.4,1.2,2.2,2.3,4.4,3.5,6.6.2.4,1.1.8,1,1-1.5,6.1,4.6,6.8,6.8,10.2,1,1.6,0,4.5,0,6.8-1.7,0-3.7.3-5-.4-3.7-2.1-7.2-4.7-10.7-7.1-.6-.4-1.5-1-2.1-.8-4.8,1.5-7.5-1.6-7.8-5.1-.6-6.5-6.3-9-9.1-13.6-2.2-3.7-5.2-6.9-7.8-10.4-.2-.2-.2-.7-.4-.9-8.9-4.5-10.6-15.3-18.3-21-2.6-1.9-3.4-6.1-5.2-9.1-1.7-2.8-3.9-5.3-5.5-8.1-2.8-4.8-5.2-9.8-7.8-14.7-2.1-3.8-4.5-7.4-6.6-11.2-.8-1.5-1.6-3.2-1.9-4.8-1.6-8.2-3.1-16.3-4.6-24.5-1-5.3-1.8-10.7-2.8-16.2-1.8,2.4-4.5,5.1-6.1,8.3-1.7,3.4-2.1,7.5-3.5,11.1-.8,2.2-2.7,4-3.5,6.2-3.2,8-6.3,16-9.2,24.1-.5,1.4-.4,3.1-.5,4.6,0,.6.4,1.4.2,1.9-2.2,4.7-4.7,9.3-6.7,14.2-1.2,2.9-1.3,6.3-2.4,9.3-3.4,9.1-6.3,18.1-6.4,28.1,0,4.8-2.7,9.6-4.1,14.5-.3,1.2.2,2.8-.3,3.8-.9,1.6-2.3,3.7-3.8,4-1.2.2-4-1.8-4.2-3-.5-4.8-.2-9.8-.3-14.7,0-4.6-.3-9.3-.2-13.9,0-6.3,0-12.7.5-19,.9-11.1,2.4-22.1,3.3-33.2.3-4.6.2-9,2.4-13.4,1.2-2.2.2-5.5.6-8.3.8-6.3,1.7-12.6,2.9-18.8,1.5-7.4,3.5-14.6,5.1-22,.6-2.5.2-5.4,1.2-7.7.7-1.6,2.8-3.2,4.5-3.5,2.9-.6,4.4-2,3.8-4.7-1.3-6.7,2.2-11.8,4.5-17.5,2.1-5.1,3.2-10.9,3-16.4-.2-6.2-1.9-12.4-5.2-18.2-2.1-3.7-2.6-8.3-3.6-12.6-.2-.9.6-2.1.9-3-1-2.3-2.4-4.5-3-6.9-.8-3.5-.6-6.7-4.8-8.8-2-1-1.9-5.9-2.9-9-.9-2.7-2.2-5.3-3.3-8.1,1.1-4.4,2-9.6,3.6-14.6,2.1-6.5,4.8-12.7,7.2-19.2,1.8-4.9,3-10,5-14.8,2.2-5.4,5-10.5,7.3-15.9,2.4-5.8,4.5-11.8,6.8-17.6.5-1.4,1.5-2.5,2.1-3.9.4-1,.9-2.8.6-3-3.7-2.3-3.1-7.8-7.6-9.7-1.7-.7-1.8-4.4-3.3-6.2-6.3-7.4-12.2-15-16.4-23.8-1.4-2.9-2.4-5.9-3.7-8.8-1.6-3.8-4.1-7.4-4.9-11.4-2.2-11.2-4.7-22.4-5.1-33.7-.4-9,2-18.1,3.2-27.2,0-.6.4-1.3.8-1.8,7.4-8,11.7-17.9,17.4-27,1.6-2.5,4.2-4.4,6.1-6.8,4.9-6.4,9.8-12.9,14.3-19.6,2-2.9,3.6-6.2,4.5-9.6,1.4-5.3-3.8-6.8-6.6-9.4-3.4-3.2-7.7-5.5-11.2-8.7-3.2-2.9-6-6.5-9.5-9.7,1.5,7-2.8,11.4-7.2,14.5-3.2,2.3-8.6,3.3-12.5,2.5-7-1.4-12.6-5.4-14.3-13.4-.8-4.1,1.2-11,3.9-14.2,3.3-3.9,6.6-7.1,11.7-8.4,3.8-.9,7.5-3.6,10.8,1.8.3-.4.6-.8.8-1.2,0-3.2.4-6.6,0-9.7-.8-4.7-1-9.1,2-13,3.7-4.7,7.2-9.7,11.6-13.5,3.8-3.3,9.7-4.3,13.3-7.7,5.4-5.1,12.2-5.5,18.5-7.5,6.6-2,13.8-2.2,20.8-2.9,1.6-.2,3.3,1.4,5,1.9,2.5.7,5.5,3,6.6-2.3.3-1.6,3.1-3.4,5-3.8,5-1.2,11.4,2.2,13,7.2,1.6,5.2,2.1,10.8,3,16.2.1.9,0,2.3-.7,2.7-6.4,4.9-3.4,10.4-1.2,15.8,1.2,3,2.6,5.9,4.1,9.2,1-.9,1.8-2.1,2.8-2.5,1.7-.6,4.3-1.5,5.1-.8,1.2,1.2,1.6,3.6,1.7,5.6,0,.9-1,2.1-1.8,2.8-5.3,4.7-4.3,11-4.8,17-.6,7.1-.5,14.6-2.7,21.3-2.1,6.5-8,11.5-14.7,12.5-7.8,1.2-16.1.3-25.2.3.4,1.3.5,3.1,1.4,4,2.6,2.6,2.3,4.9.5,8-4.3,7.6-6.6,16.1.3,22.8,7.3,7,6.9,17.6,15,25.2-2.5-.5-3.6-.7-5.8-1.1.7,2.1.9,4.1,2,5.4,3.3,4,7.1,7.6,10.4,11.7,4,5,8.8,9.9,11.2,15.6,3,7.1,6.1,14.9,2.8,23-.7,1.8-2.6,3.2-4.1,4.5-1.3,1.2-3,2-3.8,2.5h0ZM939.4,204.1c.5-8.1,1.9-16.2-1-24.3-2,2.4-3.6,4.9-4.6,7.6-1.1,2.8-1.5,5.7-2.3,8.6-.6-.2-1.3-.3-1.9-.5,1-5.9,5.8-11.2,2.9-17.7-2.8,5.7-5.1,11.5-7,17.4-.3.9.9,2.8,1.9,3.3,3.9,2,8.1,3.6,12.1,5.4,0,2.4,0,4.9.3,7.3.5,2.9,1.5,5.6,2.1,8.5.9,4.6,1.2,9.4,2.4,13.9,1.5,6,6.1,11.1,4.6,17.9-.1.6.2,1.3.5,1.9,1.1,2.2,3.2,4.5,3.2,6.7-.1,7.8,7.9,13,6.5,21.1,0,.2.7.6,1,.9,5,5.5,5.7,12.8,8,19.5.8,2.3,1.8,4.6,2.6,6.9.7-.2,1.3-.4,2-.6-1.2-6.4-2.1-12.9-3.9-19.1-1-3.6-.6-7.5,2.7-7.6,6.9-.3,6.8-5.2,7.7-9.9,1.5-8.1-4.5-13.9-8.2-18.9-3.5-4.8-6.8-11.7-13.9-13.8-1.1-.3-1.5-3.1-2.2-4.7-1.1-2.4-2.1-4.7-3.2-7.1-.3-.7-1.3-1.5-1.1-2,1.6-4.8-2.2-6.6-4.8-9.2-2.2-2.2-4.1-4.4-.7-7.6-2-1.3-3.8-2.5-5.5-3.7h0ZM906.8,213.8h.1c6.9-6.4,14.7-10.8,24.7-10.6-4.3-1.9-8.6-3.4-13-4.5-2.5-.6-5.2-.4-7.7-1-1-.2-1.7-1.3-2.5-2,.9-.6,1.8-1.7,2.6-1.6,3.5.6,7,1.6,10.4,2.4.5-1.5,1-3,1.5-4.6,1.5-4,3.1-8.1,4.5-12.1.7-2.1.5-4.3-2.5-3.7-1.7.4-3.5,1.5-4.6,2.8-7.6,9-15.2,18.1-22.6,27.2-3.2,3.9-6.3,7.9-9,12.2-1.8,2.8-2.7,6.1-4,9.1-.3.8-.3,1.8-.8,2.4-5.1,6.2-3.8,14.1-4.7,21.1-1,7.2,1.9,14.9,1.7,22.3-.2,7.4,7.2,12.6,5.1,20.2-.1.4.8,1,1.1,1.6,2.2,3.7,4.6,7.3,6.6,11.1,2.8,5.2,4.9,10.8,8,15.9,2.7,4.5,6.2,8.4,9.4,12.5,2.1,2.8,3.7,6.4,8.5,4.8,1.1-.4,3.6.5,3.9,1.4,1.1,3.5,4.3,3,6.7,4.1.8.4,2.6.2,3-.4.5-.8.5-2.4,0-3.2-2.5-4.5-5.3-8.9-7.7-13.4-2.2-4.1-7.7-6.8-5.9-12.8,0-.3-.4-.8-.7-1.2-1.2-1.8-2.7-3.5-3.7-5.4-1.9-3.8-2.6-8.6-5.3-11.5-5.1-5.3-5.5-12.5-7.4-18.6-3-9.5-3.6-19.9-7-29.4-1.1-3-.4-5.3,2.3-5.9,2.7-.6,5.1.8,5.3,4.3.2,2.6.2,5.3.8,7.9,1.6,7.1,3.5,14.1,5.1,21.2.4,2-.6,4.6.4,6,3.2,4.4,3.9,9.7,5.9,14.4,3.8,9.1,7.8,18.2,13.7,26.4,4.1,5.6,8.4,11.4,11,17.8,2.3,5.6,7.2,7.3,11.2,10.1,4.4,3.1,5.3,3.3,2.7,8,4.6,6.3,8.9,12.8,13.9,18.9,1.7,2.1,3.8,5.1,7.9,3.1,1.8-.9,3.8.4,4.3,3.3,1,5.3.2,11.2,7.1,14.4,4.4,2.1,7.7,6.7,11.3,10.5,1.4,1.5,2.2,3.5,3.3,5.2,1.5,2.2,2.8,5,4.9,6.4,4.7,3.1,10.4,4.9,15,7.9,4.4,2.9,8.6,2.6,14,3.5-.7-7.4-.3-14.5-2.2-21-1.1-3.8-2.2-8.4-7-11-6.2-3.4-6-6.1-2.7-13.2,1.4-3.1,2-6.6,2.9-10-.5-.4-1-.8-1.5-1.2-5.3,4.8-10.6,9.6-15.8,14.5-2.5,2.4-5.2,3.7-7.6.7-2-2.5-3.6-5.5-4.7-8.6-1.8-4.6-2.6-9.4-5.7-13.6-2-2.8-2.3-6.8-3.5-10.2-.3-.9-.5-1.9-1.2-2.6-2.3-2.7-5.3-4.8-4.9-9.1,0-1-2.1-2.9-3.3-3-4.1-.4-4.2-3-4.2-6,.1-5.7,1.1-11.3-3.4-16.3-2-2.2-2.5-5.8-3.8-8.7-.8-2.3-.4-5.1-1.3-7.4-2.1-4.8-4.8-9.3-7.4-13.9-.8-1.4-2.6-2.9-2.3-3.9,1.5-5.8-4.2-9.3-4.3-14.6,0-2.8-1.3-5.6-2.3-8.2-2.4-6.5-5.2-12.8-7.5-19.3-2.4-6.7-4.9-13.4-6.6-20.2-1.4-5.4-7.2-11.3.4-16.5-4.5-4.6-9.2-3.1-14.1-1.1-4.9,2.1-9.9,3.9-14.8,5.9h0ZM927.6,168.5c2.4,1.1,4,2.1,5.8,2.5,1.7.4,4,.9,5,.1,1-.8.9-3.2.7-4.9-.2-2.1-1.3-4.1-1.3-6.2,0-2.6,1.5-4.5,4.4-3.4,8.5,3.1,17,5,26.2,3.2,6.6-1.3,13.2-7.1,13.9-13.5.2-1.4-.9-3.2-.3-4.3,4.4-8.5,0-16.6-1.7-24.6-1.9-9.4-6-18.3-8.9-27.5-1.1-3.3-3.2-4.7-6.2-3.3-6,2.7-12,5.5-17.6,8.9-2.1,1.2-4.2,3.9-4.5,6.2-.7,5.3-.2,10.8-.3,16.2,0,2.1.1,4.4-.4,6.4-1,3.7-4.5,4.8-7.3,2.1-2.9-2.7-5.5-5.6-8.1-8.6-2.5-2.9-6.7-3-8.1.2-.7,1.5-.8,3.2-1.3,4.8-2.1,7,2.1,13.3,9.3,14.2,1.9.2,3.7,1.3,5.6,2-.7,1.8-1.4,3.6-2,5.2,1.5,8.5.5,16.7-2.9,24.3h0ZM988.7,340.2c3.7,3,3.9,5.5,2.1,8.8-.8,1.6-.2,4.5.6,6.4,2.4,5.4,5.9,10.2,7.3,16.2.9,3.8,4.2,7,6.6,10.7,5.2-3.8,10.3-8,15.9-11.5,2-1.3,6.1-1.9,7.5-.8,2,1.7,3.3,5.3,3.3,8.1,0,4.4-1.2,8.8-1.8,13.1-.1.9-.2,2,.3,2.7,2.8,4.7,5.8,9.2,8.6,13.9,1.2,1.9,2.2,3.8,3.5,6,2.2-5.9,4.1-10.9,5.9-15.9.1-.3,0-.7,0-1,1.4-8.7,1-17.6,4.7-25.9,1.4-3.1,1.5-6.9,2.3-10.3,1.6-6.7,3.2-13.4,4.8-20.3-23.1-3.6-46.8-2-72-.2h0ZM982,313.6c0,5.1,0,9.7,0,14.4,0,7.3,1.8,9.1,9.1,8.9,10.4-.2,20.9-1,31.3-1,9.7,0,19.4.6,29.1,1.2,7,.4,9.7-.6,10.3-4.5.6-3.5,1.7-7,2.4-10.5.4-2.1.9-4.5.3-6.3-.8-2.1-2.9-3.8-4.4-5.6-1.1,1.3-2.4,2.5-3.1,4-1.8,3.6-4.8,4.5-8.6,2.2-1.8-1.1-4.3-3.1-5.7-2.5-5.2,1.9-9.8-1.3-14.8-1.3-7.4,0-14.8.4-22.1,1.2-2.2.2-4.5,1.3-6.7,1.2-5.5-.2-11-.9-17.1-1.4h0ZM931.9,450.1c2.8-4.8,4.8-8.8,7.3-12.5,1.7-2.5,4.5-4.4,5.9-7,2.2-4.4,4.6-9.1,5.3-14,.8-5.3,1.8-9.6,5.9-13.7,4.4-4.4,4.5-11,3.2-17.3-1.4,1.8-2.5,3.6-3.3,5.6-1.4,3.3-2.5,6.8-3.9,10.1-.6,1.5-2.2,2.8-2.3,4.3-.2,7.6-9.6,11.5-7.9,19.8,0,.2-.8.5-1.2.9-6.2,5.2-6.6,13.4-10.1,19.9-.3.6.5,1.8,1.1,3.9h0ZM974.1,644.5c-4.5-12.1-10-22.6-12-35.1-.8-1.3-2-3.5-3.2-5.6-1.2-2.1-2.5-4.3-3.7-6.4-.5.2-.9.5-1.4.7,0,.5-.3,1.1,0,1.4,3.3,5.1,6.7,10.1,4.8,16.7,0,.2.7.6,1,1,1,1.8,2.3,3.6,2.8,5.5,2.2,7.6,4.9,14.9,11.8,21.7h0ZM910.9,450.4c4.5-13,12.9-24.8,13.1-39.5-6.5,12.4-9.3,26-13.1,39.5ZM927.9,400.9c5-5,17.7-34.4,16.9-39-4.9,13.4-14.1,24.8-16.9,39ZM924.4,467.6c-.2,0-.4,0-.6-.1-.6,3.3-1.7,6.6-1.8,10,0,3.4.9,6.8,1.2,10.2.4,4,1.2,7.7,4.9,10.4-1.3-10.4-2.5-20.4-3.8-30.4h0ZM901.4,104.5c-.9,2.7-1.8,5.1-2.4,7.6-.6,2.5-1,5.2-1,7.8,0,2.5.5,5.1.7,7.6,1-11.1,4.2-21.3,10.8-30.3l-1.2-1c-2.4,2.9-4.8,5.7-7,8.3h0ZM978.6,410.5c4-.4,6.4-.6,8.8-.8.2-.7.4-1.3.7-2l-6.8-4.3c-.7,1.8-1.4,3.6-2.7,7.1ZM945.7,624.9c-1.6-5.1-3-9.6-4.9-15.3-2.6,6.1.2,13.8,4.9,15.3ZM910.7,145.1c.3-.3.6-.6.8-.9-1.2-2.1-2.9-4-3.4-6.3-.9-3.8-2.9-4.5-7.7-3.4,3.8,4,7,7.3,10.2,10.6h0ZM931.3,592.4c-.5.2-.9.4-1.4.7.1,5.9,5.5,9.5,7.4,14.6,0,.2,1.3,0,2.3,0-3-5.4-5.7-10.3-8.4-15.3ZM939.5,455.1c-.4,0-.9,0-1.3,0-1.6,5.9-2.4,11.8.5,17.8.3-5.9.5-11.8.8-17.8ZM946.5,512.9h1.7v-15.8h-1.7v15.8ZM881.3,127.7c-4.5.6-5.2,3.9-2.7,9.1,4.7-2,.6-5.9,2.7-9.1ZM977.3,76.1c.3-.3.7-.6,1-1-1.4-6.2-5.6-9.9-8.1-7.7,2.4,2.9,4.7,5.8,7.1,8.7h0ZM908.8,110.9c-1.2,4.2-2.4,8.4-3.6,12.6.7.2,1.5.4,2.2.6,2-4,1.1-8.8,1.4-13.2h0ZM957.9,632.5c-.6,8.4-.4,8.7,5.3,11.6-1.9-4.2-3.3-7.3-5.3-11.6ZM939.2,582c-1.3.7-2.4,1.2-4.4,2.3,2.8,2.2,4.9,3.9,7,5.6.2-.3.5-.6.7-.9-1-2.1-2-4.2-3.3-7h0ZM901.2,89.9c-.5-.3-1-.6-1.5-.9-2.4,3.7-4.8,7.3-7.2,11,.5.3,1,.6,1.5.9,2.4-3.7,4.9-7.3,7.3-11h0ZM922.6,89.4c5.2-.9,7.8-3.8,8-8-2.9,2.9-5.5,5.4-8,8ZM933.7,428.7l-2.5-1c-1.2,3.2-2.4,6.4-3.5,9.6.5.2,1.1.5,1.6.7,1.5-3.1,2.9-6.2,4.4-9.4h0Z"/>
  <path class="st0" d="M191.4,412.6c1.7-.2,3.4-.5,6-.9,1.2-4.8,2.5-10.2,4-15.6,1.3-4.6,3.3-9.1,4-13.9.5-3.6-.5-7.4-1-11-.4-2.5-1.3-4.9-1.6-7.4-.7-6.4-1.3-12.9-1.8-19.3-.2-3.1-1.2-4.7-4.7-4.9-3.6-.2-5.7-4.4-3.2-6.3,5-3.8,2.2-7.1,1-11-1.5-5-2.1-10.2-3.4-15.3-.3-1.3-1.7-2.3-2.5-3.6-1.4-2.2-2.8-4.5-3.9-6.9-1.6-3.5-2.7-7.3-4.2-10.8-1.5-3.4-3.5-6.5-4.9-10-3.7-9.2-8.8-17.3-15.7-24.5-3.6-3.7-5.7-8.7-9.3-12.3-3.9-3.9-8.6-6.8-13.6-10.6,0-.1.5-1.2,1-2.5-1.3-1.2-2.5-2.7-4-3.6-4.3-2.6-8.6-.9-10.1,4.1-1.1,3.6-1.9,7.3-2.6,10.9-.5,2.7-1.2,3.6-4.3,2.6-5-1.6-10.3-2.5-16.6-4-.8,4.1-2,8.2-2.3,12.3-.3,4.4-2.2,6-7,4.3l.2.2c0-3.9.3-7.8,0-11.6-.1-1.5-1.2-3.5-2.5-4.2-4.4-2.5-5-6-1.4-9.8,1.4-1.5,4.7-3.1,1.2-5.9-9.9,8.6-21.1,14.7-34.4,16.1-1.5.2-3.6,0-4.7-.9-5.3-4.1-11-7.4-14-14.3-3.8-8.9-4.8-17.7-4.7-27.2,0-3.4-1.8-7-3.2-10.3-2.5-5.7-5.9-11-8.1-16.8-1.6-4.3,1.2-7.2,5.5-5.9,4.6,1.4,6.3.4,6.4-4.6.1-8.2.6-16.3,1.4-24.5.2-1.8,2.1-3.4,3.1-5.2,2.8-5,5.2-10.4,10.6-13.4,5-2.7,9.4-6.4,16-5.3,2.5.4,5.4-2.1,8.3-2.7,5.4-1.2,10.6-1.1,15.3,2.5.5.4,1.3.8,1.8.6,6.3-1.8,12.1,1.2,17.5,3.2,6.2,2.3,11.7,6.5,17.4,10,8.8,5.5,13.9,13.9,15.4,23.6.9,5.9-1.1,12.5-2.7,18.5-1.7,6.4-4.1,12.6-6.9,18.6-2.6,5.7-5.7,11.2-9,16.4-1.3,2.1-3.9,3.3-6.2,5.1.2.3.8,1.4,1.5,2.5,5.6-4.4,8.5-6.6,11.8,3.7,3.2-3,5.4-2.3,9.6-.4,5.1,2.3,7.2,7.4,12,9.3,1.4.6,2.7,1.2,4.1,1.7,1.1.4,2.5.4,3.3,1.1,4.3,3.8,8.5,7.8,12.8,11.6,5.6,4.9,8.9,11.6,14.9,16.5,4.8,4,6.8,11.4,9.9,17.3s3.1,6,4.5,9c.6,1.1,1.3,2.3,1.5,3.5.6,5-.1,10.5,1.7,14.9,2.9,7,1.3,14,1.6,20.9.2,5.3,1.3,10.5,2.1,15.8.2,1.6.5,3.2,1,4.8,1,3.1,2.1,6.2,3.1,9.4.3,1,.3,2.2.4,3.2.3,1.9,0,4.5,1,5.6,4.8,4.8,2.2,10.3,2.5,15.7.3,5.4-3.8,9.5-2.4,15,.7,2.9-1.4,6.6-2.1,9.9-.4,1.8-.4,3.6-.8,5.3-.3,1.5-1,2.8-1.6,4.2-.3.8-1,1.5-1.1,2.2-.2,3.2.1,6.6-3.2,8.7-.1,0-.1.3-.2.5-1.6,8.6-3.7,17.2-4.8,25.9-.4,3,2.3,6.3,2.4,9.5.1,3.9-.8,7.8-1.7,11.6-.2,1.1-2.1,1.7-3.3,2.6,0,8-7.7,9.1-12.3,13.7,4.2,5.9-.6,11.5-1.5,17.4-.2,1.2-.4,2.3-.4,3.5s.7,1.7.5,2.3c-1.5,4-3.1,7.8-4.7,11.7-.1.3-.4.6-.4.9-.1,4.1-.2,8.2-.3,12.2,0,.3.4.7.3.9-1.4,4.8-2.9,9.5-4.1,14.3-.5,1.9-.5,3.9-.8,5.8-.7,4.6-1.4,9.2-2.2,13.7-.4,2.2-1,4.3-1.2,6.5-1.1,12-2.2,24-2.9,36-.2,4.4.8,8.8,1.3,13.2.5,4.8-2.8,5.2-6.4,5.2,1.9,3.5,3.5,6.9,5.5,10,2,3.1,4.5,5.8,6.5,8.9,1.7,2.6,3,5.5,4.6,8.2.6,1.1,1.3,2.6,2.3,3,3.4,1.4,5.1,3.9,3.4,7-1.8,3.2-5,2.6-7.7,0l-.7,1.2c1.5,1.2,3.2,2.2,4.5,3.6,1.5,1.7,2.7,3.6,4.1,5.5-2,.8-3.9,1.7-6.4,2.7,0-.1.3.8.9,1.5,1.7,2,3.4,3.8,5.1,5.8-1.2,1-2.6,3.2-3.4,2.9-2.4-.7-4.6-2.3-6.8-3.6-.3-.2-.5-.4-2-.3.7,2.4,1.3,4.9,2.1,7.3.4,1.2,1.3,2.3,1.7,3.5,1.5,5.1,2.5,10.4,4.6,15.2,1.2,2.8,4.5,4.6,6.3,7.3,1.2,1.8,2.3,4.5,1.8,6.3-.3,1.2-3.6,2.4-5.5,2.2-5-.4-9.6-1.1-13.8,2.8-1,1-4.2.4-5.9-.4-1.1-.5-1.2-2.8-1.9-4.2-.8-2-1.7-3.9-2.6-5.8-.6-1.3-1.6-2.6-1.7-4-.5-4-.5-8-4.7-10.3-.1,0-.4-.3-.3-.3,1-5.4-1.8-9.8-3.8-14.5-1.2-2.7-2-5.6-3-8.4-1.7-4.7-3.5-9.4-5.3-14.5-.7-.3-2.8-.6-3.1-1.5-2.6-7.4-9.2-11.8-12.7-18.7-3.3-6.5-9.1-11.7-12.9-18-3.4-5.7-5.7-12-8.4-18.1-.9-2-1.4-4-2.1-6.1-1.9-6.1-6.2-12.8-5.1-18.3,1.5-7.2-2.8-13.2-1.3-20.2.8-3.7,2.6-8.2,1.9-11.4-.9-4.5.7-8.3.6-12.4-.1-9.1,1.1-17.9,3.2-26.7,1.8-7.3,2.3-14.9,3.8-22.3.7-3.2,3-6,3.9-9.1,1.8-6.9,3.1-13.9,4.8-20.8,1.2-5,2.9-9.9,4.1-15,.4-1.8.3-3.7.3-5.6,0-1.3-.5-2.9,0-3.9,4.2-8.9,3.4-19.3,9-27.8.9-1.3-.4-3.9,0-5.6.5-1.8,1.9-3.4,2.9-5.1-3-2.8-2.3-5.5.6-8.3,4.6-4.4,4.3-6.9-.7-10.4-3.5-2.5-3.5-5.2,0-7.8,2.6-2,5-4.2,6.8-5.7-4.6-4.3-9-7.4-12-11.5-7.2-9.6-13.9-19.5-20.5-29.5-1.6-2.5-1.8-5.8-3-8.6-1.6-3.6-3.9-7-5.1-10.7-1.1-3.7-1-7.7-1.5-11.5-.5,0-1.1,0-1.6.1,0,5.5.1,11,0,16.6-.3,9.1-.9,18.3-1.1,27.4,0,5.6,1.2,11.3.4,16.7-1,6.9,2.2,13.7,0,20.7-1,3.1.9,7.1.9,10.7,0,4.2-.7,8.4-.7,12.6,0,6.8.4,13.5.6,20.3.1,3.2.7,6.5.3,9.7-.4,3.5-2.5,5.8-6.6,4.4,0,1.2.4,2.6,0,3.5-1,1.8-2.5,3.3-3.8,5-1.4-1.9-4-3.9-3.9-5.8.1-3.5,2.8-7.1,2.5-10.5-.6-5.7-.3-11.5-.2-17.1.2-10.9,1.8-21.7,2.5-32.6.6-9.7,1-19.4,1-29.1,0-5.3-1.6-10.7-1.3-15.9.4-7.2-.3-15,1.1-21.5,1.5-7-2.7-12.5-1-19.2,1.7-6.5,1.1-7.6,7.9-8.2.2,0,.3,0,.5,0,2.3-1.2,4.8-4.5,7.2-1.1,1.5,2,1.5,5.2,2.1,7.9,1.1,5,2.4,10.1,3,15.2.4,3.3-1.1,6.5,1.2,9.8,2.6,3.8,4,8.5,6.5,12.4,3.6,5.8,7.5,11.3,11.5,16.8,1.7,2.4,3.9,4.4,5.8,6.6,1.5,1.6,2.9,3.3,3.7,5.5,1.3.9,2.7,1.7,3.8,2.7,3.1,2.6,5.9,5.7,9.2,7.9,3.9,2.6,4.8,4.7,2.4,8.6-.5.8-1.1,1.5-1.7,2.2,6.2,4.4,12.3.3,18.4-.8.2.7.4,1.3.6,2-1.5.7-2.9,1.9-4.4,2-4.1.5-8.4,1-12.5.8-6-.4-6.2,5.4-10.6,8.4,2.8.9,4.6,1.9,6.5,2,4.6.3,9.2,2.6,13.8,0,.3-.2,1.2,0,1.4.1,2.4,5.2,7.9,1.6,11.4,3.9.7.5,3.1-.4,3.8-1.3.6-.8,0-2.6-.2-3.9-.1-.8-1-1.6-.9-2.2,2.5-10.5-.5-20.7-2.4-30.8-.8-4.1-3.5-7.8-5.3-11.7-.5-1-1.6-2.1-1.4-3,1.9-7.1-3.6-11.1-6.7-16.1-4-6.4-7.8-12.9-11.6-19.3-.2-.4-.5-.9-.9-1.1-6.6-3.4-8.8-10.8-14.1-15.2-3.7-3.1-7.6-6-11.2-9.2-1.3-1.2-2.4-3-2.7-4.7-.2-.8,1.8-2.8,2.7-2.7,1.6,0,3.1,1.2,4.6,2.1,1.1.7,2.1,1.6,3.2,2.5,1.1.9,2.8,1.8,3.1,3,1.1,5.3,5.6,7.2,9.2,10.2,3.1,2.6,5.2,6.4,7.8,9.6.7.9,1.1,2.1,1.8,2.9,7.5,7.5,14.5,15.4,16.8,26.3.1.6,0,1.5.3,1.9,2.6,3.4,5.6,6.6,8,10.2,1.6,2.4,2.8,5.2,3.5,8,.9,3.3,1.2,6.7,1.4,10.1.5,8.1,1.2,16.1,1.1,24.2,0,5.3-2.5,10.6,1.2,15.7.6.8-.7,3-1.1,4.5,4.1,2,8.4,3.9,12.5,6.3,1.4.8,2.2,2.6,3.3,4-1.5-.5-3.1-.8-4.6-1.4-3.3-1.4-6.3-3.4-9.7-4.5-4.7-1.5-6.7.9-5.5,5.7.3,1.2.4,2.6,0,3.8-.9,3.2-2.2,6.2-3.1,9.4-.2.7,0,1.8.4,2.3,5.1,5.7,10.2,11.3,16.3,18,2.8-5.7,5.4-10.2,7.1-15,1.6-4.5,2.2-9.3,3.3-14.1-1-1-2.8-2.8-4.5-4.5h0ZM138.9,645.4c-.6,5.3,1.2,7.5,8.1,8.6-1.7-2-2.8-3.5-4.1-4.8-1.3-1.3-2.8-2.5-4.2-3.7-2.1-3.1-4.3-6.2-6.7-9.8-.8,6.6.8,8.6,6.8,9.7h0ZM129.6,494.8c-.6.8-1.4,1.4-1.6,2.3-1.6,4.5-3,9.1-4.5,13.7-1.6,5-3.4,10-4.8,15.2-1,3.7-1.3,7.7-2.2,11.5-1.3,5.4-3.1,10.6-4.1,16-1.1,5.5-1.6,11-2.2,16.6-.3,2.8-.4,5.7-.5,8.5.6,0,1.1,0,1.7.2.8-4.7,1.7-9.4,2.3-14.2.3-2.1-.3-4.5.4-6.4,2.3-6.7,5.6-13,4.5-20.5,0-.7.4-1.6,1-2.1,3.1-2.7,3.5-6,3.1-9.9-.2-1.9.4-3.9.8-5.8,1.4-5.5,2.9-11,4.2-16.5.7-2.9,3.9-5.2,1.8-8.6,1.4-2.2,3.2-4.3,4.2-6.7,1.4-3.5,2.3-7.2,3.4-10.9-.4-.1-.9-.3-1.3-.4-4.2,5.3-6.8,11.1-6.1,18.1h0ZM109.5,209.8c.4-.8.9-1.5,1.3-2.2-2.4-1.7-5.4-2.9-7.2-5.2-2.3-2.8-3.6-3-6.2-.5-1,1-3.9,1.4-4.9.7-1.5-1-2.8-3.4-2.7-5.1.1-1.3,2.3-2.9,4-3.6,2.5-1.1,5.4-1.3,8-2.1,5.7-1.8,9.5-8,8.2-13.4-1.6-7.2-8.9-10.7-16.1-7.9-1.3.5-3.3.8-4.3.1-6.6-4.6-14.4-3.2-21.6-4.8-2.9-.7-5.3-3.7-4.3-6.5,1-2.8,2.5-5.4,3.1-8.2.7-3.3,1.1-6.8.7-10.2,0-.6-4.4-.7-6.8-1.1-.3,0-.7-.1-1-.1-4.4.4-9-.7-12.9,2.8-1.3,1.1-3.9.6-6.3.9-3.4,6.5-2.1,14.3-1.6,22,.3,3.7-1.7,5.7-5.4,5.5-1.7-.1-3.4-.2-6.4-.4,1.8,3.3,2.6,6.2,4.4,7.6,4.4,3.4,5.4,6.7,5.1,12.6-.5,9.1,1.3,18.5,3.2,27.5,1.6,7.4,11.6,13.7,18.5,12.7,8.5-1.2,15.6-5.6,21.4-11.8,2.4-2.5,4.2-5.5,6.7-7.9.9-.9,3-1.1,4.4-.8.9.2,1.7,1.6,2.3,2.6,1.2,2.3,2.2,4.7,3.2,6.7,5-3.7,9-6.8,13.1-9.8h0ZM117.2,213.1c-6.8,4.9-13.4,9.6-19.8,14.2,5,7.6,12.2,7.8,19.3,9.3,3-7.4,7.1-14.6.5-23.4h0ZM161.2,238.7c-.4.3-.9.7-1.3,1,16.2,17.1,23.9,39.1,35,59.2,1.3-5.7,1.1-11-2.8-15.6-.7-.8-1.5-2.2-1.3-3,1-4.4-1.8-7.1-4-10.1-1.3-1.8-2.5-3.6-3.6-5.5-2.7-4.6-4.7-9.8-8.2-13.8-4-4.6-9.2-8.2-13.8-12.2h0ZM166.1,526.9c.8.1,1.5.2,2.3.3,0-1.5,0-3.1,0-4.6s-.3-3.8.5-4.4c4.9-3.5,1.7-9,3.5-13.2.8-1.9.9-4.1,1.4-6.1.4,0,.8.1,1.1.2l-1.3-11.9c-.5,0-.9,0-1.4,0-2.1,13.2-4.1,26.5-6.2,39.7ZM147.4,674.5c-.2,0-.5.2-.8.2,1.8,6,3.1,12.1,5.4,17.9,2.3,6,5.4,11.7,8.2,17.6.2.4.4.9.5,1.4,1.4,5.2,1.7,5.4,6.8,3.6-.9-.5-2.4-.8-2.8-1.7-5.9-13-11.6-26-17.3-39h0ZM134.7,519.8c-.7-.1-1.3-.3-2-.4-2.4,12-4.9,24-7.3,36,.7.2,1.5.3,2.2.5,2.4-12,4.7-24,7.1-36h0ZM102.9,534.2c4.8-5.1,9.5-27.3,6.6-32.1-2.2,10.8-4.3,21-6.6,32.1ZM140.2,607.2c-2.4,8.1,1.4,20.8,8.2,25.1-2.9-8.8-5.6-17-8.2-25.1ZM116.7,464.8c-.7-.2-1.4-.4-2.2-.6-3.2,8-7.6,15.5-7.6,24.4.7.2,1.3.4,2,.6l7.8-24.4h0ZM111.4,500.8c.3,0,.7,0,1,0,3.9-11.1,7.8-22.2,11.7-33.4-.5-.2-.9-.4-1.4-.6-3.9,9.9-7.8,19.9-11.7,29.8l-1.1-.3c.5,1.5.9,3,1.4,4.5h0ZM180.7,473.4c4.7-4.8,9.7-8.3,8.7-15.6-2.7-.3-5.1-.4-4.9,3.2.2,3.5.8,7.1-3.8,8.5-.3,0,0,1.8,0,3.9h0ZM117.5,585.5c-.6-.1-1.2-.3-1.8-.4-.5,5.4-1,10.8-1.5,16.4,4.1,1.3,6.1-3.3,5.3-4.1-3.5-3.8-.9-8.1-2.1-12h0ZM137.2,630.1c.5-.3,1-.7,1.6-1-2.4-2.7-5.3-5.1-7.1-8.2-2.1-3.6-3.1-7.7-4.6-11.6-1.2,9.3,4.1,15.3,10.1,20.8ZM133.2,460.6c2.6-7.3,5-13.9,7.4-20.6-.4-.1-.9-.3-1.3-.5-3.7,6.2-8.1,12.2-6.1,21h0ZM157.4,433.2c-1.1,6.8-2,12.6-3,18.8.7.2,1.9.5,1.9.5.9-4.1.8-8.3,2.8-11.2,2.2-3.2,1.3-4.9-1.6-8h0ZM139.1,404.8c.3,0,.7,0,1,0,1.7-1.4,3.3-2.9,5.1-4.1,3.6-2.5,3.6-4-.4-7.3-1.9,3.9-3.9,7.7-5.7,11.5ZM142.2,564.2c-.7.1-1.3.2-2,.3.6,6.3,1.2,12.5,1.8,18.8.7,0,1.4-.2,2.2-.2l-2-18.9h0ZM134.1,394.4c-2.7,1.5-6.7,1.4-6,6.3.4,2.6-1.9,5.6-2.9,8.4.5.2,1,.4,1.6.6,2.5-5.1,4.9-10.2,7.4-15.3h0ZM151.2,592.9c.7-4.5,1.4-9.1,2-13.4-6.2,3.7-6.8,7.2-2,13.4ZM142.4,499.5c-.7-.2-1.4-.5-2.1-.7,0,5.2-5.8,8.5-4.8,14,.8.2,1.5.5,2.3.8,1.5-4.7,3.1-9.4,4.6-14.1h0ZM137.4,427.7c-6.9,4.3-9.6,9.9-8.2,14.2,2.6-4.6,5.4-9.4,8.2-14.2ZM100.8,545.3c5.3-2.5,6.1-5.7,1.9-10.7-.7,4.2-1.3,7.5-1.9,10.7ZM128.1,477.6c-3.6,4.8-4.4,8.5-2.5,11.3.8-3.8,1.7-7.5,2.5-11.3ZM149.3,548c.6,0,1.2,0,1.9.2.9-5.9,1.7-11.8,2.6-17.7-.4,0-.8-.1-1.2-.2-1.1,5.9-2.2,11.8-3.3,17.8h0ZM108.6,616.2c2.8,4.4,5.2,8.2,7.6,12,.4-.3.8-.6,1.2-.9-3.1-3.3-2.1-9.8-8.8-11.1h0ZM166.8,478.7c-.5-.1-1.1-.2-1.6-.3l-4.1,13.9c.5.1,1.1.3,1.6.4,1.4-4.6,2.7-9.3,4.1-14h0ZM141.4,494.7c.6.1,1.1.2,1.7.3,1.2-3.8,2.5-7.6,3.8-11.4-.6-.2-1.2-.4-1.8-.5-1.2,3.9-2.5,7.7-3.7,11.6ZM168.4,400c-5,4.6-5,5.2-1,11.8,0-2.9-.1-4.6,0-6.2.2-1.8.6-3.7,1-5.6h0Z"/>
  <path class="st0" d="M1004,737c2.6-3.1,5-6.9,8.4-9.5,5.9-4.6,10.8-10,15.9-15.3,3.6-3.7,7.2-7.5,10.7-11.2,1.3-1.4,2.5-2.8,3.8-4.2,3-3.1,5.7-6.7,9.2-9.2,2.9-2.1,6.7-3,10.2-4.3.4-.1.9.4,1.4.4,7.3-.1,8.2,1.4,5.8,8.6-3.1,9.2-8.7,16.6-15.5,23.4-2.1,2.1-2.5,6-4.7,8.1-3.9,3.7-9,6.2-12.8,9.9-5.1,5-10.3,8.8-17.8,9.8-2.3.3-4.1,2.6-7.8,2.1-5.4-.7-4.9-4.5-6.8-8.5h0Z"/>
  <path class="st0" d="M389.9,743.2c-7.5-.4-9.2-3.3-5.8-9.6,5.4-9.8,9.7-20.2,18.5-27.8,2.6-2.2,3.4-6.3,5.8-8.9,5.7-6,11.7-11.8,18-17.2,1.6-1.3,5.1-1.2,7.4-.5,1,.3,1.7,3.5,1.7,5.4-.2,6.2-1,12.3-5.3,17.4-1.5,1.7-1.5,4.5-2.8,6.5-4.6,6.9-9,14-14.4,20.4-3.2,3.7-8.8,5.4-11.8,9.2-3.7,4.7-8.4,3.9-11.4,5.1h0Z"/>
  <path class="st0" d="M579.4,739.7c-1.4-.7-4.2-1.5-6.2-3.3-3.4-3.2-6.6-6.7-9.3-10.5-3-4.3-6-8.9-7.9-13.8-2.6-6.5-4.2-13.5-6.2-20.2-1.3-4.3.4-8,3.2-10.8,3.3-3.4,6.9-.6,9.2,1.5,8.3,7.4,15.4,16,20.9,25.7,4.1,7.3,7.5,15.1,10.6,23,.6,1.5-.8,5.3-2.2,5.9-3.3,1.5-7.2,1.7-12.2,2.7h0Z"/>
  <path class="st0" d="M867.2,719.5c-2-4.6-8.7-6.2-6.3-12.8,0-.2-.6-.6-.8-.9-1-2.2-3.4-5.8-2.7-6.5,2.5-2.8,3-8,7.9-8,1.5,0,3.4,1.3,4.3,2.6,2.1,2.7,3.7,5.8,5.5,8.7.2.3.4.5.6.8,2.1,2.6,4.2,5.2,6.1,7.6,2.2-1.5,3.6-3.2,4.8-3,3.8.5,7.5,1.7,11.3,2.6,2.1.5,4.2.9,6.2,1.3.8.2,2,0,2.3.4,2.9,4,7.1,4.9,11.5,5.9,1.3.3,2.4,3.7,2.6,5.8,0,1.4-1.8,4.1-2.7,4.1-5.5-.1-9.9,4.7-15.7,3-1.8-.5-4.2,1.6-6.2,1.6-5.1,0-10.3-.4-15.4-1.1-2.5-.3-4.8-1.7-7.2-2.5-.6-.2-1.5-.6-1.8-.4-2.8,1.8-5.8,1.3-6.5-1.6-.5-2.2,1.3-4.9,2.1-7.4,0-.3.2-.6,0-.3h0Z"/>
  <path class="st0" d="M153.5,752.9c-5.2.6-10.5,1.6-15.8,1.8-4.6.2-9.6,3-13.8-1.6-.3-.3-1.6.6-2.2.4-1.8-.8-4.4-1.5-4.8-2.8-.4-1.6.6-4.6,2-5.4,4-2.5,8.4-4.7,12.9-6.1,5.1-1.7,10.6-2.4,15.9-3.5,1.3-.3,2.7-.2,3.8-.8,6.3-3.4,12.8-5,19.9-3,1,.3,2.7.2,3.3-.4,3.7-3.8,7.5-1.1,11-.2,3.8.9,5.3,7,2.4,9.3-2.7,2.2-5.9,4-9.2,5.2-7.1,2.5-14.4,4.5-21.6,6.6-1.2.4-2.6.4-3.9.5h0c0,.1,0,.1,0,.1Z"/>
  <path class="st0" d="M221.1,705c-.9,1-1.6,2.7-2.7,2.9-1.4.3-3.6,0-4.4-.9-7.3-8.7-18.2-14.5-20.9-27.3-1-5.1-5.7-9.4-8.9-14-2.4-3.4-2-7,1.1-9.1,3.2-2.2,8.1-1.7,9.8,1.5,3.1,5.6,5.7,11.4,8.7,17,.8,1.6,2.1,3,3.2,4.5,1.8,2.5,5.8,3.8,4.1,8.1-.2.4.8,1.4,1.4,1.9.5.4,1.7.5,1.7.8.2,5.6,5.6,8.9,6.9,14.6h0Z"/>
  <path class="st0" d="M556.5,45.5c.4-1.5.4-2.9,1-3.3,4.1-2.6,8.4-5,12.5-7.6,1.1-.7,1.7-2.3,2.8-2.9,2.1-1.2,4.4-2.2,6.7-2.8.3,0,2.2,3.3,1.8,3.8-1.3,1.7-3.3,2.7-5.1,4.1-2.7,2.2-5.5,4.3-8.1,6.5-1.8,1.5-3.5,3.3-5.5,4.7-1.1.8-3.1,1.7-3.9,1.2-1.2-.7-1.7-2.6-2.3-3.7h0Z"/>
  <path class="st0" d="M451.1,168.1c-2.2,1.4-3.7,2.9-5.6,3.4-6.2,1.7-12.3,3.4-16.7,8.6-.7.8-2.9,1.3-3.7.8-1.4-.9-2.6-2.6-3-4.1-.2-.8,1.7-3,2.7-3,6.9-.2,10.3-6,15.6-8.8,2.1-1.1,4.8-1.4,7.1-1.2,1.1.1,2,2.3,3.6,4.2h0Z"/>
  <path class="st0" d="M549.8,35.8c-4.1-6.2-3.6-7.9.4-11.6,1.9-1.8,2.2-5.1,3.7-7.4,1.1-1.8,2.6-3.5,4.4-4.4.9-.4,3.9,1.1,3.9,1.9.2,1.9-.3,4.5-1.5,5.8-3,3-5,6.2-6.2,10.4-.5,2-2.9,3.4-4.7,5.4h0Z"/>
  <path class="st0" d="M90.6,252.6c-.4,3.9-.4,7.9-1.4,11.6-.5,1.7-2.9,2.9-4.5,4.4-1.5-1.7-4.3-3.4-4.3-5,0-3.4.9-7.1,2.6-10.2,1.8-3.3,5.1-1.2,7.8-.6l-.2-.2h0Z"/>
  <path class="st0" d="M446,181.5c4,5.8,3.6,8.4,0,11.2-1.3,1.1-2,3.1-3.5,3.8-2.1,1.1-4.7,1.3-7,1.9.1-1.9-.5-4.4.5-5.7,2.8-3.8,6.3-7.2,9.9-11.2h0Z"/>
  <path class="st0" d="M131.5,233.5c-1,1.8-1.7,3.9-3.1,5.3-4.6,5-6.7,11-8.2,17.5-1.1,4.6.3,6.9,4.2,8.5.8.3,1.3,1.5,1.9,2.3-1.1.4-2.6,1.4-3.2,1-1.9-1.3-4.7-3-4.9-4.8-1.1-11.2,2.2-21.2,10.2-29.5.5-.5,1.4-.7,2.2-1l.8.6Z"/>
  <path class="st0" d="M163,362.7c-.6.8-1,2.1-1.8,2.5-4,2-8.1,3.9-12.3,5.5-.8.3-2.2-.5-3.3-.8.4-.8.6-2.1,1.2-2.3,5-2.1,10.1-4,15.1-5.9.3.4.6.7.9,1.1h0Z"/>
  <path class="st0" d="M574.6,279.8c8.6,1.3,13.5-1.1,16.7-9.8,3.3-8.7,5.6-17.7,8.3-26.6-.6-.6-1.1-1.2-1.7-1.8-8.3,1.9-16.7,3.9-25,5.8-1.6.4-3.4,0-5.1,0-.1-.8-.2-1.6-.3-2.4,5.4-1.3,10.8-2.7,16.2-3.9,5.3-1.1,10.6-2,15.9-2.9,1-.2,2.2-.2,3.2.2.3.1.3,1.7,0,2.5-1.5,6.4-3.1,12.9-4.8,19.3-1.9,7.3-4,14.8-9.7,19.9-4.7,4.3-7.2,4.9-13.7-.6h0c0,.1,0,.1,0,.1Z"/>
  <path class="st0" d="M534,343.3c-6.6,2.9-13.2,5.8-19.9,8.5-.7.3-1.9-.6-2.8-1,.5-.9.7-2.5,1.4-2.7,6.3-2.1,12.6-4,18.9-5.8.7-.2,1.6.7,2.4,1.1,0,0,0-.1,0-.1h0Z"/>
  <path class="st0" d="M574.7,279.7c-3.8,2.6-3.4-2-4.5-3.1-2.3-2.5-3.7-5.9-5.5-8.9.6-.4,1.2-.7,1.8-1.1,1.7,2.6,3.5,5.2,5.1,7.9,1.1,1.7,2,3.5,3,5.3h0q0-.1,0-.1Z"/>
  <path class="st0" d="M495.3,371.6c3-5.3,6.3-5.2,10-2-2.7,2.5-5.6,4.2-10,2Z"/>
  <path class="st0" d="M564.1,260.8c-.9-3.5-1.8-6.4-2.3-9.3-.1-.8,1.3-1.8,2-2.7.7.9,2.2,2,2.1,2.8-.3,2.9-1.1,5.7-1.8,9.2h0Z"/>
  <path class="st0" d="M518.7,364.8l-10.3,5c-.3-.8-.5-1.6-.8-2.4,3.7-.8,7.5-1.6,11.2-2.4h0Z"/>
  <path class="st0" d="M280.5,302.8c2.2-1.6,4.4-3.2,6.4-4.7-1.8-2.9-3.6-5.6-5.4-8.4,4.9,4.1,9.8,8.2,14.8,12.3-.3.7-.6,1.5-1,2.2-4.9-4.9-9.9-1.7-14.9-1.5h0Z"/>
  <path class="st0" d="M906.8,213.8c-2.4,4.5-4.8,9-7.1,13.5-.7,1.4-1,2.9-1.5,4.3-.7,0-1.3-.1-1.9-.1,0-1.8-.7-4,.1-5.3,2.8-4.6,4.1-10.7,10.5-12.2h-.1c0-.1,0-.1,0-.1Z"/>
  <path class="st0" d="M963.8,111.8c-2.2.1-3.8.2-5.5.3-.4-.6-.8-1.2-1.2-1.9.9-.3,1.8-.9,2.8-1,6.1-.8,5-4.9,4.5-9.1-.2-2.2.5-4.6,1.1-6.9,0-.2,2.5-.2,3.5.4,2.6,1.5,2.6,3.5,2.1,6.6-.6,4.1.2,8.4,1.1,12.5.6,2.8,1,4.9-2.3,5.8-2.9.8-4.3-.6-4.8-3.3-.2-1.1-.8-2.2-1.2-3.5h0Z"/>
  <path class="st0" d="M1012.8,349.5c2.9-.9,5.7-2.4,8.6-2.5,5.9-.2,11.9.3,17.8.8.9,0,2.3,1.5,2.4,2.4.4,4.3-4.1,10.1-8.2,10.2-6.2,0-12.5-.6-18.8-1.1-4.8-.4-9.6-.8-14.4-1.3-1.1-.1-2.8-.3-3.2-1-1.2-2.5,4-8.6,6.9-8.3,3.1.3,6.2.6,8.9.9h0Z"/>
  <path class="st0" d="M52.5,168c.2,1.1.3,1.6.4,2.1.6,3.6-1.8,5.2-4.5,5.1-1.3,0-3.5-2.6-3.6-4.2-.4-4-.3-8.2.6-12.1.3-1.6,3-2.7,4.7-4.1,1.2,1.7,3.1,3.3,3.3,5,.3,2.9-.5,5.9-.8,8.2h0Z"/>
</svg>