<?xml version="1.0" encoding="UTF-8"?>
<svg id="Layer_3" xmlns="http://www.w3.org/2000/svg" version="1.1" viewBox="0 0 1092 768">
  <!-- Generator: Adobe Illustrator 29.1.0, SVG Export Plug-In . SVG Version: 2.1.0 Build 142)  -->
  <defs>
    <style>
      .st0 {
        fill: #fcfbe8;
      }
    </style>
  </defs>
  <path class="st0" d="M281.2,355.5c-8.8,2.8-17.6,5.3-26.3,8.3-3.9,1.4-7.4,3.9-11.3,5.2-1.9.6-5.1.3-6.4-.9-1.6-1.4-2.4-4.4-2.4-6.6,0-2,1.8-3.9,2.6-5.9,2.1-5.1,7.3-8.4,7.7-14.8.2-2.4,3.7-4.5,6.6-7.9-6.7,1.2-12.4,1.8-17.7,3.4-4.2,1.3-8.1,2.2-9.8-2.4-1.7-4.7,1.8-7.9,5.6-10.1,10.5-6,21-11.8,31.5-17.7.6-.4,1.2-.8,2.3-1.5-2.3-4.5-5.1-8.8-6.7-13.5-1-3-1.4-7.7.2-9.5,1.7-1.9,6.8-2.4,9.4-1.2,6.1,2.8,12.8,4.4,17.3,10.6,3.8,5.2,9.3,9.8,15.1,12.7,3.7,1.9,9.4.8,14,0,5.2-1,10.3-3.1,15.3-5,1.8-.7,3.5-2,4.7-3.5,2.6-3.4,5.7-4.8,8.1-3.9,4-2.5,7.1-4.2,10-6.1,7.7-4.9,15.7-9.3,22.9-14.8,6.3-4.8,11.7-10.8,17.5-16.2.3-.2.5-.6.9-.6,4-1.2,7.5-1.4,9.5-6.9,1.5-4.3,7.5-6.9,11.5-10.4,2.9-2.5,5.8-5,8.3-7.8,4.9-5.5,9.4-11.2,14.2-16.8,2.2-2.6,5.2-4.7,7.1-7.5,3.5-5.1,6.9-10.4,9.5-16,2.6-5.6,4.4-11.6,6.4-17.5.3-.8.5-1.8.2-2.4-4.4-8.4-9-16.6-13.3-25-3.4-6.7-10.3-5.5-15.7-7.6-1.5-.6-3.1-.8-4.5-1.5-3.1-1.4-5.1-4.9-9.7-3.8-1.7.4-4.1-2.8-6.5-3.9-8.9-4.3-18-8.2-26.9-12.5-3.8-1.9-4-11.2-.5-13.7,8.4-5.8,16.3-12.6,25.4-16.8,6.1-2.8,8.4-6.3,9.9-12.1,2.9-10.9,9.8-19.1,18.3-26.1,3.2-2.6,5.9-5.9,9.4-8.1,4.6-3,9.4-6.1,14.6-7.4,6.5-1.6,13.4-2,20.1-1.8,7.4.2,15,.7,22,2.8,9.2,2.7,18.6,6,26.5,11.1,6.7,4.3,11.1,11.6,15.9,18.4,5.2,7.4,4.4,16.4,9.5,23.2,10.2-.8,16.8,3.3,18.4,14.7.5,3.2,1.9,6.3,3.6,9,1,1.5,3.4,2.1,5.3,2.8,5.6,1.9,11.2,3.7,16.9,5.5,2.2.7,4.4,1.2,6.5,2.1,5.1,2.1,10.9,3.4,15,6.8,5.8,4.9,14.2,5.2,18.8,9.7,6.9,6.9,16.9,8.3,23.1,15.7,4.5,5.4,9.7,10.1,14.3,15.4,4.3,5,7.6,11.2,12.6,15.4,3.3,2.8,8.6,3.5,13.2,4.4,3.9.8,7.9.5,11.9.9,1.2.1,2.2.9,3.4,1.2,1.6.5,3.2,1.4,4.7,1.2,10.5-.9,21-1,31.6.3,9,1.1,18.1.9,27.2,1.5,11.4.8,22.7-.7,34.2,1.9,7.5,1.7,15.8-.3,23.8-.6,1.8,0,3.7-.1,5.5,0,8.2.9,17.2,4.6,24.3,2.3,7.5-2.4,14.1.2,20.9-.3,5.7-.4,12.9-1.9,19.1,1.4,1.9,1,5.1-.2,7.7-.6,4.7-.6,9.4-1.8,14.1-1.7,9.2,0,18.5,1.1,27.7,1.2,3,0,6.5,2.3,9.2-1.3.5-.7,2.5-1.2,3-.8,5.5,4,10.5-.9,15.7-.8,2.1,0,4.6.4,6.3,1.6,1,.7,1.7,4.2,1,4.8-1.6,1.4-4,2.4-6.2,2.5-5.7.4-11.5.8-17.1,0-12.9-1.7-25.7,2-38.6.8-7.4-.7-15-1.9-22.2-.8-8.2,1.2-16.1-1.1-23.8-.4-11.9,1.1-23.3-1-35-1.5-3.4-.1-6.9.9-10.4.9-5.5,0-11.1-2-16.5.8-.2,0-.4.2-.5.1-7.2-4.9-15.1-1.3-22.6-1.8-14.3-.8-28.7-.8-43-1.6-11.9-.7-23.7-2.3-35.6-3.2-5.7-.4-11.5,0-17.2-.2-3.8-.1-7.7-.5-10.6-.8,2.5,6.3,5.2,12.8,7.6,19.3,2.7,7.6,5.1,15.3,7.5,23,.9,3,1.7,6,2,9.1.5,4,2.8,5.1,6.5,5.1,20.5-.6,40.9-1.1,61.3-1.5,1.2,0,2.4.6,3.7.9,0,.6-.1,1.3-.2,1.9-11.3,0-22.7-.2-34,0-11.4.3-22.8,1.1-34.7,1.8,1.1,5.8,2.5,11.4,3.2,17.2.9,7.7,5.2,14.5,4.9,22.6-.3,7.2,6.5,6.4,11,7,7.8.9,15.7.9,23.5,1.5,14.4,1.1,28.8,2.5,43.3,3.4,8.9.6,17.9.2,26.8.6,5.7.3,11.3,1.3,17,3.2-2.1.4-4.3,1.2-6.4,1-12.1-1.1-24.1-2.6-36.2-3.6-7-.5-14,0-21-.5-9.4-.5-18.8-1.6-28.2-2.3-8-.6-16.1-1.2-24.2-1.6-4.3-.2-6.4,3.2-5,7.4,1,2.9,1.6,6,2.1,9,1.1,7.4,2.4,14.7,3,22.2.3,3.9-.9,7.8-1,11.7-.2,5.1,0,10.2,0,15.1,4.1.5,7,.9,9.9,1.3v2c-1.8.3-3.6.9-5.4.8-3.9-.1-5,1.5-4.9,5.4.2,5.8-.3,11.6-.5,17.4,0,1.8-.2,3.6.3,5.3,1.6,5.5,0,7.7-5.6,6.9-2.6-.3-5.1-1.6-8-2.5-2.6,3.6-5.8,3.5-10.1,1.5-4.7-2.1-10.1-2.5-15.1-3.8-3.1-.8-6.1-1.9-9.1-2.9-.3,5.4-.8,9.7-.7,14,0,1.2,1.9,2.5,3,3.6,1,1,2,1.9,3,2.9h0c0-.1-5.5-.1-5.5-.1-1.5,6-2.8,12.3-4.8,18.4-1.5,4.5-3.8,8.9-6,13.1-1.9,3.5-3.7,7.3-6.5,10-4.1,3.9-8.7,7.4-13.6,10.2-2.9,1.7-6.8,1.8-11.6,2.9,1.8,2.9,3.2,5.4,4.8,7.8,2.4,3.7,4.6,7.6,7.6,10.8,2.3,2.4,5.5,4.4,8.7,5.4,8.8,2.7,17.9,4.7,26.8,7,7.7,2,15.3,4.4,23.1,6,6.1,1.3,12.5,1.4,18.7,2.5,4.1.7,8,2.4,12,3.4,2.9.8,6,1.4,9,1.6,5.2.2,10.4.4,15.5,0,2.8-.3,5.4-2.3,8.2-3,7.1-1.8,14.3-3.3,21.5-5.1,1.7-.4,3-2,4.7-2.5,4.5-1.5,9-2.8,13.5-4.2.6-.2,1.3,0,1.8-.2,5.4-2.3,10.7-4.7,16.2-6.8,1.2-.5,3.2,1.3,4.5.9,5.1-1.4,10.2-3.3,15.2-5,2.2-.7,4.5-1.5,6.8-2.1,4.3-1,9.6-.7,12.8-3.1,8.3-6.4,18.7-1.7,27.1-6.5,2.3-1.3,5.4-1.4,8.1-2,9.1-2.3,18.5-3.8,27.2-7,8.3-3.1,17.6-1.6,25.5-7.3,3-2.1,7.7-3.6,11.8-5.2,3.6-1.4,7.2.7,7.4,4.7.1,3.1-.7,6.2-.8,9.3-.4,9.1-.6,18.1-1,27.2-.3,7.1-1.3,14.3-1.2,21.4,0,5.5,1.3,10.9,1.9,16.3.2,1.4-.1,2.9-.1,4.3.1,6.2,0,12.4.5,18.5.3,5.1,1,10.2,2,15.3.6,3.5,2.5,6.8,2.8,10.3.8,8.7,4.5,16.1,8.6,23.6.9,1.6.1,4.1.1,5.2,2.6,5.3,5.1,10,7.2,14.7,1.4,3.1,2.6,6.4,3.3,9.8.4,1.7,0,4.2-1.2,5.4-.8.9-3.2.7-4.9.6-3.1,0-6.2-.3-8.2-.4-2.4,2.1-4.6,5.2-6,4.9-2.6-.6-6.2-2.8-6.8-5.1-2-7.5-3.2-15.2-4-22.8-.6-5.3-.7-10.4-3.5-15.2-1.1-1.9,0-4.9-.5-7.3-3.2-14.5-3-29.2-4.4-43.8-.6-6.1-1.4-11.9.8-17.7.2-.4,0-1.1-.3-1.6-2.9-5.8-1.5-11.5-.3-17.5,1-5.2-.3-10.9.3-16.2.7-6.3-1.1-12.9,2-19,.3-.7.3-1.8,0-2.5-1.3-3.5-2.8-7-4.2-10.6-5.2,1.1-11.1,1.2-15.9,3.6-5.7,2.9-11.4,5.1-17.7,6.2-11.5,1.9-23.1,3.9-34.4,6.7-10,2.5-19.6,6.4-29.5,9.2-7.3,2.1-15,3-22.4,5.1-9,2.6-17.8,6-26.7,9-1.3.5-2.8.5-4.2.7-7.4.8-14.9,2.4-21,6.3-5.6,3.6-11.4,3-17.2,3.9-4.3.6-6.3,4.1-6.2,8.3.2,7.5-.4,15.1-.5,22.7,0,4.4-1.2,9.2.2,13,2.4,6.8-.2,13.2.5,19.7.5,4.3,1.6,8.7,1.6,13,0,11.1,3,21.6,4.9,32.3.3,1.6-.3,3.3,0,4.8,1.6,10,2.7,20,6.6,29.5,1.8,4.3,2,9.3,3.7,13.6,2.3,5.8,5.3,11.4,8.1,17,1,2.1,2.7,3.8,3.7,5.9,1.9,3.9-.3,6.6-4.3,7.2-.2,3,.7,6.7-.7,8.1-4.7,4.9-9.3-.4-13.8,0-2.6.3-5.7,1.6-7.6.6-1.8-.9-3.5-4.5-3.2-6.5,1-6.1-4-10.4-4-15.9,0-7.8-4.7-14.4-4.2-22.6.4-8.6-2.6-17.4-3.6-26.2-.5-4,0-8.1,0-12.2,0-.9.6-2.1.2-2.5-5.4-5.6-1.2-12-1.8-17.9-.5-5.3-1.5-10.6-2-15.9-.2-2.3,0-4.7.3-7.1.1-1.2,1.4-3,1-3.6-3.9-5.2.6-9.9.6-14.7,0-3.1-1.1-6.1-.9-9.2.5-7,2-14.1,1.9-21.1,0-4.9-1.2-10.1-3.2-14.6-1-2.2-5-3.6-7.8-4.2-9-2-18.4-2.3-26.8-6.7-1.5-.8-3.7-.7-5.4-.3-4.4.9-8.2-1.7-12-2-10.6-1-20-8-31.2-5.9-1.1.2-2.4-.4-4.9-.9,3.4,7,7.9,12.9,9,19.3,1.5,8.9,8.3,16.3,7,26-.3,2.3.9,4.8,1.6,7.2,1.9,7.2,3.3,14.6,4.6,21.9,1,5.9-1.3,11.1.1,16.8.8,3.1-1.5,6.9-2.6,10.4-1.3,4.2-.3,7.2,3.5,9.9,2.4,1.6,4,4.5,5.6,7.1,1.7,2.8,2.9,5.8,4.5,8.7,2.8,5,2,8.7-2.8,11.8-5,3.2-9.8,6.9-15,9.7-5.4,2.9-11.3,4.9-17,7.5-7,3.2-13.8,6.7-20.9,9.7-4.8,2-10,3.3-15,4.8-1.2.3-2.5,0-3.7,0-3,.3-6,.7-8.9,1.2-1.3.2-2.7,1.4-3.9,1.2-4.2-.8-8.5-2.6-12.2,1.3-6.3-3.5-14.3,3.4-20.1-3.4-.3-.4-1-.7-1.5-.6-4.5.8-7-1-9.8-4.6-3.2-4.3-.4-7.1.6-10.5,0-.3.1-.7-.8.2-4.5-3.2-10.6-5.5-13.2-9.9-3.4-5.7,4.4-9.5,5.8-14.3-1.6-3.1-4.5-6-4.3-8.7.4-7.1-4.4-11.8-6.5-17.6-1.8-4.8-2.9-9.9-4.3-14.8-.4-1.5-1-2.9-1.6-4.4-2-5.1-4.1-10.2-5.9-15.3-1.5-4.2-2.8-8.4-4-12.6-3.3-11.3-7-22.5-9.6-34-1.5-6.3-.8-13.1-1.6-19.7-.9-8.2-2.3-16.4-3.5-24.6-.4-2.5-1.3-4-4.2-4.7-10.1-2.3-20.1-4.9-32-7.9.6,5.9,1.3,10.5,1.4,15.1.1,5.4-.2,10.8-.3,16.2,0,2-.9,4.2-.2,5.9,3.5,8.1,3.1,16.2,1.2,24.5-.2,1,1,2.3,1.4,3.5,1.4,4,3.1,7.8,3.9,11.9,1,4.7,2.7,7.9,7.7,9.5,4.4,1.4,9.7,2.9,12.4,6.2,2.3,2.8,2.4,8.4,1.7,12.4-.8,4-.4,5.3,3.2,7.6,4.1,2.6,7.4,7,10.1,11.2,3,4.6,2.2,10-2,13.4-6.3,5.3-13.3,9.8-20,14.6-2.5,1.7-5.2,3.2-7.7,4.8-10.9,7.2-23.6,9.9-35.9,13.2-.9.2-1.8,0-2.8-.1-8.4-1.1-16.9-2-25.2-3.3-5.7-.9-7.9-5.6-5-10.8,1.8-3.2,4.1-6,6.4-9.2-2.2-1.8-4.8-4-7.4-6-6.9-5.4-8.1-15.6-17-19.4-2.3-1-2.9-5.5-4.8-7.9-5.8-7.4-14-13.8-17.1-22.1-2.8-7.5-8.4-12.5-11.5-19.3-3.1-6.9-8.2-12.6-11.3-19.8-2.5-5.8-4.6-12.1-6.8-18-3.6-9.6-5.5-19.9-7-30.1-1.1-8.4-.4-17.1-.7-25.6,0-1.2-.6-3.1-1.5-3.4-8.3-3.4-16.1-8.1-25.7-7.5-4.2.3-8.5-1.3-14.2-2.4,4.3,8.5,1.3,17.7,7.9,24.5,1.5,1.6.9,5.2,1.6,7.8,2,7.6,4.5,15.1,6.4,22.8,1.6,6.8,2.5,13.8,3.9,20.7,1.2,5.8,3,11.5,3.8,17.4.8,5.9.4,12,.8,18,.1,1.8,1.1,3.5,1.5,5.2.6,3,1,6,1.4,9.1.2,1.7,0,3.5.5,5,1.1,3.5,3.3,6.8.3,10.4-.1.1-.3.4-.2.5,4.2,6-.6,12.3.8,18.7,1,4.5,4.8,9.6.5,14.8-.8,1,.7,3.6.3,5.3-.5,2.2-1.5,4.5-3,6-.7.7-4.1,0-4.7-.9-1.2-1.9-2.5-5.2-1.6-6.7,4-7.2,2-15.3,3.8-22.8.6-2.4-2.4-5.6-4-9-.6,1.5-1.7,3-1.8,4.6-.6,9.6-.7,19.3-1.8,28.9-.2,2.2-3.6,4.1-5.7,6.2,0,0,1.3,0,2.5.6,1.5.6,4,1.5,4,2.3,0,2-.7,4.7-2.1,5.6-3.9,2.5-14.6-2.5-16-7.1-1.3-4.4,1-6.2,7.2-5.5.5-1.5.9-3,1.4-4.7-4-1.8-4.7-4.5-3.5-8.9,3.5-13.1,5.1-26.3,5.5-40,.2-7.6-1.7-15-.4-22.7.8-4.5-.2-9.3-.5-14,0-1-.6-2-1.1-2.9-1.8-3.4-3.9-6.3-2.3-10.8.7-2.1-1.7-5.1-2.1-7.8-2.1-12.6-4.3-25.2-5.9-37.8-.7-5.8-.8-11.5-5.6-15.7-.4-.4-.4-1.4-.3-2.1.5-8.9-3-15.9-9.6-21.7-.7-.6-1.1-1.9-1.3-3-1-4.7,2.4-11.9,6.5-14.6.8-.6,1.5-2.9,1-3.7-5.6-9.3-8.2-19.2-7.2-30.2.3-3.5-.5-7.2-1-10.8-.8-4.9-.3-9.4,3.6-13,2.8,0,5.7.8,8.2.1,4.4-1.3,8.6-3.5,12.8-5.3-5.1.2-10.1.9-15.1,2-2.1.5-3.9,2.2-5.8,3.4h-.1ZM440.1,592l.2.2c.8-1.2,1.3-2.7,2.4-3.4,9.1-5.7,16.1-13.6,22.6-21.9,2-2.5,4.1-5.5,4.6-8.5,1.2-7.4,1.6-15,2.3-22.5,0-.7,0-1.9-.4-2.1-5.8-3-3.3-9-4.1-13.3-1.1-6.6,1-13.4-1-20.6-2-7.4-.8-15.6-1.1-23.5-.1-3.1-.5-6.2-1-9.2-.6-3.4-.6-7.5-2.6-9.9-4.7-6-10.1-11.6-15.9-16.5-7.4-6.3-15.3-12.2-25.2-14.3-.7-.1-1.1-1.9-1.6-2.8,1.1-.4,2.3-1.3,3.1-1,3.5,1.3,7.1,2.6,10.1,4.7,6.3,4.5,11.8,10.3,18.4,14.1,8.4,4.8,12.6,12.8,17.9,20,1.2,1.6,3.2,3.4,5,3.6,5.7.6,11.5.3,17.3.7,5.1.3,10.2,1.1,15.3,1.8-.7-6.7-1.6-14.5-2.7-24.5,1.7-14.2,1.9-31.3,13-45.8-1.4-.4-2.3-.5-3.1-.8-8-2.3-16.6-3.6-24-7.2-8-3.9-15-9.9-22.4-15.1-.9-.6-1.4-2.2-1.6-3.4-1.1-5.5-5.4-6.5-9.6-6-5.4.5-10.7,2.3-16.1,3.3-2.3.5-4.7.5-7.3.7-2.2.9-4.8,2.2-7.4,2.9-3.4,1-7.1,1-10.3,2.3-5.1,2-9.9,5.2-15.1,7-6,2-11.4,4.1-15.6,9.2-2.3,2.8-6,5.3-9.4,6.1-3.8.9-4.9,3-6.2,6-.9,2.2-2.6,5.7-4.1,5.8-5.3.3-7.3,5.8-7.5,7.7-1.1,8-5.4,14.5-8.2,21.6-.5,1.3-.8,2.8-.9,4.2-.3,5-.4,10-.7,15-.3,6.2-1.1,12.5-.7,18.7.5,7.7,2,15.4,3.1,23.1,0,.7.3,1.4.7,1.9,3.5,5.3,2.6,12.6,8.2,17.1.8.7.1,3.3.1,5.1,1.3,1.5,4.1,3.1,4.4,5.1,1,5.8,3.9,10.5,6.8,15.3,3,4.8,6.3,9.5,9.7,14.1,2.5,3.3,5.6,6.3,8.2,9.5,1.3,1.7,1.9,4,3.2,5.7,4.2,5.5,9,10.6,12.9,16.4,3.8,5.6,5.9,12.6,13.6,14.6,1,.3,1.5,2,2.5,2.8,3.7,2.9,7.5,5.7,11.2,8.6,1.9,1.5,4.6,3.3,4.9,5.2.2,1.7-2.3,4-4,5.5-2.4,2.1-5.3,3.6-8,5.4.2.5.5,1,.7,1.5,2.3.2,4.7.5,7,.4,10.5-.3,21.2,3.3,31.5-1.5,5.6-2.7,11.1-6,17.1-7.4,9-2.2,15.5-8.5,22.7-13.2,2.6-1.7,7.1-6.7,3.4-11.2-3.5-4.2-8.4-7.4-12.7-11.2-5.6,5.3-6.6,12.9-13.1,15.8.2-1.3,1-2.2,1.7-3.1,2.2-3.2,6-6.4,6.3-9.8.4-5.9,2-10.9,4.5-16.1,1.4-2.9,1.1-5.7-3.3-7-6-1.7-11.8-4.4-17.8-6.7-.3.7-.6,2-1.4,3-7.1,8-14.2,16-21.7,23.6-2.2,2.2-5.9,3.1-8.8,4.5h0ZM562.9,631.3h-.1c3.1,5.4,2.7,6.8-2.7,10-2,1.2-4.2,2.3-5.8,4-.7.7-.4,3.8.2,4,3,1.2,6.2,1.7,9.3,2.8,2.4.9,5.5,1.7,6.6,3.6.7,1.1-2,4.1-2.8,6.3-.8,2.2-2,4.9-1.3,6.6.5,1.3,3.8,1.7,5.9,2.1,3,.5,6,.6,9,1,1.4.2,2.9.9,4.1.6,4.7-1.2,10.1,2.1,14.3-2.5.5-.5,2.5-.5,3.2,0,6.4,4.6,11.1-3.5,17.4-2.1,3.3.7,7.5-2.2,11.3-3.6,4.5-1.6,9.7-2.4,13.1-5.3,4.3-3.6,8.8-5.6,14-6.8,2.2-.5,4.5-1.6,6.4-2.9,3.6-2.5,6.8-5.5,10.4-7.9,3.4-2.2,5.7-4.7,4.5-9-1.3-4.7-6.6-9.8-10.4-9.2-2,.3-3.7,2.2-5.5,3.4-6.6,4.2-13.1,8.5-19.7,12.6-3.4,2.1-7,3.7-10.4,5.6-.3-.5-.6-1-.8-1.5,7.1-5,13.6-11.1,21.3-14.6,9-4.1,12.4-11.8,15.3-19.7,2-5.6,0-12.1,1-18.3,1-5.6-1-11.8-1.6-17.7-.6-5.7.9-12.8-1.9-16.8-6.1-8.7-5.4-19.2-10.1-28.1-3-5.7-1.8-13.5-8.6-17.5-.3-.2-.2-1.1-.5-1.5-3.8-4.9-2.5-12.6-9.2-16.1-2-1.1-3-4.2-4.3-6.5-1.2-2.3-1.7-5.1-3.2-7.1-3.6-4.7-7.4-9.2-11.6-13.4-6.7-6.6-13.1-13.5-20.7-19-6.7-4.9-14.7-8.1-22.3-11.8-2.7-1.3-4.9-3-3.1-5.6,1-1.6,4.4-3,6.1-2.5,11.7,3.5,21,11.4,30.9,18.1,1.4.9,2.5,2.3,3.7,3.5-7.6-15.1-12.6-32.1-32.3-36.7,3.4-2.1,12.7.4,14.8,3,3.4,4.1,7.1,7.9,9.9,12.3,4.1,6.5,10.1,12,11.2,20.4,1,7.1,6.6,10.9,12.6,14,6.8,3.5,13.5,2.1,19.4-1.6,4.5-2.9,9.5-6.5,11.8-11,3.9-8,5.9-17,8.6-25.5.2-.7-.2-1.6-.3-2.4-.4-2.9-6.6-6.5,1-8.5.1,0,.2-.7.1-1-2.7-6.1-.6-14.2-7.3-18.1-4.2-.1-8.2-1.4-12.2-1.8-10.1-1.2-20.3-2-30.5-3-2.7-.3-5.4-1.5-8-1.4-4.5.2-9.3,2.4-13.5,1.7-9.5-1.7-19,.5-28.6-1.6-6.3-1.4-13.9-3.5-20.5,1.1-.7.5-2.2-.1-3.3,0-1,.1-2.1.5-3.1,1-5.3,2.9-9.2,7.4-15.6,9.1-4.1,1-8,5.5-10.4,9.5-2.7,4.4-3.7,9.8-5.2,14.8-2,7-4.9,14-2.1,21.6.4,1-.2,2.5-.7,3.6-3.5,6.4,1.7,12.6.5,18.9,0,.3,1,.6,1.2,1,.8,1.5,1.9,3.1,2,4.8.2,3.8-.8,7.8-.2,11.5,1,6,3,11.9,4.3,17.9.6,2.9,0,6,.5,8.9,1,5.9,2.4,11.8,3.7,17.7,2.2,10.5,3.8,21.3,6.7,31.6,3.5,12.3,8.3,24.2,12.1,36.5,1,3.1,3.9,5.4,4.2,7.7.9,7.3,4.4,13,7.7,19.2,2.5,4.8,5.3,6.9,10.1,7.6h0ZM360.9,349.3c8.5-2.4,17.4-4.9,26.3-7.6,2.2-.7,4.3-1.9,6.5-2.8,4-1.6,8-4.3,12-4.2,4.2.1,7.4-.4,11.2-2.5,4.6-2.6,10.1-3.5,15.2-5.1,3.5-1.1,7.1-2.2,10.7-3.3.6-.2,1.2-.2,1.8-.5,6.1-3.1,12.3-6.1,18.2-9.5,3-1.7,6-4,8.1-6.6.5-.7-2.3-4-3.6-6.1-3.3-5.8-6.9-11.4-9.8-17.3-1.5-3.2-.7-7.8-2.8-10.3-5.5-6.7-4.5-14.7-5.6-22.2-.2-1.7,1.6-4,3.2-5.3.6-.6,3.5.2,4.2,1.2,1.1,1.6,1.4,3.9,1.6,5.9.3,3.6.2,7.3.5,10.9.1,1.4.8,2.8,1.1,4.2.6,2.8.9,5.8,2,8.5.9,2.3,2.5,4.4,3.9,6.5,3.5,5.1,6.9,10.3,10.6,15.2,1.9,2.6,4.8,4.5,6.2,7.2,1.7,3.1,3,7.1-1.3,9.6-9.5,5.4-15.9,12.2-17.4,24.1-1,7.6,1,13.2,4.8,18.8,1.9,2.7,5.4,4.1,4.2,8.8-.4,1.7,2.3,5.1,4.4,6.4,7.2,4.3,14.8,8,23,12.4-6-24.6-2.5-46.4,15.6-65-1.6-.5-2.7-.8-3.6-1.1-6.4-2.5-12.8-5-19.1-7.8-.9-.4-1-2.3-1.5-3.6,1.3.2,2.6.1,3.8.6,4.2,1.8,8.2,4.2,12.5,5.6,6.3,2.1,12.8,3.6,19.2,5.4,0,.3-.1.7-.2,1-3.2-.3-6.3-.6-9.5-1,0,1.5.6,3.5-.1,4.6-1.7,2.5-4,4.5-6,6.6-7.4,7.9-9.6,18.1-10.4,28.1-.8,9.2-1.5,19.1,5,27.7,5.6.8,12,2.9,18.2,2.4,6.3-.6,12.4-3.7,18.6-5.8,1.8-4.6,3.7-9.6,5.9-14.6,3.5-8,10.2-13.1,16.7-18.5,3.9-3.3,10.3-3.2,12.6-8.9.2-.6,1.6-.8,2.4-1.2,3.5-1.8,6.9-4,10.6-5.2,6-2,12.3-5,18.2-4.5,6.7.6,11.2-2.6,17.5-4.3-4.2-3.1-8-5.3-10.8-8.3-2.6-2.8-5.1-5.6-8-8.2-4.8-4.5-8-10.6-11.7-16.2-1.5-2.4-2.2-5.3-3.7-7.7-5.2-8.6-7.1-18.2-8.7-27.9-.3-1.7,2.3-3.9,3.6-5.8,1.3,1.5,3.3,2.8,3.9,4.5,3.3,9.5,5.1,19.7,9.7,28.4,3.5,6.6,5.7,14,11.8,19.9,5,4.8,10.3,9.2,15.3,13.8,5,4.7,11.8,7.5,17.8,11.1.7.4,1.6.8,2.5.9,5.3.5,10.6.8,15.8,1.4.9.1,1.7,1.4,2.6,2.2-.1.4-.3.9-.4,1.3-6.3-.7-12.7-1.4-19.1-2.1-4.8,6-4.7,5.9-11.6,1.5-1.4-.9-3.7-.4-5.6-.6-1.2,0-2.5,0-3.6-.3-8.4-3.2-15.7.5-23,3.5-.9.4-1.4,1.6-2,2.5-4.2,7.7-8.4,15.5-12.5,23.3-2.6,5-4.9,10.2-7.5,15.6,6.5.6,12,2.5,16.5,1.2,8.6-2.4,16.9,4.6,25.2,0,.3-.1.9.6,1.5.7,5.6,1,11.2,2.1,16.9,2.9,6.9.9,13.8,1.6,20.7,2.3,2.4.2,5.2-1,7.3-.2,6.6,2.6,13.2,4.5,20.3,4.9,1.4,0,2.8.9,4.2,1.1,3.6.6,7.2,1,10.8,1.5,2.3.3,4.5.8,6.8,1,1.2,0,3.4-.2,3.6-.9,1.9-5.9,3.7-11.9,5.1-18,.5-2.2.2-4.6,0-6.9,0-1.5-1-3.3-.5-4.6,2-5.3,1.7-10.2-.4-15.5-1.1-2.9-1.4-6.8-.5-9.8,1.5-4.7-1.4-8.8-.7-13.7.7-5.6-3.5-11.6-.3-17.8.3-.5,0-1.5-.3-2.1-1.4-5-3.2-9.9-4.3-14.9-2.2-10.6-3.9-21.3-5.8-32-.3-1.9,0-4-.6-5.8-1.8-5.5-4.1-10.9-5.7-16.4-1.7-6.1-1.8-12.8-4.5-18.4-3.8-7.8-7.7-15.4-9.1-24.1,0-.7-.5-1.4-1-1.9-5.7-6.1-10.7-12.7-13.5-20.7-.3-.9-1.3-1.7-2-2.3-4.5-3.7-9.6-7-13.7-11.2-8.3-8.7-18.7-14.4-28.9-20.3-4-2.3-8.9-3.4-12.5-6.2-2.9-2.2-5.6-3.3-9-4.3-5.9-1.7-10.3-7.6-17.3-6.4-.1,0-.3-.2-.4-.3-4.7-2.8-9.6-2.5-14.8-1.8,2.9,11.5,6,22.3,8.3,33.3,2.3,11.1,3.7,22.4,0,33.7-1.1-23.2-4.1-46-13.9-67.4-1.7,2.1-3.5,4.4-5.3,6.8-4,5.4-12.4,7.2-12.9,15.8-.1,2.3-1.8,4.7-3.2,6.8-3.3,4.9-4.5,9.8-2.8,15.7,1,3.4,1,7.3.5,10.9-1,6.1-2.6,12.1-4.1,18.2-1.3,4.9-2.9,9.7-4.3,14.6,15.6-6.5,29.4-3.9,41.5,8.8,1.2-10.2,2.3-19.2,3.3-28.2.7,0,1.3,0,2,0,.2,2.1.8,4.1.6,6.2-.7,8.3-4.4,16.2-2.7,24.8.2,1.2-1.2,2.7-1.8,4.1-1.2-.7-2.5-1.2-3.4-2.2-1.9-2.1-3.3-4.7-5.3-6.6-8.8-8.4-19.3-8.3-30.2-5.4-5.4,1.4-9,6.6-9.6,12.8,0,.9-1.4,1.7-2.2,2.5-.8-1-2.1-2-2.2-3.1-.2-1.6.5-3.3.9-5.1-3.3.3-6,.5-9.5.7,2.9,3.4,5.5,6.1,7.7,9.1,8.3,11.6,16.5,23.3,24.7,35.1.7,1,.9,2.6.9,4s-1.8,1.4-2.1,1.1c-1-.6-1.9-1.7-2.5-2.7-1.7-3.3-3.2-6.7-4.8-10-.3.5-.6,1-.8,1.5-1.6-.3-3.3-.2-4.7-.9-7.9-3.6-15.5-8.3-23.8-10.9-5.3-1.7-11.6-.7-17.4-.4-4.8.3-9.5,1.5-14.2,2.3-.2-.6-.5-1.1-.8-1.7.8-1,1.6-2.1,2.5-3.1,4.7-5.3,9.7-10.3,14-15.9,1.2-1.6,1.3-5.4.3-7.3-2.7-4.8-9.8-6.5-14.5-3.7-6.9,4.2-11.8,9.9-12,18.6,0,1.5-.8,3.1-1.5,4.4-.2.3-2.4,0-2.4-.2-.2-1.7-.2-3.5-.1-5.2.2-2.5.8-5.1.8-7.6,0-7.1-1.8-14.6-.3-21.3,1.8-8.1-.2-15.5-.7-23.7-4.1,6.1-9.3,11.1-11.3,17.3-2.4,7.1-2.4,15.1-2.7,22.8-.2,6.5.8,13.1,1.3,19.7-7.4-9.7-1.5-21.3-4.5-32-4.1,5.8-7.7,11.5-12,16.6-6.3,7.3-13,14.3-19.8,21.2-3.6,3.6-7.1,8.6-11.5,9.7-4,1-5.1,3.1-6.9,5.6-.7,1-1.5,2.2-2.5,2.9-6,3.9-12.1,7.7-18.1,11.6-3.9,2.5-8.2,4.8-11.3,8.1-6.1,6.7-13.8,10.5-21.9,14-2.4,1-5,4.6-5.1,7,0,3.3,2.1,6.8,3.6,10,5.6,12.6,11.4,25.1,17.1,37.8h0ZM475.6,34.1c-6.5,1.7-11.6,2.9-16.6,4.5-2.9.9-6.5,1.4-8.3,3.4-4.6,5.1-11.7,6.8-15.5,13.3-4.2,7-10.2,13.1-9.6,22,.4,5.5-1.8,7.9-6.7,9.6-5.6,1.9-10.9,4.7-16.1,7.4-2.8,1.4-5.6,2.9-7.8,5-2.4,2.3-5.1,5.2-5.8,8.2-.4,1.7,2.7,5,5,6.3,5,2.9,10.3,5.4,15.7,7.3,6.2,2.1,12.5,4,18.8,5.8,6.4,1.8,12.4,1.9,18.6,2,9.1.1,18.1,1.2,27.3-.8,7.3-1.6,14.3-3,20.7-6.9,4.8-2.9,10-5,15-7.5,2.4-1.2,5.1-2.3,6.9-4.2,6.7-6.9,13.3-13.9,19.5-21.2,2.5-2.9,6.4-7.3,5.6-9.9-2.3-7.8-3.2-16.5-10.3-22.4-2.1-1.7-2.7-5.6-4.9-6.8-6.6-3.7-13.6-6.7-20.6-9.6-4-1.7-8.2-3.4-12.4-4-6.6-.9-13.3-.9-18.6-1.2h0ZM464,322.1c-8.3,3-15.5,5.5-22.7,8.2-6.8,2.6-13.5,5.5-20.3,8.1-1.3.5-3,0-4.4.4-2.4.5-5.9.5-6.9,2-2.6,4-6.1,3.7-9.8,3.8-.9,0-1.8,0-2.6.2-10.1,3.1-20.1,6.9-30.4,9.2-8.4,1.9-16,6.4-24.8,7.1-7.9.6-15.8,2-23.6,3.1-5.5.8-11.2,1-16.4,2.8-4.8,1.7-11.2,2.8-10.1,10.8,1.3,10,1.9,20.1,3.3,30,.2,1.2,3.2,2.9,4.8,2.8,3.7-.4,7.4-1.7,11-2.8,4.1-1.1,8.5-3.8,12.3-3.2,8,1.3,14.2-3.4,21.3-4.6,5.1-.8,10.1-2,15.2-2.8,3.5-.6,7.1-.4,9.5-4,1.9-2.8,3.9-5.8,6.7-7.7,4.2-2.8,9.1-4.7,13.6-7,4-2,8.3-3.8,12.1-6.3,5.3-3.5,11-5.4,17.3-5.9.9,0,1.6-1.4,2.6-1.9,1.3-.7,2.9-1.8,4-1.5,4.7,1.3,8.4-.1,12.1-2.8,1.1-.8,2.8-.7,4.2-.9,5.1-.5,10.1-.8,15.7-1.2-5-13.6,1.5-24.6,6.4-36.3h0ZM516.9,165.9c2.4-1.5,5.4-3.2,8.2-5.1,3-2,7.7-3.8,8.3-6.4,1.5-7,7.5-10.9,9.8-17,.9-2.3-1-5.6-1.3-8.5-.2-2-.5-4.9.7-5.9,1.3-1.2,4.2-1.4,6.2-.9,4.4,1.1,11.5-1.6,12.7-6,1.6-6,4.5-12.1,1.8-18.3-1-2.2-3.1-4.6-5.2-5.5-1.7-.7-5.7,0-6.2,1.2-2.7,5.6-6.1,4.8-9.2,2.6-6.4,5.3-12.3,10.4-18.5,15.2-3.3,2.6-7.1,4.6-10.5,7.1-2.4,1.8-4.3,4.6-6.9,5.7-9.5,4.2-19.1,8-28.8,11.9-.8.3-1.8.2-2.7.2-7.5.5-14.9,1-22.5,1.5,6.7,23.2,20.3,33.1,41.8,31.1-2.7-5.4-3-9.2-1-11.3,1,2.6,1.6,5.1,2.9,7.1,1,1.5,2.8,2.4,4.3,3.5,0-1.8.9-4,.1-5.4-1.8-3.5-.5-4.4,2.7-5.1,1.2,3.5,2,6.5,3.2,9.3.3.8,1.6,1.3,2.6,1.5.3,0,1.1-1.2,1.4-1.9.6-1.4.9-2.9,1.4-4.4,1.3,1.1,2.6,2.1,4.7,3.9h0ZM335.6,298c-9.8,8.2-19,13-29.3,15,3.1,8.5,7.2,16.1,8.5,24.2,1,5.5,3,10,5.8,14.4,1.8,2.8,3.6,6.2,8.3,4.3,2.5-1,5.4-.7,8.1-1.2,6.5-1.1,13-2.4,20.8-3.8-7.5-17.8-14.5-34.5-22.2-52.8h0ZM538.5,248.8c.3-.4.5-.8.8-1.2-1.7-1.9-3.5-3.8-5.1-5.8-5.2-6.6-8.5-14.7-16.2-19.2-1.3-.8-1.5-3.2-2.6-4.6-1.1-1.5-2.6-2.7-4.1-3.9-4.8-3.8-10-7.2-14.5-11.4-2.3-2.2-3.5-5.6-5-8.6-1.2-2.5-1.9-5.3-3.1-7.8-1.9-3.9-.7-9.9-7.1-10.9-3.7-.5-7.4-1-11.3-1.5v45.1c2-2.4,3.6-4.2,5.1-6,8.5-9.7,21.3-6.2,26.7.9,2.1,2.8,2.1,5,0,7.7-3.9,5.1-7.6,10.4-12.1,16.8,17.8-2.2,33.8,1,48.4,10.4h0ZM261,314.6c2,4.9,3.8,9.3,5.5,13.7,2.5,6.4,5,12.9,7.6,19.3.3.8,1.8,1.6,2.6,1.5,3.5-.6,6.9-1.3,10.3-2.5,6.7-2.3,13.4-4.9,20.6-7.6.5-11.5-25.7-47.8-41.5-49.7,1.6,4,2.7,8.1,4.7,11.7,4.1,7.4,6.6,16.3,16.3,18.9.8.2,1.4,1.1,3,2.4-2.1.7-3.8,1.8-4.7,1.4-2.4-1-5.4-2.3-6.7-4.3-4.3-7.2-10.5-5.6-17.7-4.8h0ZM496.6,176c-.6.4-1.2.8-1.8,1.1.2,2.4.1,4.9.8,7.1.9,3.1,2.5,6,3.6,9.1.5,1.5,0,3.8,1,4.6,3.5,2.8,7.5,5.2,11.3,7.7,5.4,3.4,11.5,3.3,15.6-.9,6.7-6.9,10.2-16,11.9-25.5.4-2.2-1.2-4.8-1.5-7.2-.3-2.9,0-5.8,0-9.5-6.8,3.9-12.5,7.1-18.3,10.4.8,1.1,1.6,2.4,2.4,3.7l-.9,1.1c-1.8-1.1-3.7-2.3-5.7-3.5-1.7,4.6-4.6,4.4-8.1,1.8-.2,2.2-.4,4-.7,6.4-3.7-2.4-6.7-4.4-9.7-6.4h0ZM342,439.2c.5-13.3,8.6-23,17.1-33.1-6.9.2-13,1.3-19,1.7-9,.6-16.4,4.8-24.6,6.8-5.2,1.3-10.4,3-14.6,4.2-1.6,3.4-3,6.3-4.2,8.7,14.5,3.7,29.5,7.6,45.2,11.7h0ZM599.1,339.5c-22.4,5.8-38.3,18.3-46.9,40.1,3.4.3,6.7,1.7,8.3.6,4.2-2.9,7.9-1.9,12-.7,3.7,1,5.7-.8,7.3-4,4.2-8.5,8.6-16.9,13-25.2,1.9-3.6,4.1-7,6.2-10.8h0ZM762.3,664.2c.8,5.3.9,10,2.2,14.3,1.3,4.4,4,8.5,5.7,12.8,1.2,2.9.4,5.3-3.2,6.2-1.3.3-3.1,1.7-3.1,2.7,0,1.3,1.1,3,2.2,3.9,4.6,3.5,9.2,3.8,13.7-.6-2.8-4.7-.3-11.5-5.9-15.3-.5-.3-.3-1.7-.6-2.5-.8-2.3-1.2-4.8-2.5-6.6-1.8-2.3-3.7-4-2-7.2.4-.8-.5-2.6-1.3-3.5-1.1-1.3-2.7-2.2-5.4-4.1h0ZM250,356.4c.2.3.4.7.6,1,7-2.6,14.1-5.1,21-7.7-2.4-5.4-4.9-11.4-7.4-17.1-7.9,6.6-15.6,13.2-19.4,24.7,6-5.4,10.9-9.9,16-14.2.8-.7,2.2-.9,3.4-.8.5,0,1.3,1.6,1.1,2.1-.3.8-1.3,1.5-2.1,2.1-4.4,3.3-8.9,6.6-13.4,9.9h0ZM969,605.9l-1.7.5c3.3,11.2,6.7,22.3,10,33.5.6-.2,1.2-.4,1.8-.6-1.6-5-5-10.3-4.3-15,1.3-8-4.5-12.3-5.9-18.5h0ZM261,322.9c-1.5-2.8-2.4-4.5-3.2-6.1-5.9,2.7-11.4,5.2-17,7.7.2.5.4.9.6,1.4,6.2-1,12.5-1.9,19.6-3h0ZM759.1,643.3c.7,0,1.4-.2,2.1-.3-1.3-6.9-2.6-13.7-4-21.6-4.3,8.5,3.7,14.6,2,21.9h0Z"/>
  <path class="st0" d="M682.6,417.4c4.4-4.8,10-1.3,13.9-.3,10.3,2.6,20.6,3.8,31.1,4.8,5.8.5,11.5,1.7,17.2,2.2,1.7.2,3.6-.5,5.2-1.3,9.7-4.8,19.1-10.2,29-14.5,12-5.1,24.1-10.7,36.8-13.2,9.9-2,19.4-5.5,28.8-8.4,7.3-2.3,14.7-5.1,22.3-7.2,5.7-1.5,11.1-4.1,16.9-5.6,5.5-1.4,11.3-1.7,17-2.9,16.5-3.4,33-7,49.5-10.5,1.5-.3,3.2-.2,6.1-.4-.3-5.6-.7-11.4-.8-17.2,0-1.9.5-3.9,1-5.8.3-1.5,1-3,1.2-4.5.6-5.6-1-11.6,2.6-16.8.5-.7.3-1.9.4-2.9.6-8.2-.2-16.7,4.4-24.3.5-.8.9-2,.6-2.6-2.8-6.4,1.5-11.5,2.9-17.1,1.1-4.3,1.4-8.9,2.1-13.3,0-.3-.3-.9-.2-1,3.7-3.3,3.6-8.2,5.3-12.4,2-5.1,5.4-9.5,8-14.4,4.1-7.8,7.7-16,12.3-23.5,1.6-2.6,5.7-3.8,8.8-5.1,9.7-4.1,21.2-.2,28.1,8.2,2.6,3.2,4.8,5.5,5.2,10.1.3,4.2-.6,6.3-3.8,8.7-3.2,2.4-5.2.4-7.4-.9-10.8-6.6-15.6-.1-20.7,10.3-5.3,10.7-9.1,22.5-11.7,34.2-2.3,10.3-6.4,19.8-8.8,29.9-.7,2.9,0,6-.5,9-.9,6.8-.7,14.2-3.6,20-2.5,5.1-3,9.3-2.1,14.4.3,1.7-1.5,3.6-1.8,5.5-.5,3.2-.7,6.5-.8,9.8,0,1.6,1,3.5.4,4.8-4.4,10.9-3,22.3-3.9,33.6-.5,6.2-1.1,12.5-1.2,18.7,0,5.7,0,11.3,0,15.4.5,4,.8,6.5,1.1,8.9.3,2.6.7,5.1.9,7.7.3,5.3-2.9,7.3-7.7,5.2-5.4-2.4-7.5-5.4-8.3-12.2-.7-6.1.7-11.7.3-17.5-.5-7-1.8-13.9-2.6-20.9-.2-2.2.3-4.5.2-6.8-.2-3.9-.6-7.9-1-13.2-10.2,1.5-19.3,3-28.4,4.3-4.3.6-8.8.5-13.1,1.1-7.6,1-15.3,1.6-22.8,3.4-6.7,1.5-13.5,2.3-20.2,3.7-4.5,1-8.3,1.1-12.9.6-4.1-.4-8.4,2.6-12.7,3.9-4.9,1.5-9.8,2.7-14.7,4.1-11.1,3.2-22,7.2-33.2,9.5-6.7,1.3-12.9,3.9-19.3,5.7-10.2,2.9-16.3,10.3-17.1,20.9-.7,8.6-2.3,17.1-3.6,25.6,0,.5-.6,1.2-.5,1.5,3.9,8-2.3,16.2.6,24.5,1.4,4,.2,8.9-.2,13.4-.1,1.4-1.4,3.2-2.7,3.8-5.2,2.5-13.1-2.5-13.3-8.2-.2-5.3-.2-10.6-.7-15.9-.7-8-1.3-15.7-.8-23.9.5-8,1-16,2.7-23.8.7-3.2,2.7-6.2,3.8-8.6-21-3.5-42.2-7.1-63.5-10.6,0,0,0,.1,0,.1h0ZM965.9,321.1c1.3-1.3,3.5-2.4,3.9-3.9,1.8-6.9,3.4-13.8,4.6-20.8,1.2-6.8,1.8-13.8,2.8-20.6.5-3.2,1.3-6.4,1.9-9.6.3-1.4.7-2.8,1-4.2-.5-.2-.9-.3-1.4-.5-.7,1.5-1.7,3-2.1,4.6-1.2,4.9-2,9.9-3.3,14.8-.8,2.7-2.9,5.1-3.3,7.9-.5,3.6.3,7.4,0,11-.3,3.9-.1,8.6-2.3,11.3-2.9,3.5-2.4,6.5-1.7,10-.6,1.7-1.7,3.3-1.8,5-.8,9-1.5,18-2,27-.1,2.5.6,5.1,1,8.5,2.4-2.6,3.8-4.2,5.5-6-7.6-4.4-2.3-10.8-1.5-15.7,1.1-6.6,4.4-12.8-1.2-18.8h0ZM933.9,371.5c-19,4.1-39.6,8.6-60.2,13.1,12.6-.6,25-2,37.4-3.6,6.5-.8,13-1.8,19.5-2.6,1.1-2.2,2.4-5,3.4-6.8h0ZM749.9,483.2c1.1-16.6,2.2-33.2,3.4-49.8-8,16.2-6.6,33-3.4,49.8ZM990.3,255.8c.3,0,.7.2,1,.3,1-2.6,2.1-5.2,3-7.9,1.2-3.3,1.7-7.2,3.6-10,3.1-4.4,3.5-4.2-.3-8.1-2.5,5.5-5.3,10.7-7.2,16.3-1,2.9-.2,6.3-.2,9.4h0Z"/>
  <path class="st0" d="M286.6,635.4c4.1,1.2,7.8,2.2,11.4,3.2.7.2,1.6,0,2.1.4,4,3,8.5,5.7,11.8,9.4,5,5.8,5.4,13.1,2.6,20.1-1.4,3.5-4.6,6.3-6,9.8-1.1,2.8-.7,6.3-1,9.5-.3,3,1.5,7.5-3.9,7.5-5,0-5-3.8-4.8-7.5,0-.7-.2-1.4-.3-2.3-5.9-.3-11.7-.6-17.5-.9.2,2,1,4.7.3,6.8-.5,1.6-2.8,3.1-4.7,3.7-.7.2-2.9-2.1-3.3-3.6-.8-2.9-.7-6.1-1.3-9-.3-1.5-1-3.5-2.1-4.3-6.7-4.6-10-11.2-12.4-18.7-1.3-3.9-3.7-7.5-5.9-11.7-.1,0-1.2.8-2.4.9-1.6,0-3.9.2-4.8-.8-.9-1-1.2-3.5-.6-4.8.6-1.3,2.6-2.3,4.1-2.9,1.8-.7,3.8-.9,5.7-1.3-.8-3-.7-6.7-2.5-8.7-5.3-6-9.7-12.7-10.9-20.5-.6-4.3-2.8-6-5.6-8.2-1.6-1.2-3.5-3.1-3.6-4.8,0-1.5,2.4-3,3.4-4.7,1.5-2.3,3-4.6,4-7.1,2.6-6.6,6.7-11.8,13.6-13.9,8.6-2.5,16.9,1.9,20.6,10.4,2.8,6.4,6.4,11.9,11.7,16.8,9,8.2,13.5,21.6,1.9,37.3h0ZM279.7,650.7c12.8,9.6,16.2,17,12.2,26.5,4-1.6,8-2.3,10.8-4.6,2.7-2.3,5.6-6.1,5.7-9.3.4-8.5-8.9-18.6-17.4-18.8-8.9-.3-13.5-4-14.8-12.7-.3-1.9-2.9-4.8-4.3-4.8-2.6,0-6.1,1.4-7.4,3.4-1.6,2.4-4.3,5.6-1.2,9.4,1,1.3.9,3.9.5,5.7-2.1,9.6,6.6,28.7,19.2,29.3,2.1,0,5.3,0,6.3-1.4,1.3-1.6,1.8-5,.9-6.9-2.4-5.3-5.6-10.3-12.3-11-.4,0-.7-.7-1.6-1.8,1.1-.9,2.2-1.8,3.6-2.8h0ZM268.7,616.1c-4.4-10.5-5.6-8.6-.4-21.9.4-1,.5-2.7,0-3.5-2.3-3.7-4.6-7.4-7.5-10.5-1.2-1.3-5.2-2-6.2-1.1-3.3,3.1-5.9,7-8.4,10.8-.3.5,1.5,2.5,2.5,3.7,1.5,1.9,4.1,3.6,4.4,5.6.5,3.2-2.1,3.9-5.2,3.9-1.1,0-3.3,3.4-3,3.9,3.9,6,8.3,11.8,12,16.9,4.7-3.1,8.1-5.3,11.8-7.8h0ZM284,625.3c4.1-11,0-20.3-13.5-27.8-4.6,10.7-4,13.4,5,20.7,2.9,2.4,5.8,4.8,8.5,7.1h0Z"/>
  <path class="st0" d="M421.7,678.1c-5.2,3.1-7.2,2.3-9.2-4.4,8.7-6.2,17.2-12.6,26.2-18.3,4.1-2.6,9.1-4,13.8-5.4,11.4-3.4,23-6.6,34.5-9.8,1-.3,2.1,0,3.2,0,4.5,0,9-.6,13.4,0,4,.5,8,2,11.7,3.6.9.4,1.4,3.4,1,4.9-2,7.3-7,12.1-13.6,15.3-6.1,3-12.3,5.8-18.5,8.5-1.6.7-3.6.5-5.3,1-11.1,3.5-23,3.4-34.1,6.3-5.7,1.5-10.8-.4-16.1.8-1.8.4-4.1-1.5-6.9-2.7h0Z"/>
  <path class="st0" d="M207.3,594.4c.8-.5,2.9-2.4,5.2-2.7,1.9-.3,5.1.9,5.8,2.4.7,1.3-.8,4.3-2.1,5.8-1.6,1.8-4.1,2.7-6.4,4,11.4,14.2-5.4,64.3-21.2,71.1.5,5.2,1.1,10.6,1.6,16.1.4,3.2-.6,6.2-3.9,5.9-1.8-.2-4.4-2.9-4.9-4.9-1-3.8-.6-7.9-.9-11.8-5.6.8-10.5,1.5-15.6,2.2.2,2.1,1,4.3.6,6.3-.5,2.3-1.8,6-3.1,6.1-3.7.4-6.5-1.8-5.5-6.2,1.2-4.9.2-8.8-3.7-12.1-2.3-2-4.4-4.2-6.6-6.4-.3-.3-.7-.5-.7-.8-1.7-9.9-6.5-19.8-1-29.9,2.6-4.8,5.4-9.4,8.2-14.1.4-.6.8-1.7,1.3-1.7,5.7-.6,6.5-6.6,10.1-9.6,2.3-1.9,2.1-6.9,2.9-10.6,2.2-9.8,13.3-20.8,24.1-18,5.2,1.3,9.7,5.3,15.7,8.8h0ZM189.7,663c3.2-3.3,7.3-6,9.2-9.8,2.3-4.5,1.6-10.6,4.1-14.9,5.7-10,3.7-20,.2-29.4-2-5.5-6.8-10-10.7-14.7-.8-.9-3.2-1.3-4.6-.8-10.1,3.5-14.6,11.2-13.6,21.1.2,2.4-1.8,6.3-3.9,7.5-9.8,5.4-16.2,13-19.1,23.9-2.1,7.6,1.1,21.3,6.5,24.6,7.7,4.6,20.7,5.1,28.2-3.8-1.8-1.2-3.8-2.1-5.4-3.5-1.6-1.3-3.5-2.9-4-4.7-2.7-11,2.1-20.5,6.8-29.8,1.7-3.5,3.7-3,4.4,0-3,5.6-5.6,11.1-7.5,17-2.9,9-2.2,15,9.4,17.5h0Z"/>
  <path class="st0" d="M125.9,674.6c-6.8,5.5-12.7,10.4-19.2,15.8,0,2,.4,5.4-.2,8.6-.3,1.8-2.2,3.3-3.4,4.9-1.4-1.3-3.2-2.3-4-3.8-1-1.9-1.1-4.2-1.6-6.2-5.6.4-11.1.6-16.5,1.3-1,.1-2.6,2.6-2.4,3.6,1,3.8-.6,6.3-3.9,6.2-1.5,0-3.9-3.7-4-5.7-.2-6.5-4.2-9.5-9.3-11.2-3.8-1.3-4.5-3.9-5.9-7-2.7-5.7-1.3-11.3-1-17,.3-6.6,9.1-16.5,15.6-17.6,5.2-.9,10.1-2.9,15.8-2.5,3.7.2,8.3-2.8,11.3-5.7,6.8-6.7,14.7-8.5,23.6-7.2,7.6,1.1,15,11.5,14.2,19.8-.5,5.9.8,12-3.4,17.4-.6.7,2,4,3.2,6,1.1,1.8,3.3,3.5,3.5,5.3.1,1.4-2.5,4.3-3.5,4.1-2-.3-4-2.1-5.5-3.7-1.5-1.7-2.4-3.9-3.3-5.4h0ZM80.3,687.4c8.4-1.3,16.2-.5,21.2-3.9,9.3-6.2,18.1-13.4,24.3-23.5,3.6-5.9,2.1-10.5,0-15.3-2.6-6.2-10.4-8.3-16.3-4.7-4.1,2.5-8.1,5.2-11.5,8.5-4.8,4.7-10.8,4.3-16.3,4.3-11,0-19.2,5.7-20.8,16.5-.3,2,0,5,1.4,6.3,4.3,4.3,9.2,8.1,13.8,12,1.1-2.9,1.7-5.5,2.9-7.6,5.5-9.3,11.9-17.8,23.5-19.9,1.2-.2,2.5.5,3.8.9-.7.9-1.4,2.4-2.2,2.5-10.6,1.3-16.8,8.5-22.1,16.8-1,1.6-1,3.8-1.8,7.1h0Z"/>
  <path class="st0" d="M602.4,740.3c-1.7-1.7-3.8-3.7-5.8-5.8-.9-.9-1.6-2-2.3-3.1-.9-1.6-2.7-3.6-2.4-4.8,2.5-8.4,3.2-17.6,10.9-23.7,2.9-2.3,4.6-6.1,7.5-8.3,6.6-5,13.4-9.9,20.6-13.8,2-1,6.6,1.3,9,3.3,1.4,1.2,1.3,5,1,7.4-.6,4.1-1.6,8.2-3.1,12-2.7,6.8-4.7,13.6-9.3,19.8-3,4-4.6,9.2-9.5,11.4-4.9,2.2-10.2,3.6-16.6,5.8h0Z"/>
  <path class="st0" d="M865.5,372.4c1.5,3.2-1.5,3.2-4.2,3.1-9.5-.2-18.9-.4-28.4-.6-12.8-.3-25.5-.6-38.3-1-3.2-.1-6.5-.3-9.6-.9-1-.2-1.7-1.7-2.6-2.6,1.2-.5,2.6-1.6,3.5-1.3,11.2,3.3,22.7,1.2,34.1,1.9,7.6.5,15.3,1.1,22.9,1.3,7.2.2,14.4,0,22.6,0h0Z"/>
  <path class="st0" d="M844.1,247.5c5.3,0,10.6,0,15.9,0,5.6,0,11.2-.3,16.8-.3,10.7-.1,21.5,0,32.2-.2,4.8,0,9.5-.7,14.2-.9,1.1,0,2.3.1,3.3.6.4.2.5,2,.2,2.3-1.1.7-2.4,1.5-3.7,1.5-11.7-.2-23.4-.5-35.1-.7-6.5-.1-13,0-19.5,0-7.1,0-14.1,0-21.2,0-1,0-2-.3-3-.5,0-.6,0-1.1,0-1.7h0Z"/>
  <path class="st0" d="M797.3,429.4c2.1-.2,4.3-.8,6.4-.5,8.1.9,16.2,2.1,24.2,3.2,15.6,2.2,31.3,4.5,46.9,6.9,2.1.3,4.1,1.4,6.1,2.2-2.1,4-4.3,0-6.4,0-10.6-.8-21.2-1.6-31.8-3-9.5-1.3-19-3.4-28.5-4.9-3.3-.5-6.8-.3-10.1-.6-2.4-.2-4.8-.9-7.2-1.3,0-.6.2-1.2.3-1.8h0Z"/>
  <path class="st0" d="M878.8,304.8c22.7,4.3,46-.4,68.7,3.8,0,.7,0,1.4,0,2-22.5-.7-45-1.3-67.5-2.1-.6,0-1.2-1.5-1.8-2.3.2-.5.4-.9.6-1.4h0Z"/>
  <path class="st0" d="M841.6,249.4h-57.1v-2.2h57.2c0,.7,0,1.5-.1,2.2h0Z"/>
  <path class="st0" d="M932.8,448.1c-16.5-1.8-33-3.5-49.4-5.3,0-.8.2-1.7.3-2.5,16.6,1.7,33.1,3.3,49.7,5-.2.9-.3,1.9-.5,2.8h0Z"/>
  <path class="st0" d="M222.2,395.9c0,6.2-3.4,8-6.4,7.8-1.9-.2-4.6-3.7-4.9-6-.6-4.2,3.3-5.8,6.6-5.4,2,.2,3.8,2.9,4.7,3.7h0Z"/>
  <path class="st0" d="M738,366.2c6.3,0,12.6,0,18.8,0,1.9,0,3.7-.6,5.6-.6,1.2,0,2.4.3,3.5.8.3.2.6,1.7.4,1.9-1,.7-2.1,1.5-3.2,1.5-7,.1-14,.1-21.1,0-1.4,0-2.9-.8-4.3-1.2.1-.8.2-1.6.3-2.4h0Z"/>
  <path class="st0" d="M216.4,553.4c-2.6-3.4-4.7-5-5.2-7-1-4.1,2.8-5,5.5-5.2,1.3,0,4.1,2.7,3.9,4-.2,2.2-2.1,4.3-4.2,8.1Z"/>
  <path class="st0" d="M254.1,469.7c3.4-2.8,5.9-5.7,6.6-5.3,2.1,1.1,4,3.4,5,5.7.3.7-2.7,4-4.1,4-2,0-3.9-2.1-7.5-4.4h0Z"/>
  <path class="st0" d="M286.5,571.8c-2,1.5-3.9,3.8-6,4.1-1.3.2-4.2-2.9-4.2-4.6s2.3-5,3.9-5.1c2-.2,4.1,2.1,6.2,3.3,0,.8,0,1.5,0,2.3h0Z"/>
  <path class="st0" d="M198.3,454.4c-2.8,1.9-4.5,4-6.2,4-1.5,0-3-2.2-4.5-3.5,1.7-1.7,3.3-3.9,5.3-5,.6-.3,2.8,2.3,5.4,4.5h0Z"/>
  <path class="st0" d="M143.3,544.5c2.2,1.1,4.6,1.9,6.5,3.4.5.4-.2,3.3-1.1,4.1-1.2.9-4.2,1.5-4.6.9-1.4-1.7-1.9-4.2-2.7-6.3.7-.7,1.3-1.3,2-2h0Z"/>
  <path class="st0" d="M245.7,672.7c2.8,2.4,4.7,4,6.5,5.6-2,1.1-3.9,3-5.9,3.1-1.4,0-3.3-2.2-4-3.9-.3-.8,1.8-2.5,3.4-4.7h0Z"/>
  <path class="st0" d="M178.6,415c1.7-2.1,3-3.5,4.2-5,1.2,1.8,3.1,3.4,3.4,5.3.2,1-2.3,2.8-3.9,3.4-.6.2-2.1-2-3.7-3.7h0Z"/>
  <path class="st0" d="M185.8,508.7c-1.4,2.5-2.7,5.1-4.1,7.6-1.3-1.2-2.6-2.3-3.8-3.5,2-1.9,4-3.8,6-5.6.7.5,1.3,1,2,1.5h0Z"/>
  <path class="st0" d="M795.8,429c-.6,1-1.2,2.6-1.6,2.5-4-.5-8.1-1.4-12.1-2.1.2-.9.3-1.9.5-2.8,4.2.8,8.3,1.5,13.2,2.4h0Z"/>
  <path class="st0" d="M255.8,526.4c-1.5-2.3-3-3.7-2.7-4.4.8-1.7,2.3-3.1,3.5-4.6.9.8,2.5,1.8,2.4,2.4-.5,1.9-1.7,3.6-3.2,6.6h0Z"/>
  <path class="st0" d="M259.3,403.6c-4.2-3-4.5-5.4-1.5-7.5.9-.6,2.8.4,4.2.6-.8,2.2-1.7,4.3-2.7,6.9h0Z"/>
  <path class="st0" d="M938.9,446c2.4-.9,4.7-2,7.2-2.7.7-.2,2.4.9,2.4,1.3,0,1-.7,2.8-1.3,2.8-2.7.3-5.4.1-8.1.1,0-.5,0-1.1,0-1.6h0Z"/>
  <path class="st0" d="M282,511.2c-1.3,1.6-2.2,2.7-3.1,3.9-.8-1.2-2.3-2.4-2.3-3.6,0-1.2,1.5-2.5,2.3-3.7.9,1,1.8,2,3.1,3.4h0Z"/>
  <path class="st0" d="M630.2,337.4c4.6,1.9,8.7,3.8,12.8,5.4,7.5,2.9,15,6,22.7,8.5,8.5,2.8,17.1,5,25.6,7.6,1.2.4,2,2,2.9,3.1-1.4,0-2.8.4-4.1,0-7.3-2.1-14.7-4.3-21.9-6.7-12.9-4.4-25.7-9-38.4-13.6-.9-.3-1.6-1.8-1.8-2.9,0-.4,1.5-1.1,2.2-1.5h0Z"/>
  <path class="st0" d="M634.4,190.8c-1.6,2.3-2.9,4.9-4.9,6.8-4.4,4.4-10.1,7.8-13.6,12.7-4.5,6.3-7.3,13.7-10.8,20.6-1.3,2.6-3,5.3-3.2,8.1-.2,2.1,1.9,4.3,2.6,6.6.3,1,0,2.2,0,3.3-1.1-.2-3-.2-3.2-.7-.9-2.7-1.7-5.5-1.8-8.2-.5-11,6.2-19.3,12-27.3,5.5-7.6,12.9-13.9,19.5-20.6.7-.8,2.2-.7,3.4-1.1h-.1c0-.1,0-.1,0-.1Z"/>
  <path class="st0" d="M524.3,307.8c-1.9-7-4.4-12.5-4.8-18-.8-11.7-.6-23.5-.6-35.3,0-1.2,1.8-2.4,2.7-3.7.3,1.6,1.4,3.3.9,4.6-2.3,7.3-2.2,14.6-1.4,22.2,1,8.9,1.7,17.6,4.9,26,.2.6-.7,1.7-1.8,4.2h0Z"/>
  <path class="st0" d="M634.5,190.9c2.5-2.6,4.8-5.5,7.5-7.8,7-5.7,15.2-8.7,25.2-10.6-.9,2.6-1.5,4.2-2,5.8-.3-.5-.5-.9-.8-1.4-3.2.7-6.9.7-9.7,2.2-5.7,3.2-10.8,7.2-16.2,10.8-1.1.7-2.8.6-4.1.9h.1c0,.1,0,.1,0,.1Z"/>
  <path class="st0" d="M565.6,321.6h-32v-2h32v2h0Z"/>
  <path class="st0" d="M572.6,318.8c8.2-1.2,16.4-2.3,24.7-3.5,0,.6.2,1.2.3,1.8-7.9,3-16.2,3.8-24.8,3.2,0-.5-.1-1-.2-1.5h0Z"/>
  <path class="st0" d="M680.8,337.2c1-.6,1.6-1.3,2.1-1.2,2.4.7,4.8,1.6,7,2.7.3.1,0,1.5,0,2.2-2.1-.5-4.2-.8-6.3-1.5-.9-.3-1.7-1.3-2.8-2.2h0Z"/>
  <path class="st0" d="M574,631.5c1.8,0,3.5.1,5.3.1,8.6,0,17.2.7,25.8-.2,8.9-.9,17.6-3.2,26.4-4.8.6-.1,1.3.2,2.3,1.7-1.9.8-3.8,1.9-5.7,2.2-10.8,2-21.6,4.2-32.5,5.5-5.7.7-11.7-.2-17.5-1-1.4-.2-2.6-2.4-3.9-3.7,0,0-.1,0-.1,0h0Z"/>
  <path class="st0" d="M598.4,648.3c12.1,7.7,21.4-2.5,32.2-4-2.9,4.2-7.8,6.6-14.4,7.6-3.4.5-6.7,1.6-9.9,2.7-4.1,1.3-8.4-1.6-7.9-6.3h0Z"/>
  <path class="st0" d="M634.8,626.1c1.9-.7,3.9-1.2,5.7-2.1,4.6-2.3,10-3.5,12.1-9.3.2-.6,2-.7,3.1-1,.2,1.2.8,3.1.4,3.3-6.3,3.9-12.8,7.7-19.2,11.4-.3.2-1.2-.5-1.8-.8,0-.5-.2-1-.3-1.5h0Z"/>
  <path class="st0" d="M562.9,631.3c-.2-1.3-.3-2.5-.5-3.8,1.3,0,2.8-.6,3.8-.2,2.7,1.2,5.1,2.8,7.7,4.2,0,0,.1,0,.2,0-3.8,0-7.6-.2-11.4-.2h.1c0,0,0,0,0,0Z"/>
  <path class="st0" d="M467,424.8c-9.9-6-17.5-15-29.7-10.7-.3-.5-.6-1-.9-1.5,1.1-.9,2.2-2.6,3.3-2.6,3.2,0,6.7.1,9.6,1.2,6.8,2.5,13.9,4.8,17.8,13.7h0Z"/>
  <path class="st0" d="M440.1,592c-1,1.2-1.8,2.8-3.1,3.4-3.9,1.7-7.9,3.3-12,4.4-3.9,1-5.3-.9-4.2-5.5,5.6,2.8,10.6.4,15.6-2,1-.5,2.5,0,3.8,0l-.2-.2h0Z"/>
  <path class="st0" d="M481.2,441.9c-3.3-3.3-6.8-6.5-10-10-1.6-1.8-2.8-4-3.2-6.7,6.4,4.1,11.2,9.3,13.1,16.8h.1Z"/>
  <path class="st0" d="M451.9,615.1c4.7,5.2,9.3-2.1,14-.6-2.3,3.1-11.8,7-14.6,5.6-1-.5-1-3.2-1.4-4.8.7,0,1.4,0,2-.1Z"/>
  <path class="st0" d="M481.1,442c4.4,1.3,5.6,4.7,6.9,9-5.1-1.3-7.8-5.4-6.8-9.1h-.1Z"/>
  <path class="st0" d="M526.5,91.9c-1,.4-1.9,1.1-2.9,1.2-14.9,1.5-29.9,2.8-44.8,4.3-8.9.9-17.8,2-26.7,2.7-4,.3-8.1,0-12.1-.3-1.1,0-2.1-1.6-3.1-2.4.8-.9,1.4-2.3,2.4-2.7,1.9-.9,4-1.2,7.3-2.2-1.2,2.4-1.9,3.7-3.1,6.1,27.6-2.9,54.7-5.8,81.7-8.7.5.7.9,1.3,1.4,2h0Z"/>
  <path class="st0" d="M495.6,90.5c-1.4.4-2.7,1.2-4.1,1.2-13.2-.2-26.4-.5-39.5-.9-7.5-.2-14.9-.5-22.4-1.3-1.7-.2-3.2-2.1-4.9-3.3,1.7-.3,3.5-1,5.1-.8,11.5,1.1,23,2.7,34.5,3.3,8.5.4,17.1-.5,25.7-.7,1.8,0,3.6.5,5.4.8,0,.6,0,1.1.1,1.7h0Z"/>
  <path class="st0" d="M496.8,88.8c3.5-1.2,6.9-2.5,10.4-3.4.7-.2,2.1.7,2.5,1.4.3.7-.3,2.7-.6,2.7-4,.4-7.9.5-11.9.6-.1,0-.3-.9-.3-1.2h0Z"/>
  <path class="st0" d="M506,140.2c-.6,5.3-4.4,6.4-13.3,3.8-4.2,7.1-7.9,7.4-16.9,1.7-1.6,1.7-2.9,4.2-4.8,5-1.9.8-4.5-.1-6.8-.3.5-3.4,1.1-6.9,1.6-10.3,1,.5,2.7.7,2.9,1.4.4,1.2-.1,2.7-.5,5.9,3.1-3.4,5.1-5.6,6.6-7.2,4.1,2.1,7.7,3.8,12.5,6.2-.5-2.9-.6-3.5-.7-4.2,0-1.5-.1-3-.1-4.5,1.4.3,2.7.6,4,.9,3.4.9,6.7,1.7,10.4,2.7-.8-3-1.2-4.8-1.7-6.6,2,.2,4,.5,6.1.7,3.2.2,6.5.4,9.8.6l.3-1.6c-1.2-1.6-2.4-3.1-4.4-5.8,4,0,6.7.2,9.3,0,1.1-.1,2.1-1.2,3.1-1.8-.7-.9-1.5-1.8-2.2-2.6-1-1-2-2-3.1-3,1.6-.2,3.4-1.1,4.6-.6,2.1,1,5.4,3,5.3,4.4-.2,2.5-2.3,4.9-4,7.1-1.4,1.8-3.4,3.1-4.8,4.9-3.4,4.6-8,3.3-13,3.1h0Z"/>
</svg>