<?xml version="1.0" encoding="UTF-8"?>
<svg id="Layer_1" data-name="Layer 1" xmlns="http://www.w3.org/2000/svg" viewBox="0 0 251.91 115.74">
  <defs>
    <style>
      .cls-1 {
        fill: #fff;
      }
    </style>
  </defs>
  <path class="cls-1" d="m153.17,63.56c-1.76.07-2.53,1.3-3.32,2.65-.24.41-1.12.44-1.79.51-.2.53-.31,1.23-1.31,1.12-.15-.02-.37.44-.52.7-.5.9-1.2,1.36-2.29,1.44-.99.08-1.98.39-2.93.74-.29.11-.41.68-.66,1.13-.3-.14-.68-.32-1.06-.5.06.1.12.2.18.29-.53.37-1.02.87-1.61,1.1-.91.35-1.94.41-2.83.79-.48.21-.8.82-1.17,1.26-.42.49-.79,1.03-1.26,1.47-.41.39-.97.53-.71,1.38.09.3-.72,1.21-1.21,1.29-1.24.19-1.56.93-1.6,1.94-.06,1.61-.36,1.88-1.99,1.52-.28.63-.43,1.41-.88,1.89-1.07,1.13-2.29,2.11-3.44,3.17-.1.09-.06.32-.16.42-.62.67-.71,1.94-2.07,1.77-.15-.02-.42.27-.49.47-.63,1.74-2.05,2.3-3.69,2.62-.64.13-1.39.35-1.83.79-1.15,1.15-2.64,1.47-4.07,1.97-1.34.46-2.03.05-2.5-1.3-.17-.48-.65-.83-.95-1.27-.25-.37-.69-.83-.62-1.17.37-1.74.42-3.55,1.51-5.14.84-1.23,1.32-2.71,2.06-4.02.23-.41.79-.64,1.28-1.02-.19-1.02.3-1.84,1.44-2.3.32-.13.59-.42.83-.68.72-.76,1.35-2.11,2.14-2.21,1.35-.16,1.31-1,1.62-1.78.04-.11.06-.25.14-.32.78-.75,1.52-1.55,2.36-2.21.47-.36,1.32-.23,1.01-1.29-.16-.55.16-1.23.06-1.82-.22-1.32-.64-2.61.49-3.76.27-.28.37-.72.39-1.19-.65,1.08-2.46,1.21-2.28,2.97.04.37-.36.82-.65,1.17-.59.71-1.36,1.31-1.82,2.09-.36.62-.34,1.45-.51,2.18-.34,1.37-1.59,2.29-3,2.21-.15,0-.32-.04-.46-.11-2.38-1.23-2.79-3.72-.95-5.73.8-.87,1.73-1.65,2.37-2.62.78-1.18,1.27-2.55,1.95-3.8.31-.56.95-.99,1.12-1.58.26-.88.24-1.83.35-2.76.11-.89.3-1.73,1.28-2.1.18-.07.42-.18.47-.33.62-1.82,1.21-3.64,1.79-5.47.06-.18.02-.38.05-.98-.5.6-.81.94-1.06,1.31-.52.77-.96,1.61-1.56,2.3-.21.24-.81.13-1.38.19-.31.95-.55,2.22-2.11,2.33-.16.01-.3.51-.41.81-.6,1.62-1.56,2.88-3.08,3.82-.59.37-.8,1.33-1.23,2-.24.36-.58.65-.84,1-.43.57-.88,1.14-1.23,1.76-.32.58-.51,1.22-.79,1.83-.2.44-.45.86-.8,1.22-.54,1.61-1.09,3.22-1.63,4.82.03,0,.06,0,.09,0-.07.37-.06.78-.23,1.09-.3.57-.64,1.15-1.08,1.61-.68.7-1.4.55-1.85-.28-.09-.17-.11-.5-.22-.52-1.62-.4-.69-1.17-.36-1.96.59-1.41.95-2.92,1.59-4.31.41-.89.95-1.63.71-2.74-.08-.38.67-.92,1.02-1.4.2-.27.41-.55.53-.85.22-.56.38-1.14.57-1.71.1.03.21.06.31.08-.19-.53-.39-1.05-.62-1.7-.85,2.47-2.37,4.3-4.08,6.14.28,1.09-.39,1.64-1.61,1.83.69,1.66-.55,2.24-1.54,2.96.21.9-.1,1.53-.75,2.22-.61.65-1.09,1.55-1.29,2.42-.27,1.14-1.04,1.77-1.94,1.79-.69.01-1.46-.67-2.08-1.18-.18-.15,0-.81.11-1.21.21-.82.48-1.62.73-2.42-.16-.05-.32-.1-.48-.15-.16.54-.26,1.11-.51,1.61-.61,1.24-1.35,2.42-1.92,3.67-.37.81-.92,1.32-1.71.95-.69-.32-1.33-.91-1.78-1.53-.18-.25.11-.98.37-1.37.63-.95,1.43-1.75,1.22-3.08-.07-.43.44-.95.68-1.43-.12-.06-.24-.12-.37-.18-.27.54-.5,1.09-.8,1.6-.25.42-.51,1.04-.88,1.14-.79.21-1.02.49-1.13,1.35-.18,1.44-1.33,2.32-2.3,2.1-1.63-.38-2.65-1.85-2.37-3.34.15-.81.22-1.63.36-2.76-.46.39-.71.5-.81.69-.66,1.25-1.32,2.5-1.9,3.78-.6,1.31-2.33,2.12-3.63,1.62-.53-.21-.79-1.67-.43-2.6.13-.33.28-.71.55-.91,1.46-1.13,1.71-3,2.76-4.39.37-.49.46-1.2.71-1.9-1.17.36-2.13.81-3.13.91-1.06.1-1.95.17-2.62,1.18-.19.28-.98.16-1.7.26-.26.49-.51,1.46-1.4,1.04-1.17,1.12-2.21,2.11-3.24,3.11-.87.84-1.73,1.68-2.59,2.52-.08.08-.09.25-.17.3-1.41.81-1.68,2.39-2.46,3.62-.5.8-1.42,1.06-2.33.52-.74-.44-1.03-1.04-.57-1.89.4-.72.73-1.48.99-2.01-.23-1.1-.5-2.07-.6-3.05-.1-.94-.02-1.89,0-2.84.02-.79.12-1.59.1-2.38-.01-.62-.15-1.23-.23-1.84-.01-.08-.04-.19,0-.24.87-1.08.22-2.44.68-3.63.31-.81.39-1.79.29-2.66-.18-1.49.58-2.66,1.03-3.94.16-.44.53-.89.49-1.3-.07-.74-.31-1.42.74-1.6.06,0,.12-.1.14-.17.56-1.89,1.07-3.79,1.71-5.65.12-.35.76-.52,1.2-.8,0-.54-.25-1.47.06-2.14.55-1.21.83-2.61,2.17-3.42.41-.25.6-1.23.51-1.81-.1-.62.09-.83.42-1.28.6-.82.99-1.83,1.33-2.81.41-1.15.5-2.45,1.08-3.49.38-.67,1.36-1.34,2.12-1.4,1.4-.11,2.01.63,2.39,1.92.25.86.66,1.67,1.02,2.5.09.22.38.49.32.61-.54,1.16.64,2.51-.42,3.64-.16.18.05.72.11,1.09.14.88.54,1.81-.65,2.35-.16.07-.19.51-.21.78-.05.9.34,1.82-.72,2.57-.43.3-.32,1.37-.44,2.09-.03.15.08.37,0,.47-.98,1.34-.39,3.04-1.02,4.44-.29.66-.75,1.24-1.15,1.89.8.63.65,1.59-.31,2.31,0,.79.23,1.55-.05,1.91-.48.61-.33,1.58-1.35,1.96-.35.13-.25,1.43-.34,2.07-.44,1.01-.88,1.97-1.29,2.94-.41.97-.8,1.95-1.22,2.99.3,0,.64.06.67,0,.76-1.86,2.81-1.68,4.19-2.47,1.24-.7,2.73-1.21,4.11-1.79.2-.09.47-.03.7-.04.49-.02.97-.05,1.46-.23.95.55,1.86.48,2.6-.5.83-1.1,1.56-2.27,2.32-3.41.53-.8,1.05-1.61,1.57-2.42.08-.13.21-.29.19-.42-.21-1.92,1.47-2.98,2.2-4.44.46-.94.65-1.83.85-2.77.33-1.53,1.85-2.33,3.66-1.85.98.26,1.75,2.01,1.35,3.17-.07.2-.29.35-.46.5-.51.47-1.37.72-.98,1.71.02.05-.03.18-.07.2-1.74.9-1.27,3.09-2.48,4.31-.09.09-.03.39.03.57.4,1.02.01,1.67-1,2.11.66.93.12,1.47-.66,1.93.39.73.66,1.39-.18,2.02-.21.16-.12.72-.19,1.19.39-.08.65-.13.94-.19-.28-.86-.23-1.52.78-1.78.22-.05.45-.33.55-.55.34-.83.5-1.76.98-2.49.34-.51,1.09-.76,1.42-.97.76-1.29,1.43-2.43,2.1-3.56,0,0,.43-1.56.43-1.56.05-.21.03-.55.16-.61.7-.36,1.12-.8.86-1.66-.04-.14.09-.41.23-.51,1.23-.91,1.35-2.37,1.6-3.64.22-1.13,1.08-1.37,1.73-1.5.69-.13,1.85.14,2.19.65.48.72.34,1.72-.22,2.67-.89,1.51-2.12,2.95-1.95,4.91,1.25-.44,1.4-.64,1.51-1.92,0-.11.05-.27.13-.32,1.13-.63,1.16-1.85,1.61-2.86.31-.7.9-1.35,1.01-2.07.18-1.18,1.08-1.87,1.85-1.83.74.03,1.49.95,2.14,1.59.17.17.07.78-.1,1.08-1.04,1.91-1.43,4.17-3.23,5.69-.33.28-.11,1.2-.14,1.83.09.05.19.1.28.16.6-.71,1.21-1.42,1.91-2.25-.06-.12-.69-.56.31-.82,1.62-.43,1.7-.6,1.36-2.14-.02-.11.02-.23.05-.43,1.19.04,1.39-.84,1.64-1.75.42-1.53,1.8-2.31,3.36-2,1.09.22,1.97,1.61,1.57,2.66-.22.59-.69,1.08-1.04,1.62-.29.46-.56.92-.95,1.55,1.03-.12,1.55-.41,1.81-1.29.15-.51.68-.91,1.05-1.35.1-.12.35-.21.34-.29-.2-1.3,1.03-1.5,1.69-1.91.99-.61,1.48-1.56,2.22-2.32.58-.61,1.54-.86,2.34-1.26.13-.07.34-.03.44-.12,1.21-1.17,2.37-1.15,3.53.08.13.14.43.12.58.16-.3,3.21-1.12,6.21-3.06,8.84.11.07.21.13.32.2.18-.02.43.02.52-.08.76-.8,1.49-1.63,2.23-2.46.05-.06.16-.15.15-.18-.79-1.47.53-1.15,1.19-1.47.55-.27,1.01-.73,1.49-1.12.61-.49,1.21-1,1.99-1.66.15-1.81.69-2.24,2.8-2.16.49.02,1.14-.24,1.48-.6.96-1.02,2.2-1.01,3.2-.56,1.48.67,2.83-.29,4.26.06.88.21.94,0,1.1,1.03.35-.2.69-.38,1.12-.62.17.3.53.65.46.86-.37,1.08.13,1.84.76,2.61.16.19.27.54.22.77-.22.92-.54,1.81-.78,2.73-.37,1.41-1.63,2.6-1.02,4.25.04.1.03.25-.03.33-1,1.58-2.03,3.14-3.02,4.73-.33.53-.61,1.21-.9,1.63-.85,1.23-.55,2.96-1.95,3.94-.62.44-.93,1.32-1.23,2.08.88-1.65,2.8-.32,3.83-1.47.12-1.86,1.5-3.16,3.4-3.06,1.62.09,2.54-.54,2.96-2,.47-1.64,1.22-2.17,2.96-2.36.46-.05.91-.48,1.29-.82.28-.25.45-.63.71-1-.23-.33-.5-.73-.8-1.16-.08.21-.1.44-.22.53-1.2.9-2.7,1.24-4.03.92-.88-.21-1.78-1.26-2.2-2.15-.27-.58.16-1.48.98-2.12,1.15-.9,1.93-2.26,2.93-3.36.38-.41.92-.71,1.44-.95.84-.4,1.72-1.99,1.53-3.15.67.19,1.25.36,1.92.56.07-.83,1.35-1.14.92-2.25-.02-.04.51-.44.71-.39.36.09.67.39,1.09.66.78-1.43.7-3.93,3.64-2.88-.51-1.16-.69-1.97.83-1.63.14.03.39-.22.54-.39.88-1.03,2.18-1.64,2.75-3,.37-.88,1.03-1.61,2.25-1.26.2.06.53-.32.81-.51.51.34,1.09.66,1.59,1.07.72.6,1.05,1.24.6,2.28-.64,1.47-1.04,3.06-1.54,4.59.12.09.25.18.37.26.68-.44,1.31-.99,2.05-1.3,1.06-.46,2.2-.72,3.28-1.12.82-.3,1.62-.68,2.43-1.03.35-.16.67-.44,1.04-.51,1.88-.37,2.03-.67,2.53-2.44.26-.92,1.08-1.7,1.69-2.51.46-.62.99-1.2,1.48-1.81.07-.09.18-.25.15-.31-.5-.9.27-1.29.69-1.83.13-.17.29-.55.21-.63-.86-.98-.19-1.36.56-1.93.36-.27.47-1.01.49-1.54.03-.95-.31-1.98,1.17-2.15.17-.02.28-.58.43-.88.42-.86.78-1.76,1.3-2.55.51-.78,1.35-.87,2.1-.37.61.41,1.1.98,1.63,1.5.07.07.14.29.1.32-.99.99.34,2.22-.34,3.24-.07.11-.05.31-.01.45.33,1.19-.08,2.02-1.24,2.48.28.51.54.99.85,1.54-1.16.1-1.32.73-1.25,1.63.03.41-.27.83-.41,1.26-.09.29-.21.6-.22.9-.03.71-.01,1.41-.01,2.24.1-.06.51-.17.65-.44.39-.7.92-.82,1.68-.8,1.04.04,2.15.39,3.01-.76.25-.34,1.26-.05,1.89-.17.68-.13,1.31-.45,1.98-.64.71-.2,1.43-.33,2.15-.51.83-.22,1.64-.49,2.47-.68.5-.11,1.03-.12,1.84-.21,1.07-1.15,1.38-1.3,2.55-.94.76-.07,1.52-.14,2.29-.19.15-.01.32.09.46.05.97-.27,1.93-.59,2.9-.84.65-.17,1.32-.29,1.99-.4,2.66-.46,5.32-.89,7.98-1.36,2.95-.52,5.9-1.06,8.85-1.57.35-.06.71,0,1.07,0,.02.16.04.31.06.47-.91.2-1.83.4-2.74.61-1.08.24-2.15.52-3.23.74-2.18.42-4.38.77-6.55,1.24-.84.18-1.62.61-2.45.87-.47.15-.99.16-1.48.27-.48.11-.94.27-1.42.38-.75.17-1.51.27-2.25.48-.77.22-1.49.57-2.26.79-.62.18-1.29.2-1.9.42-.58.2-1.11.56-1.77.91-1.12-.54-10.22,2.08-10.87,2.98-.68.05-1.23-.03-1.67.15-1.09.46-2.13,1.05-3.2,1.56-.22.11-.51.13-.76.11-.42-.04-.95-.35-1.22-.19-.77.45-1.86.97-2.06,1.67-.39,1.39-1.59,2.55-1.19,4.22.23.95-.28,1.76-1.41,2.06.46.97.22,1.67-.7,2.31-.39.27-.43,1.04-.65,1.57-.25.6-.52,1.2-.88,1.72-.14.96-.19,1.95-.45,2.87-.09.32-.69.49-1.04.75-.28.2-.76.43-.76.65-.02,2.13-1.5,3.51-2.53,5.11-.08.12-.16.24-.24.36.09.1.19.2.28.3.52-.47,1.09-.89,1.55-1.41.66-.74,1.19-1.6,1.88-2.3.44-.44,1.08-.69,1.78-1.13-.14-1.68,1.58-2.08,2.66-3.04.64-.56,1.51-1.22,1.62-1.93.18-1.24.77-.9,1.58-.68,0-.38-.1-.76.03-1.04.14-.33.56-.86.72-.81.98.27,1.54-.42,1.82-1,.45-.91,1.18-1.1,2-1.21.77-.11,1.3-.35,1.52-1.2.11-.41.5-.88.89-1.06,1.3-.61,2.64-1.1,3.97-1.63.07-.03.19-.01.22-.06,1.26-1.7,3.05-.6,4.58-.81.35-.05.99.75,1.21,1.28.39.92.56,1.94.84,2.92.09.32.23.63.48,1.03.04-1.49.95-2.05,2.15-2.49.55-.2.85-1.03,1.39-1.34.52-.3,1.34-.61,1.79-.4,1.01.49,1.87,1.29,2.79,1.96-.05.13-.11.26-.16.38.5-.08,1-.15,1.49-.23.49-2.58,2.52-3.89,4.79-3.02.06-.11.11-.24.2-.34,1.03-1.06,2.55-1.23,3.72-2.13.86-.66,3.63,1.33,3.69,2.82.02.58.21,1.17.17,1.75-.05.65-.04,1.58-.45,1.89-1.17.89-.9,2.26-1.46,3.31-.29.55-.91.92-1.3,1.43-.23.3-.49.78-.4,1.07.43,1.44,0,1.19-.87,2.33-.73.96-1.82,1.88-2.14,3.09-.18.7-.83,1.36-.45,2.24.08.19-.39.64-.63.95-.28.37-.58.72-.88,1.06-.46.51-.94,1.01-1.6,1.72.03,1,.79,2.59-1.25,3.3-.17.06-.28.66-.22.96.19.9-.05,1.53-.83,2.02-.21.13-.4.41-.44.65-.19,1.16-.86,1.75-1.98,2.06-1.34.37-2.2.08-2.87-1.19-1.26-2.36-1.14-3.53.68-5.4.32-.33.89-.44,1.47-.71-.1-.75-.09-1.61,1.02-1.98.16-.05.23-.61.21-.93-.03-.72.16-1.17.91-1.45,1.07-.4,1.4-1.35,1.52-2.43.04-.39.25-.81.51-1.11.66-.76,1.4-1.45,2.07-2.19.1-.11-.01-.4,0-.6.05-.52-.05-1.15.2-1.53.74-1.11,1.7-2.07,2.43-3.18.71-1.09,1.26-2.29,1.81-3.48.08-.17-.24-.52-.38-.79-.58.76-.97,1.69-1.67,2.08-.69.38-1.69.22-2.81.32.1-.16-.03-.04-.04.08-.14,1.21-.71,1.51-2,1.66-1.1.13-2.12,1.27-3.1,2.06-1.33,1.07-2.57,2.25-3.89,3.32-.31.25-.8.29-1.32.47.36,1.8-.67,2.35-2.01,2.22-.15.57-.15,1.08-.4,1.38-.57.7-1.3,1.26-1.9,1.94-.56.64-1.03,1.37-1.54,2.05-.99,1.33-1.97,2.66-2.96,3.98-.09-.05-.18-.11-.28-.16.07.4.15.8.24,1.32-.94-.09-1.59-.04-2.1.88-.23.41-1.42.53-2.08.38-.59-.13-1.11-.78-1.55-1.29-.14-.16,0-.7.17-.95.48-.69,1.06-1.32,1.45-2.17-.82.34-1.65.69-2.54,1.06,0,.25.11.61-.02.81-.26.38-.61.87-1.01.96-1.61.37-1.85,3.28-4.21,2.12-.31,1.27-1.26,1.63-2.28,2.17-1.79.95-3.35.39-4.98-.12-.42-.13-.86-.61-1.02-1.03-.58-1.58-.32-3.12.25-4.69.34-.93.39-1.97.58-2.99-.29.06-.65.13-1.04.2.31.87-.11,1.38-.58,2.09-.85,1.3-2.53,1.7-3.11,3.33-.26.74-1.49,1.12-2.23,1.72-.36.3-.73.7-.86,1.13-.34,1.17-1.21,1.25-2.19,1.3-.96.05-1.59-.34-1.99-1.18-.07-.14-.16-.27-.14-.25-1.86.72-3.7,1.43-5.54,2.14-.18.07-.46.08-.54.21-.84,1.36-2.38,1.31-3.63,1.84-.36.15-.76.18-1.12.31-.84.32-1.94-.05-2.55,1-.12.21-.7.19-1.07.22-1.11.07-2.21.12-3.32.17-.35.01-.71-.02-1.07-.04-.88-.05-1.77-.02-2.64-.17-.69-.12-1.43-.34-1.99-.73-.58-.41-1.45-1.2-1.35-1.64.23-1.03.98-1.94,1.49-2.91.31-.58.46-1.3.9-1.74.35-.35,1.02-.38,1.85-.65.4-.42,1.12-1.16,1.97-2.05-.31-1.06.08-1.79,1.61-2.05,1.05-.18.71-1.43.96-2.21.85-.07,1.68.04,1.98-1.19.13-.54.96-1.16,1.57-1.3,1.6-.35,2.2-1.77,3.26-2.68.52-.45.91-1.12,1.5-1.43,1.42-.74,2.39-1.78,2.97-3.32-1.75-.22-3.09.63-3.85,1.72-.92,1.31-.89,3.35-3.18,3.39-.17,0-.32.33-.5.49-.38.35-.72.77-1.16,1-1,.53-1.75,1.15-1.75,2.43,0,.3-.54.59-.83.88Zm-1.91,10.09c.88-1.72,1.34-1.85,3.36-1.24.53-.39,1.11-1.08,1.41-.98.87.3,1.24-.23,1.75-.64.24-.2.5-.39.77-.55,1.28-.75,2.98-.29,4.12-1.46.42-.43.83-.9,1.32-1.24.96-.68,2.06-1.12,2.61-2.34.24-.53.97-1.08,1.55-1.17,1.17-.18,1.96-.42,1.82-1.86-.03-.28.52-.61.81-.92-.08-.63.1-1.21.26-1.79.31-1.16.61-2.33.95-3.68.27.03.76.09,1.56.19-.46-.53-.72-.82-.98-1.11l-.27-.27c.44-.31,1.17-.53,1.28-.94.4-1.37.56-2.8.88-4.2.16-.7.18-1.47,1.22-1.71.88-.2,1.1-1.62.4-2.4.45-.2.86-.39,1.28-.57-.15-.97.19-2.24-1.36-2.44-.42,1.09-2.76,1.98-3.68,1.56-.31.27-.6.7-.78.65-1.3-.32-2.48.38-3.24,1.02-1.14.96-1.81,2.49-2.78,3.93,1.09,0,2.09.19,2.98-.04,1.4-.36,3.23.85,2.92,2.24-.23,1.03-.68,2.07-1.28,2.93-.83,1.2-1.73,2.48-2.9,3.3-1.02.71-1.96,1.43-2.84,2.32-1.03,1.05-2.27,1.92-3.51,2.73-1.31.86-1.21,3.17-3.33,3.17-.05,0-.08.21-.15.28-.35.34-.71.67-1.08.99-.21.18-.43.35-.64.53-.9.73-1.71,1.64-2.73,2.11-.57.26-1,.45-1.31.97-.16.27-.37.5-.57.74-.24.29-.73.64-.68.86.08.36.51.65.85,1.03Zm-36.15,6.37c.59,1.58-.66,2.3-1.41,3.15-.87,1-2.05,1.73-1.94,3.29.02.21-.19.43-.28.65-.37.95-.81,1.89-1.07,2.87-.08.31.19.84.46,1.1.59.57,2.68.33,3.32-.44,1.2-1.46,2.6-2.56,4.38-3.22.3-.11.48-.58.71-.89.22-.28.39-.61.65-.83,1.18-1,2.44-1.9,3.56-2.97.71-.67,1.23-1.56,1.81-2.36.11-.15.15-.37.16-.56.07-1.24.81-1.47,1.86-1.23-.11-.54.98-2.84,1.38-2.79,1.32.18,1.19-.76,1.4-1.54.1-.38.43-.72.72-1.02.67-.67,1.38-1.3.65-2.63-.62.6-1.17,1.16-1.75,1.69-.8.72-1.52,1.69-2.46,2.02-.87.3-1.49.76-2.18,1.26-.31.23-1.11.17-1.45-.08-1.2-.89-2.19-.74-3.08.55-.24.35-.74.54-1.13.78-.69.41-1.41.79-2.1,1.2-.11.07-.21.27-.2.41.04,1.25-.79,1.5-1.99,1.56Zm10.16-10.53c1.77-1.31,3.14-3.21,5.52-3.91.01-.03.08-.17.13-.33.44-1.42.43-3.11,2.23-3.73.1-.03.16-.22.2-.35.47-1.57.86-3.16,1.44-4.68.19-.51.87-.84,1.34-1.23.2-.16.45-.26.82-.46-2.25-1.67-.94-3.43-.27-5.27-.82.22-1.52.5-2.16.87-.42.24-.76.61-1.14.93-1.02.86-2.07,1.7-3.06,2.58-.38.34-.71.77-.98,1.21-.41.68-.75,1.41-1.12,2.12-.53.99-1.03,1.99-1.6,2.95-.54.92-1.16,1.79-1.75,2.7.14.1.45.31.76.52-.06.12-.12.24-.18.36-.5.07-1,.14-1.73.24,1.17.57,1.25,1.25.62,2.1-.18.24-.27.59-.28.89-.04.82-.01,1.64-.01,2.48h1.22Zm-62.77,2.24c.5-.94.98-1.86,1.48-2.76.26-.48.63-.91.8-1.41.13-.37-.15-1.09.03-1.2,1.33-.81.8-2.46,1.68-3.47.36-.41.64-1.15.53-1.65-.23-1.06.23-1.2,1.43-.94-.4-.51-.66-.71-.72-.95-.11-.46-.22-.97-.11-1.41.13-.54.54-.94.72-1.55.66-2.19,1.44-4.35,1.85-6.62.09-.5.39-.96.51-1.45.17-.69.26-1.4.38-2.1.01,0,.03.02.04.02.26-2,.53-3.99.81-6.1-1.29,1.16-2.67,2.1-2.47,4.06.03.29-.24.65-.44.93-.54.79-1.28,1.49-1.61,2.35-.23.61-.42,1.23-.72,1.84-.61,1.2-1.44,2.41-1.58,3.68-.1.95-.15,1.59-1.02,2.03-.09.05,0,.38-.05.58-.47,1.93,0,4.03-1.06,5.85-.06.1-.1.22-.12.33-.27,1.93-.54,3.87-.8,5.8-.03.25,0,.51,0,.76,0,.8,0,1.6,0,2.4-.09,0-.17.02-.26.02.22.32.45.64.68.97Zm124.65-10.54c.28.94-.9,1.06-1.25,1.38-.45,1.23-.9,2.16-1.12,3.15-.23,1.04-1.34,1.96-.4,3.41.71-1.19,1.54-2.09,2.94-2.04.18-1.25,1.57-1.43,2.05-2.16.76-1.16,1.65-1.3,2.75-1.32.04-2.15.84-3.05,2.65-3.05.3-1.82.31-1.83,2.42-1.17-.19-1.9-.46-3.92,2.36-3.75.13-.41.27-.78.35-1.16.08-.36.1-.74.17-1.28-1.44.19-2.77.12-3.87.58-1.5.63-2.81,1.69-4.24,2.5-.28.16-.72.02-1.24.02.15,1.74-.85,2.58-2.16,2.74-.52.8-.91,1.39-1.42,2.17Zm-51.75,5.79c.72-2.72,2.12-5.03,3.87-6.65.1-.77.02-1.34.26-1.68,1.08-1.55,1.85-3.2,2.07-5.09.03-.27.29-.52.42-.79.15-.31.36-.62.41-.95.15-1.02.22-2.06.36-3.09.28-2.05.29-2.04-1.88-2.55.15.64.17,1.21.42,1.65.55.96.53,1.84-.29,2.57-.54.48-.57.88-.33,1.53.46,1.24.13,1.86-.99,2.56-.28.18-.51.65-.52,1-.04,1.19-.06,2.33-1.32,2.29-.84,3.22-2.24,5.94-4.04,8.46.57.28,1,.49,1.55.76Zm44.05-18.85c-.38.35-.66.51-.81.76-.43.75-.84,1.53-1.2,2.32-.39.85-.71,1.73-1.09,2.59-.22.49-.39,1.06-.75,1.43-.7.72-.99,1.79-.53,2.53.48-.68.94-1.39,1.46-2.06.56-.73,1.22-1.39,1.74-2.14.22-.32.21-.8.33-1.2.2-.64.23-1.54.67-1.84,1.29-.89,1.48-2.32,2.12-3.53.37-.7.62-1.46.92-2.2.12-1.23-.17-2.59,1.28-3.49.11-.07-.06-.58-.12-1.05-.49.62-.79.98-1.06,1.35-.51.71-1.27,1.38-1.43,2.17-.23,1.14-.66,1.9-1.75,2.24.08.29.15.52.23.83-.83-.25-1.4-.23-1.34.8.38.16.73.3,1.3.53Zm-18.8-2.26c-.34.62-.58,1.05-.85,1.54-.43-.39-.72-.65-1.22-1.1v2.72c-.75-.49-1.25-.81-1.88-1.22.15.67.27,1.23.45,2.06-.75-.17-1.39-.31-1.67-.38-1.07,1.02-2.05,1.96-3.08,2.95.37.15,1.02.66,1.44.51.76-.27,1.37-.95,2.07-1.41.24-.16.57-.25.87-.26.92-.03,1.83-.01,2.42-.01,1.12-1.21,1.55-2.46,1.83-3.79.04-.17.21-.35.36-.45,1.09-.68,1.31-1.77,1.54-3.16-.89.83-.7,2.65-2.27,2.02Zm37.77,3.1c1.87-.2,3.42-.37,4.98-.54-.31-1.53-.31-1.51-1.74-1.04-.36.12-.79.02-.97.02-.78.54-1.45,1-2.26,1.57Zm-100.36,10.02c.06.05.12.1.19.15.13-.34.24-.69.38-1.03.13-.32.27-.64.42-.95.16-.35.33-.69.49-1.03-.11-.06-.22-.13-.33-.19-.48.26-.95.52-1.25.68.04.89.07,1.63.1,2.36Zm100.02,2.12c.14.32.29.65.43.97.49-.1.94-.19,1.44-.29-.04-.33-.08-.62-.09-.69h-1.78Z"/>
  <path class="cls-1" d="m34.08,42.43c1.14-.4,2.39-.16,2.93-1.42.03-.08.61-.06.81.09.96.72,1.98.48,3.02.32.34-.05.92.03,1.04.24.57,1.04,1.27,2.1,1.45,3.23.34,2.05-.38,3.5-1.99,5.06.62,1.2.45,1.67-.71,2.35-.35.2-.58.61-.85.93-.61.7-.83,1.8-2,1.98-.09.01-.01.62-.15.88-.29.55-.55,1.24-1.03,1.51-.69.4-1.19.62-1.3,1.61-.08.71-.81,1.42-1.39,2-.9.89-1.92,1.66-3.01,2.59v1.26c-.79-.07-1.54-.13-2.33-.19.04,1.3-.25,2.36-1.83,2.46-.15,0-.37.09-.42.21-.64,1.46-2.28,1.54-3.31,2.42-.47.4-.59,1.22-.78,1.66.19.84.42,1.53.5,2.24.1.83,1.45,2.33,2.15,2.69.43.22.6.95.93,1.51.9-.29,2.12-.45,3.04-1.06.78-.52,1.91-.54,2.41-1.57.09-.18.77-.07.99-.08.69-.66,1.32-1.23,1.92-1.84.64-.65,1.26-1.32,1.85-2.01.57-.67,1.04-1.3,2.08-1.43.59-.07,1.09-.82,1.65-1.28-.47-1.1.12-1.8,1.88-2.11.06-.27.08-.55.19-.79.49-1.14,1.48-1.97,1.37-3.5-.06-.97,1.15-1.76,2.31-1.88,1.33-.15,2.52.26,3.35,1.36.18.24.23.75.1,1.02-.72,1.53-.85,3.42-2.67,4.28-.25.12-.32.58-.5.87-.24.37-.52.72-.78,1.08-.15.21-.26.47-.45.64-.33.31-.69.77-1.08.83-.97.13-1.7.22-1.87,1.5-.08.6-.88,1.12-1.46,1.8.29.94-.13,1.45-1.3,1.92-1.38.55-2.55,1.63-3.8,2.49-.1.07-.13.41-.15.4-2.18-.44-3.32,2.27-5.54,1.82-.34-.07-.79.35-1.22.55-1.53-.41-3.09-1.19-4.87-.65-.31.09-1.05-.17-1.05-.26.02-1.1-.96-1.06-1.54-1.49-.29-.22-.5-.61-.64-.97-.34-.85-.67-1.7-.9-2.58-.29-1.12-.6-2.26-.68-3.41-.05-.61.35-1.26.35-1.86-.03-.42-.07-.83-.09-1.25-.03-.41-.2-.91-.03-1.22.77-1.44,1.09-3.01,1.5-4.56.08-.32.54-.54.83-.81-.48-1.63-.23-2.14,1.39-2.96.2-.1.48-.26.52-.44.21-.92.32-1.87.53-2.79.07-.31.26-.64.5-.84.55-.45,1.16-.82,1.77-1.24-.26-.37-.61-.66-.67-1.01-.06-.33.09-.92.32-1.03,1.86-.9,3.08-2.37,4-4.14.33-.64,1.3-.97.96-1.94-.02-.04.07-.15.13-.19.93-.59,1.81-1.31,2.82-1.72.68-.28,1.11-.44.77-1.26Zm-.02,6.33c-.52.15-1.02.13-1.17.35-1.08,1.52-3.01,2.42-3.34,4.49-.05.33-.05.72-.23.97-.24.35-.6.67-.98.87-.21.11-.56-.06-.69-.08-1.09,1.1-.12,3.04-1.68,3.57-.69,1.91-1.33,3.68-1.94,5.37,1.6.72,2.27-.48,2.77-1.55.39-.83.24-1.95,1.6-1.95.09,0,.19-.13.28-.21,1.18-1.17,2.35-2.35,3.53-3.51.09-.09.29-.15.42-.13,1.2.23,1.16-.7,1.4-1.42.18-.53.32-1.16.69-1.53,1.11-1.1,2.27-2.11,2.3-3.86,0-.3.5-.56.69-.89.55-.94,1.08-1.9,1.57-2.88.05-.1-.11-.37-.24-.47-.37-.27-.78-.49-1.25-.77-1.14.74-1.92,2.76-4.14,2.4.15.45.27.85.39,1.22Z"/>
  <path class="cls-1" d="m89.24,45.86c-.11-.77.25-1.32,1.12-1.56.26-.07.48-.3.74-.38.53-.16,1.28-.54,1.57-.33.46.35.83,1.09.86,1.68.07,1.48-.87,2.5-2.21,2.67-1.43.18-2.1-.46-2.08-2.08Z"/>
  <path class="cls-1" d="m48.55,72.29c.12.11.46.37.75.68.15.16.17.43.3.6.99,1.33.83,2.42-.62,3.24-.35.2-1.18.2-1.35-.03-.63-.83-1.18-1.75-1.54-2.72-.26-.7,1.12-1.76,2.47-1.77Z"/>
  <path class="cls-1" d="m105.62,43.04c.34.1.78.22,1.41.4-.66.98-.72,2.31-2.18,2.39-.37.02-1.05-.25-1.09-.47-.06-.42.12-.98.41-1.31.35-.41.9-.64,1.44-1.01Z"/>
</svg>